0
SECTION
2
HEADER
9
$INSUNITS
70
4
0
ENDSEC
0
SECTION
2
TABLES
0
TABLE
2
LTYPE
0
LTYPE
72
65
70
64
2
CONTINUOUS
3
______
73
0
40
0
0
ENDTAB
0
TABLE
2
LAYER
0
ENDTAB
0
ENDSEC
0
SECTION
2
ENTITIES
0
LINE
8
0
10
-7.1415781
20
-10.1610956
11
68.5692191
21
-3.5372591
0
LINE
8
0
10
-15.0605578
20
57.4058326
11
-9.3082789
21
-8.3430176
0
LINE
8
0
10
-13.2424798
20
59.5725334
11
20.6281397
21
62.5358287
0
LINE
8
0
10
19.2336479
20
78.4749439
11
20.6281397
21
62.5358287
0
LINE
8
0
10
21.0517259
20
80.6416447
11
90.7853548
21
86.7425466
0
LINE
8
0
10
97.2662648
20
35.6128311
11
99.4486728
21
10.6677922
0
LINE
8
0
10
97.2226869
20
36.1109284
11
97.2662648
21
35.6128311
0
LINE
8
0
10
95.7846172
20
52.548141
11
97.2226869
21
36.1109284
0
LINE
8
0
10
95.7410393
20
53.0462383
11
95.7846172
21
52.548141
0
LINE
8
0
10
94.3029696
20
69.4834509
11
95.7410393
21
53.0462383
0
LINE
8
0
10
94.2593917
20
69.9815482
11
94.3029696
21
69.4834509
0
LINE
8
0
10
92.9520556
20
84.9244686
11
94.2593917
21
69.9815482
0
LINE
8
0
10
73.3383994
20
-12.1543885
11
90.1948183
21
-10.6796429
0
LINE
8
0
10
70.7359199
20
-5.3553371
11
71.1716986
21
-10.3363105
0
LINE
8
0
10
90.1948183
20
-10.6796429
11
112.4855442
21
-15.8258625
0
LINE
8
0
10
100.9911603
20
8.8933635
11
118.3389852
21
4.8883025
0
LINE
8
0
10
118.3389852
20
4.8883025
11
118.2808266
21
4.63639
0
LINE
8
0
10
112.4855442
20
-15.8258625
11
129.0143648
21
-22.8419306
0
LINE
8
0
10
131.6368367
20
-21.782383
11
138.318339
21
-6.0417501
0
LINE
8
0
10
118.2808266
20
4.63639
11
137.2587915
21
-3.4192781
0
ARC
8
0
10
68.7435305
20
-5.5296485
40
2
50
4.9999976
51
94.9999976
0
ARC
8
0
10
73.164088
20
-10.1619991
40
2
50
184.9999976
51
274.9999976
0
ARC
8
0
10
129.7958269
20
-21.0009208
40
2
50
247.0000025
51
337.0000025
0
ARC
8
0
10
136.4773293
20
-5.2602879
40
2
50
337.0000025
51
67.0000025
0
ARC
8
0
10
101.4410622
20
10.8421036
40
2
50
184.9999976
51
257.0000035
0
ARC
8
0
10
90.9596662
20
84.7501572
40
2
50
4.9999976
51
94.9999976
0
ARC
8
0
10
21.2260373
20
78.6492553
40
2
50
94.9999976
51
184.9999976
0
ARC
8
0
10
-13.0681684
20
57.580144
40
2
50
94.9999976
51
184.9999976
0
ARC
8
0
10
-7.3158895
20
-8.1687062
40
2
50
184.9999976
51
274.9999976
0
LINE
8
0
10
-6.3632727
20
-7.5834531
11
7.5834531
21
-6.3632727
0
LINE
8
0
10
7.5834531
20
-6.3632727
11
6.3632727
21
7.5834531
0
LINE
8
0
10
6.3632727
20
7.5834531
11
-7.5834531
21
6.3632727
0
LINE
8
0
10
-7.5834531
20
6.3632727
11
-6.3632727
21
-7.5834531
0
LINE
8
0
10
-7.8449203
20
9.3518568
11
6.1018055
21
10.5720372
0
LINE
8
0
10
6.1018055
20
10.5720372
11
4.8816251
21
24.518763
0
LINE
8
0
10
4.8816251
20
24.518763
11
-9.0651007
21
23.2985826
0
LINE
8
0
10
-9.0651007
20
23.2985826
11
-7.8449203
21
9.3518568
0
LINE
8
0
10
-9.3265679
20
26.2871667
11
4.6201579
21
27.5073471
0
LINE
8
0
10
4.6201579
20
27.5073471
11
3.3999775
21
41.4540729
0
LINE
8
0
10
3.3999775
20
41.4540729
11
-10.5467483
21
40.2338925
0
LINE
8
0
10
-10.5467483
20
40.2338925
11
-9.3265679
21
26.2871667
0
LINE
8
0
10
-10.8082155
20
43.2224766
11
3.1385103
21
44.442657
0
LINE
8
0
10
3.1385103
20
44.442657
11
1.9183299
21
58.3893828
0
LINE
8
0
10
1.9183299
20
58.3893828
11
-12.0283959
21
57.1692024
0
LINE
8
0
10
-12.0283959
20
57.1692024
11
-10.8082155
21
43.2224766
0
LINE
8
0
10
11.5682319
20
-6.0146497
11
25.5149577
21
-4.7944693
0
LINE
8
0
10
25.5149577
20
-4.7944693
11
24.2947773
21
9.1522565
0
LINE
8
0
10
24.2947773
20
9.1522565
11
10.3480515
21
7.9320761
0
LINE
8
0
10
10.3480515
20
7.9320761
11
11.5682319
21
-6.0146497
0
LINE
8
0
10
10.0865843
20
10.9206602
11
24.0333101
21
12.1408406
0
LINE
8
0
10
24.0333101
20
12.1408406
11
22.8131297
21
26.0875664
0
LINE
8
0
10
22.8131297
20
26.0875664
11
8.8664039
21
24.867386
0
LINE
8
0
10
8.8664039
20
24.867386
11
10.0865843
21
10.9206602
0
LINE
8
0
10
8.6049367
20
27.8559701
11
22.5516625
21
29.0761505
0
LINE
8
0
10
22.5516625
20
29.0761505
11
21.3314821
21
43.0228763
0
LINE
8
0
10
21.3314821
20
43.0228763
11
7.3847563
21
41.8026959
0
LINE
8
0
10
7.3847563
20
41.8026959
11
8.6049367
21
27.8559701
0
LINE
8
0
10
7.1232891
20
44.79128
11
21.0700149
21
46.0114604
0
LINE
8
0
10
21.0700149
20
46.0114604
11
19.8498345
21
59.9581862
0
LINE
8
0
10
19.8498345
20
59.9581862
11
5.9031087
21
58.7380058
0
LINE
8
0
10
5.9031087
20
58.7380058
11
7.1232891
21
44.79128
0
LINE
8
0
10
28.4538675
20
7.50849
11
42.4005933
21
8.7286704
0
LINE
8
0
10
42.4005933
20
8.7286704
11
41.1804129
21
22.6753962
0
LINE
8
0
10
41.1804129
20
22.6753962
11
27.2336871
21
21.4552158
0
LINE
8
0
10
27.2336871
20
21.4552158
11
28.4538675
21
7.50849
0
LINE
8
0
10
26.9722199
20
24.4437999
11
40.9189457
21
25.6639803
0
LINE
8
0
10
40.9189457
20
25.6639803
11
39.6987653
21
39.6107061
0
LINE
8
0
10
39.6987653
20
39.6107061
11
25.7520395
21
38.3905257
0
LINE
8
0
10
25.7520395
20
38.3905257
11
26.9722199
21
24.4437999
0
LINE
8
0
10
25.4905723
20
41.3791098
11
39.4372981
21
42.5992902
0
LINE
8
0
10
39.4372981
20
42.5992902
11
38.2171177
21
56.546016
0
LINE
8
0
10
38.2171177
20
56.546016
11
24.2703919
21
55.3258356
0
LINE
8
0
10
24.2703919
20
55.3258356
11
25.4905723
21
41.3791098
0
LINE
8
0
10
24.0089247
20
58.3144197
11
37.9556505
21
59.5346001
0
LINE
8
0
10
37.9556505
20
59.5346001
11
36.7354701
21
73.4813259
0
LINE
8
0
10
36.7354701
20
73.4813259
11
22.7887443
21
72.2611455
0
LINE
8
0
10
22.7887443
20
72.2611455
11
24.0089247
21
58.3144197
0
LINE
8
0
10
45.8624376
20
15.0544616
11
59.8091634
21
16.274642
0
LINE
8
0
10
59.8091634
20
16.274642
11
58.588983
21
30.2213678
0
LINE
8
0
10
58.588983
20
30.2213678
11
44.6422572
21
29.0011874
0
LINE
8
0
10
44.6422572
20
29.0011874
11
45.8624376
21
15.0544616
0
LINE
8
0
10
44.38079
20
31.9897715
11
58.3275158
21
33.2099519
0
LINE
8
0
10
58.3275158
20
33.2099519
11
57.1073354
21
47.1566777
0
LINE
8
0
10
57.1073354
20
47.1566777
11
43.1606096
21
45.9364973
0
LINE
8
0
10
43.1606096
20
45.9364973
11
44.38079
21
31.9897715
0
LINE
8
0
10
42.8991424
20
48.9250814
11
56.8458682
21
50.1452618
0
LINE
8
0
10
56.8458682
20
50.1452618
11
55.6256878
21
64.0919876
0
LINE
8
0
10
55.6256878
20
64.0919876
11
41.678962
21
62.8718072
0
LINE
8
0
10
41.678962
20
62.8718072
11
42.8991424
21
48.9250814
0
LINE
8
0
10
41.4174948
20
65.8603913
11
55.3642206
21
67.0805717
0
LINE
8
0
10
55.3642206
20
67.0805717
11
54.1440402
21
81.0272975
0
LINE
8
0
10
54.1440402
20
81.0272975
11
40.1973144
21
79.8071171
0
LINE
8
0
10
40.1973144
20
79.8071171
11
41.4174948
21
65.8603913
0
LINE
8
0
10
64.3168766
20
10.6460968
11
78.2636024
21
11.8662772
0
LINE
8
0
10
78.2636024
20
11.8662772
11
77.043422
21
25.813003
0
LINE
8
0
10
77.043422
20
25.813003
11
63.0966962
21
24.5928226
0
LINE
8
0
10
63.0966962
20
24.5928226
11
64.3168766
21
10.6460968
0
LINE
8
0
10
62.835229
20
27.5814067
11
76.7819548
21
28.8015871
0
LINE
8
0
10
76.7819548
20
28.8015871
11
75.5617744
21
42.7483129
0
LINE
8
0
10
75.5617744
20
42.7483129
11
61.6150486
21
41.5281325
0
LINE
8
0
10
61.6150486
20
41.5281325
11
62.835229
21
27.5814067
0
LINE
8
0
10
61.3535814
20
44.5167166
11
75.3003072
21
45.736897
0
LINE
8
0
10
75.3003072
20
45.736897
11
74.0801268
21
59.6836228
0
LINE
8
0
10
74.0801268
20
59.6836228
11
60.133401
21
58.4634424
0
LINE
8
0
10
60.133401
20
58.4634424
11
61.3535814
21
44.5167166
0
LINE
8
0
10
59.8719338
20
61.4520265
11
73.8186596
21
62.6722069
0
LINE
8
0
10
73.8186596
20
62.6722069
11
72.5984792
21
76.6189327
0
LINE
8
0
10
72.5984792
20
76.6189327
11
58.6517534
21
75.3987523
0
LINE
8
0
10
58.6517534
20
75.3987523
11
59.8719338
21
61.4520265
0
LINE
8
0
10
82.4226927
20
10.2225107
11
96.3694185
21
11.4426911
0
LINE
8
0
10
96.3694185
20
11.4426911
11
95.1492381
21
25.3894169
0
LINE
8
0
10
95.1492381
20
25.3894169
11
81.2025123
21
24.1692365
0
LINE
8
0
10
81.2025123
20
24.1692365
11
82.4226927
21
10.2225107
0
LINE
8
0
10
80.9410451
20
27.1578206
11
94.8877709
21
28.378001
0
LINE
8
0
10
94.8877709
20
28.378001
11
93.6675905
21
42.3247268
0
LINE
8
0
10
93.6675905
20
42.3247268
11
79.7208647
21
41.1045464
0
LINE
8
0
10
79.7208647
20
41.1045464
11
80.9410451
21
27.1578206
0
LINE
8
0
10
79.4593975
20
44.0931305
11
93.4061233
21
45.3133109
0
LINE
8
0
10
93.4061233
20
45.3133109
11
92.1859429
21
59.2600367
0
LINE
8
0
10
92.1859429
20
59.2600367
11
78.2392171
21
58.0398563
0
LINE
8
0
10
78.2392171
20
58.0398563
11
79.4593975
21
44.0931305
0
LINE
8
0
10
77.9777499
20
61.0284404
11
91.9244757
21
62.2486208
0
LINE
8
0
10
91.9244757
20
62.2486208
11
90.7042953
21
76.1953466
0
LINE
8
0
10
90.7042953
20
76.1953466
11
76.7575695
21
74.9751662
0
LINE
8
0
10
76.7575695
20
74.9751662
11
77.9777499
21
61.0284404
0
LINE
8
0
10
74.1167048
20
-9.576746
11
88.0634306
21
-8.3565656
0
LINE
8
0
10
88.0634306
20
-8.3565656
11
86.8432502
21
5.5901602
0
LINE
8
0
10
86.8432502
20
5.5901602
11
72.8965244
21
4.3699798
0
LINE
8
0
10
72.8965244
20
4.3699798
11
74.1167048
21
-9.576746
0
LINE
8
0
10
95.551884
20
-9.3506587
11
109.1930649
21
-12.4999734
0
LINE
8
0
10
109.1930649
20
-12.4999734
11
112.3423796
21
1.1412075
0
LINE
8
0
10
112.3423796
20
1.1412075
11
98.7011987
21
4.2905222
0
LINE
8
0
10
98.7011987
20
4.2905222
11
95.551884
21
-9.3506587
0
LINE
8
0
10
116.1836197
20
-14.6797015
11
129.0706877
21
-20.1499373
0
LINE
8
0
10
129.0706877
20
-20.1499373
11
134.5409235
21
-7.2628693
0
LINE
8
0
10
134.5409235
20
-7.2628693
11
121.6538555
21
-1.7926335
0
LINE
8
0
10
121.6538555
20
-1.7926335
11
116.1836197
21
-14.6797015
0
ENDSEC
0
EOF