0
SECTION
2
HEADER
9
$INSUNITS
70
4
0
ENDSEC
0
SECTION
2
TABLES
0
TABLE
2
LTYPE
0
LTYPE
72
65
70
64
2
CONTINUOUS
3
______
73
0
40
0
0
ENDTAB
0
TABLE
2
LAYER
0
ENDTAB
0
ENDSEC
0
SECTION
2
ENTITIES
0
LINE
8
0
10
92
20
-159.5
11
150
21
-159.5
0
LINE
8
0
10
90
20
-157.5
11
90
21
-140.5
0
LINE
8
0
10
90
20
-102.5
11
90
21
-91.5
0
LINE
8
0
10
92
20
-89.5
11
108
21
-89.5
0
LINE
8
0
10
108
20
-89.5
11
108
21
-73.5
0
LINE
8
0
10
110
20
-71.5
11
180
21
-71.5
0
LINE
8
0
10
182
20
-148.040325
11
182
21
-73.5
0
LINE
8
0
10
74
20
-140.5
11
90
21
-140.5
0
LINE
8
0
10
72
20
-138.5
11
72
21
-106.5
0
LINE
8
0
10
88
20
-104.5
11
74
21
-104.5
0
LINE
8
0
10
154
20
-168.5
11
170.9208076
21
-168.5
0
LINE
8
0
10
152
20
-161.5
11
152
21
-166.5
0
LINE
8
0
10
170.9208076
20
-168.5
11
192.6781879
21
-175.5694013
0
LINE
8
0
10
183.381966
20
-149.942438
11
200.3147132
21
-155.444221
0
LINE
8
0
10
200.3147132
20
-155.444221
11
200.2348203
21
-155.690106
0
LINE
8
0
10
192.6781879
20
-175.5694013
11
208.5326208
21
-183.9993528
0
LINE
8
0
10
211.2374591
20
-183.1724008
11
219.2654228
21
-168.073997
0
LINE
8
0
10
200.2348203
20
-155.690106
11
218.4384708
21
-165.3691587
0
ARC
8
0
10
150
20
-161.5
40
2
50
0
51
90
0
ARC
8
0
10
154
20
-166.5
40
2
50
180
51
270
0
ARC
8
0
10
209.4715639
20
-182.2334577
40
2
50
241.9999983
51
331.9999983
0
ARC
8
0
10
217.4995276
20
-167.1350538
40
2
50
331.9999983
51
61.9999983
0
ARC
8
0
10
184
20
-148.040325
40
2
50
180
51
251.9999994
0
ARC
8
0
10
180
20
-73.5
40
2
50
0
51
90
0
ARC
8
0
10
110
20
-73.5
40
2
50
90
51
180
0
ARC
8
0
10
92
20
-91.5
40
2
50
90
51
180
0
ARC
8
0
10
88
20
-102.5
40
2
50
270
51
0
0
ARC
8
0
10
74
20
-106.5
40
2
50
90
51
180
0
ARC
8
0
10
74
20
-138.5
40
2
50
180
51
270
0
ARC
8
0
10
92
20
-157.5
40
2
50
180
51
270
0
LINE
8
0
10
93
20
-157
11
107
21
-157
0
LINE
8
0
10
107
20
-157
11
107
21
-143
0
LINE
8
0
10
107
20
-143
11
93
21
-143
0
LINE
8
0
10
93
20
-143
11
93
21
-157
0
LINE
8
0
10
93
20
-140
11
107
21
-140
0
LINE
8
0
10
107
20
-140
11
107
21
-126
0
LINE
8
0
10
107
20
-126
11
93
21
-126
0
LINE
8
0
10
93
20
-126
11
93
21
-140
0
LINE
8
0
10
93
20
-123
11
107
21
-123
0
LINE
8
0
10
107
20
-123
11
107
21
-109
0
LINE
8
0
10
107
20
-109
11
93
21
-109
0
LINE
8
0
10
93
20
-109
11
93
21
-123
0
LINE
8
0
10
93
20
-106
11
107
21
-106
0
LINE
8
0
10
107
20
-106
11
107
21
-92
0
LINE
8
0
10
107
20
-92
11
93
21
-92
0
LINE
8
0
10
93
20
-92
11
93
21
-106
0
LINE
8
0
10
111
20
-145
11
125
21
-145
0
LINE
8
0
10
125
20
-145
11
125
21
-131
0
LINE
8
0
10
125
20
-131
11
111
21
-131
0
LINE
8
0
10
111
20
-131
11
111
21
-145
0
LINE
8
0
10
111
20
-128
11
125
21
-128
0
LINE
8
0
10
125
20
-128
11
125
21
-114
0
LINE
8
0
10
125
20
-114
11
111
21
-114
0
LINE
8
0
10
111
20
-114
11
111
21
-128
0
LINE
8
0
10
111
20
-111
11
125
21
-111
0
LINE
8
0
10
125
20
-111
11
125
21
-97
0
LINE
8
0
10
125
20
-97
11
111
21
-97
0
LINE
8
0
10
111
20
-97
11
111
21
-111
0
LINE
8
0
10
111
20
-94
11
125
21
-94
0
LINE
8
0
10
125
20
-94
11
125
21
-80
0
LINE
8
0
10
125
20
-80
11
111
21
-80
0
LINE
8
0
10
111
20
-80
11
111
21
-94
0
LINE
8
0
10
129
20
-139
11
143
21
-139
0
LINE
8
0
10
143
20
-139
11
143
21
-125
0
LINE
8
0
10
143
20
-125
11
129
21
-125
0
LINE
8
0
10
129
20
-125
11
129
21
-139
0
LINE
8
0
10
129
20
-122
11
143
21
-122
0
LINE
8
0
10
143
20
-122
11
143
21
-108
0
LINE
8
0
10
143
20
-108
11
129
21
-108
0
LINE
8
0
10
129
20
-108
11
129
21
-122
0
LINE
8
0
10
129
20
-105
11
143
21
-105
0
LINE
8
0
10
143
20
-105
11
143
21
-91
0
LINE
8
0
10
143
20
-91
11
129
21
-91
0
LINE
8
0
10
129
20
-91
11
129
21
-105
0
LINE
8
0
10
129
20
-88
11
143
21
-88
0
LINE
8
0
10
143
20
-88
11
143
21
-74
0
LINE
8
0
10
143
20
-74
11
129
21
-74
0
LINE
8
0
10
129
20
-74
11
129
21
-88
0
LINE
8
0
10
147
20
-145
11
161
21
-145
0
LINE
8
0
10
161
20
-145
11
161
21
-131
0
LINE
8
0
10
161
20
-131
11
147
21
-131
0
LINE
8
0
10
147
20
-131
11
147
21
-145
0
LINE
8
0
10
147
20
-128
11
161
21
-128
0
LINE
8
0
10
161
20
-128
11
161
21
-114
0
LINE
8
0
10
161
20
-114
11
147
21
-114
0
LINE
8
0
10
147
20
-114
11
147
21
-128
0
LINE
8
0
10
147
20
-111
11
161
21
-111
0
LINE
8
0
10
161
20
-111
11
161
21
-97
0
LINE
8
0
10
161
20
-97
11
147
21
-97
0
LINE
8
0
10
147
20
-97
11
147
21
-111
0
LINE
8
0
10
147
20
-94
11
161
21
-94
0
LINE
8
0
10
161
20
-94
11
161
21
-80
0
LINE
8
0
10
161
20
-80
11
147
21
-80
0
LINE
8
0
10
147
20
-80
11
147
21
-94
0
LINE
8
0
10
165
20
-147
11
179
21
-147
0
LINE
8
0
10
179
20
-147
11
179
21
-133
0
LINE
8
0
10
179
20
-133
11
165
21
-133
0
LINE
8
0
10
165
20
-133
11
165
21
-147
0
LINE
8
0
10
165
20
-130
11
179
21
-130
0
LINE
8
0
10
179
20
-130
11
179
21
-116
0
LINE
8
0
10
179
20
-116
11
165
21
-116
0
LINE
8
0
10
165
20
-116
11
165
21
-130
0
LINE
8
0
10
165
20
-113
11
179
21
-113
0
LINE
8
0
10
179
20
-113
11
179
21
-99
0
LINE
8
0
10
179
20
-99
11
165
21
-99
0
LINE
8
0
10
165
20
-99
11
165
21
-113
0
LINE
8
0
10
165
20
-96
11
179
21
-96
0
LINE
8
0
10
179
20
-96
11
179
21
-82
0
LINE
8
0
10
179
20
-82
11
165
21
-82
0
LINE
8
0
10
165
20
-82
11
165
21
-96
0
LINE
8
0
10
75
20
-138
11
89
21
-138
0
LINE
8
0
10
89
20
-138
11
89
21
-124
0
LINE
8
0
10
89
20
-124
11
75
21
-124
0
LINE
8
0
10
75
20
-124
11
75
21
-138
0
LINE
8
0
10
75
20
-121
11
89
21
-121
0
LINE
8
0
10
89
20
-121
11
89
21
-107
0
LINE
8
0
10
89
20
-107
11
75
21
-107
0
LINE
8
0
10
75
20
-107
11
75
21
-121
0
LINE
8
0
10
155
20
-166
11
169
21
-166
0
LINE
8
0
10
169
20
-166
11
169
21
-152
0
LINE
8
0
10
169
20
-152
11
155
21
-152
0
LINE
8
0
10
155
20
-152
11
155
21
-166
0
LINE
8
0
10
176.3733165
20
-167.642972
11
189.6881078
21
-171.9692099
0
LINE
8
0
10
189.6881078
20
-171.9692099
11
194.0143457
21
-158.6544186
0
LINE
8
0
10
194.0143457
20
-158.6544186
11
180.6995544
21
-154.3281807
0
LINE
8
0
10
180.6995544
20
-154.3281807
11
176.3733165
21
-167.642972
0
LINE
8
0
10
196.4620858
20
-174.7499104
11
208.8233521
21
-181.3225123
0
LINE
8
0
10
208.8233521
20
-181.3225123
11
215.395954
21
-168.961246
0
LINE
8
0
10
215.395954
20
-168.961246
11
203.0346877
21
-162.3886441
0
LINE
8
0
10
203.0346877
20
-162.3886441
11
196.4620858
21
-174.7499104
0
ENDSEC
0
EOF