0
SECTION
2
HEADER
9
$INSUNITS
70
4
0
ENDSEC
0
SECTION
2
TABLES
0
TABLE
2
LTYPE
0
LTYPE
72
65
70
64
2
CONTINUOUS
3
______
73
0
40
0
0
ENDTAB
0
TABLE
2
LAYER
0
ENDTAB
0
ENDSEC
0
SECTION
2
ENTITIES
0
LINE
8
0
10
92
20
-159.5
11
150
21
-159.5
0
LINE
8
0
10
90
20
-157.5
11
90
21
-140.5
0
LINE
8
0
10
90
20
-102.5
11
90
21
-91.5
0
LINE
8
0
10
92
20
-89.5
11
108
21
-89.5
0
LINE
8
0
10
108
20
-89.5
11
108
21
-73.5
0
LINE
8
0
10
110
20
-71.5
11
180
21
-71.5
0
LINE
8
0
10
182
20
-148.040325
11
182
21
-73.5
0
LINE
8
0
10
74
20
-140.5
11
90
21
-140.5
0
LINE
8
0
10
72
20
-138.5
11
72
21
-106.5
0
LINE
8
0
10
88
20
-104.5
11
74
21
-104.5
0
LINE
8
0
10
154
20
-168.5
11
170.9208076
21
-168.5
0
LINE
8
0
10
152
20
-161.5
11
152
21
-166.5
0
LINE
8
0
10
170.9208076
20
-168.5
11
192.6781879
21
-175.5694013
0
LINE
8
0
10
183.381966
20
-149.942438
11
200.3147132
21
-155.444221
0
LINE
8
0
10
200.3147132
20
-155.444221
11
200.2348203
21
-155.690106
0
LINE
8
0
10
192.6781879
20
-175.5694013
11
208.5326208
21
-183.9993528
0
LINE
8
0
10
211.2374591
20
-183.1724008
11
219.2654228
21
-168.073997
0
LINE
8
0
10
200.2348203
20
-155.690106
11
218.4384708
21
-165.3691587
0
ARC
8
0
10
150
20
-161.5
40
2
50
0
51
90
0
ARC
8
0
10
154
20
-166.5
40
2
50
180
51
270
0
ARC
8
0
10
209.4715639
20
-182.2334577
40
2
50
241.9999983
51
331.9999983
0
ARC
8
0
10
217.4995276
20
-167.1350538
40
2
50
331.9999983
51
61.9999983
0
ARC
8
0
10
184
20
-148.040325
40
2
50
180
51
251.9999994
0
ARC
8
0
10
180
20
-73.5
40
2
50
0
51
90
0
ARC
8
0
10
110
20
-73.5
40
2
50
90
51
180
0
ARC
8
0
10
92
20
-91.5
40
2
50
90
51
180
0
ARC
8
0
10
88
20
-102.5
40
2
50
270
51
0
0
ARC
8
0
10
74
20
-106.5
40
2
50
90
51
180
0
ARC
8
0
10
74
20
-138.5
40
2
50
180
51
270
0
ARC
8
0
10
92
20
-157.5
40
2
50
180
51
270
0
ENDSEC
0
EOF