%TF.GenerationSoftware,KiCad,Pcbnew,9.0.6*%
%TF.CreationDate,2025-11-05T17:55:23+01:00*%
%TF.ProjectId,main_pcb,6d61696e-5f70-4636-922e-6b696361645f,v1.0.0*%
%TF.SameCoordinates,Original*%
%TF.FileFunction,Legend,Bot*%
%TF.FilePolarity,Positive*%
%FSLAX46Y46*%
G04 Gerber Fmt 4.6, Leading zero omitted, Abs format (unit mm)*
G04 Created by KiCad (PCBNEW 9.0.6) date 2025-11-05 17:55:23*
%MOMM*%
%LPD*%
G01*
G04 APERTURE LIST*
%ADD10C,0.150000*%
%ADD11C,0.120000*%
%ADD12C,0.100000*%
G04 APERTURE END LIST*
D10*
X175788152Y-87428571D02*
X176788152Y-87428571D01*
X175835771Y-87428571D02*
X175788152Y-87523809D01*
X175788152Y-87523809D02*
X175788152Y-87714285D01*
X175788152Y-87714285D02*
X175835771Y-87809523D01*
X175835771Y-87809523D02*
X175883390Y-87857142D01*
X175883390Y-87857142D02*
X175978628Y-87904761D01*
X175978628Y-87904761D02*
X176264342Y-87904761D01*
X176264342Y-87904761D02*
X176359580Y-87857142D01*
X176359580Y-87857142D02*
X176407200Y-87809523D01*
X176407200Y-87809523D02*
X176454819Y-87714285D01*
X176454819Y-87714285D02*
X176454819Y-87523809D01*
X176454819Y-87523809D02*
X176407200Y-87428571D01*
X176454819Y-88333333D02*
X175788152Y-88333333D01*
X175978628Y-88333333D02*
X175883390Y-88380952D01*
X175883390Y-88380952D02*
X175835771Y-88428571D01*
X175835771Y-88428571D02*
X175788152Y-88523809D01*
X175788152Y-88523809D02*
X175788152Y-88619047D01*
X176454819Y-89095238D02*
X176407200Y-89000000D01*
X176407200Y-89000000D02*
X176359580Y-88952381D01*
X176359580Y-88952381D02*
X176264342Y-88904762D01*
X176264342Y-88904762D02*
X175978628Y-88904762D01*
X175978628Y-88904762D02*
X175883390Y-88952381D01*
X175883390Y-88952381D02*
X175835771Y-89000000D01*
X175835771Y-89000000D02*
X175788152Y-89095238D01*
X175788152Y-89095238D02*
X175788152Y-89238095D01*
X175788152Y-89238095D02*
X175835771Y-89333333D01*
X175835771Y-89333333D02*
X175883390Y-89380952D01*
X175883390Y-89380952D02*
X175978628Y-89428571D01*
X175978628Y-89428571D02*
X176264342Y-89428571D01*
X176264342Y-89428571D02*
X176359580Y-89380952D01*
X176359580Y-89380952D02*
X176407200Y-89333333D01*
X176407200Y-89333333D02*
X176454819Y-89238095D01*
X176454819Y-89238095D02*
X176454819Y-89095238D01*
X176454819Y-89857143D02*
X175788152Y-89857143D01*
X175883390Y-89857143D02*
X175835771Y-89904762D01*
X175835771Y-89904762D02*
X175788152Y-90000000D01*
X175788152Y-90000000D02*
X175788152Y-90142857D01*
X175788152Y-90142857D02*
X175835771Y-90238095D01*
X175835771Y-90238095D02*
X175931009Y-90285714D01*
X175931009Y-90285714D02*
X176454819Y-90285714D01*
X175931009Y-90285714D02*
X175835771Y-90333333D01*
X175835771Y-90333333D02*
X175788152Y-90428571D01*
X175788152Y-90428571D02*
X175788152Y-90571428D01*
X175788152Y-90571428D02*
X175835771Y-90666667D01*
X175835771Y-90666667D02*
X175931009Y-90714286D01*
X175931009Y-90714286D02*
X176454819Y-90714286D01*
X176454819Y-91190476D02*
X175788152Y-91190476D01*
X175454819Y-91190476D02*
X175502438Y-91142857D01*
X175502438Y-91142857D02*
X175550057Y-91190476D01*
X175550057Y-91190476D02*
X175502438Y-91238095D01*
X175502438Y-91238095D02*
X175454819Y-91190476D01*
X175454819Y-91190476D02*
X175550057Y-91190476D01*
X176407200Y-92095237D02*
X176454819Y-91999999D01*
X176454819Y-91999999D02*
X176454819Y-91809523D01*
X176454819Y-91809523D02*
X176407200Y-91714285D01*
X176407200Y-91714285D02*
X176359580Y-91666666D01*
X176359580Y-91666666D02*
X176264342Y-91619047D01*
X176264342Y-91619047D02*
X175978628Y-91619047D01*
X175978628Y-91619047D02*
X175883390Y-91666666D01*
X175883390Y-91666666D02*
X175835771Y-91714285D01*
X175835771Y-91714285D02*
X175788152Y-91809523D01*
X175788152Y-91809523D02*
X175788152Y-91999999D01*
X175788152Y-91999999D02*
X175835771Y-92095237D01*
X176454819Y-92523809D02*
X175788152Y-92523809D01*
X175978628Y-92523809D02*
X175883390Y-92571428D01*
X175883390Y-92571428D02*
X175835771Y-92619047D01*
X175835771Y-92619047D02*
X175788152Y-92714285D01*
X175788152Y-92714285D02*
X175788152Y-92809523D01*
X176454819Y-93285714D02*
X176407200Y-93190476D01*
X176407200Y-93190476D02*
X176359580Y-93142857D01*
X176359580Y-93142857D02*
X176264342Y-93095238D01*
X176264342Y-93095238D02*
X175978628Y-93095238D01*
X175978628Y-93095238D02*
X175883390Y-93142857D01*
X175883390Y-93142857D02*
X175835771Y-93190476D01*
X175835771Y-93190476D02*
X175788152Y-93285714D01*
X175788152Y-93285714D02*
X175788152Y-93428571D01*
X175788152Y-93428571D02*
X175835771Y-93523809D01*
X175835771Y-93523809D02*
X175883390Y-93571428D01*
X175883390Y-93571428D02*
X175978628Y-93619047D01*
X175978628Y-93619047D02*
X176264342Y-93619047D01*
X176264342Y-93619047D02*
X176359580Y-93571428D01*
X176359580Y-93571428D02*
X176407200Y-93523809D01*
X176407200Y-93523809D02*
X176454819Y-93428571D01*
X176454819Y-93428571D02*
X176454819Y-93285714D01*
X137454819Y-82452380D02*
X137454819Y-81976190D01*
X137454819Y-81976190D02*
X136454819Y-81976190D01*
X137359580Y-82785714D02*
X137407200Y-82833333D01*
X137407200Y-82833333D02*
X137454819Y-82785714D01*
X137454819Y-82785714D02*
X137407200Y-82738095D01*
X137407200Y-82738095D02*
X137359580Y-82785714D01*
X137359580Y-82785714D02*
X137454819Y-82785714D01*
X137407200Y-83976190D02*
X137454819Y-84119047D01*
X137454819Y-84119047D02*
X137454819Y-84357142D01*
X137454819Y-84357142D02*
X137407200Y-84452380D01*
X137407200Y-84452380D02*
X137359580Y-84499999D01*
X137359580Y-84499999D02*
X137264342Y-84547618D01*
X137264342Y-84547618D02*
X137169104Y-84547618D01*
X137169104Y-84547618D02*
X137073866Y-84499999D01*
X137073866Y-84499999D02*
X137026247Y-84452380D01*
X137026247Y-84452380D02*
X136978628Y-84357142D01*
X136978628Y-84357142D02*
X136931009Y-84166666D01*
X136931009Y-84166666D02*
X136883390Y-84071428D01*
X136883390Y-84071428D02*
X136835771Y-84023809D01*
X136835771Y-84023809D02*
X136740533Y-83976190D01*
X136740533Y-83976190D02*
X136645295Y-83976190D01*
X136645295Y-83976190D02*
X136550057Y-84023809D01*
X136550057Y-84023809D02*
X136502438Y-84071428D01*
X136502438Y-84071428D02*
X136454819Y-84166666D01*
X136454819Y-84166666D02*
X136454819Y-84404761D01*
X136454819Y-84404761D02*
X136502438Y-84547618D01*
X137454819Y-84976190D02*
X136788152Y-84976190D01*
X136454819Y-84976190D02*
X136502438Y-84928571D01*
X136502438Y-84928571D02*
X136550057Y-84976190D01*
X136550057Y-84976190D02*
X136502438Y-85023809D01*
X136502438Y-85023809D02*
X136454819Y-84976190D01*
X136454819Y-84976190D02*
X136550057Y-84976190D01*
X137454819Y-85880951D02*
X136454819Y-85880951D01*
X137407200Y-85880951D02*
X137454819Y-85785713D01*
X137454819Y-85785713D02*
X137454819Y-85595237D01*
X137454819Y-85595237D02*
X137407200Y-85499999D01*
X137407200Y-85499999D02*
X137359580Y-85452380D01*
X137359580Y-85452380D02*
X137264342Y-85404761D01*
X137264342Y-85404761D02*
X136978628Y-85404761D01*
X136978628Y-85404761D02*
X136883390Y-85452380D01*
X136883390Y-85452380D02*
X136835771Y-85499999D01*
X136835771Y-85499999D02*
X136788152Y-85595237D01*
X136788152Y-85595237D02*
X136788152Y-85785713D01*
X136788152Y-85785713D02*
X136835771Y-85880951D01*
X137407200Y-86738094D02*
X137454819Y-86642856D01*
X137454819Y-86642856D02*
X137454819Y-86452380D01*
X137454819Y-86452380D02*
X137407200Y-86357142D01*
X137407200Y-86357142D02*
X137311961Y-86309523D01*
X137311961Y-86309523D02*
X136931009Y-86309523D01*
X136931009Y-86309523D02*
X136835771Y-86357142D01*
X136835771Y-86357142D02*
X136788152Y-86452380D01*
X136788152Y-86452380D02*
X136788152Y-86642856D01*
X136788152Y-86642856D02*
X136835771Y-86738094D01*
X136835771Y-86738094D02*
X136931009Y-86785713D01*
X136931009Y-86785713D02*
X137026247Y-86785713D01*
X137026247Y-86785713D02*
X137121485Y-86309523D01*
X137073866Y-87976190D02*
X137073866Y-88738095D01*
X136454819Y-90261904D02*
X137169104Y-90261904D01*
X137169104Y-90261904D02*
X137311961Y-90214285D01*
X137311961Y-90214285D02*
X137407200Y-90119047D01*
X137407200Y-90119047D02*
X137454819Y-89976190D01*
X137454819Y-89976190D02*
X137454819Y-89880952D01*
X136788152Y-91166666D02*
X137454819Y-91166666D01*
X136788152Y-90738095D02*
X137311961Y-90738095D01*
X137311961Y-90738095D02*
X137407200Y-90785714D01*
X137407200Y-90785714D02*
X137454819Y-90880952D01*
X137454819Y-90880952D02*
X137454819Y-91023809D01*
X137454819Y-91023809D02*
X137407200Y-91119047D01*
X137407200Y-91119047D02*
X137359580Y-91166666D01*
X137454819Y-91642857D02*
X136788152Y-91642857D01*
X136883390Y-91642857D02*
X136835771Y-91690476D01*
X136835771Y-91690476D02*
X136788152Y-91785714D01*
X136788152Y-91785714D02*
X136788152Y-91928571D01*
X136788152Y-91928571D02*
X136835771Y-92023809D01*
X136835771Y-92023809D02*
X136931009Y-92071428D01*
X136931009Y-92071428D02*
X137454819Y-92071428D01*
X136931009Y-92071428D02*
X136835771Y-92119047D01*
X136835771Y-92119047D02*
X136788152Y-92214285D01*
X136788152Y-92214285D02*
X136788152Y-92357142D01*
X136788152Y-92357142D02*
X136835771Y-92452381D01*
X136835771Y-92452381D02*
X136931009Y-92500000D01*
X136931009Y-92500000D02*
X137454819Y-92500000D01*
X136788152Y-92976190D02*
X137788152Y-92976190D01*
X136835771Y-92976190D02*
X136788152Y-93071428D01*
X136788152Y-93071428D02*
X136788152Y-93261904D01*
X136788152Y-93261904D02*
X136835771Y-93357142D01*
X136835771Y-93357142D02*
X136883390Y-93404761D01*
X136883390Y-93404761D02*
X136978628Y-93452380D01*
X136978628Y-93452380D02*
X137264342Y-93452380D01*
X137264342Y-93452380D02*
X137359580Y-93404761D01*
X137359580Y-93404761D02*
X137407200Y-93357142D01*
X137407200Y-93357142D02*
X137454819Y-93261904D01*
X137454819Y-93261904D02*
X137454819Y-93071428D01*
X137454819Y-93071428D02*
X137407200Y-92976190D01*
X137407200Y-94261904D02*
X137454819Y-94166666D01*
X137454819Y-94166666D02*
X137454819Y-93976190D01*
X137454819Y-93976190D02*
X137407200Y-93880952D01*
X137407200Y-93880952D02*
X137311961Y-93833333D01*
X137311961Y-93833333D02*
X136931009Y-93833333D01*
X136931009Y-93833333D02*
X136835771Y-93880952D01*
X136835771Y-93880952D02*
X136788152Y-93976190D01*
X136788152Y-93976190D02*
X136788152Y-94166666D01*
X136788152Y-94166666D02*
X136835771Y-94261904D01*
X136835771Y-94261904D02*
X136931009Y-94309523D01*
X136931009Y-94309523D02*
X137026247Y-94309523D01*
X137026247Y-94309523D02*
X137121485Y-93833333D01*
X137454819Y-94738095D02*
X136788152Y-94738095D01*
X136978628Y-94738095D02*
X136883390Y-94785714D01*
X136883390Y-94785714D02*
X136835771Y-94833333D01*
X136835771Y-94833333D02*
X136788152Y-94928571D01*
X136788152Y-94928571D02*
X136788152Y-95023809D01*
X137454819Y-96119048D02*
X136454819Y-96119048D01*
X136931009Y-96119048D02*
X136931009Y-96690476D01*
X137454819Y-96690476D02*
X136454819Y-96690476D01*
X137407200Y-97547619D02*
X137454819Y-97452381D01*
X137454819Y-97452381D02*
X137454819Y-97261905D01*
X137454819Y-97261905D02*
X137407200Y-97166667D01*
X137407200Y-97166667D02*
X137311961Y-97119048D01*
X137311961Y-97119048D02*
X136931009Y-97119048D01*
X136931009Y-97119048D02*
X136835771Y-97166667D01*
X136835771Y-97166667D02*
X136788152Y-97261905D01*
X136788152Y-97261905D02*
X136788152Y-97452381D01*
X136788152Y-97452381D02*
X136835771Y-97547619D01*
X136835771Y-97547619D02*
X136931009Y-97595238D01*
X136931009Y-97595238D02*
X137026247Y-97595238D01*
X137026247Y-97595238D02*
X137121485Y-97119048D01*
X137454819Y-98023810D02*
X136788152Y-98023810D01*
X136978628Y-98023810D02*
X136883390Y-98071429D01*
X136883390Y-98071429D02*
X136835771Y-98119048D01*
X136835771Y-98119048D02*
X136788152Y-98214286D01*
X136788152Y-98214286D02*
X136788152Y-98309524D01*
X137407200Y-99023810D02*
X137454819Y-98928572D01*
X137454819Y-98928572D02*
X137454819Y-98738096D01*
X137454819Y-98738096D02*
X137407200Y-98642858D01*
X137407200Y-98642858D02*
X137311961Y-98595239D01*
X137311961Y-98595239D02*
X136931009Y-98595239D01*
X136931009Y-98595239D02*
X136835771Y-98642858D01*
X136835771Y-98642858D02*
X136788152Y-98738096D01*
X136788152Y-98738096D02*
X136788152Y-98928572D01*
X136788152Y-98928572D02*
X136835771Y-99023810D01*
X136835771Y-99023810D02*
X136931009Y-99071429D01*
X136931009Y-99071429D02*
X137026247Y-99071429D01*
X137026247Y-99071429D02*
X137121485Y-98595239D01*
%TO.C,*%
X138220000Y-81610000D02*
X138220000Y-99390000D01*
X138220000Y-99390000D02*
X171240000Y-99390000D01*
X171240000Y-99390000D02*
X171240000Y-94310000D01*
X171240000Y-94310000D02*
X173780000Y-94310000D01*
X173780000Y-94310000D02*
X173780000Y-86690000D01*
X173780000Y-86690000D02*
X171240000Y-86690000D01*
X171240000Y-86690000D02*
X171240000Y-81610000D01*
X171240000Y-81610000D02*
X138220000Y-81610000D01*
D11*
%TO.C,B1*%
X180725000Y-83750000D02*
X181275000Y-83750000D01*
X182850000Y-84775000D02*
X182850000Y-83850000D01*
X182850000Y-88550000D02*
X182850000Y-87625000D01*
X179150000Y-88550000D02*
X179150000Y-83850000D01*
X180725000Y-88650000D02*
X181275000Y-88650000D01*
D12*
%TO.C,D1*%
X107800000Y-153250000D02*
X107800000Y-152750000D01*
X108200000Y-153250000D02*
X107800000Y-153850000D01*
X107400000Y-153250000D02*
X108200000Y-153250000D01*
X107800000Y-153850000D02*
X107400000Y-153250000D01*
X107800000Y-153850000D02*
X108350000Y-153850000D01*
X107800000Y-153850000D02*
X107250000Y-153850000D01*
X107800000Y-154250000D02*
X107800000Y-153850000D01*
%TO.C,D2*%
X107800000Y-136250000D02*
X107800000Y-135750000D01*
X108200000Y-136250000D02*
X107800000Y-136850000D01*
X107400000Y-136250000D02*
X108200000Y-136250000D01*
X107800000Y-136850000D02*
X107400000Y-136250000D01*
X107800000Y-136850000D02*
X108350000Y-136850000D01*
X107800000Y-136850000D02*
X107250000Y-136850000D01*
X107800000Y-137250000D02*
X107800000Y-136850000D01*
%TO.C,D3*%
X107800000Y-119250000D02*
X107800000Y-118750000D01*
X108200000Y-119250000D02*
X107800000Y-119850000D01*
X107400000Y-119250000D02*
X108200000Y-119250000D01*
X107800000Y-119850000D02*
X107400000Y-119250000D01*
X107800000Y-119850000D02*
X108350000Y-119850000D01*
X107800000Y-119850000D02*
X107250000Y-119850000D01*
X107800000Y-120250000D02*
X107800000Y-119850000D01*
%TO.C,D4*%
X107800000Y-102250000D02*
X107800000Y-101750000D01*
X108200000Y-102250000D02*
X107800000Y-102850000D01*
X107400000Y-102250000D02*
X108200000Y-102250000D01*
X107800000Y-102850000D02*
X107400000Y-102250000D01*
X107800000Y-102850000D02*
X108350000Y-102850000D01*
X107800000Y-102850000D02*
X107250000Y-102850000D01*
X107800000Y-103250000D02*
X107800000Y-102850000D01*
%TO.C,D5*%
X125800000Y-141250000D02*
X125800000Y-140750000D01*
X126200000Y-141250000D02*
X125800000Y-141850000D01*
X125400000Y-141250000D02*
X126200000Y-141250000D01*
X125800000Y-141850000D02*
X125400000Y-141250000D01*
X125800000Y-141850000D02*
X126350000Y-141850000D01*
X125800000Y-141850000D02*
X125250000Y-141850000D01*
X125800000Y-142250000D02*
X125800000Y-141850000D01*
%TO.C,D6*%
X125800000Y-124250000D02*
X125800000Y-123750000D01*
X126200000Y-124250000D02*
X125800000Y-124850000D01*
X125400000Y-124250000D02*
X126200000Y-124250000D01*
X125800000Y-124850000D02*
X125400000Y-124250000D01*
X125800000Y-124850000D02*
X126350000Y-124850000D01*
X125800000Y-124850000D02*
X125250000Y-124850000D01*
X125800000Y-125250000D02*
X125800000Y-124850000D01*
%TO.C,D7*%
X125800000Y-107250000D02*
X125800000Y-106750000D01*
X126200000Y-107250000D02*
X125800000Y-107850000D01*
X125400000Y-107250000D02*
X126200000Y-107250000D01*
X125800000Y-107850000D02*
X125400000Y-107250000D01*
X125800000Y-107850000D02*
X126350000Y-107850000D01*
X125800000Y-107850000D02*
X125250000Y-107850000D01*
X125800000Y-108250000D02*
X125800000Y-107850000D01*
%TO.C,D8*%
X125800000Y-90250000D02*
X125800000Y-89750000D01*
X126200000Y-90250000D02*
X125800000Y-90850000D01*
X125400000Y-90250000D02*
X126200000Y-90250000D01*
X125800000Y-90850000D02*
X125400000Y-90250000D01*
X125800000Y-90850000D02*
X126350000Y-90850000D01*
X125800000Y-90850000D02*
X125250000Y-90850000D01*
X125800000Y-91250000D02*
X125800000Y-90850000D01*
%TO.C,D9*%
X143800000Y-135250000D02*
X143800000Y-134750000D01*
X144200000Y-135250000D02*
X143800000Y-135850000D01*
X143400000Y-135250000D02*
X144200000Y-135250000D01*
X143800000Y-135850000D02*
X143400000Y-135250000D01*
X143800000Y-135850000D02*
X144350000Y-135850000D01*
X143800000Y-135850000D02*
X143250000Y-135850000D01*
X143800000Y-136250000D02*
X143800000Y-135850000D01*
%TO.C,D10*%
X143800000Y-118250000D02*
X143800000Y-117750000D01*
X144200000Y-118250000D02*
X143800000Y-118850000D01*
X143400000Y-118250000D02*
X144200000Y-118250000D01*
X143800000Y-118850000D02*
X143400000Y-118250000D01*
X143800000Y-118850000D02*
X144350000Y-118850000D01*
X143800000Y-118850000D02*
X143250000Y-118850000D01*
X143800000Y-119250000D02*
X143800000Y-118850000D01*
%TO.C,D11*%
X143800000Y-101250000D02*
X143800000Y-100750000D01*
X144200000Y-101250000D02*
X143800000Y-101850000D01*
X143400000Y-101250000D02*
X144200000Y-101250000D01*
X143800000Y-101850000D02*
X143400000Y-101250000D01*
X143800000Y-101850000D02*
X144350000Y-101850000D01*
X143800000Y-101850000D02*
X143250000Y-101850000D01*
X143800000Y-102250000D02*
X143800000Y-101850000D01*
%TO.C,D12*%
X143800000Y-84250000D02*
X143800000Y-83750000D01*
X144200000Y-84250000D02*
X143800000Y-84850000D01*
X143400000Y-84250000D02*
X144200000Y-84250000D01*
X143800000Y-84850000D02*
X143400000Y-84250000D01*
X143800000Y-84850000D02*
X144350000Y-84850000D01*
X143800000Y-84850000D02*
X143250000Y-84850000D01*
X143800000Y-85250000D02*
X143800000Y-84850000D01*
%TO.C,D13*%
X161800000Y-141250000D02*
X161800000Y-140750000D01*
X162200000Y-141250000D02*
X161800000Y-141850000D01*
X161400000Y-141250000D02*
X162200000Y-141250000D01*
X161800000Y-141850000D02*
X161400000Y-141250000D01*
X161800000Y-141850000D02*
X162350000Y-141850000D01*
X161800000Y-141850000D02*
X161250000Y-141850000D01*
X161800000Y-142250000D02*
X161800000Y-141850000D01*
%TO.C,D14*%
X161800000Y-124250000D02*
X161800000Y-123750000D01*
X162200000Y-124250000D02*
X161800000Y-124850000D01*
X161400000Y-124250000D02*
X162200000Y-124250000D01*
X161800000Y-124850000D02*
X161400000Y-124250000D01*
X161800000Y-124850000D02*
X162350000Y-124850000D01*
X161800000Y-124850000D02*
X161250000Y-124850000D01*
X161800000Y-125250000D02*
X161800000Y-124850000D01*
%TO.C,D15*%
X161800000Y-107250000D02*
X161800000Y-106750000D01*
X162200000Y-107250000D02*
X161800000Y-107850000D01*
X161400000Y-107250000D02*
X162200000Y-107250000D01*
X161800000Y-107850000D02*
X161400000Y-107250000D01*
X161800000Y-107850000D02*
X162350000Y-107850000D01*
X161800000Y-107850000D02*
X161250000Y-107850000D01*
X161800000Y-108250000D02*
X161800000Y-107850000D01*
%TO.C,D16*%
X161800000Y-90250000D02*
X161800000Y-89750000D01*
X162200000Y-90250000D02*
X161800000Y-90850000D01*
X161400000Y-90250000D02*
X162200000Y-90250000D01*
X161800000Y-90850000D02*
X161400000Y-90250000D01*
X161800000Y-90850000D02*
X162350000Y-90850000D01*
X161800000Y-90850000D02*
X161250000Y-90850000D01*
X161800000Y-91250000D02*
X161800000Y-90850000D01*
%TO.C,D17*%
X179800000Y-143250000D02*
X179800000Y-142750000D01*
X180200000Y-143250000D02*
X179800000Y-143850000D01*
X179400000Y-143250000D02*
X180200000Y-143250000D01*
X179800000Y-143850000D02*
X179400000Y-143250000D01*
X179800000Y-143850000D02*
X180350000Y-143850000D01*
X179800000Y-143850000D02*
X179250000Y-143850000D01*
X179800000Y-144250000D02*
X179800000Y-143850000D01*
%TO.C,D18*%
X179800000Y-126250000D02*
X179800000Y-125750000D01*
X180200000Y-126250000D02*
X179800000Y-126850000D01*
X179400000Y-126250000D02*
X180200000Y-126250000D01*
X179800000Y-126850000D02*
X179400000Y-126250000D01*
X179800000Y-126850000D02*
X180350000Y-126850000D01*
X179800000Y-126850000D02*
X179250000Y-126850000D01*
X179800000Y-127250000D02*
X179800000Y-126850000D01*
%TO.C,D19*%
X179800000Y-109250000D02*
X179800000Y-108750000D01*
X180200000Y-109250000D02*
X179800000Y-109850000D01*
X179400000Y-109250000D02*
X180200000Y-109250000D01*
X179800000Y-109850000D02*
X179400000Y-109250000D01*
X179800000Y-109850000D02*
X180350000Y-109850000D01*
X179800000Y-109850000D02*
X179250000Y-109850000D01*
X179800000Y-110250000D02*
X179800000Y-109850000D01*
%TO.C,D20*%
X179800000Y-92250000D02*
X179800000Y-91750000D01*
X180200000Y-92250000D02*
X179800000Y-92850000D01*
X179400000Y-92250000D02*
X180200000Y-92250000D01*
X179800000Y-92850000D02*
X179400000Y-92250000D01*
X179800000Y-92850000D02*
X180350000Y-92850000D01*
X179800000Y-92850000D02*
X179250000Y-92850000D01*
X179800000Y-93250000D02*
X179800000Y-92850000D01*
%TO.C,D21*%
X89800000Y-134250000D02*
X89800000Y-133750000D01*
X90200000Y-134250000D02*
X89800000Y-134850000D01*
X89400000Y-134250000D02*
X90200000Y-134250000D01*
X89800000Y-134850000D02*
X89400000Y-134250000D01*
X89800000Y-134850000D02*
X90350000Y-134850000D01*
X89800000Y-134850000D02*
X89250000Y-134850000D01*
X89800000Y-135250000D02*
X89800000Y-134850000D01*
%TO.C,D22*%
X89800000Y-117250000D02*
X89800000Y-116750000D01*
X90200000Y-117250000D02*
X89800000Y-117850000D01*
X89400000Y-117250000D02*
X90200000Y-117250000D01*
X89800000Y-117850000D02*
X89400000Y-117250000D01*
X89800000Y-117850000D02*
X90350000Y-117850000D01*
X89800000Y-117850000D02*
X89250000Y-117850000D01*
X89800000Y-118250000D02*
X89800000Y-117850000D01*
%TO.C,D23*%
X169800000Y-162250000D02*
X169800000Y-161750000D01*
X170200000Y-162250000D02*
X169800000Y-162850000D01*
X169400000Y-162250000D02*
X170200000Y-162250000D01*
X169800000Y-162850000D02*
X169400000Y-162250000D01*
X169800000Y-162850000D02*
X170350000Y-162850000D01*
X169800000Y-162850000D02*
X169250000Y-162850000D01*
X169800000Y-163250000D02*
X169800000Y-162850000D01*
%TO.C,D24*%
X191607766Y-168649962D02*
X191762275Y-168174434D01*
X191988189Y-168773569D02*
X191422356Y-169220596D01*
X191227344Y-168526355D02*
X191988189Y-168773569D01*
X191422356Y-169220596D02*
X191227344Y-168526355D01*
X191422356Y-169220596D02*
X191945437Y-169390555D01*
X191422356Y-169220596D02*
X190899275Y-169050636D01*
X191298749Y-169601018D02*
X191422356Y-169220596D01*
%TO.C,D25*%
X211290229Y-178387036D02*
X211524965Y-177945562D01*
X211643408Y-178574825D02*
X211008546Y-178916805D01*
X210937050Y-178199247D02*
X211643408Y-178574825D01*
X211008546Y-178916805D02*
X210937050Y-178199247D01*
X211008546Y-178916805D02*
X211494167Y-179175014D01*
X211008546Y-178916805D02*
X210522925Y-178658595D01*
X210820757Y-179269984D02*
X211008546Y-178916805D01*
%TO.C,LED1*%
X104500000Y-154125000D02*
X104000000Y-154625000D01*
X104000000Y-153625000D01*
X104500000Y-154125000D01*
G36*
X104500000Y-154125000D02*
G01*
X104000000Y-154625000D01*
X104000000Y-153625000D01*
X104500000Y-154125000D01*
G37*
%TO.C,LED2*%
X104500000Y-137125000D02*
X104000000Y-137625000D01*
X104000000Y-136625000D01*
X104500000Y-137125000D01*
G36*
X104500000Y-137125000D02*
G01*
X104000000Y-137625000D01*
X104000000Y-136625000D01*
X104500000Y-137125000D01*
G37*
%TO.C,LED3*%
X104500000Y-120125000D02*
X104000000Y-120625000D01*
X104000000Y-119625000D01*
X104500000Y-120125000D01*
G36*
X104500000Y-120125000D02*
G01*
X104000000Y-120625000D01*
X104000000Y-119625000D01*
X104500000Y-120125000D01*
G37*
%TO.C,LED4*%
X104500000Y-103125000D02*
X104000000Y-103625000D01*
X104000000Y-102625000D01*
X104500000Y-103125000D01*
G36*
X104500000Y-103125000D02*
G01*
X104000000Y-103625000D01*
X104000000Y-102625000D01*
X104500000Y-103125000D01*
G37*
%TO.C,LED5*%
X122500000Y-142125000D02*
X122000000Y-142625000D01*
X122000000Y-141625000D01*
X122500000Y-142125000D01*
G36*
X122500000Y-142125000D02*
G01*
X122000000Y-142625000D01*
X122000000Y-141625000D01*
X122500000Y-142125000D01*
G37*
%TO.C,LED6*%
X122500000Y-125125000D02*
X122000000Y-125625000D01*
X122000000Y-124625000D01*
X122500000Y-125125000D01*
G36*
X122500000Y-125125000D02*
G01*
X122000000Y-125625000D01*
X122000000Y-124625000D01*
X122500000Y-125125000D01*
G37*
%TO.C,LED7*%
X122500000Y-108125000D02*
X122000000Y-108625000D01*
X122000000Y-107625000D01*
X122500000Y-108125000D01*
G36*
X122500000Y-108125000D02*
G01*
X122000000Y-108625000D01*
X122000000Y-107625000D01*
X122500000Y-108125000D01*
G37*
%TO.C,LED8*%
X122500000Y-91125000D02*
X122000000Y-91625000D01*
X122000000Y-90625000D01*
X122500000Y-91125000D01*
G36*
X122500000Y-91125000D02*
G01*
X122000000Y-91625000D01*
X122000000Y-90625000D01*
X122500000Y-91125000D01*
G37*
%TO.C,LED9*%
X140500000Y-136125000D02*
X140000000Y-136625000D01*
X140000000Y-135625000D01*
X140500000Y-136125000D01*
G36*
X140500000Y-136125000D02*
G01*
X140000000Y-136625000D01*
X140000000Y-135625000D01*
X140500000Y-136125000D01*
G37*
%TO.C,LED10*%
X140500000Y-119125000D02*
X140000000Y-119625000D01*
X140000000Y-118625000D01*
X140500000Y-119125000D01*
G36*
X140500000Y-119125000D02*
G01*
X140000000Y-119625000D01*
X140000000Y-118625000D01*
X140500000Y-119125000D01*
G37*
%TO.C,LED11*%
X140500000Y-102125000D02*
X140000000Y-102625000D01*
X140000000Y-101625000D01*
X140500000Y-102125000D01*
G36*
X140500000Y-102125000D02*
G01*
X140000000Y-102625000D01*
X140000000Y-101625000D01*
X140500000Y-102125000D01*
G37*
%TO.C,LED12*%
X140500000Y-85125000D02*
X140000000Y-85625000D01*
X140000000Y-84625000D01*
X140500000Y-85125000D01*
G36*
X140500000Y-85125000D02*
G01*
X140000000Y-85625000D01*
X140000000Y-84625000D01*
X140500000Y-85125000D01*
G37*
%TO.C,LED13*%
X158500000Y-142125000D02*
X158000000Y-142625000D01*
X158000000Y-141625000D01*
X158500000Y-142125000D01*
G36*
X158500000Y-142125000D02*
G01*
X158000000Y-142625000D01*
X158000000Y-141625000D01*
X158500000Y-142125000D01*
G37*
%TO.C,LED14*%
X158500000Y-125125000D02*
X158000000Y-125625000D01*
X158000000Y-124625000D01*
X158500000Y-125125000D01*
G36*
X158500000Y-125125000D02*
G01*
X158000000Y-125625000D01*
X158000000Y-124625000D01*
X158500000Y-125125000D01*
G37*
%TO.C,LED15*%
X158500000Y-108125000D02*
X158000000Y-108625000D01*
X158000000Y-107625000D01*
X158500000Y-108125000D01*
G36*
X158500000Y-108125000D02*
G01*
X158000000Y-108625000D01*
X158000000Y-107625000D01*
X158500000Y-108125000D01*
G37*
%TO.C,LED16*%
X158500000Y-91125000D02*
X158000000Y-91625000D01*
X158000000Y-90625000D01*
X158500000Y-91125000D01*
G36*
X158500000Y-91125000D02*
G01*
X158000000Y-91625000D01*
X158000000Y-90625000D01*
X158500000Y-91125000D01*
G37*
%TO.C,LED17*%
X176500000Y-144125000D02*
X176000000Y-144625000D01*
X176000000Y-143625000D01*
X176500000Y-144125000D01*
G36*
X176500000Y-144125000D02*
G01*
X176000000Y-144625000D01*
X176000000Y-143625000D01*
X176500000Y-144125000D01*
G37*
%TO.C,LED18*%
X176500000Y-127125000D02*
X176000000Y-127625000D01*
X176000000Y-126625000D01*
X176500000Y-127125000D01*
G36*
X176500000Y-127125000D02*
G01*
X176000000Y-127625000D01*
X176000000Y-126625000D01*
X176500000Y-127125000D01*
G37*
%TO.C,LED19*%
X176500000Y-110125000D02*
X176000000Y-110625000D01*
X176000000Y-109625000D01*
X176500000Y-110125000D01*
G36*
X176500000Y-110125000D02*
G01*
X176000000Y-110625000D01*
X176000000Y-109625000D01*
X176500000Y-110125000D01*
G37*
%TO.C,LED20*%
X176500000Y-93125000D02*
X176000000Y-93625000D01*
X176000000Y-92625000D01*
X176500000Y-93125000D01*
G36*
X176500000Y-93125000D02*
G01*
X176000000Y-93625000D01*
X176000000Y-92625000D01*
X176500000Y-93125000D01*
G37*
%TO.C,LED21*%
X86500000Y-135125000D02*
X86000000Y-135625000D01*
X86000000Y-134625000D01*
X86500000Y-135125000D01*
G36*
X86500000Y-135125000D02*
G01*
X86000000Y-135625000D01*
X86000000Y-134625000D01*
X86500000Y-135125000D01*
G37*
%TO.C,LED22*%
X86500000Y-118125000D02*
X86000000Y-118625000D01*
X86000000Y-117625000D01*
X86500000Y-118125000D01*
G36*
X86500000Y-118125000D02*
G01*
X86000000Y-118625000D01*
X86000000Y-117625000D01*
X86500000Y-118125000D01*
G37*
%TO.C,LED23*%
X166500000Y-163125000D02*
X166000000Y-163625000D01*
X166000000Y-162625000D01*
X166500000Y-163125000D01*
G36*
X166500000Y-163125000D02*
G01*
X166000000Y-163625000D01*
X166000000Y-162625000D01*
X166500000Y-163125000D01*
G37*
%TO.C,LED24*%
X188198890Y-168462380D02*
X187568853Y-168783400D01*
X187877870Y-167832343D01*
X188198890Y-168462380D01*
G36*
X188198890Y-168462380D02*
G01*
X187568853Y-168783400D01*
X187877870Y-167832343D01*
X188198890Y-168462380D01*
G37*
%TO.C,LED25*%
X207965714Y-177610359D02*
X207289504Y-177817097D01*
X207758976Y-176934149D01*
X207965714Y-177610359D01*
G36*
X207965714Y-177610359D02*
G01*
X207289504Y-177817097D01*
X207758976Y-176934149D01*
X207965714Y-177610359D01*
G37*
D10*
%TO.C,JST1*%
X165250000Y-119750000D02*
X163650000Y-119750000D01*
X163650000Y-119750000D02*
X163650000Y-120450000D01*
X163650000Y-120450000D02*
X171250000Y-120450000D01*
X171250000Y-120450000D02*
X171250000Y-114550000D01*
X171250000Y-114550000D02*
X163650000Y-114550000D01*
X163650000Y-114550000D02*
X163650000Y-115250000D01*
X163650000Y-115250000D02*
X165250000Y-115250000D01*
X165250000Y-115250000D02*
X165250000Y-119750000D01*
X166500000Y-118500000D02*
X167000000Y-118500000D01*
X166750000Y-118750000D02*
X166750000Y-118250000D01*
%TD*%
M02*
