M48
; DRILL file {KiCad 9.0.6} date 2025-11-05T17:55:21+0100
; FORMAT={-:-/ absolute / metric / decimal}
; #@! TF.CreationDate,2025-11-05T17:55:21+01:00
; #@! TF.GenerationSoftware,Kicad,Pcbnew,9.0.6
; #@! TF.FileFunction,Plated,1,2,PTH
FMAT,2
METRIC
; #@! TA.AperFunction,Plated,PTH,ComponentDrill
T1C0.400
; #@! TA.AperFunction,Plated,PTH,ComponentDrill
T2C0.750
; #@! TA.AperFunction,Plated,PTH,ComponentDrill
T3C0.991
; #@! TA.AperFunction,Plated,PTH,ComponentDrill
T4C1.000
%
G90
G05
T1
X162.35Y-87.238
X162.35Y-93.762
X164.89Y-87.238
X164.89Y-93.762
X167.43Y-87.238
X167.43Y-93.762
X169.97Y-87.238
X169.97Y-93.762
T2
X165.0Y-116.5
X165.0Y-118.5
T3
X89.8Y-113.69
X89.8Y-121.31
X89.8Y-130.69
X89.8Y-138.31
X107.8Y-98.69
X107.8Y-106.31
X107.8Y-115.69
X107.8Y-123.31
X107.8Y-132.69
X107.8Y-140.31
X107.8Y-149.69
X107.8Y-157.31
X125.8Y-86.69
X125.8Y-94.31
X125.8Y-103.69
X125.8Y-111.31
X125.8Y-120.69
X125.8Y-128.31
X125.8Y-137.69
X125.8Y-145.31
X143.8Y-80.69
X143.8Y-88.31
X143.8Y-97.69
X143.8Y-105.31
X143.8Y-114.69
X143.8Y-122.31
X143.8Y-131.69
X143.8Y-139.31
X161.8Y-86.69
X161.8Y-94.31
X161.8Y-103.69
X161.8Y-111.31
X161.8Y-120.69
X161.8Y-128.31
X161.8Y-137.69
X161.8Y-145.31
X169.8Y-158.69
X169.8Y-166.31
X179.8Y-88.69
X179.8Y-96.31
X179.8Y-105.69
X179.8Y-113.31
X179.8Y-122.69
X179.8Y-130.31
X179.8Y-139.69
X179.8Y-147.31
X190.353Y-172.511
X192.708Y-165.264
X209.384Y-181.972
X212.962Y-175.244
T4
X139.49Y-82.88
X139.49Y-98.12
X142.03Y-82.88
X142.03Y-98.12
X144.57Y-82.88
X144.57Y-98.12
X147.11Y-82.88
X147.11Y-98.12
X149.65Y-82.88
X149.65Y-98.12
X152.19Y-82.88
X152.19Y-98.12
X154.73Y-82.88
X154.73Y-98.12
X157.27Y-82.88
X157.27Y-98.12
X159.81Y-82.88
X159.81Y-98.12
X162.35Y-82.88
X162.35Y-98.12
X164.89Y-82.88
X164.89Y-98.12
X167.43Y-82.88
X167.43Y-98.12
X169.97Y-82.88
X169.97Y-98.12
M30
