%TF.GenerationSoftware,KiCad,Pcbnew,9.0.6*%
%TF.CreationDate,2025-11-02T21:14:00+01:00*%
%TF.ProjectId,main_pcb,6d61696e-5f70-4636-922e-6b696361645f,v1.0.0*%
%TF.SameCoordinates,Original*%
%TF.FileFunction,Legend,Bot*%
%TF.FilePolarity,Positive*%
%FSLAX46Y46*%
G04 Gerber Fmt 4.6, Leading zero omitted, Abs format (unit mm)*
G04 Created by KiCad (PCBNEW 9.0.6) date 2025-11-02 21:14:00*
%MOMM*%
%LPD*%
G01*
G04 APERTURE LIST*
%ADD10C,0.100000*%
%ADD11C,0.120000*%
%ADD12R,1.752600X1.752600*%
%ADD13C,1.752600*%
G04 APERTURE END LIST*
D10*
%TO.C,D5*%
X125400000Y-141250000D02*
X126200000Y-141250000D01*
X125800000Y-141250000D02*
X125800000Y-140750000D01*
X125800000Y-141850000D02*
X125250000Y-141850000D01*
X125800000Y-141850000D02*
X125400000Y-141250000D01*
X125800000Y-141850000D02*
X126350000Y-141850000D01*
X125800000Y-142250000D02*
X125800000Y-141850000D01*
X126200000Y-141250000D02*
X125800000Y-141850000D01*
%TO.C,D10*%
X143400000Y-118250000D02*
X144200000Y-118250000D01*
X143800000Y-118250000D02*
X143800000Y-117750000D01*
X143800000Y-118850000D02*
X143250000Y-118850000D01*
X143800000Y-118850000D02*
X143400000Y-118250000D01*
X143800000Y-118850000D02*
X144350000Y-118850000D01*
X143800000Y-119250000D02*
X143800000Y-118850000D01*
X144200000Y-118250000D02*
X143800000Y-118850000D01*
%TO.C,D17*%
X179400000Y-143250000D02*
X180200000Y-143250000D01*
X179800000Y-143250000D02*
X179800000Y-142750000D01*
X179800000Y-143850000D02*
X179250000Y-143850000D01*
X179800000Y-143850000D02*
X179400000Y-143250000D01*
X179800000Y-143850000D02*
X180350000Y-143850000D01*
X179800000Y-144250000D02*
X179800000Y-143850000D01*
X180200000Y-143250000D02*
X179800000Y-143850000D01*
%TO.C,D13*%
X161400000Y-141250000D02*
X162200000Y-141250000D01*
X161800000Y-141250000D02*
X161800000Y-140750000D01*
X161800000Y-141850000D02*
X161250000Y-141850000D01*
X161800000Y-141850000D02*
X161400000Y-141250000D01*
X161800000Y-141850000D02*
X162350000Y-141850000D01*
X161800000Y-142250000D02*
X161800000Y-141850000D01*
X162200000Y-141250000D02*
X161800000Y-141850000D01*
%TO.C,D3*%
X107400000Y-119250000D02*
X108200000Y-119250000D01*
X107800000Y-119250000D02*
X107800000Y-118750000D01*
X107800000Y-119850000D02*
X107250000Y-119850000D01*
X107800000Y-119850000D02*
X107400000Y-119250000D01*
X107800000Y-119850000D02*
X108350000Y-119850000D01*
X107800000Y-120250000D02*
X107800000Y-119850000D01*
X108200000Y-119250000D02*
X107800000Y-119850000D01*
%TO.C,D11*%
X143400000Y-101250000D02*
X144200000Y-101250000D01*
X143800000Y-101250000D02*
X143800000Y-100750000D01*
X143800000Y-101850000D02*
X143250000Y-101850000D01*
X143800000Y-101850000D02*
X143400000Y-101250000D01*
X143800000Y-101850000D02*
X144350000Y-101850000D01*
X143800000Y-102250000D02*
X143800000Y-101850000D01*
X144200000Y-101250000D02*
X143800000Y-101850000D01*
%TO.C,D1*%
X107400000Y-153250000D02*
X108200000Y-153250000D01*
X107800000Y-153250000D02*
X107800000Y-152750000D01*
X107800000Y-153850000D02*
X107250000Y-153850000D01*
X107800000Y-153850000D02*
X107400000Y-153250000D01*
X107800000Y-153850000D02*
X108350000Y-153850000D01*
X107800000Y-154250000D02*
X107800000Y-153850000D01*
X108200000Y-153250000D02*
X107800000Y-153850000D01*
%TO.C,D23*%
X169400000Y-162250000D02*
X170200000Y-162250000D01*
X169800000Y-162250000D02*
X169800000Y-161750000D01*
X169800000Y-162850000D02*
X169250000Y-162850000D01*
X169800000Y-162850000D02*
X169400000Y-162250000D01*
X169800000Y-162850000D02*
X170350000Y-162850000D01*
X169800000Y-163250000D02*
X169800000Y-162850000D01*
X170200000Y-162250000D02*
X169800000Y-162850000D01*
%TO.C,D19*%
X179400000Y-109250000D02*
X180200000Y-109250000D01*
X179800000Y-109250000D02*
X179800000Y-108750000D01*
X179800000Y-109850000D02*
X179250000Y-109850000D01*
X179800000Y-109850000D02*
X179400000Y-109250000D01*
X179800000Y-109850000D02*
X180350000Y-109850000D01*
X179800000Y-110250000D02*
X179800000Y-109850000D01*
X180200000Y-109250000D02*
X179800000Y-109850000D01*
%TO.C,D8*%
X125400000Y-90250000D02*
X126200000Y-90250000D01*
X125800000Y-90250000D02*
X125800000Y-89750000D01*
X125800000Y-90850000D02*
X125250000Y-90850000D01*
X125800000Y-90850000D02*
X125400000Y-90250000D01*
X125800000Y-90850000D02*
X126350000Y-90850000D01*
X125800000Y-91250000D02*
X125800000Y-90850000D01*
X126200000Y-90250000D02*
X125800000Y-90850000D01*
%TO.C,D2*%
X107400000Y-136250000D02*
X108200000Y-136250000D01*
X107800000Y-136250000D02*
X107800000Y-135750000D01*
X107800000Y-136850000D02*
X107250000Y-136850000D01*
X107800000Y-136850000D02*
X107400000Y-136250000D01*
X107800000Y-136850000D02*
X108350000Y-136850000D01*
X107800000Y-137250000D02*
X107800000Y-136850000D01*
X108200000Y-136250000D02*
X107800000Y-136850000D01*
%TO.C,D22*%
X89400000Y-117250000D02*
X90200000Y-117250000D01*
X89800000Y-117250000D02*
X89800000Y-116750000D01*
X89800000Y-117850000D02*
X89250000Y-117850000D01*
X89800000Y-117850000D02*
X89400000Y-117250000D01*
X89800000Y-117850000D02*
X90350000Y-117850000D01*
X89800000Y-118250000D02*
X89800000Y-117850000D01*
X90200000Y-117250000D02*
X89800000Y-117850000D01*
%TO.C,D15*%
X161400000Y-107250000D02*
X162200000Y-107250000D01*
X161800000Y-107250000D02*
X161800000Y-106750000D01*
X161800000Y-107850000D02*
X161250000Y-107850000D01*
X161800000Y-107850000D02*
X161400000Y-107250000D01*
X161800000Y-107850000D02*
X162350000Y-107850000D01*
X161800000Y-108250000D02*
X161800000Y-107850000D01*
X162200000Y-107250000D02*
X161800000Y-107850000D01*
%TO.C,D4*%
X107400000Y-102250000D02*
X108200000Y-102250000D01*
X107800000Y-102250000D02*
X107800000Y-101750000D01*
X107800000Y-102850000D02*
X107250000Y-102850000D01*
X107800000Y-102850000D02*
X107400000Y-102250000D01*
X107800000Y-102850000D02*
X108350000Y-102850000D01*
X107800000Y-103250000D02*
X107800000Y-102850000D01*
X108200000Y-102250000D02*
X107800000Y-102850000D01*
%TO.C,D24*%
X191227344Y-168526355D02*
X191988189Y-168773569D01*
X191298749Y-169601018D02*
X191422356Y-169220596D01*
X191422356Y-169220596D02*
X190899275Y-169050636D01*
X191422356Y-169220596D02*
X191227344Y-168526355D01*
X191422356Y-169220596D02*
X191945437Y-169390555D01*
X191607766Y-168649962D02*
X191762275Y-168174434D01*
X191988189Y-168773569D02*
X191422356Y-169220596D01*
%TO.C,D18*%
X179400000Y-126250000D02*
X180200000Y-126250000D01*
X179800000Y-126250000D02*
X179800000Y-125750000D01*
X179800000Y-126850000D02*
X179250000Y-126850000D01*
X179800000Y-126850000D02*
X179400000Y-126250000D01*
X179800000Y-126850000D02*
X180350000Y-126850000D01*
X179800000Y-127250000D02*
X179800000Y-126850000D01*
X180200000Y-126250000D02*
X179800000Y-126850000D01*
%TO.C,D25*%
X210820757Y-179269984D02*
X211008546Y-178916805D01*
X210937050Y-178199247D02*
X211643408Y-178574825D01*
X211008546Y-178916805D02*
X210522925Y-178658595D01*
X211008546Y-178916805D02*
X210937050Y-178199247D01*
X211008546Y-178916805D02*
X211494167Y-179175014D01*
X211290229Y-178387036D02*
X211524965Y-177945562D01*
X211643408Y-178574825D02*
X211008546Y-178916805D01*
%TO.C,D9*%
X143400000Y-135250000D02*
X144200000Y-135250000D01*
X143800000Y-135250000D02*
X143800000Y-134750000D01*
X143800000Y-135850000D02*
X143250000Y-135850000D01*
X143800000Y-135850000D02*
X143400000Y-135250000D01*
X143800000Y-135850000D02*
X144350000Y-135850000D01*
X143800000Y-136250000D02*
X143800000Y-135850000D01*
X144200000Y-135250000D02*
X143800000Y-135850000D01*
%TO.C,D21*%
X89400000Y-134250000D02*
X90200000Y-134250000D01*
X89800000Y-134250000D02*
X89800000Y-133750000D01*
X89800000Y-134850000D02*
X89250000Y-134850000D01*
X89800000Y-134850000D02*
X89400000Y-134250000D01*
X89800000Y-134850000D02*
X90350000Y-134850000D01*
X89800000Y-135250000D02*
X89800000Y-134850000D01*
X90200000Y-134250000D02*
X89800000Y-134850000D01*
D11*
%TO.C,B1*%
X179150000Y-88550000D02*
X179150000Y-83850000D01*
X180725000Y-83750000D02*
X181275000Y-83750000D01*
X180725000Y-88650000D02*
X181275000Y-88650000D01*
X182850000Y-84775000D02*
X182850000Y-83850000D01*
X182850000Y-88550000D02*
X182850000Y-87625000D01*
D10*
%TO.C,D16*%
X161400000Y-90250000D02*
X162200000Y-90250000D01*
X161800000Y-90250000D02*
X161800000Y-89750000D01*
X161800000Y-90850000D02*
X161250000Y-90850000D01*
X161800000Y-90850000D02*
X161400000Y-90250000D01*
X161800000Y-90850000D02*
X162350000Y-90850000D01*
X161800000Y-91250000D02*
X161800000Y-90850000D01*
X162200000Y-90250000D02*
X161800000Y-90850000D01*
%TO.C,D14*%
X161400000Y-124250000D02*
X162200000Y-124250000D01*
X161800000Y-124250000D02*
X161800000Y-123750000D01*
X161800000Y-124850000D02*
X161250000Y-124850000D01*
X161800000Y-124850000D02*
X161400000Y-124250000D01*
X161800000Y-124850000D02*
X162350000Y-124850000D01*
X161800000Y-125250000D02*
X161800000Y-124850000D01*
X162200000Y-124250000D02*
X161800000Y-124850000D01*
%TO.C,D6*%
X125400000Y-124250000D02*
X126200000Y-124250000D01*
X125800000Y-124250000D02*
X125800000Y-123750000D01*
X125800000Y-124850000D02*
X125250000Y-124850000D01*
X125800000Y-124850000D02*
X125400000Y-124250000D01*
X125800000Y-124850000D02*
X126350000Y-124850000D01*
X125800000Y-125250000D02*
X125800000Y-124850000D01*
X126200000Y-124250000D02*
X125800000Y-124850000D01*
%TO.C,D20*%
X179400000Y-92250000D02*
X180200000Y-92250000D01*
X179800000Y-92250000D02*
X179800000Y-91750000D01*
X179800000Y-92850000D02*
X179250000Y-92850000D01*
X179800000Y-92850000D02*
X179400000Y-92250000D01*
X179800000Y-92850000D02*
X180350000Y-92850000D01*
X179800000Y-93250000D02*
X179800000Y-92850000D01*
X180200000Y-92250000D02*
X179800000Y-92850000D01*
%TO.C,D7*%
X125400000Y-107250000D02*
X126200000Y-107250000D01*
X125800000Y-107250000D02*
X125800000Y-106750000D01*
X125800000Y-107850000D02*
X125250000Y-107850000D01*
X125800000Y-107850000D02*
X125400000Y-107250000D01*
X125800000Y-107850000D02*
X126350000Y-107850000D01*
X125800000Y-108250000D02*
X125800000Y-107850000D01*
X126200000Y-107250000D02*
X125800000Y-107850000D01*
%TO.C,D12*%
X143400000Y-84250000D02*
X144200000Y-84250000D01*
X143800000Y-84250000D02*
X143800000Y-83750000D01*
X143800000Y-84850000D02*
X143250000Y-84850000D01*
X143800000Y-84850000D02*
X143400000Y-84250000D01*
X143800000Y-84850000D02*
X144350000Y-84850000D01*
X143800000Y-85250000D02*
X143800000Y-84850000D01*
X144200000Y-84250000D02*
X143800000Y-84850000D01*
%TD*%
D12*
%TO.C,MCU1*%
X175080000Y-93740000D03*
D13*
X172540000Y-93740000D03*
X170000000Y-93740000D03*
X167460000Y-93740000D03*
X164920000Y-93740000D03*
X162380000Y-93740000D03*
X159840000Y-93740000D03*
X157300000Y-93740000D03*
X154760000Y-93740000D03*
X152220000Y-93740000D03*
X149680000Y-93740000D03*
X147140000Y-93740000D03*
X175080000Y-78500000D03*
X172540000Y-78500000D03*
X170000000Y-78500000D03*
X167460000Y-78500000D03*
X164920000Y-78500000D03*
X162380000Y-78500000D03*
X159840000Y-78500000D03*
X157300000Y-78500000D03*
X154760000Y-78500000D03*
X152220000Y-78500000D03*
X149680000Y-78500000D03*
X147140000Y-78500000D03*
%TD*%
M02*
