%TF.GenerationSoftware,KiCad,Pcbnew,9.0.6*%
%TF.CreationDate,2025-11-09T20:29:50+01:00*%
%TF.ProjectId,main_pcb,6d61696e-5f70-4636-922e-6b696361645f,v1.0.0*%
%TF.SameCoordinates,Original*%
%TF.FileFunction,Paste,Bot*%
%TF.FilePolarity,Positive*%
%FSLAX46Y46*%
G04 Gerber Fmt 4.6, Leading zero omitted, Abs format (unit mm)*
G04 Created by KiCad (PCBNEW 9.0.6) date 2025-11-09 20:29:50*
%MOMM*%
%LPD*%
G01*
G04 APERTURE LIST*
G04 Aperture macros list*
%AMRotRect*
0 Rectangle, with rotation*
0 The origin of the aperture is its center*
0 $1 length*
0 $2 width*
0 $3 Rotation angle, in degrees counterclockwise*
0 Add horizontal line*
21,1,$1,$2,0,0,$3*%
%AMFreePoly0*
4,1,6,0.250000,0.000000,-0.250000,-0.625000,-0.500000,-0.625000,-0.500000,0.625000,-0.250000,0.625000,0.250000,0.000000,0.250000,0.000000,$1*%
%AMFreePoly1*
4,1,6,0.500000,-0.625000,-0.650000,-0.625000,-0.150000,0.000000,-0.650000,0.625000,0.500000,0.625000,0.500000,-0.625000,0.500000,-0.625000,$1*%
G04 Aperture macros list end*
%ADD10R,2.600000X2.600000*%
%ADD11RotRect,2.600000X2.600000X342.000000*%
%ADD12RotRect,2.600000X2.600000X332.000000*%
%ADD13FreePoly0,0.000000*%
%ADD14FreePoly1,0.000000*%
%ADD15FreePoly1,180.000000*%
%ADD16FreePoly0,180.000000*%
%ADD17R,1.550000X1.000000*%
%ADD18R,1.200000X0.900000*%
%ADD19RotRect,0.900000X1.200000X72.000000*%
%ADD20RotRect,0.900000X1.200000X62.000000*%
%ADD21R,2.600000X1.000000*%
%ADD22RotRect,2.600000X1.000000X342.000000*%
%ADD23RotRect,2.600000X1.000000X332.000000*%
%ADD24R,1.000000X0.800000*%
%ADD25R,0.700000X1.500000*%
G04 APERTURE END LIST*
D10*
%TO.C,S1*%
X96725000Y-144050000D03*
X108275000Y-146250000D03*
%TD*%
%TO.C,S2*%
X96725000Y-127050000D03*
X108275000Y-129250000D03*
%TD*%
%TO.C,S3*%
X96725000Y-110050000D03*
X108275000Y-112250000D03*
%TD*%
%TO.C,S4*%
X96725000Y-93050000D03*
X108275000Y-95250000D03*
%TD*%
%TO.C,S5*%
X114725000Y-132050000D03*
X126275000Y-134250000D03*
%TD*%
%TO.C,S6*%
X114725000Y-115050000D03*
X126275000Y-117250000D03*
%TD*%
%TO.C,S7*%
X114725000Y-98050000D03*
X126275000Y-100250000D03*
%TD*%
%TO.C,S8*%
X114725000Y-81050000D03*
X126275000Y-83250000D03*
%TD*%
%TO.C,S9*%
X132725000Y-128050000D03*
X144275000Y-130250000D03*
%TD*%
%TO.C,S10*%
X132725000Y-111050000D03*
X144275000Y-113250000D03*
%TD*%
%TO.C,S11*%
X132725000Y-94050000D03*
X144275000Y-96250000D03*
%TD*%
%TO.C,S12*%
X132725000Y-77050000D03*
X144275000Y-79250000D03*
%TD*%
%TO.C,S13*%
X150725000Y-136050000D03*
X162275000Y-138250000D03*
%TD*%
%TO.C,S14*%
X150725000Y-119050000D03*
X162275000Y-121250000D03*
%TD*%
%TO.C,S15*%
X150725000Y-102050000D03*
X162275000Y-104250000D03*
%TD*%
%TO.C,S16*%
X150725000Y-85050000D03*
X162275000Y-87250000D03*
%TD*%
%TO.C,S17*%
X168725000Y-138050000D03*
X180275000Y-140250000D03*
%TD*%
%TO.C,S18*%
X168725000Y-121050000D03*
X180275000Y-123250000D03*
%TD*%
%TO.C,S19*%
X168725000Y-104050000D03*
X180275000Y-106250000D03*
%TD*%
%TO.C,S20*%
X168725000Y-87050000D03*
X180275000Y-89250000D03*
%TD*%
%TO.C,S21*%
X78725000Y-127050000D03*
X90275000Y-129250000D03*
%TD*%
%TO.C,S22*%
X78725000Y-110050000D03*
X90275000Y-112250000D03*
%TD*%
%TO.C,S23*%
X158725000Y-155050000D03*
X170275000Y-157250000D03*
%TD*%
D11*
%TO.C,S24*%
X183917772Y-158477878D03*
X194222637Y-164139349D03*
%TD*%
D12*
%TO.C,S25*%
X205830722Y-167064520D03*
X214995930Y-174429402D03*
%TD*%
D13*
%TO.C,MCU1*%
X76225000Y-77500000D03*
D14*
X76950000Y-77500000D03*
D15*
X86500000Y-77500000D03*
D16*
X87225000Y-77500000D03*
D13*
X76225000Y-80040000D03*
D14*
X76950000Y-80040000D03*
D15*
X86500000Y-80040000D03*
D16*
X87225000Y-80040000D03*
D13*
X76225000Y-82580000D03*
D14*
X76950000Y-82580000D03*
D15*
X86500000Y-82580000D03*
D16*
X87225000Y-82580000D03*
D13*
X76225000Y-85120000D03*
D14*
X76950000Y-85120000D03*
D15*
X86500000Y-85120000D03*
D16*
X87225000Y-85120000D03*
D13*
X76225000Y-87660000D03*
D14*
X76950000Y-87660000D03*
D15*
X86500000Y-87660000D03*
D16*
X87225000Y-87660000D03*
D13*
X76225000Y-90200000D03*
D14*
X76950000Y-90200000D03*
D15*
X86500000Y-90200000D03*
D16*
X87225000Y-90200000D03*
D13*
X76225000Y-92740000D03*
D14*
X76950000Y-92740000D03*
D15*
X86500000Y-92740000D03*
D16*
X87225000Y-92740000D03*
D13*
X76225000Y-95280000D03*
D14*
X76950000Y-95280000D03*
D15*
X86500000Y-95280000D03*
D16*
X87225000Y-95280000D03*
D13*
X76225000Y-97820000D03*
D14*
X76950000Y-97820000D03*
D15*
X86500000Y-97820000D03*
D16*
X87225000Y-97820000D03*
D13*
X76225000Y-100360000D03*
D14*
X76950000Y-100360000D03*
D15*
X86500000Y-100360000D03*
D16*
X87225000Y-100360000D03*
D13*
X76225000Y-102900000D03*
D14*
X76950000Y-102900000D03*
D15*
X86500000Y-102900000D03*
D16*
X87225000Y-102900000D03*
D13*
X76225000Y-105440000D03*
D14*
X76950000Y-105440000D03*
D15*
X86500000Y-105440000D03*
D16*
X87225000Y-105440000D03*
%TD*%
D17*
%TO.C,B1*%
X97250000Y-74525000D03*
X102500000Y-74525000D03*
X97250000Y-76225000D03*
X102500000Y-76225000D03*
%TD*%
D18*
%TO.C,D1*%
X107800000Y-151850000D03*
X107800000Y-155150000D03*
%TD*%
%TO.C,D2*%
X107800000Y-134850000D03*
X107800000Y-138150000D03*
%TD*%
%TO.C,D3*%
X107800000Y-117850000D03*
X107800000Y-121150000D03*
%TD*%
%TO.C,D4*%
X107800000Y-100850000D03*
X107800000Y-104150000D03*
%TD*%
%TO.C,D5*%
X125800000Y-139850000D03*
X125800000Y-143150000D03*
%TD*%
%TO.C,D6*%
X125800000Y-122850000D03*
X125800000Y-126150000D03*
%TD*%
%TO.C,D7*%
X125800000Y-105850000D03*
X125800000Y-109150000D03*
%TD*%
%TO.C,D8*%
X125800000Y-88850000D03*
X125800000Y-92150000D03*
%TD*%
%TO.C,D9*%
X143800000Y-135850000D03*
X143800000Y-139150000D03*
%TD*%
%TO.C,D10*%
X143800000Y-118850000D03*
X143800000Y-122150000D03*
%TD*%
%TO.C,D11*%
X143800000Y-101850000D03*
X143800000Y-105150000D03*
%TD*%
%TO.C,D12*%
X143800000Y-84850000D03*
X143800000Y-88150000D03*
%TD*%
%TO.C,D13*%
X161800000Y-143850000D03*
X161800000Y-147150000D03*
%TD*%
%TO.C,D14*%
X161800000Y-126850000D03*
X161800000Y-130150000D03*
%TD*%
%TO.C,D15*%
X161800000Y-109850000D03*
X161800000Y-113150000D03*
%TD*%
%TO.C,D16*%
X161800000Y-92850000D03*
X161800000Y-96150000D03*
%TD*%
%TO.C,D17*%
X179800000Y-145850000D03*
X179800000Y-149150000D03*
%TD*%
%TO.C,D18*%
X179800000Y-128850000D03*
X179800000Y-132150000D03*
%TD*%
%TO.C,D19*%
X179800000Y-111850000D03*
X179800000Y-115150000D03*
%TD*%
%TO.C,D20*%
X179800000Y-94850000D03*
X179800000Y-98150000D03*
%TD*%
%TO.C,D21*%
X89800000Y-134850000D03*
X89800000Y-138150000D03*
%TD*%
%TO.C,D22*%
X89800000Y-117850000D03*
X89800000Y-121150000D03*
%TD*%
%TO.C,D23*%
X169800000Y-162850000D03*
X169800000Y-166150000D03*
%TD*%
D19*
%TO.C,D24*%
X192040390Y-169318483D03*
X191020634Y-172456969D03*
%TD*%
D20*
%TO.C,D25*%
X211947489Y-179150909D03*
X210398233Y-182064637D03*
%TD*%
D21*
%TO.C,LED1*%
X97800000Y-154125000D03*
X97800000Y-155875000D03*
X102200000Y-155875000D03*
X102200000Y-154125000D03*
%TD*%
%TO.C,LED2*%
X97800000Y-137125000D03*
X97800000Y-138875000D03*
X102200000Y-138875000D03*
X102200000Y-137125000D03*
%TD*%
%TO.C,LED3*%
X97800000Y-120125000D03*
X97800000Y-121875000D03*
X102200000Y-121875000D03*
X102200000Y-120125000D03*
%TD*%
%TO.C,LED4*%
X97800000Y-103125000D03*
X97800000Y-104875000D03*
X102200000Y-104875000D03*
X102200000Y-103125000D03*
%TD*%
%TO.C,LED5*%
X115800000Y-142125000D03*
X115800000Y-143875000D03*
X120200000Y-143875000D03*
X120200000Y-142125000D03*
%TD*%
%TO.C,LED6*%
X115800000Y-125125000D03*
X115800000Y-126875000D03*
X120200000Y-126875000D03*
X120200000Y-125125000D03*
%TD*%
%TO.C,LED7*%
X115800000Y-108125000D03*
X115800000Y-109875000D03*
X120200000Y-109875000D03*
X120200000Y-108125000D03*
%TD*%
%TO.C,LED8*%
X115800000Y-91125000D03*
X115800000Y-92875000D03*
X120200000Y-92875000D03*
X120200000Y-91125000D03*
%TD*%
%TO.C,LED9*%
X133800000Y-138125000D03*
X133800000Y-139875000D03*
X138200000Y-139875000D03*
X138200000Y-138125000D03*
%TD*%
%TO.C,LED10*%
X133800000Y-121125000D03*
X133800000Y-122875000D03*
X138200000Y-122875000D03*
X138200000Y-121125000D03*
%TD*%
%TO.C,LED11*%
X133800000Y-104125000D03*
X133800000Y-105875000D03*
X138200000Y-105875000D03*
X138200000Y-104125000D03*
%TD*%
%TO.C,LED12*%
X133800000Y-87125000D03*
X133800000Y-88875000D03*
X138200000Y-88875000D03*
X138200000Y-87125000D03*
%TD*%
%TO.C,LED13*%
X151800000Y-146125000D03*
X151800000Y-147875000D03*
X156200000Y-147875000D03*
X156200000Y-146125000D03*
%TD*%
%TO.C,LED14*%
X151800000Y-129125000D03*
X151800000Y-130875000D03*
X156200000Y-130875000D03*
X156200000Y-129125000D03*
%TD*%
%TO.C,LED15*%
X151800000Y-112125000D03*
X151800000Y-113875000D03*
X156200000Y-113875000D03*
X156200000Y-112125000D03*
%TD*%
%TO.C,LED16*%
X151800000Y-95125000D03*
X151800000Y-96875000D03*
X156200000Y-96875000D03*
X156200000Y-95125000D03*
%TD*%
%TO.C,LED17*%
X169800000Y-148125000D03*
X169800000Y-149875000D03*
X174200000Y-149875000D03*
X174200000Y-148125000D03*
%TD*%
%TO.C,LED18*%
X169800000Y-131125000D03*
X169800000Y-132875000D03*
X174200000Y-132875000D03*
X174200000Y-131125000D03*
%TD*%
%TO.C,LED19*%
X169800000Y-114125000D03*
X169800000Y-115875000D03*
X174200000Y-115875000D03*
X174200000Y-114125000D03*
%TD*%
%TO.C,LED20*%
X169800000Y-97125000D03*
X169800000Y-98875000D03*
X174200000Y-98875000D03*
X174200000Y-97125000D03*
%TD*%
%TO.C,LED21*%
X79800000Y-137125000D03*
X79800000Y-138875000D03*
X84200000Y-138875000D03*
X84200000Y-137125000D03*
%TD*%
%TO.C,LED22*%
X79800000Y-120125000D03*
X79800000Y-121875000D03*
X84200000Y-121875000D03*
X84200000Y-120125000D03*
%TD*%
%TO.C,LED23*%
X159800000Y-165125000D03*
X159800000Y-166875000D03*
X164200000Y-166875000D03*
X164200000Y-165125000D03*
%TD*%
D22*
%TO.C,LED24*%
X181826812Y-168391966D03*
X181286032Y-170056315D03*
X185470680Y-171415990D03*
X186011460Y-169751641D03*
%TD*%
D23*
%TO.C,LED25*%
X202049965Y-176464899D03*
X201228390Y-178010058D03*
X205113359Y-180075733D03*
X205934934Y-178530574D03*
%TD*%
D24*
%TO.C,SW1*%
X109350000Y-76085000D03*
X109350000Y-73875000D03*
D25*
X115250000Y-76735000D03*
D24*
X116650000Y-76085000D03*
D25*
X113750000Y-76735000D03*
X110750000Y-76735000D03*
D24*
X116650000Y-73875000D03*
%TD*%
M02*
