M48
; DRILL file {KiCad 9.0.6} date 2025-11-09T20:29:48+0100
; FORMAT={-:-/ absolute / metric / decimal}
; #@! TF.CreationDate,2025-11-09T20:29:48+01:00
; #@! TF.GenerationSoftware,Kicad,Pcbnew,9.0.6
; #@! TF.FileFunction,Plated,1,2,PTH
FMAT,2
METRIC
; #@! TA.AperFunction,Plated,PTH,ComponentDrill
T1C0.400
; #@! TA.AperFunction,Plated,PTH,ComponentDrill
T2C0.750
; #@! TA.AperFunction,Plated,PTH,ComponentDrill
T3C0.991
; #@! TA.AperFunction,Plated,PTH,ComponentDrill
T4C1.000
%
G90
G05
T1
X78.325Y-77.5
X78.325Y-80.04
X78.325Y-82.58
X78.325Y-85.12
X78.325Y-87.66
X78.325Y-90.2
X78.325Y-92.74
X78.325Y-95.28
X78.325Y-97.82
X78.325Y-100.36
X78.325Y-102.9
X78.325Y-105.44
X85.125Y-77.5
X85.125Y-80.04
X85.125Y-82.58
X85.125Y-85.12
X85.125Y-87.66
X85.125Y-90.2
X85.125Y-92.74
X85.125Y-95.28
X85.125Y-97.82
X85.125Y-100.36
X85.125Y-102.9
X85.125Y-105.44
T2
X168.5Y-80.0
X168.5Y-82.0
X169.5Y-80.0
X169.5Y-82.0
T3
X89.8Y-115.69
X89.8Y-123.31
X89.8Y-132.69
X89.8Y-140.31
X107.8Y-98.69
X107.8Y-106.31
X107.8Y-115.69
X107.8Y-123.31
X107.8Y-132.69
X107.8Y-140.31
X107.8Y-149.69
X107.8Y-157.31
X125.8Y-86.69
X125.8Y-94.31
X125.8Y-103.69
X125.8Y-111.31
X125.8Y-120.69
X125.8Y-128.31
X125.8Y-137.69
X125.8Y-145.31
X143.8Y-82.69
X143.8Y-90.31
X143.8Y-99.69
X143.8Y-107.31
X143.8Y-116.69
X143.8Y-124.31
X143.8Y-133.69
X143.8Y-141.31
X161.8Y-90.69
X161.8Y-98.31
X161.8Y-107.69
X161.8Y-115.31
X161.8Y-124.69
X161.8Y-132.31
X161.8Y-141.69
X161.8Y-149.31
X169.8Y-160.69
X169.8Y-168.31
X179.8Y-92.69
X179.8Y-100.31
X179.8Y-109.69
X179.8Y-117.31
X179.8Y-126.69
X179.8Y-134.31
X179.8Y-143.69
X179.8Y-151.31
X190.353Y-174.511
X192.708Y-167.264
X209.384Y-183.972
X212.962Y-177.244
T4
X74.105Y-77.5
X74.105Y-80.04
X74.105Y-82.58
X74.105Y-85.12
X74.105Y-87.66
X74.105Y-90.2
X74.105Y-92.74
X74.105Y-95.28
X74.105Y-97.82
X74.105Y-100.36
X74.105Y-102.9
X74.105Y-105.44
X89.345Y-77.5
X89.345Y-80.04
X89.345Y-82.58
X89.345Y-85.12
X89.345Y-87.66
X89.345Y-90.2
X89.345Y-92.74
X89.345Y-95.28
X89.345Y-97.82
X89.345Y-100.36
X89.345Y-102.9
X89.345Y-105.44
M30
