%TF.GenerationSoftware,KiCad,Pcbnew,9.0.6*%
%TF.CreationDate,2025-11-02T21:14:00+01:00*%
%TF.ProjectId,main_pcb,6d61696e-5f70-4636-922e-6b696361645f,v1.0.0*%
%TF.SameCoordinates,Original*%
%TF.FileFunction,Legend,Top*%
%TF.FilePolarity,Positive*%
%FSLAX46Y46*%
G04 Gerber Fmt 4.6, Leading zero omitted, Abs format (unit mm)*
G04 Created by KiCad (PCBNEW 9.0.6) date 2025-11-02 21:14:00*
%MOMM*%
%LPD*%
G01*
G04 APERTURE LIST*
%ADD10C,0.500000*%
%ADD11C,0.400000*%
%ADD12C,0.150000*%
%ADD13C,0.100000*%
%ADD14R,1.752600X1.752600*%
%ADD15C,1.752600*%
G04 APERTURE END LIST*
D10*
X137281327Y-133824476D02*
X137281327Y-129824476D01*
X138995613Y-133824476D02*
X138995613Y-131729238D01*
X138995613Y-131729238D02*
X138805137Y-131348285D01*
X138805137Y-131348285D02*
X138424185Y-131157809D01*
X138424185Y-131157809D02*
X137852756Y-131157809D01*
X137852756Y-131157809D02*
X137471804Y-131348285D01*
X137471804Y-131348285D02*
X137281327Y-131538761D01*
X141471804Y-133824476D02*
X141090852Y-133634000D01*
X141090852Y-133634000D02*
X140900375Y-133443523D01*
X140900375Y-133443523D02*
X140709899Y-133062571D01*
X140709899Y-133062571D02*
X140709899Y-131919714D01*
X140709899Y-131919714D02*
X140900375Y-131538761D01*
X140900375Y-131538761D02*
X141090852Y-131348285D01*
X141090852Y-131348285D02*
X141471804Y-131157809D01*
X141471804Y-131157809D02*
X142043233Y-131157809D01*
X142043233Y-131157809D02*
X142424185Y-131348285D01*
X142424185Y-131348285D02*
X142614661Y-131538761D01*
X142614661Y-131538761D02*
X142805137Y-131919714D01*
X142805137Y-131919714D02*
X142805137Y-133062571D01*
X142805137Y-133062571D02*
X142614661Y-133443523D01*
X142614661Y-133443523D02*
X142424185Y-133634000D01*
X142424185Y-133634000D02*
X142043233Y-133824476D01*
X142043233Y-133824476D02*
X141471804Y-133824476D01*
X144519423Y-133824476D02*
X144519423Y-131157809D01*
X144519423Y-131919714D02*
X144709900Y-131538761D01*
X144709900Y-131538761D02*
X144900376Y-131348285D01*
X144900376Y-131348285D02*
X145281328Y-131157809D01*
X145281328Y-131157809D02*
X145662281Y-131157809D01*
X146995613Y-133824476D02*
X146995613Y-131157809D01*
X146995613Y-131538761D02*
X147186090Y-131348285D01*
X147186090Y-131348285D02*
X147567042Y-131157809D01*
X147567042Y-131157809D02*
X148138471Y-131157809D01*
X148138471Y-131157809D02*
X148519423Y-131348285D01*
X148519423Y-131348285D02*
X148709899Y-131729238D01*
X148709899Y-131729238D02*
X148709899Y-133824476D01*
X148709899Y-131729238D02*
X148900375Y-131348285D01*
X148900375Y-131348285D02*
X149281328Y-131157809D01*
X149281328Y-131157809D02*
X149852756Y-131157809D01*
X149852756Y-131157809D02*
X150233709Y-131348285D01*
X150233709Y-131348285D02*
X150424185Y-131729238D01*
X150424185Y-131729238D02*
X150424185Y-133824476D01*
X153852756Y-133634000D02*
X153471804Y-133824476D01*
X153471804Y-133824476D02*
X152709899Y-133824476D01*
X152709899Y-133824476D02*
X152328946Y-133634000D01*
X152328946Y-133634000D02*
X152138470Y-133253047D01*
X152138470Y-133253047D02*
X152138470Y-131729238D01*
X152138470Y-131729238D02*
X152328946Y-131348285D01*
X152328946Y-131348285D02*
X152709899Y-131157809D01*
X152709899Y-131157809D02*
X153471804Y-131157809D01*
X153471804Y-131157809D02*
X153852756Y-131348285D01*
X153852756Y-131348285D02*
X154043232Y-131729238D01*
X154043232Y-131729238D02*
X154043232Y-132110190D01*
X154043232Y-132110190D02*
X152138470Y-132491142D01*
X155567041Y-133634000D02*
X155947994Y-133824476D01*
X155947994Y-133824476D02*
X156709898Y-133824476D01*
X156709898Y-133824476D02*
X157090851Y-133634000D01*
X157090851Y-133634000D02*
X157281327Y-133253047D01*
X157281327Y-133253047D02*
X157281327Y-133062571D01*
X157281327Y-133062571D02*
X157090851Y-132681619D01*
X157090851Y-132681619D02*
X156709898Y-132491142D01*
X156709898Y-132491142D02*
X156138470Y-132491142D01*
X156138470Y-132491142D02*
X155757517Y-132300666D01*
X155757517Y-132300666D02*
X155567041Y-131919714D01*
X155567041Y-131919714D02*
X155567041Y-131729238D01*
X155567041Y-131729238D02*
X155757517Y-131348285D01*
X155757517Y-131348285D02*
X156138470Y-131157809D01*
X156138470Y-131157809D02*
X156709898Y-131157809D01*
X156709898Y-131157809D02*
X157090851Y-131348285D01*
X158995612Y-133824476D02*
X158995612Y-131157809D01*
X158995612Y-129824476D02*
X158805136Y-130014952D01*
X158805136Y-130014952D02*
X158995612Y-130205428D01*
X158995612Y-130205428D02*
X159186089Y-130014952D01*
X159186089Y-130014952D02*
X158995612Y-129824476D01*
X158995612Y-129824476D02*
X158995612Y-130205428D01*
X160709898Y-133634000D02*
X161090851Y-133824476D01*
X161090851Y-133824476D02*
X161852755Y-133824476D01*
X161852755Y-133824476D02*
X162233708Y-133634000D01*
X162233708Y-133634000D02*
X162424184Y-133253047D01*
X162424184Y-133253047D02*
X162424184Y-133062571D01*
X162424184Y-133062571D02*
X162233708Y-132681619D01*
X162233708Y-132681619D02*
X161852755Y-132491142D01*
X161852755Y-132491142D02*
X161281327Y-132491142D01*
X161281327Y-132491142D02*
X160900374Y-132300666D01*
X160900374Y-132300666D02*
X160709898Y-131919714D01*
X160709898Y-131919714D02*
X160709898Y-131729238D01*
X160709898Y-131729238D02*
X160900374Y-131348285D01*
X160900374Y-131348285D02*
X161281327Y-131157809D01*
X161281327Y-131157809D02*
X161852755Y-131157809D01*
X161852755Y-131157809D02*
X162233708Y-131348285D01*
D11*
X135022557Y-133367057D02*
X135022557Y-130367057D01*
X135022557Y-131509914D02*
X134736843Y-131367057D01*
X134736843Y-131367057D02*
X134165414Y-131367057D01*
X134165414Y-131367057D02*
X133879700Y-131509914D01*
X133879700Y-131509914D02*
X133736843Y-131652771D01*
X133736843Y-131652771D02*
X133593985Y-131938485D01*
X133593985Y-131938485D02*
X133593985Y-132795628D01*
X133593985Y-132795628D02*
X133736843Y-133081342D01*
X133736843Y-133081342D02*
X133879700Y-133224200D01*
X133879700Y-133224200D02*
X134165414Y-133367057D01*
X134165414Y-133367057D02*
X134736843Y-133367057D01*
X134736843Y-133367057D02*
X135022557Y-133224200D01*
X132593985Y-131367057D02*
X131879699Y-133367057D01*
X131165414Y-131367057D02*
X131879699Y-133367057D01*
X131879699Y-133367057D02*
X132165414Y-134081342D01*
X132165414Y-134081342D02*
X132308271Y-134224200D01*
X132308271Y-134224200D02*
X132593985Y-134367057D01*
X127736843Y-133367057D02*
X127736843Y-130367057D01*
X127451129Y-132224200D02*
X126593986Y-133367057D01*
X126593986Y-131367057D02*
X127736843Y-132509914D01*
X124022558Y-133367057D02*
X124022558Y-131795628D01*
X124022558Y-131795628D02*
X124165415Y-131509914D01*
X124165415Y-131509914D02*
X124451129Y-131367057D01*
X124451129Y-131367057D02*
X125022558Y-131367057D01*
X125022558Y-131367057D02*
X125308272Y-131509914D01*
X124022558Y-133224200D02*
X124308272Y-133367057D01*
X124308272Y-133367057D02*
X125022558Y-133367057D01*
X125022558Y-133367057D02*
X125308272Y-133224200D01*
X125308272Y-133224200D02*
X125451129Y-132938485D01*
X125451129Y-132938485D02*
X125451129Y-132652771D01*
X125451129Y-132652771D02*
X125308272Y-132367057D01*
X125308272Y-132367057D02*
X125022558Y-132224200D01*
X125022558Y-132224200D02*
X124308272Y-132224200D01*
X124308272Y-132224200D02*
X124022558Y-132081342D01*
X122593986Y-133367057D02*
X122593986Y-131367057D01*
X122593986Y-131938485D02*
X122451129Y-131652771D01*
X122451129Y-131652771D02*
X122308272Y-131509914D01*
X122308272Y-131509914D02*
X122022557Y-131367057D01*
X122022557Y-131367057D02*
X121736843Y-131367057D01*
X120308271Y-133367057D02*
X120593986Y-133224200D01*
X120593986Y-133224200D02*
X120736843Y-132938485D01*
X120736843Y-132938485D02*
X120736843Y-130367057D01*
X116879700Y-133367057D02*
X116879700Y-131367057D01*
X116879700Y-131938485D02*
X116736843Y-131652771D01*
X116736843Y-131652771D02*
X116593986Y-131509914D01*
X116593986Y-131509914D02*
X116308271Y-131367057D01*
X116308271Y-131367057D02*
X116022557Y-131367057D01*
X115308271Y-131367057D02*
X114593985Y-133367057D01*
X113879700Y-131367057D02*
X114593985Y-133367057D01*
X114593985Y-133367057D02*
X114879700Y-134081342D01*
X114879700Y-134081342D02*
X115022557Y-134224200D01*
X115022557Y-134224200D02*
X115308271Y-134367057D01*
X112736843Y-133367057D02*
X112736843Y-130367057D01*
X112736843Y-131509914D02*
X112451129Y-131367057D01*
X112451129Y-131367057D02*
X111879700Y-131367057D01*
X111879700Y-131367057D02*
X111593986Y-131509914D01*
X111593986Y-131509914D02*
X111451129Y-131652771D01*
X111451129Y-131652771D02*
X111308271Y-131938485D01*
X111308271Y-131938485D02*
X111308271Y-132795628D01*
X111308271Y-132795628D02*
X111451129Y-133081342D01*
X111451129Y-133081342D02*
X111593986Y-133224200D01*
X111593986Y-133224200D02*
X111879700Y-133367057D01*
X111879700Y-133367057D02*
X112451129Y-133367057D01*
X112451129Y-133367057D02*
X112736843Y-133224200D01*
X108879700Y-133224200D02*
X109165414Y-133367057D01*
X109165414Y-133367057D02*
X109736843Y-133367057D01*
X109736843Y-133367057D02*
X110022557Y-133224200D01*
X110022557Y-133224200D02*
X110165414Y-132938485D01*
X110165414Y-132938485D02*
X110165414Y-131795628D01*
X110165414Y-131795628D02*
X110022557Y-131509914D01*
X110022557Y-131509914D02*
X109736843Y-131367057D01*
X109736843Y-131367057D02*
X109165414Y-131367057D01*
X109165414Y-131367057D02*
X108879700Y-131509914D01*
X108879700Y-131509914D02*
X108736843Y-131795628D01*
X108736843Y-131795628D02*
X108736843Y-132081342D01*
X108736843Y-132081342D02*
X110165414Y-132367057D01*
X107451128Y-133367057D02*
X107451128Y-131367057D01*
X107451128Y-131938485D02*
X107308271Y-131652771D01*
X107308271Y-131652771D02*
X107165414Y-131509914D01*
X107165414Y-131509914D02*
X106879699Y-131367057D01*
X106879699Y-131367057D02*
X106593985Y-131367057D01*
X104308271Y-131367057D02*
X104308271Y-133795628D01*
X104308271Y-133795628D02*
X104451128Y-134081342D01*
X104451128Y-134081342D02*
X104593985Y-134224200D01*
X104593985Y-134224200D02*
X104879699Y-134367057D01*
X104879699Y-134367057D02*
X105308271Y-134367057D01*
X105308271Y-134367057D02*
X105593985Y-134224200D01*
X104308271Y-133224200D02*
X104593985Y-133367057D01*
X104593985Y-133367057D02*
X105165413Y-133367057D01*
X105165413Y-133367057D02*
X105451128Y-133224200D01*
X105451128Y-133224200D02*
X105593985Y-133081342D01*
X105593985Y-133081342D02*
X105736842Y-132795628D01*
X105736842Y-132795628D02*
X105736842Y-131938485D01*
X105736842Y-131938485D02*
X105593985Y-131652771D01*
X105593985Y-131652771D02*
X105451128Y-131509914D01*
X105451128Y-131509914D02*
X105165413Y-131367057D01*
X105165413Y-131367057D02*
X104593985Y-131367057D01*
X104593985Y-131367057D02*
X104308271Y-131509914D01*
D12*
X172902295Y-82291428D02*
X172102295Y-82291428D01*
X172102295Y-82291428D02*
X172102295Y-81986666D01*
X172102295Y-81986666D02*
X172140390Y-81910476D01*
X172140390Y-81910476D02*
X172178485Y-81872381D01*
X172178485Y-81872381D02*
X172254676Y-81834285D01*
X172254676Y-81834285D02*
X172368961Y-81834285D01*
X172368961Y-81834285D02*
X172445152Y-81872381D01*
X172445152Y-81872381D02*
X172483247Y-81910476D01*
X172483247Y-81910476D02*
X172521342Y-81986666D01*
X172521342Y-81986666D02*
X172521342Y-82291428D01*
X172102295Y-81339047D02*
X172102295Y-81262857D01*
X172102295Y-81262857D02*
X172140390Y-81186666D01*
X172140390Y-81186666D02*
X172178485Y-81148571D01*
X172178485Y-81148571D02*
X172254676Y-81110476D01*
X172254676Y-81110476D02*
X172407057Y-81072381D01*
X172407057Y-81072381D02*
X172597533Y-81072381D01*
X172597533Y-81072381D02*
X172749914Y-81110476D01*
X172749914Y-81110476D02*
X172826104Y-81148571D01*
X172826104Y-81148571D02*
X172864200Y-81186666D01*
X172864200Y-81186666D02*
X172902295Y-81262857D01*
X172902295Y-81262857D02*
X172902295Y-81339047D01*
X172902295Y-81339047D02*
X172864200Y-81415238D01*
X172864200Y-81415238D02*
X172826104Y-81453333D01*
X172826104Y-81453333D02*
X172749914Y-81491428D01*
X172749914Y-81491428D02*
X172597533Y-81529524D01*
X172597533Y-81529524D02*
X172407057Y-81529524D01*
X172407057Y-81529524D02*
X172254676Y-81491428D01*
X172254676Y-81491428D02*
X172178485Y-81453333D01*
X172178485Y-81453333D02*
X172140390Y-81415238D01*
X172140390Y-81415238D02*
X172102295Y-81339047D01*
X172102295Y-80577142D02*
X172102295Y-80500952D01*
X172102295Y-80500952D02*
X172140390Y-80424761D01*
X172140390Y-80424761D02*
X172178485Y-80386666D01*
X172178485Y-80386666D02*
X172254676Y-80348571D01*
X172254676Y-80348571D02*
X172407057Y-80310476D01*
X172407057Y-80310476D02*
X172597533Y-80310476D01*
X172597533Y-80310476D02*
X172749914Y-80348571D01*
X172749914Y-80348571D02*
X172826104Y-80386666D01*
X172826104Y-80386666D02*
X172864200Y-80424761D01*
X172864200Y-80424761D02*
X172902295Y-80500952D01*
X172902295Y-80500952D02*
X172902295Y-80577142D01*
X172902295Y-80577142D02*
X172864200Y-80653333D01*
X172864200Y-80653333D02*
X172826104Y-80691428D01*
X172826104Y-80691428D02*
X172749914Y-80729523D01*
X172749914Y-80729523D02*
X172597533Y-80767619D01*
X172597533Y-80767619D02*
X172407057Y-80767619D01*
X172407057Y-80767619D02*
X172254676Y-80729523D01*
X172254676Y-80729523D02*
X172178485Y-80691428D01*
X172178485Y-80691428D02*
X172140390Y-80653333D01*
X172140390Y-80653333D02*
X172102295Y-80577142D01*
X152582295Y-91891428D02*
X151782295Y-91891428D01*
X151782295Y-91891428D02*
X151782295Y-91586666D01*
X151782295Y-91586666D02*
X151820390Y-91510476D01*
X151820390Y-91510476D02*
X151858485Y-91472381D01*
X151858485Y-91472381D02*
X151934676Y-91434285D01*
X151934676Y-91434285D02*
X152048961Y-91434285D01*
X152048961Y-91434285D02*
X152125152Y-91472381D01*
X152125152Y-91472381D02*
X152163247Y-91510476D01*
X152163247Y-91510476D02*
X152201342Y-91586666D01*
X152201342Y-91586666D02*
X152201342Y-91891428D01*
X152582295Y-90672381D02*
X152582295Y-91129524D01*
X152582295Y-90900952D02*
X151782295Y-90900952D01*
X151782295Y-90900952D02*
X151896580Y-90977143D01*
X151896580Y-90977143D02*
X151972771Y-91053333D01*
X151972771Y-91053333D02*
X152010866Y-91129524D01*
X152048961Y-89986666D02*
X152582295Y-89986666D01*
X151744200Y-90177142D02*
X152315628Y-90367619D01*
X152315628Y-90367619D02*
X152315628Y-89872380D01*
X170362295Y-91358094D02*
X169981342Y-91624761D01*
X170362295Y-91815237D02*
X169562295Y-91815237D01*
X169562295Y-91815237D02*
X169562295Y-91510475D01*
X169562295Y-91510475D02*
X169600390Y-91434285D01*
X169600390Y-91434285D02*
X169638485Y-91396190D01*
X169638485Y-91396190D02*
X169714676Y-91358094D01*
X169714676Y-91358094D02*
X169828961Y-91358094D01*
X169828961Y-91358094D02*
X169905152Y-91396190D01*
X169905152Y-91396190D02*
X169943247Y-91434285D01*
X169943247Y-91434285D02*
X169981342Y-91510475D01*
X169981342Y-91510475D02*
X169981342Y-91815237D01*
X170324200Y-91053333D02*
X170362295Y-90939047D01*
X170362295Y-90939047D02*
X170362295Y-90748571D01*
X170362295Y-90748571D02*
X170324200Y-90672380D01*
X170324200Y-90672380D02*
X170286104Y-90634285D01*
X170286104Y-90634285D02*
X170209914Y-90596190D01*
X170209914Y-90596190D02*
X170133723Y-90596190D01*
X170133723Y-90596190D02*
X170057533Y-90634285D01*
X170057533Y-90634285D02*
X170019438Y-90672380D01*
X170019438Y-90672380D02*
X169981342Y-90748571D01*
X169981342Y-90748571D02*
X169943247Y-90900952D01*
X169943247Y-90900952D02*
X169905152Y-90977142D01*
X169905152Y-90977142D02*
X169867057Y-91015237D01*
X169867057Y-91015237D02*
X169790866Y-91053333D01*
X169790866Y-91053333D02*
X169714676Y-91053333D01*
X169714676Y-91053333D02*
X169638485Y-91015237D01*
X169638485Y-91015237D02*
X169600390Y-90977142D01*
X169600390Y-90977142D02*
X169562295Y-90900952D01*
X169562295Y-90900952D02*
X169562295Y-90710475D01*
X169562295Y-90710475D02*
X169600390Y-90596190D01*
X169562295Y-90367618D02*
X169562295Y-89910475D01*
X170362295Y-90139047D02*
X169562295Y-90139047D01*
X155122295Y-91891428D02*
X154322295Y-91891428D01*
X154322295Y-91891428D02*
X154322295Y-91586666D01*
X154322295Y-91586666D02*
X154360390Y-91510476D01*
X154360390Y-91510476D02*
X154398485Y-91472381D01*
X154398485Y-91472381D02*
X154474676Y-91434285D01*
X154474676Y-91434285D02*
X154588961Y-91434285D01*
X154588961Y-91434285D02*
X154665152Y-91472381D01*
X154665152Y-91472381D02*
X154703247Y-91510476D01*
X154703247Y-91510476D02*
X154741342Y-91586666D01*
X154741342Y-91586666D02*
X154741342Y-91891428D01*
X155122295Y-90672381D02*
X155122295Y-91129524D01*
X155122295Y-90900952D02*
X154322295Y-90900952D01*
X154322295Y-90900952D02*
X154436580Y-90977143D01*
X154436580Y-90977143D02*
X154512771Y-91053333D01*
X154512771Y-91053333D02*
X154550866Y-91129524D01*
X154322295Y-89948571D02*
X154322295Y-90329523D01*
X154322295Y-90329523D02*
X154703247Y-90367619D01*
X154703247Y-90367619D02*
X154665152Y-90329523D01*
X154665152Y-90329523D02*
X154627057Y-90253333D01*
X154627057Y-90253333D02*
X154627057Y-90062857D01*
X154627057Y-90062857D02*
X154665152Y-89986666D01*
X154665152Y-89986666D02*
X154703247Y-89948571D01*
X154703247Y-89948571D02*
X154779438Y-89910476D01*
X154779438Y-89910476D02*
X154969914Y-89910476D01*
X154969914Y-89910476D02*
X155046104Y-89948571D01*
X155046104Y-89948571D02*
X155084200Y-89986666D01*
X155084200Y-89986666D02*
X155122295Y-90062857D01*
X155122295Y-90062857D02*
X155122295Y-90253333D01*
X155122295Y-90253333D02*
X155084200Y-90329523D01*
X155084200Y-90329523D02*
X155046104Y-90367619D01*
X169600390Y-81929523D02*
X169562295Y-82005713D01*
X169562295Y-82005713D02*
X169562295Y-82119999D01*
X169562295Y-82119999D02*
X169600390Y-82234285D01*
X169600390Y-82234285D02*
X169676580Y-82310475D01*
X169676580Y-82310475D02*
X169752771Y-82348570D01*
X169752771Y-82348570D02*
X169905152Y-82386666D01*
X169905152Y-82386666D02*
X170019438Y-82386666D01*
X170019438Y-82386666D02*
X170171819Y-82348570D01*
X170171819Y-82348570D02*
X170248009Y-82310475D01*
X170248009Y-82310475D02*
X170324200Y-82234285D01*
X170324200Y-82234285D02*
X170362295Y-82119999D01*
X170362295Y-82119999D02*
X170362295Y-82043808D01*
X170362295Y-82043808D02*
X170324200Y-81929523D01*
X170324200Y-81929523D02*
X170286104Y-81891427D01*
X170286104Y-81891427D02*
X170019438Y-81891427D01*
X170019438Y-81891427D02*
X170019438Y-82043808D01*
X170362295Y-81548570D02*
X169562295Y-81548570D01*
X169562295Y-81548570D02*
X170362295Y-81091427D01*
X170362295Y-81091427D02*
X169562295Y-81091427D01*
X170362295Y-80710475D02*
X169562295Y-80710475D01*
X169562295Y-80710475D02*
X169562295Y-80519999D01*
X169562295Y-80519999D02*
X169600390Y-80405713D01*
X169600390Y-80405713D02*
X169676580Y-80329523D01*
X169676580Y-80329523D02*
X169752771Y-80291428D01*
X169752771Y-80291428D02*
X169905152Y-80253332D01*
X169905152Y-80253332D02*
X170019438Y-80253332D01*
X170019438Y-80253332D02*
X170171819Y-80291428D01*
X170171819Y-80291428D02*
X170248009Y-80329523D01*
X170248009Y-80329523D02*
X170324200Y-80405713D01*
X170324200Y-80405713D02*
X170362295Y-80519999D01*
X170362295Y-80519999D02*
X170362295Y-80710475D01*
X175442295Y-91472380D02*
X175061342Y-91739047D01*
X175442295Y-91929523D02*
X174642295Y-91929523D01*
X174642295Y-91929523D02*
X174642295Y-91624761D01*
X174642295Y-91624761D02*
X174680390Y-91548571D01*
X174680390Y-91548571D02*
X174718485Y-91510476D01*
X174718485Y-91510476D02*
X174794676Y-91472380D01*
X174794676Y-91472380D02*
X174908961Y-91472380D01*
X174908961Y-91472380D02*
X174985152Y-91510476D01*
X174985152Y-91510476D02*
X175023247Y-91548571D01*
X175023247Y-91548571D02*
X175061342Y-91624761D01*
X175061342Y-91624761D02*
X175061342Y-91929523D01*
X175213723Y-91167619D02*
X175213723Y-90786666D01*
X175442295Y-91243809D02*
X174642295Y-90977142D01*
X174642295Y-90977142D02*
X175442295Y-90710476D01*
X174642295Y-90520000D02*
X175442295Y-90329524D01*
X175442295Y-90329524D02*
X174870866Y-90177143D01*
X174870866Y-90177143D02*
X175442295Y-90024762D01*
X175442295Y-90024762D02*
X174642295Y-89834286D01*
X165282295Y-91891428D02*
X164482295Y-91891428D01*
X164482295Y-91891428D02*
X164482295Y-91586666D01*
X164482295Y-91586666D02*
X164520390Y-91510476D01*
X164520390Y-91510476D02*
X164558485Y-91472381D01*
X164558485Y-91472381D02*
X164634676Y-91434285D01*
X164634676Y-91434285D02*
X164748961Y-91434285D01*
X164748961Y-91434285D02*
X164825152Y-91472381D01*
X164825152Y-91472381D02*
X164863247Y-91510476D01*
X164863247Y-91510476D02*
X164901342Y-91586666D01*
X164901342Y-91586666D02*
X164901342Y-91891428D01*
X164558485Y-91129524D02*
X164520390Y-91091428D01*
X164520390Y-91091428D02*
X164482295Y-91015238D01*
X164482295Y-91015238D02*
X164482295Y-90824762D01*
X164482295Y-90824762D02*
X164520390Y-90748571D01*
X164520390Y-90748571D02*
X164558485Y-90710476D01*
X164558485Y-90710476D02*
X164634676Y-90672381D01*
X164634676Y-90672381D02*
X164710866Y-90672381D01*
X164710866Y-90672381D02*
X164825152Y-90710476D01*
X164825152Y-90710476D02*
X165282295Y-91167619D01*
X165282295Y-91167619D02*
X165282295Y-90672381D01*
X165282295Y-89910476D02*
X165282295Y-90367619D01*
X165282295Y-90139047D02*
X164482295Y-90139047D01*
X164482295Y-90139047D02*
X164596580Y-90215238D01*
X164596580Y-90215238D02*
X164672771Y-90291428D01*
X164672771Y-90291428D02*
X164710866Y-90367619D01*
X147502295Y-82291428D02*
X146702295Y-82291428D01*
X146702295Y-82291428D02*
X146702295Y-81986666D01*
X146702295Y-81986666D02*
X146740390Y-81910476D01*
X146740390Y-81910476D02*
X146778485Y-81872381D01*
X146778485Y-81872381D02*
X146854676Y-81834285D01*
X146854676Y-81834285D02*
X146968961Y-81834285D01*
X146968961Y-81834285D02*
X147045152Y-81872381D01*
X147045152Y-81872381D02*
X147083247Y-81910476D01*
X147083247Y-81910476D02*
X147121342Y-81986666D01*
X147121342Y-81986666D02*
X147121342Y-82291428D01*
X146702295Y-81339047D02*
X146702295Y-81262857D01*
X146702295Y-81262857D02*
X146740390Y-81186666D01*
X146740390Y-81186666D02*
X146778485Y-81148571D01*
X146778485Y-81148571D02*
X146854676Y-81110476D01*
X146854676Y-81110476D02*
X147007057Y-81072381D01*
X147007057Y-81072381D02*
X147197533Y-81072381D01*
X147197533Y-81072381D02*
X147349914Y-81110476D01*
X147349914Y-81110476D02*
X147426104Y-81148571D01*
X147426104Y-81148571D02*
X147464200Y-81186666D01*
X147464200Y-81186666D02*
X147502295Y-81262857D01*
X147502295Y-81262857D02*
X147502295Y-81339047D01*
X147502295Y-81339047D02*
X147464200Y-81415238D01*
X147464200Y-81415238D02*
X147426104Y-81453333D01*
X147426104Y-81453333D02*
X147349914Y-81491428D01*
X147349914Y-81491428D02*
X147197533Y-81529524D01*
X147197533Y-81529524D02*
X147007057Y-81529524D01*
X147007057Y-81529524D02*
X146854676Y-81491428D01*
X146854676Y-81491428D02*
X146778485Y-81453333D01*
X146778485Y-81453333D02*
X146740390Y-81415238D01*
X146740390Y-81415238D02*
X146702295Y-81339047D01*
X147502295Y-80691428D02*
X147502295Y-80539047D01*
X147502295Y-80539047D02*
X147464200Y-80462857D01*
X147464200Y-80462857D02*
X147426104Y-80424761D01*
X147426104Y-80424761D02*
X147311819Y-80348571D01*
X147311819Y-80348571D02*
X147159438Y-80310476D01*
X147159438Y-80310476D02*
X146854676Y-80310476D01*
X146854676Y-80310476D02*
X146778485Y-80348571D01*
X146778485Y-80348571D02*
X146740390Y-80386666D01*
X146740390Y-80386666D02*
X146702295Y-80462857D01*
X146702295Y-80462857D02*
X146702295Y-80615238D01*
X146702295Y-80615238D02*
X146740390Y-80691428D01*
X146740390Y-80691428D02*
X146778485Y-80729523D01*
X146778485Y-80729523D02*
X146854676Y-80767619D01*
X146854676Y-80767619D02*
X147045152Y-80767619D01*
X147045152Y-80767619D02*
X147121342Y-80729523D01*
X147121342Y-80729523D02*
X147159438Y-80691428D01*
X147159438Y-80691428D02*
X147197533Y-80615238D01*
X147197533Y-80615238D02*
X147197533Y-80462857D01*
X147197533Y-80462857D02*
X147159438Y-80386666D01*
X147159438Y-80386666D02*
X147121342Y-80348571D01*
X147121342Y-80348571D02*
X147045152Y-80310476D01*
X160202295Y-91891428D02*
X159402295Y-91891428D01*
X159402295Y-91891428D02*
X159402295Y-91586666D01*
X159402295Y-91586666D02*
X159440390Y-91510476D01*
X159440390Y-91510476D02*
X159478485Y-91472381D01*
X159478485Y-91472381D02*
X159554676Y-91434285D01*
X159554676Y-91434285D02*
X159668961Y-91434285D01*
X159668961Y-91434285D02*
X159745152Y-91472381D01*
X159745152Y-91472381D02*
X159783247Y-91510476D01*
X159783247Y-91510476D02*
X159821342Y-91586666D01*
X159821342Y-91586666D02*
X159821342Y-91891428D01*
X160202295Y-90672381D02*
X160202295Y-91129524D01*
X160202295Y-90900952D02*
X159402295Y-90900952D01*
X159402295Y-90900952D02*
X159516580Y-90977143D01*
X159516580Y-90977143D02*
X159592771Y-91053333D01*
X159592771Y-91053333D02*
X159630866Y-91129524D01*
X160202295Y-90291428D02*
X160202295Y-90139047D01*
X160202295Y-90139047D02*
X160164200Y-90062857D01*
X160164200Y-90062857D02*
X160126104Y-90024761D01*
X160126104Y-90024761D02*
X160011819Y-89948571D01*
X160011819Y-89948571D02*
X159859438Y-89910476D01*
X159859438Y-89910476D02*
X159554676Y-89910476D01*
X159554676Y-89910476D02*
X159478485Y-89948571D01*
X159478485Y-89948571D02*
X159440390Y-89986666D01*
X159440390Y-89986666D02*
X159402295Y-90062857D01*
X159402295Y-90062857D02*
X159402295Y-90215238D01*
X159402295Y-90215238D02*
X159440390Y-90291428D01*
X159440390Y-90291428D02*
X159478485Y-90329523D01*
X159478485Y-90329523D02*
X159554676Y-90367619D01*
X159554676Y-90367619D02*
X159745152Y-90367619D01*
X159745152Y-90367619D02*
X159821342Y-90329523D01*
X159821342Y-90329523D02*
X159859438Y-90291428D01*
X159859438Y-90291428D02*
X159897533Y-90215238D01*
X159897533Y-90215238D02*
X159897533Y-90062857D01*
X159897533Y-90062857D02*
X159859438Y-89986666D01*
X159859438Y-89986666D02*
X159821342Y-89948571D01*
X159821342Y-89948571D02*
X159745152Y-89910476D01*
X172140390Y-91529523D02*
X172102295Y-91605713D01*
X172102295Y-91605713D02*
X172102295Y-91719999D01*
X172102295Y-91719999D02*
X172140390Y-91834285D01*
X172140390Y-91834285D02*
X172216580Y-91910475D01*
X172216580Y-91910475D02*
X172292771Y-91948570D01*
X172292771Y-91948570D02*
X172445152Y-91986666D01*
X172445152Y-91986666D02*
X172559438Y-91986666D01*
X172559438Y-91986666D02*
X172711819Y-91948570D01*
X172711819Y-91948570D02*
X172788009Y-91910475D01*
X172788009Y-91910475D02*
X172864200Y-91834285D01*
X172864200Y-91834285D02*
X172902295Y-91719999D01*
X172902295Y-91719999D02*
X172902295Y-91643808D01*
X172902295Y-91643808D02*
X172864200Y-91529523D01*
X172864200Y-91529523D02*
X172826104Y-91491427D01*
X172826104Y-91491427D02*
X172559438Y-91491427D01*
X172559438Y-91491427D02*
X172559438Y-91643808D01*
X172902295Y-91148570D02*
X172102295Y-91148570D01*
X172102295Y-91148570D02*
X172902295Y-90691427D01*
X172902295Y-90691427D02*
X172102295Y-90691427D01*
X172902295Y-90310475D02*
X172102295Y-90310475D01*
X172102295Y-90310475D02*
X172102295Y-90119999D01*
X172102295Y-90119999D02*
X172140390Y-90005713D01*
X172140390Y-90005713D02*
X172216580Y-89929523D01*
X172216580Y-89929523D02*
X172292771Y-89891428D01*
X172292771Y-89891428D02*
X172445152Y-89853332D01*
X172445152Y-89853332D02*
X172559438Y-89853332D01*
X172559438Y-89853332D02*
X172711819Y-89891428D01*
X172711819Y-89891428D02*
X172788009Y-89929523D01*
X172788009Y-89929523D02*
X172864200Y-90005713D01*
X172864200Y-90005713D02*
X172902295Y-90119999D01*
X172902295Y-90119999D02*
X172902295Y-90310475D01*
X167022295Y-91986666D02*
X167822295Y-91719999D01*
X167822295Y-91719999D02*
X167022295Y-91453333D01*
X167746104Y-90729523D02*
X167784200Y-90767619D01*
X167784200Y-90767619D02*
X167822295Y-90881904D01*
X167822295Y-90881904D02*
X167822295Y-90958095D01*
X167822295Y-90958095D02*
X167784200Y-91072381D01*
X167784200Y-91072381D02*
X167708009Y-91148571D01*
X167708009Y-91148571D02*
X167631819Y-91186666D01*
X167631819Y-91186666D02*
X167479438Y-91224762D01*
X167479438Y-91224762D02*
X167365152Y-91224762D01*
X167365152Y-91224762D02*
X167212771Y-91186666D01*
X167212771Y-91186666D02*
X167136580Y-91148571D01*
X167136580Y-91148571D02*
X167060390Y-91072381D01*
X167060390Y-91072381D02*
X167022295Y-90958095D01*
X167022295Y-90958095D02*
X167022295Y-90881904D01*
X167022295Y-90881904D02*
X167060390Y-90767619D01*
X167060390Y-90767619D02*
X167098485Y-90729523D01*
X167746104Y-89929523D02*
X167784200Y-89967619D01*
X167784200Y-89967619D02*
X167822295Y-90081904D01*
X167822295Y-90081904D02*
X167822295Y-90158095D01*
X167822295Y-90158095D02*
X167784200Y-90272381D01*
X167784200Y-90272381D02*
X167708009Y-90348571D01*
X167708009Y-90348571D02*
X167631819Y-90386666D01*
X167631819Y-90386666D02*
X167479438Y-90424762D01*
X167479438Y-90424762D02*
X167365152Y-90424762D01*
X167365152Y-90424762D02*
X167212771Y-90386666D01*
X167212771Y-90386666D02*
X167136580Y-90348571D01*
X167136580Y-90348571D02*
X167060390Y-90272381D01*
X167060390Y-90272381D02*
X167022295Y-90158095D01*
X167022295Y-90158095D02*
X167022295Y-90081904D01*
X167022295Y-90081904D02*
X167060390Y-89967619D01*
X167060390Y-89967619D02*
X167098485Y-89929523D01*
X162742295Y-91891428D02*
X161942295Y-91891428D01*
X161942295Y-91891428D02*
X161942295Y-91586666D01*
X161942295Y-91586666D02*
X161980390Y-91510476D01*
X161980390Y-91510476D02*
X162018485Y-91472381D01*
X162018485Y-91472381D02*
X162094676Y-91434285D01*
X162094676Y-91434285D02*
X162208961Y-91434285D01*
X162208961Y-91434285D02*
X162285152Y-91472381D01*
X162285152Y-91472381D02*
X162323247Y-91510476D01*
X162323247Y-91510476D02*
X162361342Y-91586666D01*
X162361342Y-91586666D02*
X162361342Y-91891428D01*
X162018485Y-91129524D02*
X161980390Y-91091428D01*
X161980390Y-91091428D02*
X161942295Y-91015238D01*
X161942295Y-91015238D02*
X161942295Y-90824762D01*
X161942295Y-90824762D02*
X161980390Y-90748571D01*
X161980390Y-90748571D02*
X162018485Y-90710476D01*
X162018485Y-90710476D02*
X162094676Y-90672381D01*
X162094676Y-90672381D02*
X162170866Y-90672381D01*
X162170866Y-90672381D02*
X162285152Y-90710476D01*
X162285152Y-90710476D02*
X162742295Y-91167619D01*
X162742295Y-91167619D02*
X162742295Y-90672381D01*
X161942295Y-90177142D02*
X161942295Y-90100952D01*
X161942295Y-90100952D02*
X161980390Y-90024761D01*
X161980390Y-90024761D02*
X162018485Y-89986666D01*
X162018485Y-89986666D02*
X162094676Y-89948571D01*
X162094676Y-89948571D02*
X162247057Y-89910476D01*
X162247057Y-89910476D02*
X162437533Y-89910476D01*
X162437533Y-89910476D02*
X162589914Y-89948571D01*
X162589914Y-89948571D02*
X162666104Y-89986666D01*
X162666104Y-89986666D02*
X162704200Y-90024761D01*
X162704200Y-90024761D02*
X162742295Y-90100952D01*
X162742295Y-90100952D02*
X162742295Y-90177142D01*
X162742295Y-90177142D02*
X162704200Y-90253333D01*
X162704200Y-90253333D02*
X162666104Y-90291428D01*
X162666104Y-90291428D02*
X162589914Y-90329523D01*
X162589914Y-90329523D02*
X162437533Y-90367619D01*
X162437533Y-90367619D02*
X162247057Y-90367619D01*
X162247057Y-90367619D02*
X162094676Y-90329523D01*
X162094676Y-90329523D02*
X162018485Y-90291428D01*
X162018485Y-90291428D02*
X161980390Y-90253333D01*
X161980390Y-90253333D02*
X161942295Y-90177142D01*
X157662295Y-91891428D02*
X156862295Y-91891428D01*
X156862295Y-91891428D02*
X156862295Y-91586666D01*
X156862295Y-91586666D02*
X156900390Y-91510476D01*
X156900390Y-91510476D02*
X156938485Y-91472381D01*
X156938485Y-91472381D02*
X157014676Y-91434285D01*
X157014676Y-91434285D02*
X157128961Y-91434285D01*
X157128961Y-91434285D02*
X157205152Y-91472381D01*
X157205152Y-91472381D02*
X157243247Y-91510476D01*
X157243247Y-91510476D02*
X157281342Y-91586666D01*
X157281342Y-91586666D02*
X157281342Y-91891428D01*
X157662295Y-90672381D02*
X157662295Y-91129524D01*
X157662295Y-90900952D02*
X156862295Y-90900952D01*
X156862295Y-90900952D02*
X156976580Y-90977143D01*
X156976580Y-90977143D02*
X157052771Y-91053333D01*
X157052771Y-91053333D02*
X157090866Y-91129524D01*
X157205152Y-90215238D02*
X157167057Y-90291428D01*
X157167057Y-90291428D02*
X157128961Y-90329523D01*
X157128961Y-90329523D02*
X157052771Y-90367619D01*
X157052771Y-90367619D02*
X157014676Y-90367619D01*
X157014676Y-90367619D02*
X156938485Y-90329523D01*
X156938485Y-90329523D02*
X156900390Y-90291428D01*
X156900390Y-90291428D02*
X156862295Y-90215238D01*
X156862295Y-90215238D02*
X156862295Y-90062857D01*
X156862295Y-90062857D02*
X156900390Y-89986666D01*
X156900390Y-89986666D02*
X156938485Y-89948571D01*
X156938485Y-89948571D02*
X157014676Y-89910476D01*
X157014676Y-89910476D02*
X157052771Y-89910476D01*
X157052771Y-89910476D02*
X157128961Y-89948571D01*
X157128961Y-89948571D02*
X157167057Y-89986666D01*
X157167057Y-89986666D02*
X157205152Y-90062857D01*
X157205152Y-90062857D02*
X157205152Y-90215238D01*
X157205152Y-90215238D02*
X157243247Y-90291428D01*
X157243247Y-90291428D02*
X157281342Y-90329523D01*
X157281342Y-90329523D02*
X157357533Y-90367619D01*
X157357533Y-90367619D02*
X157509914Y-90367619D01*
X157509914Y-90367619D02*
X157586104Y-90329523D01*
X157586104Y-90329523D02*
X157624200Y-90291428D01*
X157624200Y-90291428D02*
X157662295Y-90215238D01*
X157662295Y-90215238D02*
X157662295Y-90062857D01*
X157662295Y-90062857D02*
X157624200Y-89986666D01*
X157624200Y-89986666D02*
X157586104Y-89948571D01*
X157586104Y-89948571D02*
X157509914Y-89910476D01*
X157509914Y-89910476D02*
X157357533Y-89910476D01*
X157357533Y-89910476D02*
X157281342Y-89948571D01*
X157281342Y-89948571D02*
X157243247Y-89986666D01*
X157243247Y-89986666D02*
X157205152Y-90062857D01*
X150042295Y-91891428D02*
X149242295Y-91891428D01*
X149242295Y-91891428D02*
X149242295Y-91586666D01*
X149242295Y-91586666D02*
X149280390Y-91510476D01*
X149280390Y-91510476D02*
X149318485Y-91472381D01*
X149318485Y-91472381D02*
X149394676Y-91434285D01*
X149394676Y-91434285D02*
X149508961Y-91434285D01*
X149508961Y-91434285D02*
X149585152Y-91472381D01*
X149585152Y-91472381D02*
X149623247Y-91510476D01*
X149623247Y-91510476D02*
X149661342Y-91586666D01*
X149661342Y-91586666D02*
X149661342Y-91891428D01*
X150042295Y-90672381D02*
X150042295Y-91129524D01*
X150042295Y-90900952D02*
X149242295Y-90900952D01*
X149242295Y-90900952D02*
X149356580Y-90977143D01*
X149356580Y-90977143D02*
X149432771Y-91053333D01*
X149432771Y-91053333D02*
X149470866Y-91129524D01*
X149242295Y-89986666D02*
X149242295Y-90139047D01*
X149242295Y-90139047D02*
X149280390Y-90215238D01*
X149280390Y-90215238D02*
X149318485Y-90253333D01*
X149318485Y-90253333D02*
X149432771Y-90329523D01*
X149432771Y-90329523D02*
X149585152Y-90367619D01*
X149585152Y-90367619D02*
X149889914Y-90367619D01*
X149889914Y-90367619D02*
X149966104Y-90329523D01*
X149966104Y-90329523D02*
X150004200Y-90291428D01*
X150004200Y-90291428D02*
X150042295Y-90215238D01*
X150042295Y-90215238D02*
X150042295Y-90062857D01*
X150042295Y-90062857D02*
X150004200Y-89986666D01*
X150004200Y-89986666D02*
X149966104Y-89948571D01*
X149966104Y-89948571D02*
X149889914Y-89910476D01*
X149889914Y-89910476D02*
X149699438Y-89910476D01*
X149699438Y-89910476D02*
X149623247Y-89948571D01*
X149623247Y-89948571D02*
X149585152Y-89986666D01*
X149585152Y-89986666D02*
X149547057Y-90062857D01*
X149547057Y-90062857D02*
X149547057Y-90215238D01*
X149547057Y-90215238D02*
X149585152Y-90291428D01*
X149585152Y-90291428D02*
X149623247Y-90329523D01*
X149623247Y-90329523D02*
X149699438Y-90367619D01*
X175442295Y-82291428D02*
X174642295Y-82291428D01*
X174642295Y-82291428D02*
X174642295Y-81986666D01*
X174642295Y-81986666D02*
X174680390Y-81910476D01*
X174680390Y-81910476D02*
X174718485Y-81872381D01*
X174718485Y-81872381D02*
X174794676Y-81834285D01*
X174794676Y-81834285D02*
X174908961Y-81834285D01*
X174908961Y-81834285D02*
X174985152Y-81872381D01*
X174985152Y-81872381D02*
X175023247Y-81910476D01*
X175023247Y-81910476D02*
X175061342Y-81986666D01*
X175061342Y-81986666D02*
X175061342Y-82291428D01*
X174642295Y-81339047D02*
X174642295Y-81262857D01*
X174642295Y-81262857D02*
X174680390Y-81186666D01*
X174680390Y-81186666D02*
X174718485Y-81148571D01*
X174718485Y-81148571D02*
X174794676Y-81110476D01*
X174794676Y-81110476D02*
X174947057Y-81072381D01*
X174947057Y-81072381D02*
X175137533Y-81072381D01*
X175137533Y-81072381D02*
X175289914Y-81110476D01*
X175289914Y-81110476D02*
X175366104Y-81148571D01*
X175366104Y-81148571D02*
X175404200Y-81186666D01*
X175404200Y-81186666D02*
X175442295Y-81262857D01*
X175442295Y-81262857D02*
X175442295Y-81339047D01*
X175442295Y-81339047D02*
X175404200Y-81415238D01*
X175404200Y-81415238D02*
X175366104Y-81453333D01*
X175366104Y-81453333D02*
X175289914Y-81491428D01*
X175289914Y-81491428D02*
X175137533Y-81529524D01*
X175137533Y-81529524D02*
X174947057Y-81529524D01*
X174947057Y-81529524D02*
X174794676Y-81491428D01*
X174794676Y-81491428D02*
X174718485Y-81453333D01*
X174718485Y-81453333D02*
X174680390Y-81415238D01*
X174680390Y-81415238D02*
X174642295Y-81339047D01*
X175442295Y-80310476D02*
X175442295Y-80767619D01*
X175442295Y-80539047D02*
X174642295Y-80539047D01*
X174642295Y-80539047D02*
X174756580Y-80615238D01*
X174756580Y-80615238D02*
X174832771Y-80691428D01*
X174832771Y-80691428D02*
X174870866Y-80767619D01*
X160202295Y-82291428D02*
X159402295Y-82291428D01*
X159402295Y-82291428D02*
X159402295Y-81986666D01*
X159402295Y-81986666D02*
X159440390Y-81910476D01*
X159440390Y-81910476D02*
X159478485Y-81872381D01*
X159478485Y-81872381D02*
X159554676Y-81834285D01*
X159554676Y-81834285D02*
X159668961Y-81834285D01*
X159668961Y-81834285D02*
X159745152Y-81872381D01*
X159745152Y-81872381D02*
X159783247Y-81910476D01*
X159783247Y-81910476D02*
X159821342Y-81986666D01*
X159821342Y-81986666D02*
X159821342Y-82291428D01*
X159402295Y-81339047D02*
X159402295Y-81262857D01*
X159402295Y-81262857D02*
X159440390Y-81186666D01*
X159440390Y-81186666D02*
X159478485Y-81148571D01*
X159478485Y-81148571D02*
X159554676Y-81110476D01*
X159554676Y-81110476D02*
X159707057Y-81072381D01*
X159707057Y-81072381D02*
X159897533Y-81072381D01*
X159897533Y-81072381D02*
X160049914Y-81110476D01*
X160049914Y-81110476D02*
X160126104Y-81148571D01*
X160126104Y-81148571D02*
X160164200Y-81186666D01*
X160164200Y-81186666D02*
X160202295Y-81262857D01*
X160202295Y-81262857D02*
X160202295Y-81339047D01*
X160202295Y-81339047D02*
X160164200Y-81415238D01*
X160164200Y-81415238D02*
X160126104Y-81453333D01*
X160126104Y-81453333D02*
X160049914Y-81491428D01*
X160049914Y-81491428D02*
X159897533Y-81529524D01*
X159897533Y-81529524D02*
X159707057Y-81529524D01*
X159707057Y-81529524D02*
X159554676Y-81491428D01*
X159554676Y-81491428D02*
X159478485Y-81453333D01*
X159478485Y-81453333D02*
X159440390Y-81415238D01*
X159440390Y-81415238D02*
X159402295Y-81339047D01*
X159668961Y-80386666D02*
X160202295Y-80386666D01*
X159364200Y-80577142D02*
X159935628Y-80767619D01*
X159935628Y-80767619D02*
X159935628Y-80272380D01*
X167060390Y-81929523D02*
X167022295Y-82005713D01*
X167022295Y-82005713D02*
X167022295Y-82119999D01*
X167022295Y-82119999D02*
X167060390Y-82234285D01*
X167060390Y-82234285D02*
X167136580Y-82310475D01*
X167136580Y-82310475D02*
X167212771Y-82348570D01*
X167212771Y-82348570D02*
X167365152Y-82386666D01*
X167365152Y-82386666D02*
X167479438Y-82386666D01*
X167479438Y-82386666D02*
X167631819Y-82348570D01*
X167631819Y-82348570D02*
X167708009Y-82310475D01*
X167708009Y-82310475D02*
X167784200Y-82234285D01*
X167784200Y-82234285D02*
X167822295Y-82119999D01*
X167822295Y-82119999D02*
X167822295Y-82043808D01*
X167822295Y-82043808D02*
X167784200Y-81929523D01*
X167784200Y-81929523D02*
X167746104Y-81891427D01*
X167746104Y-81891427D02*
X167479438Y-81891427D01*
X167479438Y-81891427D02*
X167479438Y-82043808D01*
X167822295Y-81548570D02*
X167022295Y-81548570D01*
X167022295Y-81548570D02*
X167822295Y-81091427D01*
X167822295Y-81091427D02*
X167022295Y-81091427D01*
X167822295Y-80710475D02*
X167022295Y-80710475D01*
X167022295Y-80710475D02*
X167022295Y-80519999D01*
X167022295Y-80519999D02*
X167060390Y-80405713D01*
X167060390Y-80405713D02*
X167136580Y-80329523D01*
X167136580Y-80329523D02*
X167212771Y-80291428D01*
X167212771Y-80291428D02*
X167365152Y-80253332D01*
X167365152Y-80253332D02*
X167479438Y-80253332D01*
X167479438Y-80253332D02*
X167631819Y-80291428D01*
X167631819Y-80291428D02*
X167708009Y-80329523D01*
X167708009Y-80329523D02*
X167784200Y-80405713D01*
X167784200Y-80405713D02*
X167822295Y-80519999D01*
X167822295Y-80519999D02*
X167822295Y-80710475D01*
X152582295Y-82291428D02*
X151782295Y-82291428D01*
X151782295Y-82291428D02*
X151782295Y-81986666D01*
X151782295Y-81986666D02*
X151820390Y-81910476D01*
X151820390Y-81910476D02*
X151858485Y-81872381D01*
X151858485Y-81872381D02*
X151934676Y-81834285D01*
X151934676Y-81834285D02*
X152048961Y-81834285D01*
X152048961Y-81834285D02*
X152125152Y-81872381D01*
X152125152Y-81872381D02*
X152163247Y-81910476D01*
X152163247Y-81910476D02*
X152201342Y-81986666D01*
X152201342Y-81986666D02*
X152201342Y-82291428D01*
X151782295Y-81339047D02*
X151782295Y-81262857D01*
X151782295Y-81262857D02*
X151820390Y-81186666D01*
X151820390Y-81186666D02*
X151858485Y-81148571D01*
X151858485Y-81148571D02*
X151934676Y-81110476D01*
X151934676Y-81110476D02*
X152087057Y-81072381D01*
X152087057Y-81072381D02*
X152277533Y-81072381D01*
X152277533Y-81072381D02*
X152429914Y-81110476D01*
X152429914Y-81110476D02*
X152506104Y-81148571D01*
X152506104Y-81148571D02*
X152544200Y-81186666D01*
X152544200Y-81186666D02*
X152582295Y-81262857D01*
X152582295Y-81262857D02*
X152582295Y-81339047D01*
X152582295Y-81339047D02*
X152544200Y-81415238D01*
X152544200Y-81415238D02*
X152506104Y-81453333D01*
X152506104Y-81453333D02*
X152429914Y-81491428D01*
X152429914Y-81491428D02*
X152277533Y-81529524D01*
X152277533Y-81529524D02*
X152087057Y-81529524D01*
X152087057Y-81529524D02*
X151934676Y-81491428D01*
X151934676Y-81491428D02*
X151858485Y-81453333D01*
X151858485Y-81453333D02*
X151820390Y-81415238D01*
X151820390Y-81415238D02*
X151782295Y-81339047D01*
X151782295Y-80805714D02*
X151782295Y-80272380D01*
X151782295Y-80272380D02*
X152582295Y-80615238D01*
X157662295Y-82291428D02*
X156862295Y-82291428D01*
X156862295Y-82291428D02*
X156862295Y-81986666D01*
X156862295Y-81986666D02*
X156900390Y-81910476D01*
X156900390Y-81910476D02*
X156938485Y-81872381D01*
X156938485Y-81872381D02*
X157014676Y-81834285D01*
X157014676Y-81834285D02*
X157128961Y-81834285D01*
X157128961Y-81834285D02*
X157205152Y-81872381D01*
X157205152Y-81872381D02*
X157243247Y-81910476D01*
X157243247Y-81910476D02*
X157281342Y-81986666D01*
X157281342Y-81986666D02*
X157281342Y-82291428D01*
X156862295Y-81339047D02*
X156862295Y-81262857D01*
X156862295Y-81262857D02*
X156900390Y-81186666D01*
X156900390Y-81186666D02*
X156938485Y-81148571D01*
X156938485Y-81148571D02*
X157014676Y-81110476D01*
X157014676Y-81110476D02*
X157167057Y-81072381D01*
X157167057Y-81072381D02*
X157357533Y-81072381D01*
X157357533Y-81072381D02*
X157509914Y-81110476D01*
X157509914Y-81110476D02*
X157586104Y-81148571D01*
X157586104Y-81148571D02*
X157624200Y-81186666D01*
X157624200Y-81186666D02*
X157662295Y-81262857D01*
X157662295Y-81262857D02*
X157662295Y-81339047D01*
X157662295Y-81339047D02*
X157624200Y-81415238D01*
X157624200Y-81415238D02*
X157586104Y-81453333D01*
X157586104Y-81453333D02*
X157509914Y-81491428D01*
X157509914Y-81491428D02*
X157357533Y-81529524D01*
X157357533Y-81529524D02*
X157167057Y-81529524D01*
X157167057Y-81529524D02*
X157014676Y-81491428D01*
X157014676Y-81491428D02*
X156938485Y-81453333D01*
X156938485Y-81453333D02*
X156900390Y-81415238D01*
X156900390Y-81415238D02*
X156862295Y-81339047D01*
X156862295Y-80348571D02*
X156862295Y-80729523D01*
X156862295Y-80729523D02*
X157243247Y-80767619D01*
X157243247Y-80767619D02*
X157205152Y-80729523D01*
X157205152Y-80729523D02*
X157167057Y-80653333D01*
X157167057Y-80653333D02*
X157167057Y-80462857D01*
X157167057Y-80462857D02*
X157205152Y-80386666D01*
X157205152Y-80386666D02*
X157243247Y-80348571D01*
X157243247Y-80348571D02*
X157319438Y-80310476D01*
X157319438Y-80310476D02*
X157509914Y-80310476D01*
X157509914Y-80310476D02*
X157586104Y-80348571D01*
X157586104Y-80348571D02*
X157624200Y-80386666D01*
X157624200Y-80386666D02*
X157662295Y-80462857D01*
X157662295Y-80462857D02*
X157662295Y-80653333D01*
X157662295Y-80653333D02*
X157624200Y-80729523D01*
X157624200Y-80729523D02*
X157586104Y-80767619D01*
X162742295Y-82291428D02*
X161942295Y-82291428D01*
X161942295Y-82291428D02*
X161942295Y-81986666D01*
X161942295Y-81986666D02*
X161980390Y-81910476D01*
X161980390Y-81910476D02*
X162018485Y-81872381D01*
X162018485Y-81872381D02*
X162094676Y-81834285D01*
X162094676Y-81834285D02*
X162208961Y-81834285D01*
X162208961Y-81834285D02*
X162285152Y-81872381D01*
X162285152Y-81872381D02*
X162323247Y-81910476D01*
X162323247Y-81910476D02*
X162361342Y-81986666D01*
X162361342Y-81986666D02*
X162361342Y-82291428D01*
X161942295Y-81339047D02*
X161942295Y-81262857D01*
X161942295Y-81262857D02*
X161980390Y-81186666D01*
X161980390Y-81186666D02*
X162018485Y-81148571D01*
X162018485Y-81148571D02*
X162094676Y-81110476D01*
X162094676Y-81110476D02*
X162247057Y-81072381D01*
X162247057Y-81072381D02*
X162437533Y-81072381D01*
X162437533Y-81072381D02*
X162589914Y-81110476D01*
X162589914Y-81110476D02*
X162666104Y-81148571D01*
X162666104Y-81148571D02*
X162704200Y-81186666D01*
X162704200Y-81186666D02*
X162742295Y-81262857D01*
X162742295Y-81262857D02*
X162742295Y-81339047D01*
X162742295Y-81339047D02*
X162704200Y-81415238D01*
X162704200Y-81415238D02*
X162666104Y-81453333D01*
X162666104Y-81453333D02*
X162589914Y-81491428D01*
X162589914Y-81491428D02*
X162437533Y-81529524D01*
X162437533Y-81529524D02*
X162247057Y-81529524D01*
X162247057Y-81529524D02*
X162094676Y-81491428D01*
X162094676Y-81491428D02*
X162018485Y-81453333D01*
X162018485Y-81453333D02*
X161980390Y-81415238D01*
X161980390Y-81415238D02*
X161942295Y-81339047D01*
X161942295Y-80805714D02*
X161942295Y-80310476D01*
X161942295Y-80310476D02*
X162247057Y-80577142D01*
X162247057Y-80577142D02*
X162247057Y-80462857D01*
X162247057Y-80462857D02*
X162285152Y-80386666D01*
X162285152Y-80386666D02*
X162323247Y-80348571D01*
X162323247Y-80348571D02*
X162399438Y-80310476D01*
X162399438Y-80310476D02*
X162589914Y-80310476D01*
X162589914Y-80310476D02*
X162666104Y-80348571D01*
X162666104Y-80348571D02*
X162704200Y-80386666D01*
X162704200Y-80386666D02*
X162742295Y-80462857D01*
X162742295Y-80462857D02*
X162742295Y-80691428D01*
X162742295Y-80691428D02*
X162704200Y-80767619D01*
X162704200Y-80767619D02*
X162666104Y-80805714D01*
X150042295Y-82291428D02*
X149242295Y-82291428D01*
X149242295Y-82291428D02*
X149242295Y-81986666D01*
X149242295Y-81986666D02*
X149280390Y-81910476D01*
X149280390Y-81910476D02*
X149318485Y-81872381D01*
X149318485Y-81872381D02*
X149394676Y-81834285D01*
X149394676Y-81834285D02*
X149508961Y-81834285D01*
X149508961Y-81834285D02*
X149585152Y-81872381D01*
X149585152Y-81872381D02*
X149623247Y-81910476D01*
X149623247Y-81910476D02*
X149661342Y-81986666D01*
X149661342Y-81986666D02*
X149661342Y-82291428D01*
X149242295Y-81339047D02*
X149242295Y-81262857D01*
X149242295Y-81262857D02*
X149280390Y-81186666D01*
X149280390Y-81186666D02*
X149318485Y-81148571D01*
X149318485Y-81148571D02*
X149394676Y-81110476D01*
X149394676Y-81110476D02*
X149547057Y-81072381D01*
X149547057Y-81072381D02*
X149737533Y-81072381D01*
X149737533Y-81072381D02*
X149889914Y-81110476D01*
X149889914Y-81110476D02*
X149966104Y-81148571D01*
X149966104Y-81148571D02*
X150004200Y-81186666D01*
X150004200Y-81186666D02*
X150042295Y-81262857D01*
X150042295Y-81262857D02*
X150042295Y-81339047D01*
X150042295Y-81339047D02*
X150004200Y-81415238D01*
X150004200Y-81415238D02*
X149966104Y-81453333D01*
X149966104Y-81453333D02*
X149889914Y-81491428D01*
X149889914Y-81491428D02*
X149737533Y-81529524D01*
X149737533Y-81529524D02*
X149547057Y-81529524D01*
X149547057Y-81529524D02*
X149394676Y-81491428D01*
X149394676Y-81491428D02*
X149318485Y-81453333D01*
X149318485Y-81453333D02*
X149280390Y-81415238D01*
X149280390Y-81415238D02*
X149242295Y-81339047D01*
X149585152Y-80615238D02*
X149547057Y-80691428D01*
X149547057Y-80691428D02*
X149508961Y-80729523D01*
X149508961Y-80729523D02*
X149432771Y-80767619D01*
X149432771Y-80767619D02*
X149394676Y-80767619D01*
X149394676Y-80767619D02*
X149318485Y-80729523D01*
X149318485Y-80729523D02*
X149280390Y-80691428D01*
X149280390Y-80691428D02*
X149242295Y-80615238D01*
X149242295Y-80615238D02*
X149242295Y-80462857D01*
X149242295Y-80462857D02*
X149280390Y-80386666D01*
X149280390Y-80386666D02*
X149318485Y-80348571D01*
X149318485Y-80348571D02*
X149394676Y-80310476D01*
X149394676Y-80310476D02*
X149432771Y-80310476D01*
X149432771Y-80310476D02*
X149508961Y-80348571D01*
X149508961Y-80348571D02*
X149547057Y-80386666D01*
X149547057Y-80386666D02*
X149585152Y-80462857D01*
X149585152Y-80462857D02*
X149585152Y-80615238D01*
X149585152Y-80615238D02*
X149623247Y-80691428D01*
X149623247Y-80691428D02*
X149661342Y-80729523D01*
X149661342Y-80729523D02*
X149737533Y-80767619D01*
X149737533Y-80767619D02*
X149889914Y-80767619D01*
X149889914Y-80767619D02*
X149966104Y-80729523D01*
X149966104Y-80729523D02*
X150004200Y-80691428D01*
X150004200Y-80691428D02*
X150042295Y-80615238D01*
X150042295Y-80615238D02*
X150042295Y-80462857D01*
X150042295Y-80462857D02*
X150004200Y-80386666D01*
X150004200Y-80386666D02*
X149966104Y-80348571D01*
X149966104Y-80348571D02*
X149889914Y-80310476D01*
X149889914Y-80310476D02*
X149737533Y-80310476D01*
X149737533Y-80310476D02*
X149661342Y-80348571D01*
X149661342Y-80348571D02*
X149623247Y-80386666D01*
X149623247Y-80386666D02*
X149585152Y-80462857D01*
X147502295Y-91891428D02*
X146702295Y-91891428D01*
X146702295Y-91891428D02*
X146702295Y-91586666D01*
X146702295Y-91586666D02*
X146740390Y-91510476D01*
X146740390Y-91510476D02*
X146778485Y-91472381D01*
X146778485Y-91472381D02*
X146854676Y-91434285D01*
X146854676Y-91434285D02*
X146968961Y-91434285D01*
X146968961Y-91434285D02*
X147045152Y-91472381D01*
X147045152Y-91472381D02*
X147083247Y-91510476D01*
X147083247Y-91510476D02*
X147121342Y-91586666D01*
X147121342Y-91586666D02*
X147121342Y-91891428D01*
X147502295Y-90672381D02*
X147502295Y-91129524D01*
X147502295Y-90900952D02*
X146702295Y-90900952D01*
X146702295Y-90900952D02*
X146816580Y-90977143D01*
X146816580Y-90977143D02*
X146892771Y-91053333D01*
X146892771Y-91053333D02*
X146930866Y-91129524D01*
X146702295Y-90177142D02*
X146702295Y-90100952D01*
X146702295Y-90100952D02*
X146740390Y-90024761D01*
X146740390Y-90024761D02*
X146778485Y-89986666D01*
X146778485Y-89986666D02*
X146854676Y-89948571D01*
X146854676Y-89948571D02*
X147007057Y-89910476D01*
X147007057Y-89910476D02*
X147197533Y-89910476D01*
X147197533Y-89910476D02*
X147349914Y-89948571D01*
X147349914Y-89948571D02*
X147426104Y-89986666D01*
X147426104Y-89986666D02*
X147464200Y-90024761D01*
X147464200Y-90024761D02*
X147502295Y-90100952D01*
X147502295Y-90100952D02*
X147502295Y-90177142D01*
X147502295Y-90177142D02*
X147464200Y-90253333D01*
X147464200Y-90253333D02*
X147426104Y-90291428D01*
X147426104Y-90291428D02*
X147349914Y-90329523D01*
X147349914Y-90329523D02*
X147197533Y-90367619D01*
X147197533Y-90367619D02*
X147007057Y-90367619D01*
X147007057Y-90367619D02*
X146854676Y-90329523D01*
X146854676Y-90329523D02*
X146778485Y-90291428D01*
X146778485Y-90291428D02*
X146740390Y-90253333D01*
X146740390Y-90253333D02*
X146702295Y-90177142D01*
X155122295Y-82291428D02*
X154322295Y-82291428D01*
X154322295Y-82291428D02*
X154322295Y-81986666D01*
X154322295Y-81986666D02*
X154360390Y-81910476D01*
X154360390Y-81910476D02*
X154398485Y-81872381D01*
X154398485Y-81872381D02*
X154474676Y-81834285D01*
X154474676Y-81834285D02*
X154588961Y-81834285D01*
X154588961Y-81834285D02*
X154665152Y-81872381D01*
X154665152Y-81872381D02*
X154703247Y-81910476D01*
X154703247Y-81910476D02*
X154741342Y-81986666D01*
X154741342Y-81986666D02*
X154741342Y-82291428D01*
X154322295Y-81339047D02*
X154322295Y-81262857D01*
X154322295Y-81262857D02*
X154360390Y-81186666D01*
X154360390Y-81186666D02*
X154398485Y-81148571D01*
X154398485Y-81148571D02*
X154474676Y-81110476D01*
X154474676Y-81110476D02*
X154627057Y-81072381D01*
X154627057Y-81072381D02*
X154817533Y-81072381D01*
X154817533Y-81072381D02*
X154969914Y-81110476D01*
X154969914Y-81110476D02*
X155046104Y-81148571D01*
X155046104Y-81148571D02*
X155084200Y-81186666D01*
X155084200Y-81186666D02*
X155122295Y-81262857D01*
X155122295Y-81262857D02*
X155122295Y-81339047D01*
X155122295Y-81339047D02*
X155084200Y-81415238D01*
X155084200Y-81415238D02*
X155046104Y-81453333D01*
X155046104Y-81453333D02*
X154969914Y-81491428D01*
X154969914Y-81491428D02*
X154817533Y-81529524D01*
X154817533Y-81529524D02*
X154627057Y-81529524D01*
X154627057Y-81529524D02*
X154474676Y-81491428D01*
X154474676Y-81491428D02*
X154398485Y-81453333D01*
X154398485Y-81453333D02*
X154360390Y-81415238D01*
X154360390Y-81415238D02*
X154322295Y-81339047D01*
X154322295Y-80386666D02*
X154322295Y-80539047D01*
X154322295Y-80539047D02*
X154360390Y-80615238D01*
X154360390Y-80615238D02*
X154398485Y-80653333D01*
X154398485Y-80653333D02*
X154512771Y-80729523D01*
X154512771Y-80729523D02*
X154665152Y-80767619D01*
X154665152Y-80767619D02*
X154969914Y-80767619D01*
X154969914Y-80767619D02*
X155046104Y-80729523D01*
X155046104Y-80729523D02*
X155084200Y-80691428D01*
X155084200Y-80691428D02*
X155122295Y-80615238D01*
X155122295Y-80615238D02*
X155122295Y-80462857D01*
X155122295Y-80462857D02*
X155084200Y-80386666D01*
X155084200Y-80386666D02*
X155046104Y-80348571D01*
X155046104Y-80348571D02*
X154969914Y-80310476D01*
X154969914Y-80310476D02*
X154779438Y-80310476D01*
X154779438Y-80310476D02*
X154703247Y-80348571D01*
X154703247Y-80348571D02*
X154665152Y-80386666D01*
X154665152Y-80386666D02*
X154627057Y-80462857D01*
X154627057Y-80462857D02*
X154627057Y-80615238D01*
X154627057Y-80615238D02*
X154665152Y-80691428D01*
X154665152Y-80691428D02*
X154703247Y-80729523D01*
X154703247Y-80729523D02*
X154779438Y-80767619D01*
X165282295Y-82291428D02*
X164482295Y-82291428D01*
X164482295Y-82291428D02*
X164482295Y-81986666D01*
X164482295Y-81986666D02*
X164520390Y-81910476D01*
X164520390Y-81910476D02*
X164558485Y-81872381D01*
X164558485Y-81872381D02*
X164634676Y-81834285D01*
X164634676Y-81834285D02*
X164748961Y-81834285D01*
X164748961Y-81834285D02*
X164825152Y-81872381D01*
X164825152Y-81872381D02*
X164863247Y-81910476D01*
X164863247Y-81910476D02*
X164901342Y-81986666D01*
X164901342Y-81986666D02*
X164901342Y-82291428D01*
X164482295Y-81339047D02*
X164482295Y-81262857D01*
X164482295Y-81262857D02*
X164520390Y-81186666D01*
X164520390Y-81186666D02*
X164558485Y-81148571D01*
X164558485Y-81148571D02*
X164634676Y-81110476D01*
X164634676Y-81110476D02*
X164787057Y-81072381D01*
X164787057Y-81072381D02*
X164977533Y-81072381D01*
X164977533Y-81072381D02*
X165129914Y-81110476D01*
X165129914Y-81110476D02*
X165206104Y-81148571D01*
X165206104Y-81148571D02*
X165244200Y-81186666D01*
X165244200Y-81186666D02*
X165282295Y-81262857D01*
X165282295Y-81262857D02*
X165282295Y-81339047D01*
X165282295Y-81339047D02*
X165244200Y-81415238D01*
X165244200Y-81415238D02*
X165206104Y-81453333D01*
X165206104Y-81453333D02*
X165129914Y-81491428D01*
X165129914Y-81491428D02*
X164977533Y-81529524D01*
X164977533Y-81529524D02*
X164787057Y-81529524D01*
X164787057Y-81529524D02*
X164634676Y-81491428D01*
X164634676Y-81491428D02*
X164558485Y-81453333D01*
X164558485Y-81453333D02*
X164520390Y-81415238D01*
X164520390Y-81415238D02*
X164482295Y-81339047D01*
X164558485Y-80767619D02*
X164520390Y-80729523D01*
X164520390Y-80729523D02*
X164482295Y-80653333D01*
X164482295Y-80653333D02*
X164482295Y-80462857D01*
X164482295Y-80462857D02*
X164520390Y-80386666D01*
X164520390Y-80386666D02*
X164558485Y-80348571D01*
X164558485Y-80348571D02*
X164634676Y-80310476D01*
X164634676Y-80310476D02*
X164710866Y-80310476D01*
X164710866Y-80310476D02*
X164825152Y-80348571D01*
X164825152Y-80348571D02*
X165282295Y-80805714D01*
X165282295Y-80805714D02*
X165282295Y-80310476D01*
D13*
%TO.C,D5*%
X125400000Y-141250000D02*
X126200000Y-141250000D01*
X125800000Y-141250000D02*
X125800000Y-140750000D01*
X125800000Y-141850000D02*
X125250000Y-141850000D01*
X125800000Y-141850000D02*
X125400000Y-141250000D01*
X125800000Y-141850000D02*
X126350000Y-141850000D01*
X125800000Y-142250000D02*
X125800000Y-141850000D01*
X126200000Y-141250000D02*
X125800000Y-141850000D01*
%TO.C,D10*%
X143400000Y-118250000D02*
X144200000Y-118250000D01*
X143800000Y-118250000D02*
X143800000Y-117750000D01*
X143800000Y-118850000D02*
X143250000Y-118850000D01*
X143800000Y-118850000D02*
X143400000Y-118250000D01*
X143800000Y-118850000D02*
X144350000Y-118850000D01*
X143800000Y-119250000D02*
X143800000Y-118850000D01*
X144200000Y-118250000D02*
X143800000Y-118850000D01*
%TO.C,D17*%
X179400000Y-143250000D02*
X180200000Y-143250000D01*
X179800000Y-143250000D02*
X179800000Y-142750000D01*
X179800000Y-143850000D02*
X179250000Y-143850000D01*
X179800000Y-143850000D02*
X179400000Y-143250000D01*
X179800000Y-143850000D02*
X180350000Y-143850000D01*
X179800000Y-144250000D02*
X179800000Y-143850000D01*
X180200000Y-143250000D02*
X179800000Y-143850000D01*
D12*
%TO.C,LED2*%
X97500000Y-135500000D02*
X97500000Y-140500000D01*
X97500000Y-140500000D02*
X102500000Y-140500000D01*
X98250000Y-136250000D02*
X98250000Y-139750000D01*
X98250000Y-139750000D02*
X101750000Y-139750000D01*
X101750000Y-136250000D02*
X98250000Y-136250000D01*
X101750000Y-139750000D02*
X101750000Y-136250000D01*
X102500000Y-135500000D02*
X97500000Y-135500000D01*
X102500000Y-140500000D02*
X102500000Y-135500000D01*
D13*
X105000000Y-139287500D02*
X104000000Y-140200000D01*
X104000000Y-138375000D01*
X105000000Y-139287500D01*
G36*
X105000000Y-139287500D02*
G01*
X104000000Y-140200000D01*
X104000000Y-138375000D01*
X105000000Y-139287500D01*
G37*
D12*
%TO.C,LED14*%
X151500000Y-123500000D02*
X151500000Y-128500000D01*
X151500000Y-128500000D02*
X156500000Y-128500000D01*
X152250000Y-124250000D02*
X152250000Y-127750000D01*
X152250000Y-127750000D02*
X155750000Y-127750000D01*
X155750000Y-124250000D02*
X152250000Y-124250000D01*
X155750000Y-127750000D02*
X155750000Y-124250000D01*
X156500000Y-123500000D02*
X151500000Y-123500000D01*
X156500000Y-128500000D02*
X156500000Y-123500000D01*
D13*
X159000000Y-127287500D02*
X158000000Y-128200000D01*
X158000000Y-126375000D01*
X159000000Y-127287500D01*
G36*
X159000000Y-127287500D02*
G01*
X158000000Y-128200000D01*
X158000000Y-126375000D01*
X159000000Y-127287500D01*
G37*
D12*
%TO.C,LED15*%
X151500000Y-106500000D02*
X151500000Y-111500000D01*
X151500000Y-111500000D02*
X156500000Y-111500000D01*
X152250000Y-107250000D02*
X152250000Y-110750000D01*
X152250000Y-110750000D02*
X155750000Y-110750000D01*
X155750000Y-107250000D02*
X152250000Y-107250000D01*
X155750000Y-110750000D02*
X155750000Y-107250000D01*
X156500000Y-106500000D02*
X151500000Y-106500000D01*
X156500000Y-111500000D02*
X156500000Y-106500000D01*
D13*
X159000000Y-110287500D02*
X158000000Y-111200000D01*
X158000000Y-109375000D01*
X159000000Y-110287500D01*
G36*
X159000000Y-110287500D02*
G01*
X158000000Y-111200000D01*
X158000000Y-109375000D01*
X159000000Y-110287500D01*
G37*
D12*
%TO.C,LED10*%
X133500000Y-117500000D02*
X133500000Y-122500000D01*
X133500000Y-122500000D02*
X138500000Y-122500000D01*
X134250000Y-118250000D02*
X134250000Y-121750000D01*
X134250000Y-121750000D02*
X137750000Y-121750000D01*
X137750000Y-118250000D02*
X134250000Y-118250000D01*
X137750000Y-121750000D02*
X137750000Y-118250000D01*
X138500000Y-117500000D02*
X133500000Y-117500000D01*
X138500000Y-122500000D02*
X138500000Y-117500000D01*
D13*
X141000000Y-121287500D02*
X140000000Y-122200000D01*
X140000000Y-120375000D01*
X141000000Y-121287500D01*
G36*
X141000000Y-121287500D02*
G01*
X140000000Y-122200000D01*
X140000000Y-120375000D01*
X141000000Y-121287500D01*
G37*
D12*
%TO.C,LED18*%
X169500000Y-125500000D02*
X169500000Y-130500000D01*
X169500000Y-130500000D02*
X174500000Y-130500000D01*
X170250000Y-126250000D02*
X170250000Y-129750000D01*
X170250000Y-129750000D02*
X173750000Y-129750000D01*
X173750000Y-126250000D02*
X170250000Y-126250000D01*
X173750000Y-129750000D02*
X173750000Y-126250000D01*
X174500000Y-125500000D02*
X169500000Y-125500000D01*
X174500000Y-130500000D02*
X174500000Y-125500000D01*
D13*
X177000000Y-129287500D02*
X176000000Y-130200000D01*
X176000000Y-128375000D01*
X177000000Y-129287500D01*
G36*
X177000000Y-129287500D02*
G01*
X176000000Y-130200000D01*
X176000000Y-128375000D01*
X177000000Y-129287500D01*
G37*
D12*
%TO.C,LED7*%
X115500000Y-106500000D02*
X115500000Y-111500000D01*
X115500000Y-111500000D02*
X120500000Y-111500000D01*
X116250000Y-107250000D02*
X116250000Y-110750000D01*
X116250000Y-110750000D02*
X119750000Y-110750000D01*
X119750000Y-107250000D02*
X116250000Y-107250000D01*
X119750000Y-110750000D02*
X119750000Y-107250000D01*
X120500000Y-106500000D02*
X115500000Y-106500000D01*
X120500000Y-111500000D02*
X120500000Y-106500000D01*
D13*
X123000000Y-110287500D02*
X122000000Y-111200000D01*
X122000000Y-109375000D01*
X123000000Y-110287500D01*
G36*
X123000000Y-110287500D02*
G01*
X122000000Y-111200000D01*
X122000000Y-109375000D01*
X123000000Y-110287500D01*
G37*
%TO.C,D13*%
X161400000Y-141250000D02*
X162200000Y-141250000D01*
X161800000Y-141250000D02*
X161800000Y-140750000D01*
X161800000Y-141850000D02*
X161250000Y-141850000D01*
X161800000Y-141850000D02*
X161400000Y-141250000D01*
X161800000Y-141850000D02*
X162350000Y-141850000D01*
X161800000Y-142250000D02*
X161800000Y-141850000D01*
X162200000Y-141250000D02*
X161800000Y-141850000D01*
%TO.C,D3*%
X107400000Y-119250000D02*
X108200000Y-119250000D01*
X107800000Y-119250000D02*
X107800000Y-118750000D01*
X107800000Y-119850000D02*
X107250000Y-119850000D01*
X107800000Y-119850000D02*
X107400000Y-119250000D01*
X107800000Y-119850000D02*
X108350000Y-119850000D01*
X107800000Y-120250000D02*
X107800000Y-119850000D01*
X108200000Y-119250000D02*
X107800000Y-119850000D01*
%TO.C,D11*%
X143400000Y-101250000D02*
X144200000Y-101250000D01*
X143800000Y-101250000D02*
X143800000Y-100750000D01*
X143800000Y-101850000D02*
X143250000Y-101850000D01*
X143800000Y-101850000D02*
X143400000Y-101250000D01*
X143800000Y-101850000D02*
X144350000Y-101850000D01*
X143800000Y-102250000D02*
X143800000Y-101850000D01*
X144200000Y-101250000D02*
X143800000Y-101850000D01*
D12*
%TO.C,LED12*%
X133500000Y-83500000D02*
X133500000Y-88500000D01*
X133500000Y-88500000D02*
X138500000Y-88500000D01*
X134250000Y-84250000D02*
X134250000Y-87750000D01*
X134250000Y-87750000D02*
X137750000Y-87750000D01*
X137750000Y-84250000D02*
X134250000Y-84250000D01*
X137750000Y-87750000D02*
X137750000Y-84250000D01*
X138500000Y-83500000D02*
X133500000Y-83500000D01*
X138500000Y-88500000D02*
X138500000Y-83500000D01*
D13*
X141000000Y-87287500D02*
X140000000Y-88200000D01*
X140000000Y-86375000D01*
X141000000Y-87287500D01*
G36*
X141000000Y-87287500D02*
G01*
X140000000Y-88200000D01*
X140000000Y-86375000D01*
X141000000Y-87287500D01*
G37*
D12*
%TO.C,LED25*%
X200200614Y-177304006D02*
X204615352Y-179651364D01*
X201214928Y-176993899D02*
X204305245Y-178637050D01*
X202547972Y-172889268D02*
X200200614Y-177304006D01*
X202858079Y-173903582D02*
X201214928Y-176993899D01*
X204305245Y-178637050D02*
X205948396Y-175546733D01*
X204615352Y-179651364D02*
X206962710Y-175236626D01*
X205948396Y-175546733D02*
X202858079Y-173903582D01*
X206962710Y-175236626D02*
X202547972Y-172889268D01*
D13*
X207391955Y-179754469D02*
X206080615Y-180090687D01*
X206937401Y-178479308D01*
X207391955Y-179754469D01*
G36*
X207391955Y-179754469D02*
G01*
X206080615Y-180090687D01*
X206937401Y-178479308D01*
X207391955Y-179754469D01*
G37*
D12*
%TO.C,LED8*%
X115500000Y-89500000D02*
X115500000Y-94500000D01*
X115500000Y-94500000D02*
X120500000Y-94500000D01*
X116250000Y-90250000D02*
X116250000Y-93750000D01*
X116250000Y-93750000D02*
X119750000Y-93750000D01*
X119750000Y-90250000D02*
X116250000Y-90250000D01*
X119750000Y-93750000D02*
X119750000Y-90250000D01*
X120500000Y-89500000D02*
X115500000Y-89500000D01*
X120500000Y-94500000D02*
X120500000Y-89500000D01*
D13*
X123000000Y-93287500D02*
X122000000Y-94200000D01*
X122000000Y-92375000D01*
X123000000Y-93287500D01*
G36*
X123000000Y-93287500D02*
G01*
X122000000Y-94200000D01*
X122000000Y-92375000D01*
X123000000Y-93287500D01*
G37*
%TO.C,D1*%
X107400000Y-153250000D02*
X108200000Y-153250000D01*
X107800000Y-153250000D02*
X107800000Y-152750000D01*
X107800000Y-153850000D02*
X107250000Y-153850000D01*
X107800000Y-153850000D02*
X107400000Y-153250000D01*
X107800000Y-153850000D02*
X108350000Y-153850000D01*
X107800000Y-154250000D02*
X107800000Y-153850000D01*
X108200000Y-153250000D02*
X107800000Y-153850000D01*
D12*
%TO.C,LED9*%
X133500000Y-134500000D02*
X133500000Y-139500000D01*
X133500000Y-139500000D02*
X138500000Y-139500000D01*
X134250000Y-135250000D02*
X134250000Y-138750000D01*
X134250000Y-138750000D02*
X137750000Y-138750000D01*
X137750000Y-135250000D02*
X134250000Y-135250000D01*
X137750000Y-138750000D02*
X137750000Y-135250000D01*
X138500000Y-134500000D02*
X133500000Y-134500000D01*
X138500000Y-139500000D02*
X138500000Y-134500000D01*
D13*
X141000000Y-138287500D02*
X140000000Y-139200000D01*
X140000000Y-137375000D01*
X141000000Y-138287500D01*
G36*
X141000000Y-138287500D02*
G01*
X140000000Y-139200000D01*
X140000000Y-137375000D01*
X141000000Y-138287500D01*
G37*
D12*
%TO.C,LED13*%
X151500000Y-140500000D02*
X151500000Y-145500000D01*
X151500000Y-145500000D02*
X156500000Y-145500000D01*
X152250000Y-141250000D02*
X152250000Y-144750000D01*
X152250000Y-144750000D02*
X155750000Y-144750000D01*
X155750000Y-141250000D02*
X152250000Y-141250000D01*
X155750000Y-144750000D02*
X155750000Y-141250000D01*
X156500000Y-140500000D02*
X151500000Y-140500000D01*
X156500000Y-145500000D02*
X156500000Y-140500000D01*
D13*
X159000000Y-144287500D02*
X158000000Y-145200000D01*
X158000000Y-143375000D01*
X159000000Y-144287500D01*
G36*
X159000000Y-144287500D02*
G01*
X158000000Y-145200000D01*
X158000000Y-143375000D01*
X159000000Y-144287500D01*
G37*
%TO.C,D23*%
X169400000Y-162250000D02*
X170200000Y-162250000D01*
X169800000Y-162250000D02*
X169800000Y-161750000D01*
X169800000Y-162850000D02*
X169250000Y-162850000D01*
X169800000Y-162850000D02*
X169400000Y-162250000D01*
X169800000Y-162850000D02*
X170350000Y-162850000D01*
X169800000Y-163250000D02*
X169800000Y-162850000D01*
X170200000Y-162250000D02*
X169800000Y-162850000D01*
%TO.C,D19*%
X179400000Y-109250000D02*
X180200000Y-109250000D01*
X179800000Y-109250000D02*
X179800000Y-108750000D01*
X179800000Y-109850000D02*
X179250000Y-109850000D01*
X179800000Y-109850000D02*
X179400000Y-109250000D01*
X179800000Y-109850000D02*
X180350000Y-109850000D01*
X179800000Y-110250000D02*
X179800000Y-109850000D01*
X180200000Y-109250000D02*
X179800000Y-109850000D01*
D12*
%TO.C,LED24*%
X180498562Y-169509077D02*
X185253845Y-171054162D01*
X181443617Y-169027547D02*
X184772315Y-170109107D01*
X182043647Y-164753794D02*
X180498562Y-169509077D01*
X182525177Y-165698849D02*
X181443617Y-169027547D01*
X184772315Y-170109107D02*
X185853875Y-166780409D01*
X185253845Y-171054162D02*
X186798930Y-166298879D01*
X185853875Y-166780409D02*
X182525177Y-165698849D01*
X186798930Y-166298879D02*
X182043647Y-164753794D01*
D13*
X188006169Y-170673548D02*
X186773135Y-171232370D01*
X187337091Y-169496692D01*
X188006169Y-170673548D01*
G36*
X188006169Y-170673548D02*
G01*
X186773135Y-171232370D01*
X187337091Y-169496692D01*
X188006169Y-170673548D01*
G37*
D12*
%TO.C,LED1*%
X97500000Y-152500000D02*
X97500000Y-157500000D01*
X97500000Y-157500000D02*
X102500000Y-157500000D01*
X98250000Y-153250000D02*
X98250000Y-156750000D01*
X98250000Y-156750000D02*
X101750000Y-156750000D01*
X101750000Y-153250000D02*
X98250000Y-153250000D01*
X101750000Y-156750000D02*
X101750000Y-153250000D01*
X102500000Y-152500000D02*
X97500000Y-152500000D01*
X102500000Y-157500000D02*
X102500000Y-152500000D01*
D13*
X105000000Y-156287500D02*
X104000000Y-157200000D01*
X104000000Y-155375000D01*
X105000000Y-156287500D01*
G36*
X105000000Y-156287500D02*
G01*
X104000000Y-157200000D01*
X104000000Y-155375000D01*
X105000000Y-156287500D01*
G37*
D12*
%TO.C,LED22*%
X79500000Y-116500000D02*
X79500000Y-121500000D01*
X79500000Y-121500000D02*
X84500000Y-121500000D01*
X80250000Y-117250000D02*
X80250000Y-120750000D01*
X80250000Y-120750000D02*
X83750000Y-120750000D01*
X83750000Y-117250000D02*
X80250000Y-117250000D01*
X83750000Y-120750000D02*
X83750000Y-117250000D01*
X84500000Y-116500000D02*
X79500000Y-116500000D01*
X84500000Y-121500000D02*
X84500000Y-116500000D01*
D13*
X87000000Y-120287500D02*
X86000000Y-121200000D01*
X86000000Y-119375000D01*
X87000000Y-120287500D01*
G36*
X87000000Y-120287500D02*
G01*
X86000000Y-121200000D01*
X86000000Y-119375000D01*
X87000000Y-120287500D01*
G37*
D12*
%TO.C,LED4*%
X97500000Y-101500000D02*
X97500000Y-106500000D01*
X97500000Y-106500000D02*
X102500000Y-106500000D01*
X98250000Y-102250000D02*
X98250000Y-105750000D01*
X98250000Y-105750000D02*
X101750000Y-105750000D01*
X101750000Y-102250000D02*
X98250000Y-102250000D01*
X101750000Y-105750000D02*
X101750000Y-102250000D01*
X102500000Y-101500000D02*
X97500000Y-101500000D01*
X102500000Y-106500000D02*
X102500000Y-101500000D01*
D13*
X105000000Y-105287500D02*
X104000000Y-106200000D01*
X104000000Y-104375000D01*
X105000000Y-105287500D01*
G36*
X105000000Y-105287500D02*
G01*
X104000000Y-106200000D01*
X104000000Y-104375000D01*
X105000000Y-105287500D01*
G37*
%TO.C,D8*%
X125400000Y-90250000D02*
X126200000Y-90250000D01*
X125800000Y-90250000D02*
X125800000Y-89750000D01*
X125800000Y-90850000D02*
X125250000Y-90850000D01*
X125800000Y-90850000D02*
X125400000Y-90250000D01*
X125800000Y-90850000D02*
X126350000Y-90850000D01*
X125800000Y-91250000D02*
X125800000Y-90850000D01*
X126200000Y-90250000D02*
X125800000Y-90850000D01*
D12*
%TO.C,LED21*%
X79500000Y-133500000D02*
X79500000Y-138500000D01*
X79500000Y-138500000D02*
X84500000Y-138500000D01*
X80250000Y-134250000D02*
X80250000Y-137750000D01*
X80250000Y-137750000D02*
X83750000Y-137750000D01*
X83750000Y-134250000D02*
X80250000Y-134250000D01*
X83750000Y-137750000D02*
X83750000Y-134250000D01*
X84500000Y-133500000D02*
X79500000Y-133500000D01*
X84500000Y-138500000D02*
X84500000Y-133500000D01*
D13*
X87000000Y-137287500D02*
X86000000Y-138200000D01*
X86000000Y-136375000D01*
X87000000Y-137287500D01*
G36*
X87000000Y-137287500D02*
G01*
X86000000Y-138200000D01*
X86000000Y-136375000D01*
X87000000Y-137287500D01*
G37*
D12*
%TO.C,LED5*%
X115500000Y-140500000D02*
X115500000Y-145500000D01*
X115500000Y-145500000D02*
X120500000Y-145500000D01*
X116250000Y-141250000D02*
X116250000Y-144750000D01*
X116250000Y-144750000D02*
X119750000Y-144750000D01*
X119750000Y-141250000D02*
X116250000Y-141250000D01*
X119750000Y-144750000D02*
X119750000Y-141250000D01*
X120500000Y-140500000D02*
X115500000Y-140500000D01*
X120500000Y-145500000D02*
X120500000Y-140500000D01*
D13*
X123000000Y-144287500D02*
X122000000Y-145200000D01*
X122000000Y-143375000D01*
X123000000Y-144287500D01*
G36*
X123000000Y-144287500D02*
G01*
X122000000Y-145200000D01*
X122000000Y-143375000D01*
X123000000Y-144287500D01*
G37*
%TO.C,D2*%
X107400000Y-136250000D02*
X108200000Y-136250000D01*
X107800000Y-136250000D02*
X107800000Y-135750000D01*
X107800000Y-136850000D02*
X107250000Y-136850000D01*
X107800000Y-136850000D02*
X107400000Y-136250000D01*
X107800000Y-136850000D02*
X108350000Y-136850000D01*
X107800000Y-137250000D02*
X107800000Y-136850000D01*
X108200000Y-136250000D02*
X107800000Y-136850000D01*
D12*
%TO.C,LED17*%
X169500000Y-142500000D02*
X169500000Y-147500000D01*
X169500000Y-147500000D02*
X174500000Y-147500000D01*
X170250000Y-143250000D02*
X170250000Y-146750000D01*
X170250000Y-146750000D02*
X173750000Y-146750000D01*
X173750000Y-143250000D02*
X170250000Y-143250000D01*
X173750000Y-146750000D02*
X173750000Y-143250000D01*
X174500000Y-142500000D02*
X169500000Y-142500000D01*
X174500000Y-147500000D02*
X174500000Y-142500000D01*
D13*
X177000000Y-146287500D02*
X176000000Y-147200000D01*
X176000000Y-145375000D01*
X177000000Y-146287500D01*
G36*
X177000000Y-146287500D02*
G01*
X176000000Y-147200000D01*
X176000000Y-145375000D01*
X177000000Y-146287500D01*
G37*
%TO.C,D22*%
X89400000Y-117250000D02*
X90200000Y-117250000D01*
X89800000Y-117250000D02*
X89800000Y-116750000D01*
X89800000Y-117850000D02*
X89250000Y-117850000D01*
X89800000Y-117850000D02*
X89400000Y-117250000D01*
X89800000Y-117850000D02*
X90350000Y-117850000D01*
X89800000Y-118250000D02*
X89800000Y-117850000D01*
X90200000Y-117250000D02*
X89800000Y-117850000D01*
%TO.C,D15*%
X161400000Y-107250000D02*
X162200000Y-107250000D01*
X161800000Y-107250000D02*
X161800000Y-106750000D01*
X161800000Y-107850000D02*
X161250000Y-107850000D01*
X161800000Y-107850000D02*
X161400000Y-107250000D01*
X161800000Y-107850000D02*
X162350000Y-107850000D01*
X161800000Y-108250000D02*
X161800000Y-107850000D01*
X162200000Y-107250000D02*
X161800000Y-107850000D01*
%TO.C,D4*%
X107400000Y-102250000D02*
X108200000Y-102250000D01*
X107800000Y-102250000D02*
X107800000Y-101750000D01*
X107800000Y-102850000D02*
X107250000Y-102850000D01*
X107800000Y-102850000D02*
X107400000Y-102250000D01*
X107800000Y-102850000D02*
X108350000Y-102850000D01*
X107800000Y-103250000D02*
X107800000Y-102850000D01*
X108200000Y-102250000D02*
X107800000Y-102850000D01*
D12*
%TO.C,LED3*%
X97500000Y-118500000D02*
X97500000Y-123500000D01*
X97500000Y-123500000D02*
X102500000Y-123500000D01*
X98250000Y-119250000D02*
X98250000Y-122750000D01*
X98250000Y-122750000D02*
X101750000Y-122750000D01*
X101750000Y-119250000D02*
X98250000Y-119250000D01*
X101750000Y-122750000D02*
X101750000Y-119250000D01*
X102500000Y-118500000D02*
X97500000Y-118500000D01*
X102500000Y-123500000D02*
X102500000Y-118500000D01*
D13*
X105000000Y-122287500D02*
X104000000Y-123200000D01*
X104000000Y-121375000D01*
X105000000Y-122287500D01*
G36*
X105000000Y-122287500D02*
G01*
X104000000Y-123200000D01*
X104000000Y-121375000D01*
X105000000Y-122287500D01*
G37*
%TO.C,D24*%
X191227344Y-168526355D02*
X191988189Y-168773569D01*
X191298749Y-169601018D02*
X191422356Y-169220596D01*
X191422356Y-169220596D02*
X190899275Y-169050636D01*
X191422356Y-169220596D02*
X191227344Y-168526355D01*
X191422356Y-169220596D02*
X191945437Y-169390555D01*
X191607766Y-168649962D02*
X191762275Y-168174434D01*
X191988189Y-168773569D02*
X191422356Y-169220596D01*
%TO.C,D18*%
X179400000Y-126250000D02*
X180200000Y-126250000D01*
X179800000Y-126250000D02*
X179800000Y-125750000D01*
X179800000Y-126850000D02*
X179250000Y-126850000D01*
X179800000Y-126850000D02*
X179400000Y-126250000D01*
X179800000Y-126850000D02*
X180350000Y-126850000D01*
X179800000Y-127250000D02*
X179800000Y-126850000D01*
X180200000Y-126250000D02*
X179800000Y-126850000D01*
%TO.C,D25*%
X210820757Y-179269984D02*
X211008546Y-178916805D01*
X210937050Y-178199247D02*
X211643408Y-178574825D01*
X211008546Y-178916805D02*
X210522925Y-178658595D01*
X211008546Y-178916805D02*
X210937050Y-178199247D01*
X211008546Y-178916805D02*
X211494167Y-179175014D01*
X211290229Y-178387036D02*
X211524965Y-177945562D01*
X211643408Y-178574825D02*
X211008546Y-178916805D01*
%TO.C,D9*%
X143400000Y-135250000D02*
X144200000Y-135250000D01*
X143800000Y-135250000D02*
X143800000Y-134750000D01*
X143800000Y-135850000D02*
X143250000Y-135850000D01*
X143800000Y-135850000D02*
X143400000Y-135250000D01*
X143800000Y-135850000D02*
X144350000Y-135850000D01*
X143800000Y-136250000D02*
X143800000Y-135850000D01*
X144200000Y-135250000D02*
X143800000Y-135850000D01*
D12*
%TO.C,LED6*%
X115500000Y-123500000D02*
X115500000Y-128500000D01*
X115500000Y-128500000D02*
X120500000Y-128500000D01*
X116250000Y-124250000D02*
X116250000Y-127750000D01*
X116250000Y-127750000D02*
X119750000Y-127750000D01*
X119750000Y-124250000D02*
X116250000Y-124250000D01*
X119750000Y-127750000D02*
X119750000Y-124250000D01*
X120500000Y-123500000D02*
X115500000Y-123500000D01*
X120500000Y-128500000D02*
X120500000Y-123500000D01*
D13*
X123000000Y-127287500D02*
X122000000Y-128200000D01*
X122000000Y-126375000D01*
X123000000Y-127287500D01*
G36*
X123000000Y-127287500D02*
G01*
X122000000Y-128200000D01*
X122000000Y-126375000D01*
X123000000Y-127287500D01*
G37*
%TO.C,D21*%
X89400000Y-134250000D02*
X90200000Y-134250000D01*
X89800000Y-134250000D02*
X89800000Y-133750000D01*
X89800000Y-134850000D02*
X89250000Y-134850000D01*
X89800000Y-134850000D02*
X89400000Y-134250000D01*
X89800000Y-134850000D02*
X90350000Y-134850000D01*
X89800000Y-135250000D02*
X89800000Y-134850000D01*
X90200000Y-134250000D02*
X89800000Y-134850000D01*
%TO.C,D16*%
X161400000Y-90250000D02*
X162200000Y-90250000D01*
X161800000Y-90250000D02*
X161800000Y-89750000D01*
X161800000Y-90850000D02*
X161250000Y-90850000D01*
X161800000Y-90850000D02*
X161400000Y-90250000D01*
X161800000Y-90850000D02*
X162350000Y-90850000D01*
X161800000Y-91250000D02*
X161800000Y-90850000D01*
X162200000Y-90250000D02*
X161800000Y-90850000D01*
%TO.C,D14*%
X161400000Y-124250000D02*
X162200000Y-124250000D01*
X161800000Y-124250000D02*
X161800000Y-123750000D01*
X161800000Y-124850000D02*
X161250000Y-124850000D01*
X161800000Y-124850000D02*
X161400000Y-124250000D01*
X161800000Y-124850000D02*
X162350000Y-124850000D01*
X161800000Y-125250000D02*
X161800000Y-124850000D01*
X162200000Y-124250000D02*
X161800000Y-124850000D01*
%TO.C,D6*%
X125400000Y-124250000D02*
X126200000Y-124250000D01*
X125800000Y-124250000D02*
X125800000Y-123750000D01*
X125800000Y-124850000D02*
X125250000Y-124850000D01*
X125800000Y-124850000D02*
X125400000Y-124250000D01*
X125800000Y-124850000D02*
X126350000Y-124850000D01*
X125800000Y-125250000D02*
X125800000Y-124850000D01*
X126200000Y-124250000D02*
X125800000Y-124850000D01*
D12*
%TO.C,MCU1*%
X145870000Y-77230000D02*
X145870000Y-95010000D01*
X145870000Y-95010000D02*
X178890000Y-95010000D01*
X173810000Y-92470000D02*
X173810000Y-95010000D01*
X176350000Y-92470000D02*
X173810000Y-92470000D01*
X176350000Y-92470000D02*
X176350000Y-95010000D01*
X178890000Y-77230000D02*
X145870000Y-77230000D01*
X178890000Y-95010000D02*
X178890000Y-77230000D01*
%TO.C,LED16*%
X151500000Y-89500000D02*
X151500000Y-94500000D01*
X151500000Y-94500000D02*
X156500000Y-94500000D01*
X152250000Y-90250000D02*
X152250000Y-93750000D01*
X152250000Y-93750000D02*
X155750000Y-93750000D01*
X155750000Y-90250000D02*
X152250000Y-90250000D01*
X155750000Y-93750000D02*
X155750000Y-90250000D01*
X156500000Y-89500000D02*
X151500000Y-89500000D01*
X156500000Y-94500000D02*
X156500000Y-89500000D01*
D13*
X159000000Y-93287500D02*
X158000000Y-94200000D01*
X158000000Y-92375000D01*
X159000000Y-93287500D01*
G36*
X159000000Y-93287500D02*
G01*
X158000000Y-94200000D01*
X158000000Y-92375000D01*
X159000000Y-93287500D01*
G37*
%TO.C,D20*%
X179400000Y-92250000D02*
X180200000Y-92250000D01*
X179800000Y-92250000D02*
X179800000Y-91750000D01*
X179800000Y-92850000D02*
X179250000Y-92850000D01*
X179800000Y-92850000D02*
X179400000Y-92250000D01*
X179800000Y-92850000D02*
X180350000Y-92850000D01*
X179800000Y-93250000D02*
X179800000Y-92850000D01*
X180200000Y-92250000D02*
X179800000Y-92850000D01*
D12*
%TO.C,LED20*%
X169500000Y-91500000D02*
X169500000Y-96500000D01*
X169500000Y-96500000D02*
X174500000Y-96500000D01*
X170250000Y-92250000D02*
X170250000Y-95750000D01*
X170250000Y-95750000D02*
X173750000Y-95750000D01*
X173750000Y-92250000D02*
X170250000Y-92250000D01*
X173750000Y-95750000D02*
X173750000Y-92250000D01*
X174500000Y-91500000D02*
X169500000Y-91500000D01*
X174500000Y-96500000D02*
X174500000Y-91500000D01*
D13*
X177000000Y-95287500D02*
X176000000Y-96200000D01*
X176000000Y-94375000D01*
X177000000Y-95287500D01*
G36*
X177000000Y-95287500D02*
G01*
X176000000Y-96200000D01*
X176000000Y-94375000D01*
X177000000Y-95287500D01*
G37*
%TO.C,D7*%
X125400000Y-107250000D02*
X126200000Y-107250000D01*
X125800000Y-107250000D02*
X125800000Y-106750000D01*
X125800000Y-107850000D02*
X125250000Y-107850000D01*
X125800000Y-107850000D02*
X125400000Y-107250000D01*
X125800000Y-107850000D02*
X126350000Y-107850000D01*
X125800000Y-108250000D02*
X125800000Y-107850000D01*
X126200000Y-107250000D02*
X125800000Y-107850000D01*
%TO.C,D12*%
X143400000Y-84250000D02*
X144200000Y-84250000D01*
X143800000Y-84250000D02*
X143800000Y-83750000D01*
X143800000Y-84850000D02*
X143250000Y-84850000D01*
X143800000Y-84850000D02*
X143400000Y-84250000D01*
X143800000Y-84850000D02*
X144350000Y-84850000D01*
X143800000Y-85250000D02*
X143800000Y-84850000D01*
X144200000Y-84250000D02*
X143800000Y-84850000D01*
D12*
%TO.C,LED11*%
X133500000Y-100500000D02*
X133500000Y-105500000D01*
X133500000Y-105500000D02*
X138500000Y-105500000D01*
X134250000Y-101250000D02*
X134250000Y-104750000D01*
X134250000Y-104750000D02*
X137750000Y-104750000D01*
X137750000Y-101250000D02*
X134250000Y-101250000D01*
X137750000Y-104750000D02*
X137750000Y-101250000D01*
X138500000Y-100500000D02*
X133500000Y-100500000D01*
X138500000Y-105500000D02*
X138500000Y-100500000D01*
D13*
X141000000Y-104287500D02*
X140000000Y-105200000D01*
X140000000Y-103375000D01*
X141000000Y-104287500D01*
G36*
X141000000Y-104287500D02*
G01*
X140000000Y-105200000D01*
X140000000Y-103375000D01*
X141000000Y-104287500D01*
G37*
D12*
%TO.C,LED23*%
X159500000Y-161500000D02*
X159500000Y-166500000D01*
X159500000Y-166500000D02*
X164500000Y-166500000D01*
X160250000Y-162250000D02*
X160250000Y-165750000D01*
X160250000Y-165750000D02*
X163750000Y-165750000D01*
X163750000Y-162250000D02*
X160250000Y-162250000D01*
X163750000Y-165750000D02*
X163750000Y-162250000D01*
X164500000Y-161500000D02*
X159500000Y-161500000D01*
X164500000Y-166500000D02*
X164500000Y-161500000D01*
D13*
X167000000Y-165287500D02*
X166000000Y-166200000D01*
X166000000Y-164375000D01*
X167000000Y-165287500D01*
G36*
X167000000Y-165287500D02*
G01*
X166000000Y-166200000D01*
X166000000Y-164375000D01*
X167000000Y-165287500D01*
G37*
D12*
%TO.C,LED19*%
X169500000Y-108500000D02*
X169500000Y-113500000D01*
X169500000Y-113500000D02*
X174500000Y-113500000D01*
X170250000Y-109250000D02*
X170250000Y-112750000D01*
X170250000Y-112750000D02*
X173750000Y-112750000D01*
X173750000Y-109250000D02*
X170250000Y-109250000D01*
X173750000Y-112750000D02*
X173750000Y-109250000D01*
X174500000Y-108500000D02*
X169500000Y-108500000D01*
X174500000Y-113500000D02*
X174500000Y-108500000D01*
D13*
X177000000Y-112287500D02*
X176000000Y-113200000D01*
X176000000Y-111375000D01*
X177000000Y-112287500D01*
G36*
X177000000Y-112287500D02*
G01*
X176000000Y-113200000D01*
X176000000Y-111375000D01*
X177000000Y-112287500D01*
G37*
%TD*%
D14*
%TO.C,MCU1*%
X175080000Y-93740000D03*
D15*
X172540000Y-93740000D03*
X170000000Y-93740000D03*
X167460000Y-93740000D03*
X164920000Y-93740000D03*
X162380000Y-93740000D03*
X159840000Y-93740000D03*
X157300000Y-93740000D03*
X154760000Y-93740000D03*
X152220000Y-93740000D03*
X149680000Y-93740000D03*
X147140000Y-93740000D03*
X175080000Y-78500000D03*
X172540000Y-78500000D03*
X170000000Y-78500000D03*
X167460000Y-78500000D03*
X164920000Y-78500000D03*
X162380000Y-78500000D03*
X159840000Y-78500000D03*
X157300000Y-78500000D03*
X154760000Y-78500000D03*
X152220000Y-78500000D03*
X149680000Y-78500000D03*
X147140000Y-78500000D03*
%TD*%
M02*
