%TF.GenerationSoftware,KiCad,Pcbnew,9.0.6*%
%TF.CreationDate,2025-11-05T17:55:23+01:00*%
%TF.ProjectId,main_pcb,6d61696e-5f70-4636-922e-6b696361645f,v1.0.0*%
%TF.SameCoordinates,Original*%
%TF.FileFunction,Copper,L2,Bot*%
%TF.FilePolarity,Positive*%
%FSLAX46Y46*%
G04 Gerber Fmt 4.6, Leading zero omitted, Abs format (unit mm)*
G04 Created by KiCad (PCBNEW 9.0.6) date 2025-11-05 17:55:23*
%MOMM*%
%LPD*%
G01*
G04 APERTURE LIST*
G04 Aperture macros list*
%AMRotRect*
0 Rectangle, with rotation*
0 The origin of the aperture is its center*
0 $1 length*
0 $2 width*
0 $3 Rotation angle, in degrees counterclockwise*
0 Add horizontal line*
21,1,$1,$2,0,0,$3*%
%AMFreePoly0*
4,1,6,0.250000,0.000000,-0.250000,-0.625000,-0.500000,-0.625000,-0.500000,0.625000,-0.250000,0.625000,0.250000,0.000000,0.250000,0.000000,$1*%
%AMFreePoly1*
4,1,6,0.500000,-0.625000,-0.650000,-0.625000,-0.150000,0.000000,-0.650000,0.625000,0.500000,0.625000,0.500000,-0.625000,0.500000,-0.625000,$1*%
G04 Aperture macros list end*
%TA.AperFunction,SMDPad,CuDef*%
%ADD10R,2.600000X2.600000*%
%TD*%
%TA.AperFunction,SMDPad,CuDef*%
%ADD11RotRect,2.600000X2.600000X342.000000*%
%TD*%
%TA.AperFunction,SMDPad,CuDef*%
%ADD12RotRect,2.600000X2.600000X332.000000*%
%TD*%
%TA.AperFunction,ComponentPad*%
%ADD13O,1.700000X1.700000*%
%TD*%
%TA.AperFunction,ComponentPad*%
%ADD14C,0.800000*%
%TD*%
%TA.AperFunction,SMDPad,CuDef*%
%ADD15FreePoly0,270.000000*%
%TD*%
%TA.AperFunction,SMDPad,CuDef*%
%ADD16FreePoly1,270.000000*%
%TD*%
%TA.AperFunction,SMDPad,CuDef*%
%ADD17FreePoly0,90.000000*%
%TD*%
%TA.AperFunction,SMDPad,CuDef*%
%ADD18FreePoly1,90.000000*%
%TD*%
%TA.AperFunction,SMDPad,CuDef*%
%ADD19R,1.000000X1.550000*%
%TD*%
%TA.AperFunction,SMDPad,CuDef*%
%ADD20R,1.200000X0.900000*%
%TD*%
%TA.AperFunction,ComponentPad*%
%ADD21R,1.778000X1.778000*%
%TD*%
%TA.AperFunction,ComponentPad*%
%ADD22C,1.905000*%
%TD*%
%TA.AperFunction,SMDPad,CuDef*%
%ADD23RotRect,0.900000X1.200000X72.000000*%
%TD*%
%TA.AperFunction,ComponentPad*%
%ADD24RotRect,1.778000X1.778000X72.000000*%
%TD*%
%TA.AperFunction,SMDPad,CuDef*%
%ADD25RotRect,0.900000X1.200000X62.000000*%
%TD*%
%TA.AperFunction,ComponentPad*%
%ADD26RotRect,1.778000X1.778000X62.000000*%
%TD*%
%TA.AperFunction,SMDPad,CuDef*%
%ADD27R,2.600000X1.000000*%
%TD*%
%TA.AperFunction,SMDPad,CuDef*%
%ADD28RotRect,2.600000X1.000000X342.000000*%
%TD*%
%TA.AperFunction,SMDPad,CuDef*%
%ADD29RotRect,2.600000X1.000000X332.000000*%
%TD*%
%TA.AperFunction,ComponentPad*%
%ADD30R,1.700000X1.200000*%
%TD*%
%TA.AperFunction,ComponentPad*%
%ADD31O,1.700000X1.200000*%
%TD*%
%TA.AperFunction,Conductor*%
%ADD32C,0.250000*%
%TD*%
G04 APERTURE END LIST*
D10*
%TO.P,S1,1*%
%TO.N,P1*%
X96725000Y-144050000D03*
%TO.P,S1,2*%
%TO.N,pinky_bottom*%
X108275000Y-146250000D03*
%TD*%
%TO.P,S2,1*%
%TO.N,P1*%
X96725000Y-127050000D03*
%TO.P,S2,2*%
%TO.N,pinky_home*%
X108275000Y-129250000D03*
%TD*%
%TO.P,S3,1*%
%TO.N,P1*%
X96725000Y-110050000D03*
%TO.P,S3,2*%
%TO.N,pinky_top*%
X108275000Y-112250000D03*
%TD*%
%TO.P,S4,1*%
%TO.N,P1*%
X96725000Y-93050000D03*
%TO.P,S4,2*%
%TO.N,pinky_num*%
X108275000Y-95250000D03*
%TD*%
%TO.P,S5,1*%
%TO.N,P2*%
X114725000Y-132050000D03*
%TO.P,S5,2*%
%TO.N,ring_bottom*%
X126275000Y-134250000D03*
%TD*%
%TO.P,S6,1*%
%TO.N,P2*%
X114725000Y-115050000D03*
%TO.P,S6,2*%
%TO.N,ring_home*%
X126275000Y-117250000D03*
%TD*%
%TO.P,S7,1*%
%TO.N,P2*%
X114725000Y-98050000D03*
%TO.P,S7,2*%
%TO.N,ring_top*%
X126275000Y-100250000D03*
%TD*%
%TO.P,S8,1*%
%TO.N,P2*%
X114725000Y-81050000D03*
%TO.P,S8,2*%
%TO.N,ring_num*%
X126275000Y-83250000D03*
%TD*%
%TO.P,S9,1*%
%TO.N,P3*%
X132725000Y-126050000D03*
%TO.P,S9,2*%
%TO.N,middle_bottom*%
X144275000Y-128250000D03*
%TD*%
%TO.P,S10,1*%
%TO.N,P3*%
X132725000Y-109050000D03*
%TO.P,S10,2*%
%TO.N,middle_home*%
X144275000Y-111250000D03*
%TD*%
%TO.P,S11,1*%
%TO.N,P3*%
X132725000Y-92050000D03*
%TO.P,S11,2*%
%TO.N,middle_top*%
X144275000Y-94250000D03*
%TD*%
%TO.P,S12,1*%
%TO.N,P3*%
X132725000Y-75050000D03*
%TO.P,S12,2*%
%TO.N,middle_num*%
X144275000Y-77250000D03*
%TD*%
%TO.P,S13,1*%
%TO.N,P4*%
X150725000Y-132050000D03*
%TO.P,S13,2*%
%TO.N,index_bottom*%
X162275000Y-134250000D03*
%TD*%
%TO.P,S14,1*%
%TO.N,P4*%
X150725000Y-115050000D03*
%TO.P,S14,2*%
%TO.N,index_home*%
X162275000Y-117250000D03*
%TD*%
%TO.P,S15,1*%
%TO.N,P4*%
X150725000Y-98050000D03*
%TO.P,S15,2*%
%TO.N,index_top*%
X162275000Y-100250000D03*
%TD*%
%TO.P,S16,1*%
%TO.N,P4*%
X150725000Y-81050000D03*
%TO.P,S16,2*%
%TO.N,index_num*%
X162275000Y-83250000D03*
%TD*%
%TO.P,S17,1*%
%TO.N,P5*%
X168725000Y-134050000D03*
%TO.P,S17,2*%
%TO.N,inner_bottom*%
X180275000Y-136250000D03*
%TD*%
%TO.P,S18,1*%
%TO.N,P5*%
X168725000Y-117050000D03*
%TO.P,S18,2*%
%TO.N,inner_home*%
X180275000Y-119250000D03*
%TD*%
%TO.P,S19,1*%
%TO.N,P5*%
X168725000Y-100050000D03*
%TO.P,S19,2*%
%TO.N,inner_top*%
X180275000Y-102250000D03*
%TD*%
%TO.P,S20,1*%
%TO.N,P5*%
X168725000Y-83050000D03*
%TO.P,S20,2*%
%TO.N,inner_num*%
X180275000Y-85250000D03*
%TD*%
%TO.P,S21,1*%
%TO.N,P0*%
X78725000Y-125050000D03*
%TO.P,S21,2*%
%TO.N,outer_top*%
X90275000Y-127250000D03*
%TD*%
%TO.P,S22,1*%
%TO.N,P0*%
X78725000Y-108050000D03*
%TO.P,S22,2*%
%TO.N,outer_home*%
X90275000Y-110250000D03*
%TD*%
%TO.P,S23,1*%
%TO.N,P3*%
X158725000Y-153050000D03*
%TO.P,S23,2*%
%TO.N,near_thumb*%
X170275000Y-155250000D03*
%TD*%
D11*
%TO.P,S24,1*%
%TO.N,P4*%
X183917772Y-156477878D03*
%TO.P,S24,2*%
%TO.N,home_thumb*%
X194222637Y-162139349D03*
%TD*%
D12*
%TO.P,S25,1*%
%TO.N,P5*%
X205830722Y-165064520D03*
%TO.P,S25,2*%
%TO.N,far_thumb*%
X214995930Y-172429402D03*
%TD*%
D13*
%TO.P,,0*%
%TO.N,_1_0*%
X169970000Y-82880000D03*
%TO.P,,25*%
%TO.N,_1_25*%
X169970000Y-98120000D03*
%TO.P,,1*%
%TO.N,_1_1*%
X167430000Y-82880000D03*
%TO.P,,24*%
%TO.N,_1_24*%
X167430000Y-98120000D03*
%TO.P,,2*%
%TO.N,_1_2*%
X164890000Y-82880000D03*
%TO.P,,23*%
%TO.N,_1_23*%
X164890000Y-98120000D03*
%TO.P,,3*%
%TO.N,_1_3*%
X162350000Y-82880000D03*
%TO.P,,22*%
%TO.N,_1_22*%
X162350000Y-98120000D03*
%TO.P,,4*%
%TO.N,GND*%
X159810000Y-82880000D03*
%TO.P,,21*%
%TO.N,VCC*%
X159810000Y-98120000D03*
%TO.P,,5*%
%TO.N,P2*%
X157270000Y-82880000D03*
%TO.P,,20*%
%TO.N,P21*%
X157270000Y-98120000D03*
%TO.P,,6*%
%TO.N,P3*%
X154730000Y-82880000D03*
%TO.P,,19*%
%TO.N,P20*%
X154730000Y-98120000D03*
%TO.P,,7*%
%TO.N,P4*%
X152190000Y-82880000D03*
%TO.P,,18*%
%TO.N,P19*%
X152190000Y-98120000D03*
%TO.P,,8*%
%TO.N,P5*%
X149650000Y-82880000D03*
%TO.P,,17*%
%TO.N,P18*%
X149650000Y-98120000D03*
%TO.P,,9*%
%TO.N,P6*%
X147110000Y-82880000D03*
%TO.P,,16*%
%TO.N,P15*%
X147110000Y-98120000D03*
%TO.P,,10*%
%TO.N,P7*%
X144570000Y-82880000D03*
%TO.P,,15*%
%TO.N,P14*%
X144570000Y-98120000D03*
%TO.P,,11*%
%TO.N,P8*%
X142030000Y-82880000D03*
%TO.P,,14*%
%TO.N,P16*%
X142030000Y-98120000D03*
%TO.P,,12*%
%TO.N,P9*%
X139490000Y-82880000D03*
%TO.P,,13*%
%TO.N,P10*%
X139490000Y-98120000D03*
D14*
%TO.P,,0*%
%TO.N,B-*%
X169970000Y-87238000D03*
D15*
%TO.N,_1_0*%
X169970000Y-84880000D03*
D16*
%TO.N,B-*%
X169970000Y-85725000D03*
D14*
%TO.P,,25*%
%TO.N,B+*%
X169970000Y-93762000D03*
D17*
%TO.N,_1_25*%
X169970000Y-96120000D03*
D18*
%TO.N,B+*%
X169970000Y-95275000D03*
D14*
%TO.P,,1*%
%TO.N,P1*%
X167430000Y-87238000D03*
D15*
%TO.N,_1_1*%
X167430000Y-84880000D03*
D16*
%TO.N,P1*%
X167430000Y-85725000D03*
D14*
%TO.P,,24*%
%TO.N,RAW*%
X167430000Y-93762000D03*
D17*
%TO.N,_1_24*%
X167430000Y-96120000D03*
D18*
%TO.N,RAW*%
X167430000Y-95275000D03*
D14*
%TO.P,,2*%
%TO.N,P0*%
X164890000Y-87238000D03*
D15*
%TO.N,_1_2*%
X164890000Y-84880000D03*
D16*
%TO.N,P0*%
X164890000Y-85725000D03*
D14*
%TO.P,,23*%
%TO.N,GND*%
X164890000Y-93762000D03*
D17*
%TO.N,_1_23*%
X164890000Y-96120000D03*
D18*
%TO.N,GND*%
X164890000Y-95275000D03*
D14*
%TO.P,,3*%
X162350000Y-87238000D03*
D15*
%TO.N,_1_3*%
X162350000Y-84880000D03*
D16*
%TO.N,GND*%
X162350000Y-85725000D03*
D14*
%TO.P,,22*%
%TO.N,RST*%
X162350000Y-93762000D03*
D17*
%TO.N,_1_22*%
X162350000Y-96120000D03*
D18*
%TO.N,RST*%
X162350000Y-95275000D03*
%TD*%
D19*
%TO.P,B1,1*%
%TO.N,GND*%
X181850000Y-83575000D03*
X181850000Y-88825000D03*
%TO.P,B1,2*%
%TO.N,RST*%
X180150000Y-83575000D03*
X180150000Y-88825000D03*
%TD*%
D20*
%TO.P,D1,2*%
%TO.N,main_pinky_bottom*%
X107800000Y-151850000D03*
%TO.P,D1,1*%
%TO.N,P9*%
X107800000Y-155150000D03*
D21*
X107800000Y-157310000D03*
D22*
%TO.P,D1,2*%
%TO.N,main_pinky_bottom*%
X107800000Y-149690000D03*
%TD*%
D20*
%TO.P,D2,2*%
%TO.N,main_pinky_home*%
X107800000Y-134850000D03*
%TO.P,D2,1*%
%TO.N,P8*%
X107800000Y-138150000D03*
D21*
X107800000Y-140310000D03*
D22*
%TO.P,D2,2*%
%TO.N,main_pinky_home*%
X107800000Y-132690000D03*
%TD*%
D20*
%TO.P,D3,2*%
%TO.N,main_pinky_top*%
X107800000Y-117850000D03*
%TO.P,D3,1*%
%TO.N,P7*%
X107800000Y-121150000D03*
D21*
X107800000Y-123310000D03*
D22*
%TO.P,D3,2*%
%TO.N,main_pinky_top*%
X107800000Y-115690000D03*
%TD*%
D20*
%TO.P,D4,2*%
%TO.N,main_pinky_num*%
X107800000Y-100850000D03*
%TO.P,D4,1*%
%TO.N,P6*%
X107800000Y-104150000D03*
D21*
X107800000Y-106310000D03*
D22*
%TO.P,D4,2*%
%TO.N,main_pinky_num*%
X107800000Y-98690000D03*
%TD*%
D20*
%TO.P,D5,2*%
%TO.N,main_ring_bottom*%
X125800000Y-139850000D03*
%TO.P,D5,1*%
%TO.N,P9*%
X125800000Y-143150000D03*
D21*
X125800000Y-145310000D03*
D22*
%TO.P,D5,2*%
%TO.N,main_ring_bottom*%
X125800000Y-137690000D03*
%TD*%
D20*
%TO.P,D6,2*%
%TO.N,main_ring_home*%
X125800000Y-122850000D03*
%TO.P,D6,1*%
%TO.N,P8*%
X125800000Y-126150000D03*
D21*
X125800000Y-128310000D03*
D22*
%TO.P,D6,2*%
%TO.N,main_ring_home*%
X125800000Y-120690000D03*
%TD*%
D20*
%TO.P,D7,2*%
%TO.N,main_ring_top*%
X125800000Y-105850000D03*
%TO.P,D7,1*%
%TO.N,P7*%
X125800000Y-109150000D03*
D21*
X125800000Y-111310000D03*
D22*
%TO.P,D7,2*%
%TO.N,main_ring_top*%
X125800000Y-103690000D03*
%TD*%
D20*
%TO.P,D8,2*%
%TO.N,main_ring_num*%
X125800000Y-88850000D03*
%TO.P,D8,1*%
%TO.N,P6*%
X125800000Y-92150000D03*
D21*
X125800000Y-94310000D03*
D22*
%TO.P,D8,2*%
%TO.N,main_ring_num*%
X125800000Y-86690000D03*
%TD*%
D20*
%TO.P,D9,2*%
%TO.N,main_middle_bottom*%
X143800000Y-133850000D03*
%TO.P,D9,1*%
%TO.N,P9*%
X143800000Y-137150000D03*
D21*
X143800000Y-139310000D03*
D22*
%TO.P,D9,2*%
%TO.N,main_middle_bottom*%
X143800000Y-131690000D03*
%TD*%
D20*
%TO.P,D10,2*%
%TO.N,main_middle_home*%
X143800000Y-116850000D03*
%TO.P,D10,1*%
%TO.N,P8*%
X143800000Y-120150000D03*
D21*
X143800000Y-122310000D03*
D22*
%TO.P,D10,2*%
%TO.N,main_middle_home*%
X143800000Y-114690000D03*
%TD*%
D20*
%TO.P,D11,2*%
%TO.N,main_middle_top*%
X143800000Y-99850000D03*
%TO.P,D11,1*%
%TO.N,P7*%
X143800000Y-103150000D03*
D21*
X143800000Y-105310000D03*
D22*
%TO.P,D11,2*%
%TO.N,main_middle_top*%
X143800000Y-97690000D03*
%TD*%
D20*
%TO.P,D12,2*%
%TO.N,main_middle_num*%
X143800000Y-82850000D03*
%TO.P,D12,1*%
%TO.N,P6*%
X143800000Y-86150000D03*
D21*
X143800000Y-88310000D03*
D22*
%TO.P,D12,2*%
%TO.N,main_middle_num*%
X143800000Y-80690000D03*
%TD*%
D20*
%TO.P,D13,2*%
%TO.N,main_index_bottom*%
X161800000Y-139850000D03*
%TO.P,D13,1*%
%TO.N,P9*%
X161800000Y-143150000D03*
D21*
X161800000Y-145310000D03*
D22*
%TO.P,D13,2*%
%TO.N,main_index_bottom*%
X161800000Y-137690000D03*
%TD*%
D20*
%TO.P,D14,2*%
%TO.N,main_index_home*%
X161800000Y-122850000D03*
%TO.P,D14,1*%
%TO.N,P8*%
X161800000Y-126150000D03*
D21*
X161800000Y-128310000D03*
D22*
%TO.P,D14,2*%
%TO.N,main_index_home*%
X161800000Y-120690000D03*
%TD*%
D20*
%TO.P,D15,2*%
%TO.N,main_index_top*%
X161800000Y-105850000D03*
%TO.P,D15,1*%
%TO.N,P7*%
X161800000Y-109150000D03*
D21*
X161800000Y-111310000D03*
D22*
%TO.P,D15,2*%
%TO.N,main_index_top*%
X161800000Y-103690000D03*
%TD*%
D20*
%TO.P,D16,2*%
%TO.N,main_index_num*%
X161800000Y-88850000D03*
%TO.P,D16,1*%
%TO.N,P6*%
X161800000Y-92150000D03*
D21*
X161800000Y-94310000D03*
D22*
%TO.P,D16,2*%
%TO.N,main_index_num*%
X161800000Y-86690000D03*
%TD*%
D20*
%TO.P,D17,2*%
%TO.N,main_inner_bottom*%
X179800000Y-141850000D03*
%TO.P,D17,1*%
%TO.N,P9*%
X179800000Y-145150000D03*
D21*
X179800000Y-147310000D03*
D22*
%TO.P,D17,2*%
%TO.N,main_inner_bottom*%
X179800000Y-139690000D03*
%TD*%
D20*
%TO.P,D18,2*%
%TO.N,main_inner_home*%
X179800000Y-124850000D03*
%TO.P,D18,1*%
%TO.N,P8*%
X179800000Y-128150000D03*
D21*
X179800000Y-130310000D03*
D22*
%TO.P,D18,2*%
%TO.N,main_inner_home*%
X179800000Y-122690000D03*
%TD*%
D20*
%TO.P,D19,2*%
%TO.N,main_inner_top*%
X179800000Y-107850000D03*
%TO.P,D19,1*%
%TO.N,P7*%
X179800000Y-111150000D03*
D21*
X179800000Y-113310000D03*
D22*
%TO.P,D19,2*%
%TO.N,main_inner_top*%
X179800000Y-105690000D03*
%TD*%
D20*
%TO.P,D20,2*%
%TO.N,main_inner_num*%
X179800000Y-90850000D03*
%TO.P,D20,1*%
%TO.N,P6*%
X179800000Y-94150000D03*
D21*
X179800000Y-96310000D03*
D22*
%TO.P,D20,2*%
%TO.N,main_inner_num*%
X179800000Y-88690000D03*
%TD*%
D20*
%TO.P,D21,2*%
%TO.N,outer_outer_top*%
X89800000Y-132850000D03*
%TO.P,D21,1*%
%TO.N,P7*%
X89800000Y-136150000D03*
D21*
X89800000Y-138310000D03*
D22*
%TO.P,D21,2*%
%TO.N,outer_outer_top*%
X89800000Y-130690000D03*
%TD*%
D20*
%TO.P,D22,2*%
%TO.N,outer_outer_home*%
X89800000Y-115850000D03*
%TO.P,D22,1*%
%TO.N,P8*%
X89800000Y-119150000D03*
D21*
X89800000Y-121310000D03*
D22*
%TO.P,D22,2*%
%TO.N,outer_outer_home*%
X89800000Y-113690000D03*
%TD*%
D20*
%TO.P,D23,2*%
%TO.N,thumbfan_near_thumb*%
X169800000Y-160850000D03*
%TO.P,D23,1*%
%TO.N,P10*%
X169800000Y-164150000D03*
D21*
X169800000Y-166310000D03*
D22*
%TO.P,D23,2*%
%TO.N,thumbfan_near_thumb*%
X169800000Y-158690000D03*
%TD*%
D23*
%TO.P,D24,2*%
%TO.N,thumbfan_home_thumb*%
X192040390Y-167318483D03*
%TO.P,D24,1*%
%TO.N,P10*%
X191020634Y-170456969D03*
D24*
X190353157Y-172511251D03*
D22*
%TO.P,D24,2*%
%TO.N,thumbfan_home_thumb*%
X192707867Y-165264201D03*
%TD*%
D25*
%TO.P,D25,2*%
%TO.N,thumbfan_far_thumb*%
X211947489Y-177150909D03*
%TO.P,D25,1*%
%TO.N,P10*%
X210398233Y-180064637D03*
D26*
X209384174Y-181971803D03*
D22*
%TO.P,D25,2*%
%TO.N,thumbfan_far_thumb*%
X212961548Y-175243743D03*
%TD*%
D27*
%TO.P,LED1,2*%
%TO.N,rgb_main_ring_bottom*%
X97800000Y-154125000D03*
%TO.P,LED1,1*%
%TO.N,VCC*%
X97800000Y-155875000D03*
%TO.P,LED1,4*%
%TO.N,rgb_main_pinky_bottom*%
X102200000Y-155875000D03*
%TO.P,LED1,3*%
%TO.N,GND*%
X102200000Y-154125000D03*
%TD*%
%TO.P,LED2,2*%
%TO.N,rgb_main_pinky_bottom*%
X97800000Y-137125000D03*
%TO.P,LED2,1*%
%TO.N,VCC*%
X97800000Y-138875000D03*
%TO.P,LED2,4*%
%TO.N,rgb_main_pinky_home*%
X102200000Y-138875000D03*
%TO.P,LED2,3*%
%TO.N,GND*%
X102200000Y-137125000D03*
%TD*%
%TO.P,LED3,2*%
%TO.N,rgb_main_outer_top*%
X97800000Y-120125000D03*
%TO.P,LED3,1*%
%TO.N,VCC*%
X97800000Y-121875000D03*
%TO.P,LED3,4*%
%TO.N,rgb_main_pinky_top*%
X102200000Y-121875000D03*
%TO.P,LED3,3*%
%TO.N,GND*%
X102200000Y-120125000D03*
%TD*%
%TO.P,LED4,2*%
%TO.N,rgb_main_pinky_top*%
X97800000Y-103125000D03*
%TO.P,LED4,1*%
%TO.N,VCC*%
X97800000Y-104875000D03*
%TO.P,LED4,4*%
%TO.N,rgb_main_pinky_num*%
X102200000Y-104875000D03*
%TO.P,LED4,3*%
%TO.N,GND*%
X102200000Y-103125000D03*
%TD*%
%TO.P,LED5,2*%
%TO.N,rgb_main_ring_home*%
X115800000Y-142125000D03*
%TO.P,LED5,1*%
%TO.N,VCC*%
X115800000Y-143875000D03*
%TO.P,LED5,4*%
%TO.N,rgb_main_ring_bottom*%
X120200000Y-143875000D03*
%TO.P,LED5,3*%
%TO.N,GND*%
X120200000Y-142125000D03*
%TD*%
%TO.P,LED6,2*%
%TO.N,rgb_main_ring_top*%
X115800000Y-125125000D03*
%TO.P,LED6,1*%
%TO.N,VCC*%
X115800000Y-126875000D03*
%TO.P,LED6,4*%
%TO.N,rgb_main_ring_home*%
X120200000Y-126875000D03*
%TO.P,LED6,3*%
%TO.N,GND*%
X120200000Y-125125000D03*
%TD*%
%TO.P,LED7,2*%
%TO.N,rgb_main_middle_top*%
X115800000Y-108125000D03*
%TO.P,LED7,1*%
%TO.N,VCC*%
X115800000Y-109875000D03*
%TO.P,LED7,4*%
%TO.N,rgb_main_ring_top*%
X120200000Y-109875000D03*
%TO.P,LED7,3*%
%TO.N,GND*%
X120200000Y-108125000D03*
%TD*%
%TO.P,LED8,2*%
%TO.N,rgb_main_pinky_num*%
X115800000Y-91125000D03*
%TO.P,LED8,1*%
%TO.N,VCC*%
X115800000Y-92875000D03*
%TO.P,LED8,4*%
%TO.N,rgb_main_ring_num*%
X120200000Y-92875000D03*
%TO.P,LED8,3*%
%TO.N,GND*%
X120200000Y-91125000D03*
%TD*%
%TO.P,LED9,2*%
%TO.N,rgb_main_index_bottom*%
X133800000Y-136125000D03*
%TO.P,LED9,1*%
%TO.N,VCC*%
X133800000Y-137875000D03*
%TO.P,LED9,4*%
%TO.N,rgb_main_middle_bottom*%
X138200000Y-137875000D03*
%TO.P,LED9,3*%
%TO.N,GND*%
X138200000Y-136125000D03*
%TD*%
%TO.P,LED10,2*%
%TO.N,rgb_main_middle_bottom*%
X133800000Y-119125000D03*
%TO.P,LED10,1*%
%TO.N,VCC*%
X133800000Y-120875000D03*
%TO.P,LED10,4*%
%TO.N,rgb_main_middle_home*%
X138200000Y-120875000D03*
%TO.P,LED10,3*%
%TO.N,GND*%
X138200000Y-119125000D03*
%TD*%
%TO.P,LED11,2*%
%TO.N,rgb_main_middle_home*%
X133800000Y-102125000D03*
%TO.P,LED11,1*%
%TO.N,VCC*%
X133800000Y-103875000D03*
%TO.P,LED11,4*%
%TO.N,rgb_main_middle_top*%
X138200000Y-103875000D03*
%TO.P,LED11,3*%
%TO.N,GND*%
X138200000Y-102125000D03*
%TD*%
%TO.P,LED12,2*%
%TO.N,rgb_main_ring_num*%
X133800000Y-85125000D03*
%TO.P,LED12,1*%
%TO.N,VCC*%
X133800000Y-86875000D03*
%TO.P,LED12,4*%
%TO.N,rgb_main_middle_num*%
X138200000Y-86875000D03*
%TO.P,LED12,3*%
%TO.N,GND*%
X138200000Y-85125000D03*
%TD*%
%TO.P,LED13,2*%
%TO.N,rgb_main_index_home*%
X151800000Y-142125000D03*
%TO.P,LED13,1*%
%TO.N,VCC*%
X151800000Y-143875000D03*
%TO.P,LED13,4*%
%TO.N,rgb_main_index_bottom*%
X156200000Y-143875000D03*
%TO.P,LED13,3*%
%TO.N,GND*%
X156200000Y-142125000D03*
%TD*%
%TO.P,LED14,2*%
%TO.N,rgb_main_index_top*%
X151800000Y-125125000D03*
%TO.P,LED14,1*%
%TO.N,VCC*%
X151800000Y-126875000D03*
%TO.P,LED14,4*%
%TO.N,rgb_main_index_home*%
X156200000Y-126875000D03*
%TO.P,LED14,3*%
%TO.N,GND*%
X156200000Y-125125000D03*
%TD*%
%TO.P,LED15,2*%
%TO.N,rgb_main_inner_top*%
X151800000Y-108125000D03*
%TO.P,LED15,1*%
%TO.N,VCC*%
X151800000Y-109875000D03*
%TO.P,LED15,4*%
%TO.N,rgb_main_index_top*%
X156200000Y-109875000D03*
%TO.P,LED15,3*%
%TO.N,GND*%
X156200000Y-108125000D03*
%TD*%
%TO.P,LED16,2*%
%TO.N,rgb_main_middle_num*%
X151800000Y-91125000D03*
%TO.P,LED16,1*%
%TO.N,VCC*%
X151800000Y-92875000D03*
%TO.P,LED16,4*%
%TO.N,rgb_main_index_num*%
X156200000Y-92875000D03*
%TO.P,LED16,3*%
%TO.N,GND*%
X156200000Y-91125000D03*
%TD*%
%TO.P,LED17,2*%
%TO.N,rgb_thumbfan_near*%
X169800000Y-144125000D03*
%TO.P,LED17,1*%
%TO.N,VCC*%
X169800000Y-145875000D03*
%TO.P,LED17,4*%
%TO.N,rgb_main_inner_bottom*%
X174200000Y-145875000D03*
%TO.P,LED17,3*%
%TO.N,GND*%
X174200000Y-144125000D03*
%TD*%
%TO.P,LED18,2*%
%TO.N,rgb_main_inner_bottom*%
X169800000Y-127125000D03*
%TO.P,LED18,1*%
%TO.N,VCC*%
X169800000Y-128875000D03*
%TO.P,LED18,4*%
%TO.N,rgb_main_inner_home*%
X174200000Y-128875000D03*
%TO.P,LED18,3*%
%TO.N,GND*%
X174200000Y-127125000D03*
%TD*%
%TO.P,LED19,2*%
%TO.N,rgb_main_inner_home*%
X169800000Y-110125000D03*
%TO.P,LED19,1*%
%TO.N,VCC*%
X169800000Y-111875000D03*
%TO.P,LED19,4*%
%TO.N,rgb_main_inner_top*%
X174200000Y-111875000D03*
%TO.P,LED19,3*%
%TO.N,GND*%
X174200000Y-110125000D03*
%TD*%
%TO.P,LED20,2*%
%TO.N,rgb_main_index_num*%
X169800000Y-93125000D03*
%TO.P,LED20,1*%
%TO.N,VCC*%
X169800000Y-94875000D03*
%TO.P,LED20,4*%
%TO.N,P21*%
X174200000Y-94875000D03*
%TO.P,LED20,3*%
%TO.N,GND*%
X174200000Y-93125000D03*
%TD*%
%TO.P,LED21,2*%
%TO.N,rgb_main_outer_home*%
X79800000Y-135125000D03*
%TO.P,LED21,1*%
%TO.N,VCC*%
X79800000Y-136875000D03*
%TO.P,LED21,4*%
%TO.N,rgb_outer_outer_top*%
X84200000Y-136875000D03*
%TO.P,LED21,3*%
%TO.N,GND*%
X84200000Y-135125000D03*
%TD*%
%TO.P,LED22,2*%
%TO.N,rgb_main_pinky_home*%
X79800000Y-118125000D03*
%TO.P,LED22,1*%
%TO.N,VCC*%
X79800000Y-119875000D03*
%TO.P,LED22,4*%
%TO.N,rgb_outer_outer_home*%
X84200000Y-119875000D03*
%TO.P,LED22,3*%
%TO.N,GND*%
X84200000Y-118125000D03*
%TD*%
%TO.P,LED23,2*%
%TO.N,rgb_thumbfan_home*%
X159800000Y-163125000D03*
%TO.P,LED23,1*%
%TO.N,VCC*%
X159800000Y-164875000D03*
%TO.P,LED23,4*%
%TO.N,rgb_thumbfan_near_thumb*%
X164200000Y-164875000D03*
%TO.P,LED23,3*%
%TO.N,GND*%
X164200000Y-163125000D03*
%TD*%
D28*
%TO.P,LED24,2*%
%TO.N,rgb_thumbfan_far*%
X181826812Y-166391966D03*
%TO.P,LED24,1*%
%TO.N,VCC*%
X181286032Y-168056315D03*
%TO.P,LED24,4*%
%TO.N,rgb_thumbfan_home_thumb*%
X185470680Y-169415990D03*
%TO.P,LED24,3*%
%TO.N,GND*%
X186011460Y-167751641D03*
%TD*%
D29*
%TO.P,LED25,2*%
%TO.N,N/C*%
X202049965Y-174464899D03*
%TO.P,LED25,1*%
%TO.N,VCC*%
X201228390Y-176010058D03*
%TO.P,LED25,4*%
%TO.N,rgb_thumbfan_far_thumb*%
X205113359Y-178075733D03*
%TO.P,LED25,3*%
%TO.N,GND*%
X205934934Y-176530574D03*
%TD*%
D30*
%TO.P,JST1,1*%
%TO.N,pos*%
X165000000Y-118500000D03*
D31*
%TO.P,JST1,2*%
%TO.N,GND*%
X165000000Y-116500000D03*
%TD*%
D32*
%TO.N,*%
X169970000Y-84880000D02*
X169970000Y-82880000D01*
%TO.N,_1_25*%
X169970000Y-96120000D02*
X169970000Y-98120000D01*
%TO.N,*%
X169970000Y-85720000D02*
X169970000Y-87240000D01*
X169970000Y-95280000D02*
X169970000Y-93760000D01*
X167430000Y-84880000D02*
X167430000Y-82880000D01*
%TO.N,_1_24*%
X167430000Y-96120000D02*
X167430000Y-98120000D01*
%TO.N,P1*%
X167430000Y-85720000D02*
X167430000Y-87240000D01*
%TO.N,RAW*%
X167430000Y-95280000D02*
X167430000Y-93760000D01*
%TO.N,*%
X164890000Y-84880000D02*
X164890000Y-82880000D01*
%TO.N,_1_23*%
X164890000Y-96120000D02*
X164890000Y-98120000D01*
%TO.N,P0*%
X164890000Y-85720000D02*
X164890000Y-87240000D01*
%TO.N,*%
X164890000Y-95280000D02*
X164890000Y-93760000D01*
X162350000Y-84880000D02*
X162350000Y-82880000D01*
%TO.N,_1_22*%
X162350000Y-96120000D02*
X162350000Y-98120000D01*
%TO.N,*%
X162350000Y-85720000D02*
X162350000Y-87240000D01*
X162350000Y-95280000D02*
X162350000Y-93760000D01*
%TD*%
M02*
