M48
; DRILL file {KiCad 9.0.6} date 2025-11-05T17:55:21+0100
; FORMAT={-:-/ absolute / metric / decimal}
; #@! TF.CreationDate,2025-11-05T17:55:21+01:00
; #@! TF.GenerationSoftware,Kicad,Pcbnew,9.0.6
; #@! TF.FileFunction,NonPlated,1,2,NPTH
FMAT,2
METRIC
; #@! TA.AperFunction,NonPlated,NPTH,ComponentDrill
T1C0.750
; #@! TA.AperFunction,NonPlated,NPTH,ComponentDrill
T2C1.702
; #@! TA.AperFunction,NonPlated,NPTH,ComponentDrill
T3C3.000
; #@! TA.AperFunction,NonPlated,NPTH,ComponentDrill
T4C3.429
%
G90
G05
T1
X179.625Y-86.2
X182.375Y-86.2
T2
X76.5Y-114.0
X76.5Y-131.0
X87.5Y-114.0
X87.5Y-131.0
X94.5Y-99.0
X94.5Y-116.0
X94.5Y-133.0
X94.5Y-150.0
X105.5Y-99.0
X105.5Y-116.0
X105.5Y-133.0
X105.5Y-150.0
X112.5Y-87.0
X112.5Y-104.0
X112.5Y-121.0
X112.5Y-138.0
X123.5Y-87.0
X123.5Y-104.0
X123.5Y-121.0
X123.5Y-138.0
X130.5Y-81.0
X130.5Y-98.0
X130.5Y-115.0
X130.5Y-132.0
X141.5Y-81.0
X141.5Y-98.0
X141.5Y-115.0
X141.5Y-132.0
X148.5Y-87.0
X148.5Y-104.0
X148.5Y-121.0
X148.5Y-138.0
X156.5Y-159.0
X159.5Y-87.0
X159.5Y-104.0
X159.5Y-121.0
X159.5Y-138.0
X166.5Y-89.0
X166.5Y-106.0
X166.5Y-123.0
X166.5Y-140.0
X167.5Y-159.0
X177.5Y-89.0
X177.5Y-106.0
X177.5Y-123.0
X177.5Y-140.0
X179.963Y-161.449
X190.425Y-164.848
X201.073Y-169.273
X210.785Y-174.438
T3
X77.0Y-110.25
X77.0Y-127.25
X82.0Y-108.05
X82.0Y-108.05
X82.0Y-125.05
X82.0Y-125.05
X87.0Y-110.25
X87.0Y-127.25
X95.0Y-95.25
X95.0Y-112.25
X95.0Y-129.25
X95.0Y-146.25
X100.0Y-93.05
X100.0Y-93.05
X100.0Y-110.05
X100.0Y-110.05
X100.0Y-127.05
X100.0Y-127.05
X100.0Y-144.05
X100.0Y-144.05
X105.0Y-95.25
X105.0Y-112.25
X105.0Y-129.25
X105.0Y-146.25
X113.0Y-83.25
X113.0Y-100.25
X113.0Y-117.25
X113.0Y-134.25
X118.0Y-81.05
X118.0Y-81.05
X118.0Y-98.05
X118.0Y-98.05
X118.0Y-115.05
X118.0Y-115.05
X118.0Y-132.05
X118.0Y-132.05
X123.0Y-83.25
X123.0Y-100.25
X123.0Y-117.25
X123.0Y-134.25
X131.0Y-77.25
X131.0Y-94.25
X131.0Y-111.25
X131.0Y-128.25
X136.0Y-75.05
X136.0Y-75.05
X136.0Y-92.05
X136.0Y-92.05
X136.0Y-109.05
X136.0Y-109.05
X136.0Y-126.05
X136.0Y-126.05
X141.0Y-77.25
X141.0Y-94.25
X141.0Y-111.25
X141.0Y-128.25
X149.0Y-83.25
X149.0Y-100.25
X149.0Y-117.25
X149.0Y-134.25
X154.0Y-81.05
X154.0Y-81.05
X154.0Y-98.05
X154.0Y-98.05
X154.0Y-115.05
X154.0Y-115.05
X154.0Y-132.05
X154.0Y-132.05
X157.0Y-155.25
X159.0Y-83.25
X159.0Y-100.25
X159.0Y-117.25
X159.0Y-134.25
X162.0Y-153.05
X162.0Y-153.05
X167.0Y-85.25
X167.0Y-102.25
X167.0Y-119.25
X167.0Y-136.25
X167.0Y-155.25
X172.0Y-83.05
X172.0Y-83.05
X172.0Y-100.05
X172.0Y-100.05
X172.0Y-117.05
X172.0Y-117.05
X172.0Y-134.05
X172.0Y-134.05
X177.0Y-85.25
X177.0Y-102.25
X177.0Y-119.25
X177.0Y-136.25
X181.597Y-158.037
X187.032Y-157.49
X187.032Y-157.49
X191.108Y-161.127
X203.275Y-166.197
X208.722Y-166.602
X208.722Y-166.602
X212.104Y-170.892
T4
X82.0Y-114.0
X82.0Y-131.0
X100.0Y-99.0
X100.0Y-116.0
X100.0Y-133.0
X100.0Y-150.0
X118.0Y-87.0
X118.0Y-104.0
X118.0Y-121.0
X118.0Y-138.0
X136.0Y-81.0
X136.0Y-98.0
X136.0Y-115.0
X136.0Y-132.0
X154.0Y-87.0
X154.0Y-104.0
X154.0Y-121.0
X154.0Y-138.0
X162.0Y-159.0
X172.0Y-89.0
X172.0Y-106.0
X172.0Y-123.0
X172.0Y-140.0
X185.194Y-163.149
X205.929Y-171.856
M30
