%TF.GenerationSoftware,KiCad,Pcbnew,9.0.6*%
%TF.CreationDate,2025-11-09T20:29:50+01:00*%
%TF.ProjectId,main_pcb,6d61696e-5f70-4636-922e-6b696361645f,v1.0.0*%
%TF.SameCoordinates,Original*%
%TF.FileFunction,Soldermask,Bot*%
%TF.FilePolarity,Negative*%
%FSLAX46Y46*%
G04 Gerber Fmt 4.6, Leading zero omitted, Abs format (unit mm)*
G04 Created by KiCad (PCBNEW 9.0.6) date 2025-11-09 20:29:50*
%MOMM*%
%LPD*%
G01*
G04 APERTURE LIST*
G04 Aperture macros list*
%AMRoundRect*
0 Rectangle with rounded corners*
0 $1 Rounding radius*
0 $2 $3 $4 $5 $6 $7 $8 $9 X,Y pos of 4 corners*
0 Add a 4 corners polygon primitive as box body*
4,1,4,$2,$3,$4,$5,$6,$7,$8,$9,$2,$3,0*
0 Add four circle primitives for the rounded corners*
1,1,$1+$1,$2,$3*
1,1,$1+$1,$4,$5*
1,1,$1+$1,$6,$7*
1,1,$1+$1,$8,$9*
0 Add four rect primitives between the rounded corners*
20,1,$1+$1,$2,$3,$4,$5,0*
20,1,$1+$1,$4,$5,$6,$7,0*
20,1,$1+$1,$6,$7,$8,$9,0*
20,1,$1+$1,$8,$9,$2,$3,0*%
%AMFreePoly0*
4,1,16,-0.214645,0.660355,-0.210957,0.656235,0.289043,0.031235,0.299694,-0.005522,0.289043,-0.031235,-0.210957,-0.656235,-0.244478,-0.674694,-0.250000,-0.675000,-0.500000,-0.675000,-0.535355,-0.660355,-0.550000,-0.625000,-0.550000,0.625000,-0.535355,0.660355,-0.500000,0.675000,-0.250000,0.675000,-0.214645,0.660355,-0.214645,0.660355,$1*%
%AMFreePoly1*
4,1,16,0.535355,0.660355,0.550000,0.625000,0.550000,-0.625000,0.535355,-0.660355,0.500000,-0.675000,-0.650000,-0.675000,-0.685355,-0.660355,-0.700000,-0.625000,-0.689043,-0.593765,-0.214031,0.000000,-0.689043,0.593765,-0.699694,0.630522,-0.681235,0.664043,-0.650000,0.675000,0.500000,0.675000,0.535355,0.660355,0.535355,0.660355,$1*%
G04 Aperture macros list end*
%ADD10C,3.529000*%
%ADD11C,1.801800*%
%ADD12C,3.100000*%
%ADD13RoundRect,0.050000X-1.300000X-1.300000X1.300000X-1.300000X1.300000X1.300000X-1.300000X1.300000X0*%
%ADD14RoundRect,0.050000X-1.638096X-0.834651X0.834651X-1.638096X1.638096X0.834651X-0.834651X1.638096X0*%
%ADD15RoundRect,0.050000X-1.758145X-0.537519X0.537519X-1.758145X1.758145X0.537519X-0.537519X1.758145X0*%
%ADD16C,1.800000*%
%ADD17C,0.900000*%
%ADD18FreePoly0,0.000000*%
%ADD19FreePoly1,0.000000*%
%ADD20FreePoly1,180.000000*%
%ADD21FreePoly0,180.000000*%
%ADD22C,0.850000*%
%ADD23RoundRect,0.050000X-0.775000X-0.500000X0.775000X-0.500000X0.775000X0.500000X-0.775000X0.500000X0*%
%ADD24RoundRect,0.050000X0.600000X-0.450000X0.600000X0.450000X-0.600000X0.450000X-0.600000X-0.450000X0*%
%ADD25RoundRect,0.050000X0.889000X-0.889000X0.889000X0.889000X-0.889000X0.889000X-0.889000X-0.889000X0*%
%ADD26C,2.005000*%
%ADD27RoundRect,0.050000X0.431576X-0.613386X0.709692X0.242565X-0.431576X0.613386X-0.709692X-0.242565X0*%
%ADD28RoundRect,0.050000X0.570773X-1.120205X1.120205X0.570773X-0.570773X1.120205X-1.120205X-0.570773X0*%
%ADD29RoundRect,0.050000X0.318506X-0.679009X0.741031X0.115643X-0.318506X0.679009X-0.741031X-0.115643X0*%
%ADD30RoundRect,0.050000X0.367580X-1.202301X1.202301X0.367580X-0.367580X1.202301X-1.202301X-0.367580X0*%
%ADD31RoundRect,0.050000X-1.300000X-0.500000X1.300000X-0.500000X1.300000X0.500000X-1.300000X0.500000X0*%
%ADD32RoundRect,0.050000X-1.390882X-0.073806X1.081865X-0.877250X1.390882X0.073806X-1.081865X0.877250X0*%
%ADD33RoundRect,0.050000X-1.382568X0.168839X0.913096X-1.051787X1.382568X-0.168839X-0.913096X1.051787X0*%
%ADD34RoundRect,0.050000X0.850000X-0.600000X0.850000X0.600000X-0.850000X0.600000X-0.850000X-0.600000X0*%
%ADD35O,1.800000X1.300000*%
%ADD36RoundRect,0.050000X-0.500000X-0.400000X0.500000X-0.400000X0.500000X0.400000X-0.500000X0.400000X0*%
%ADD37RoundRect,0.050000X-0.350000X-0.750000X0.350000X-0.750000X0.350000X0.750000X-0.350000X0.750000X0*%
%ADD38C,1.000000*%
G04 APERTURE END LIST*
D10*
%TO.C,S1*%
X100000000Y-150000000D03*
D11*
X105500000Y-150000000D03*
X94500000Y-150000000D03*
D12*
X105000000Y-146250000D03*
X100000000Y-144050000D03*
D13*
X96725000Y-144050000D03*
X108275000Y-146250000D03*
D12*
X95000000Y-146250000D03*
X100000000Y-144050000D03*
%TD*%
D10*
%TO.C,S2*%
X100000000Y-133000000D03*
D11*
X105500000Y-133000000D03*
X94500000Y-133000000D03*
D12*
X105000000Y-129250000D03*
X100000000Y-127050000D03*
D13*
X96725000Y-127050000D03*
X108275000Y-129250000D03*
D12*
X95000000Y-129250000D03*
X100000000Y-127050000D03*
%TD*%
D10*
%TO.C,S3*%
X100000000Y-116000000D03*
D11*
X105500000Y-116000000D03*
X94500000Y-116000000D03*
D12*
X105000000Y-112250000D03*
X100000000Y-110050000D03*
D13*
X96725000Y-110050000D03*
X108275000Y-112250000D03*
D12*
X95000000Y-112250000D03*
X100000000Y-110050000D03*
%TD*%
D10*
%TO.C,S4*%
X100000000Y-99000000D03*
D11*
X105500000Y-99000000D03*
X94500000Y-99000000D03*
D12*
X105000000Y-95250000D03*
X100000000Y-93050000D03*
D13*
X96725000Y-93050000D03*
X108275000Y-95250000D03*
D12*
X95000000Y-95250000D03*
X100000000Y-93050000D03*
%TD*%
D10*
%TO.C,S5*%
X118000000Y-138000000D03*
D11*
X123500000Y-138000000D03*
X112500000Y-138000000D03*
D12*
X123000000Y-134250000D03*
X118000000Y-132050000D03*
D13*
X114725000Y-132050000D03*
X126275000Y-134250000D03*
D12*
X113000000Y-134250000D03*
X118000000Y-132050000D03*
%TD*%
D10*
%TO.C,S6*%
X118000000Y-121000000D03*
D11*
X123500000Y-121000000D03*
X112500000Y-121000000D03*
D12*
X123000000Y-117250000D03*
X118000000Y-115050000D03*
D13*
X114725000Y-115050000D03*
X126275000Y-117250000D03*
D12*
X113000000Y-117250000D03*
X118000000Y-115050000D03*
%TD*%
D10*
%TO.C,S7*%
X118000000Y-104000000D03*
D11*
X123500000Y-104000000D03*
X112500000Y-104000000D03*
D12*
X123000000Y-100250000D03*
X118000000Y-98050000D03*
D13*
X114725000Y-98050000D03*
X126275000Y-100250000D03*
D12*
X113000000Y-100250000D03*
X118000000Y-98050000D03*
%TD*%
D10*
%TO.C,S8*%
X118000000Y-87000000D03*
D11*
X123500000Y-87000000D03*
X112500000Y-87000000D03*
D12*
X123000000Y-83250000D03*
X118000000Y-81050000D03*
D13*
X114725000Y-81050000D03*
X126275000Y-83250000D03*
D12*
X113000000Y-83250000D03*
X118000000Y-81050000D03*
%TD*%
D10*
%TO.C,S9*%
X136000000Y-134000000D03*
D11*
X141500000Y-134000000D03*
X130500000Y-134000000D03*
D12*
X141000000Y-130250000D03*
X136000000Y-128050000D03*
D13*
X132725000Y-128050000D03*
X144275000Y-130250000D03*
D12*
X131000000Y-130250000D03*
X136000000Y-128050000D03*
%TD*%
D10*
%TO.C,S10*%
X136000000Y-117000000D03*
D11*
X141500000Y-117000000D03*
X130500000Y-117000000D03*
D12*
X141000000Y-113250000D03*
X136000000Y-111050000D03*
D13*
X132725000Y-111050000D03*
X144275000Y-113250000D03*
D12*
X131000000Y-113250000D03*
X136000000Y-111050000D03*
%TD*%
D10*
%TO.C,S11*%
X136000000Y-100000000D03*
D11*
X141500000Y-100000000D03*
X130500000Y-100000000D03*
D12*
X141000000Y-96250000D03*
X136000000Y-94050000D03*
D13*
X132725000Y-94050000D03*
X144275000Y-96250000D03*
D12*
X131000000Y-96250000D03*
X136000000Y-94050000D03*
%TD*%
D10*
%TO.C,S12*%
X136000000Y-83000000D03*
D11*
X141500000Y-83000000D03*
X130500000Y-83000000D03*
D12*
X141000000Y-79250000D03*
X136000000Y-77050000D03*
D13*
X132725000Y-77050000D03*
X144275000Y-79250000D03*
D12*
X131000000Y-79250000D03*
X136000000Y-77050000D03*
%TD*%
D10*
%TO.C,S13*%
X154000000Y-142000000D03*
D11*
X159500000Y-142000000D03*
X148500000Y-142000000D03*
D12*
X159000000Y-138250000D03*
X154000000Y-136050000D03*
D13*
X150725000Y-136050000D03*
X162275000Y-138250000D03*
D12*
X149000000Y-138250000D03*
X154000000Y-136050000D03*
%TD*%
D10*
%TO.C,S14*%
X154000000Y-125000000D03*
D11*
X159500000Y-125000000D03*
X148500000Y-125000000D03*
D12*
X159000000Y-121250000D03*
X154000000Y-119050000D03*
D13*
X150725000Y-119050000D03*
X162275000Y-121250000D03*
D12*
X149000000Y-121250000D03*
X154000000Y-119050000D03*
%TD*%
D10*
%TO.C,S15*%
X154000000Y-108000000D03*
D11*
X159500000Y-108000000D03*
X148500000Y-108000000D03*
D12*
X159000000Y-104250000D03*
X154000000Y-102050000D03*
D13*
X150725000Y-102050000D03*
X162275000Y-104250000D03*
D12*
X149000000Y-104250000D03*
X154000000Y-102050000D03*
%TD*%
D10*
%TO.C,S16*%
X154000000Y-91000000D03*
D11*
X159500000Y-91000000D03*
X148500000Y-91000000D03*
D12*
X159000000Y-87250000D03*
X154000000Y-85050000D03*
D13*
X150725000Y-85050000D03*
X162275000Y-87250000D03*
D12*
X149000000Y-87250000D03*
X154000000Y-85050000D03*
%TD*%
D10*
%TO.C,S17*%
X172000000Y-144000000D03*
D11*
X177500000Y-144000000D03*
X166500000Y-144000000D03*
D12*
X177000000Y-140250000D03*
X172000000Y-138050000D03*
D13*
X168725000Y-138050000D03*
X180275000Y-140250000D03*
D12*
X167000000Y-140250000D03*
X172000000Y-138050000D03*
%TD*%
D10*
%TO.C,S18*%
X172000000Y-127000000D03*
D11*
X177500000Y-127000000D03*
X166500000Y-127000000D03*
D12*
X177000000Y-123250000D03*
X172000000Y-121050000D03*
D13*
X168725000Y-121050000D03*
X180275000Y-123250000D03*
D12*
X167000000Y-123250000D03*
X172000000Y-121050000D03*
%TD*%
D10*
%TO.C,S19*%
X172000000Y-110000000D03*
D11*
X177500000Y-110000000D03*
X166500000Y-110000000D03*
D12*
X177000000Y-106250000D03*
X172000000Y-104050000D03*
D13*
X168725000Y-104050000D03*
X180275000Y-106250000D03*
D12*
X167000000Y-106250000D03*
X172000000Y-104050000D03*
%TD*%
D10*
%TO.C,S20*%
X172000000Y-93000000D03*
D11*
X177500000Y-93000000D03*
X166500000Y-93000000D03*
D12*
X177000000Y-89250000D03*
X172000000Y-87050000D03*
D13*
X168725000Y-87050000D03*
X180275000Y-89250000D03*
D12*
X167000000Y-89250000D03*
X172000000Y-87050000D03*
%TD*%
D10*
%TO.C,S21*%
X82000000Y-133000000D03*
D11*
X87500000Y-133000000D03*
X76500000Y-133000000D03*
D12*
X87000000Y-129250000D03*
X82000000Y-127050000D03*
D13*
X78725000Y-127050000D03*
X90275000Y-129250000D03*
D12*
X77000000Y-129250000D03*
X82000000Y-127050000D03*
%TD*%
D10*
%TO.C,S22*%
X82000000Y-116000000D03*
D11*
X87500000Y-116000000D03*
X76500000Y-116000000D03*
D12*
X87000000Y-112250000D03*
X82000000Y-110050000D03*
D13*
X78725000Y-110050000D03*
X90275000Y-112250000D03*
D12*
X77000000Y-112250000D03*
X82000000Y-110050000D03*
%TD*%
D10*
%TO.C,S23*%
X162000000Y-161000000D03*
D11*
X167500000Y-161000000D03*
X156500000Y-161000000D03*
D12*
X167000000Y-157250000D03*
X162000000Y-155050000D03*
D13*
X158725000Y-155050000D03*
X170275000Y-157250000D03*
D12*
X157000000Y-157250000D03*
X162000000Y-155050000D03*
%TD*%
D10*
%TO.C,S24*%
X185193831Y-165148695D03*
D11*
X190424642Y-166848288D03*
X179963020Y-163449102D03*
D12*
X191107927Y-163127318D03*
X187032482Y-159489909D03*
D14*
X183917772Y-158477878D03*
X194222637Y-164139349D03*
D12*
X181597362Y-160037148D03*
X187032482Y-159489909D03*
%TD*%
D10*
%TO.C,S25*%
X205929020Y-173855578D03*
D11*
X210785232Y-176437672D03*
X201072808Y-171273484D03*
D12*
X212104276Y-172891882D03*
X208722376Y-168602040D03*
D15*
X205830722Y-167064520D03*
X214995930Y-174429402D03*
D12*
X203274800Y-168197167D03*
X208722376Y-168602040D03*
%TD*%
D16*
%TO.C,MCU1*%
X74105000Y-77500000D03*
X89345000Y-77500000D03*
D17*
X78325000Y-77500000D03*
X85125000Y-77500000D03*
D18*
X76225000Y-77500000D03*
D19*
X76950000Y-77500000D03*
D20*
X86500000Y-77500000D03*
D21*
X87225000Y-77500000D03*
D16*
X74105000Y-80040000D03*
X89345000Y-80040000D03*
D17*
X78325000Y-80040000D03*
X85125000Y-80040000D03*
D18*
X76225000Y-80040000D03*
D19*
X76950000Y-80040000D03*
D20*
X86500000Y-80040000D03*
D21*
X87225000Y-80040000D03*
D16*
X74105000Y-82580000D03*
X89345000Y-82580000D03*
D17*
X78325000Y-82580000D03*
X85125000Y-82580000D03*
D18*
X76225000Y-82580000D03*
D19*
X76950000Y-82580000D03*
D20*
X86500000Y-82580000D03*
D21*
X87225000Y-82580000D03*
D16*
X74105000Y-85120000D03*
X89345000Y-85120000D03*
D17*
X78325000Y-85120000D03*
X85125000Y-85120000D03*
D18*
X76225000Y-85120000D03*
D19*
X76950000Y-85120000D03*
D20*
X86500000Y-85120000D03*
D21*
X87225000Y-85120000D03*
D16*
X74105000Y-87660000D03*
X89345000Y-87660000D03*
D17*
X78325000Y-87660000D03*
X85125000Y-87660000D03*
D18*
X76225000Y-87660000D03*
D19*
X76950000Y-87660000D03*
D20*
X86500000Y-87660000D03*
D21*
X87225000Y-87660000D03*
D16*
X74105000Y-90200000D03*
X89345000Y-90200000D03*
D17*
X78325000Y-90200000D03*
X85125000Y-90200000D03*
D18*
X76225000Y-90200000D03*
D19*
X76950000Y-90200000D03*
D20*
X86500000Y-90200000D03*
D21*
X87225000Y-90200000D03*
D16*
X74105000Y-92740000D03*
X89345000Y-92740000D03*
D17*
X78325000Y-92740000D03*
X85125000Y-92740000D03*
D18*
X76225000Y-92740000D03*
D19*
X76950000Y-92740000D03*
D20*
X86500000Y-92740000D03*
D21*
X87225000Y-92740000D03*
D16*
X74105000Y-95280000D03*
X89345000Y-95280000D03*
D17*
X78325000Y-95280000D03*
X85125000Y-95280000D03*
D18*
X76225000Y-95280000D03*
D19*
X76950000Y-95280000D03*
D20*
X86500000Y-95280000D03*
D21*
X87225000Y-95280000D03*
D16*
X74105000Y-97820000D03*
X89345000Y-97820000D03*
D17*
X78325000Y-97820000D03*
X85125000Y-97820000D03*
D18*
X76225000Y-97820000D03*
D19*
X76950000Y-97820000D03*
D20*
X86500000Y-97820000D03*
D21*
X87225000Y-97820000D03*
D16*
X74105000Y-100360000D03*
X89345000Y-100360000D03*
D17*
X78325000Y-100360000D03*
X85125000Y-100360000D03*
D18*
X76225000Y-100360000D03*
D19*
X76950000Y-100360000D03*
D20*
X86500000Y-100360000D03*
D21*
X87225000Y-100360000D03*
D16*
X74105000Y-102900000D03*
X89345000Y-102900000D03*
D17*
X78325000Y-102900000D03*
X85125000Y-102900000D03*
D18*
X76225000Y-102900000D03*
D19*
X76950000Y-102900000D03*
D20*
X86500000Y-102900000D03*
D21*
X87225000Y-102900000D03*
D16*
X74105000Y-105440000D03*
X89345000Y-105440000D03*
D17*
X78325000Y-105440000D03*
X85125000Y-105440000D03*
D18*
X76225000Y-105440000D03*
D19*
X76950000Y-105440000D03*
D20*
X86500000Y-105440000D03*
D21*
X87225000Y-105440000D03*
%TD*%
D22*
%TO.C,B1*%
X99875000Y-74000000D03*
X99875000Y-76750000D03*
D23*
X97250000Y-74525000D03*
X102500000Y-74525000D03*
X97250000Y-76225000D03*
X102500000Y-76225000D03*
%TD*%
D22*
%TO.C,B2*%
X99875000Y-74000000D03*
X99875000Y-76750000D03*
%TD*%
D24*
%TO.C,D1*%
X107800000Y-151850000D03*
X107800000Y-155150000D03*
D25*
X107800000Y-157310000D03*
D26*
X107800000Y-149690000D03*
%TD*%
D24*
%TO.C,D2*%
X107800000Y-134850000D03*
X107800000Y-138150000D03*
D25*
X107800000Y-140310000D03*
D26*
X107800000Y-132690000D03*
%TD*%
D24*
%TO.C,D3*%
X107800000Y-117850000D03*
X107800000Y-121150000D03*
D25*
X107800000Y-123310000D03*
D26*
X107800000Y-115690000D03*
%TD*%
D24*
%TO.C,D4*%
X107800000Y-100850000D03*
X107800000Y-104150000D03*
D25*
X107800000Y-106310000D03*
D26*
X107800000Y-98690000D03*
%TD*%
D24*
%TO.C,D5*%
X125800000Y-139850000D03*
X125800000Y-143150000D03*
D25*
X125800000Y-145310000D03*
D26*
X125800000Y-137690000D03*
%TD*%
D24*
%TO.C,D6*%
X125800000Y-122850000D03*
X125800000Y-126150000D03*
D25*
X125800000Y-128310000D03*
D26*
X125800000Y-120690000D03*
%TD*%
D24*
%TO.C,D7*%
X125800000Y-105850000D03*
X125800000Y-109150000D03*
D25*
X125800000Y-111310000D03*
D26*
X125800000Y-103690000D03*
%TD*%
D24*
%TO.C,D8*%
X125800000Y-88850000D03*
X125800000Y-92150000D03*
D25*
X125800000Y-94310000D03*
D26*
X125800000Y-86690000D03*
%TD*%
D24*
%TO.C,D9*%
X143800000Y-135850000D03*
X143800000Y-139150000D03*
D25*
X143800000Y-141310000D03*
D26*
X143800000Y-133690000D03*
%TD*%
D24*
%TO.C,D10*%
X143800000Y-118850000D03*
X143800000Y-122150000D03*
D25*
X143800000Y-124310000D03*
D26*
X143800000Y-116690000D03*
%TD*%
D24*
%TO.C,D11*%
X143800000Y-101850000D03*
X143800000Y-105150000D03*
D25*
X143800000Y-107310000D03*
D26*
X143800000Y-99690000D03*
%TD*%
D24*
%TO.C,D12*%
X143800000Y-84850000D03*
X143800000Y-88150000D03*
D25*
X143800000Y-90310000D03*
D26*
X143800000Y-82690000D03*
%TD*%
D24*
%TO.C,D13*%
X161800000Y-143850000D03*
X161800000Y-147150000D03*
D25*
X161800000Y-149310000D03*
D26*
X161800000Y-141690000D03*
%TD*%
D24*
%TO.C,D14*%
X161800000Y-126850000D03*
X161800000Y-130150000D03*
D25*
X161800000Y-132310000D03*
D26*
X161800000Y-124690000D03*
%TD*%
D24*
%TO.C,D15*%
X161800000Y-109850000D03*
X161800000Y-113150000D03*
D25*
X161800000Y-115310000D03*
D26*
X161800000Y-107690000D03*
%TD*%
D24*
%TO.C,D16*%
X161800000Y-92850000D03*
X161800000Y-96150000D03*
D25*
X161800000Y-98310000D03*
D26*
X161800000Y-90690000D03*
%TD*%
D24*
%TO.C,D17*%
X179800000Y-145850000D03*
X179800000Y-149150000D03*
D25*
X179800000Y-151310000D03*
D26*
X179800000Y-143690000D03*
%TD*%
D24*
%TO.C,D18*%
X179800000Y-128850000D03*
X179800000Y-132150000D03*
D25*
X179800000Y-134310000D03*
D26*
X179800000Y-126690000D03*
%TD*%
D24*
%TO.C,D19*%
X179800000Y-111850000D03*
X179800000Y-115150000D03*
D25*
X179800000Y-117310000D03*
D26*
X179800000Y-109690000D03*
%TD*%
D24*
%TO.C,D20*%
X179800000Y-94850000D03*
X179800000Y-98150000D03*
D25*
X179800000Y-100310000D03*
D26*
X179800000Y-92690000D03*
%TD*%
D24*
%TO.C,D21*%
X89800000Y-134850000D03*
X89800000Y-138150000D03*
D25*
X89800000Y-140310000D03*
D26*
X89800000Y-132690000D03*
%TD*%
D24*
%TO.C,D22*%
X89800000Y-117850000D03*
X89800000Y-121150000D03*
D25*
X89800000Y-123310000D03*
D26*
X89800000Y-115690000D03*
%TD*%
D24*
%TO.C,D23*%
X169800000Y-162850000D03*
X169800000Y-166150000D03*
D25*
X169800000Y-168310000D03*
D26*
X169800000Y-160690000D03*
%TD*%
D27*
%TO.C,D24*%
X192040390Y-169318483D03*
X191020634Y-172456969D03*
D28*
X190353157Y-174511251D03*
D26*
X192707867Y-167264201D03*
%TD*%
D29*
%TO.C,D25*%
X211947489Y-179150909D03*
X210398233Y-182064637D03*
D30*
X209384174Y-183971803D03*
D26*
X212961548Y-177243743D03*
%TD*%
D31*
%TO.C,LED1*%
X97800000Y-154125000D03*
X97800000Y-155875000D03*
X102200000Y-155875000D03*
X102200000Y-154125000D03*
%TD*%
%TO.C,LED2*%
X97800000Y-137125000D03*
X97800000Y-138875000D03*
X102200000Y-138875000D03*
X102200000Y-137125000D03*
%TD*%
%TO.C,LED3*%
X97800000Y-120125000D03*
X97800000Y-121875000D03*
X102200000Y-121875000D03*
X102200000Y-120125000D03*
%TD*%
%TO.C,LED4*%
X97800000Y-103125000D03*
X97800000Y-104875000D03*
X102200000Y-104875000D03*
X102200000Y-103125000D03*
%TD*%
%TO.C,LED5*%
X115800000Y-142125000D03*
X115800000Y-143875000D03*
X120200000Y-143875000D03*
X120200000Y-142125000D03*
%TD*%
%TO.C,LED6*%
X115800000Y-125125000D03*
X115800000Y-126875000D03*
X120200000Y-126875000D03*
X120200000Y-125125000D03*
%TD*%
%TO.C,LED7*%
X115800000Y-108125000D03*
X115800000Y-109875000D03*
X120200000Y-109875000D03*
X120200000Y-108125000D03*
%TD*%
%TO.C,LED8*%
X115800000Y-91125000D03*
X115800000Y-92875000D03*
X120200000Y-92875000D03*
X120200000Y-91125000D03*
%TD*%
%TO.C,LED9*%
X133800000Y-138125000D03*
X133800000Y-139875000D03*
X138200000Y-139875000D03*
X138200000Y-138125000D03*
%TD*%
%TO.C,LED10*%
X133800000Y-121125000D03*
X133800000Y-122875000D03*
X138200000Y-122875000D03*
X138200000Y-121125000D03*
%TD*%
%TO.C,LED11*%
X133800000Y-104125000D03*
X133800000Y-105875000D03*
X138200000Y-105875000D03*
X138200000Y-104125000D03*
%TD*%
%TO.C,LED12*%
X133800000Y-87125000D03*
X133800000Y-88875000D03*
X138200000Y-88875000D03*
X138200000Y-87125000D03*
%TD*%
%TO.C,LED13*%
X151800000Y-146125000D03*
X151800000Y-147875000D03*
X156200000Y-147875000D03*
X156200000Y-146125000D03*
%TD*%
%TO.C,LED14*%
X151800000Y-129125000D03*
X151800000Y-130875000D03*
X156200000Y-130875000D03*
X156200000Y-129125000D03*
%TD*%
%TO.C,LED15*%
X151800000Y-112125000D03*
X151800000Y-113875000D03*
X156200000Y-113875000D03*
X156200000Y-112125000D03*
%TD*%
%TO.C,LED16*%
X151800000Y-95125000D03*
X151800000Y-96875000D03*
X156200000Y-96875000D03*
X156200000Y-95125000D03*
%TD*%
%TO.C,LED17*%
X169800000Y-148125000D03*
X169800000Y-149875000D03*
X174200000Y-149875000D03*
X174200000Y-148125000D03*
%TD*%
%TO.C,LED18*%
X169800000Y-131125000D03*
X169800000Y-132875000D03*
X174200000Y-132875000D03*
X174200000Y-131125000D03*
%TD*%
%TO.C,LED19*%
X169800000Y-114125000D03*
X169800000Y-115875000D03*
X174200000Y-115875000D03*
X174200000Y-114125000D03*
%TD*%
%TO.C,LED20*%
X169800000Y-97125000D03*
X169800000Y-98875000D03*
X174200000Y-98875000D03*
X174200000Y-97125000D03*
%TD*%
%TO.C,LED21*%
X79800000Y-137125000D03*
X79800000Y-138875000D03*
X84200000Y-138875000D03*
X84200000Y-137125000D03*
%TD*%
%TO.C,LED22*%
X79800000Y-120125000D03*
X79800000Y-121875000D03*
X84200000Y-121875000D03*
X84200000Y-120125000D03*
%TD*%
%TO.C,LED23*%
X159800000Y-165125000D03*
X159800000Y-166875000D03*
X164200000Y-166875000D03*
X164200000Y-165125000D03*
%TD*%
D32*
%TO.C,LED24*%
X181826812Y-168391966D03*
X181286032Y-170056315D03*
X185470680Y-171415990D03*
X186011460Y-169751641D03*
%TD*%
D33*
%TO.C,LED25*%
X202049965Y-176464899D03*
X201228390Y-178010058D03*
X205113359Y-180075733D03*
X205934934Y-178530574D03*
%TD*%
D34*
%TO.C,JST1*%
X169500000Y-82000000D03*
D35*
X169500000Y-80000000D03*
%TD*%
D34*
%TO.C,JST2*%
X168500000Y-82000000D03*
D35*
X168500000Y-80000000D03*
%TD*%
D36*
%TO.C,SW1*%
X109350000Y-76085000D03*
X109350000Y-73875000D03*
D37*
X115250000Y-76735000D03*
D36*
X116650000Y-76085000D03*
D37*
X113750000Y-76735000D03*
X110750000Y-76735000D03*
D36*
X116650000Y-73875000D03*
D38*
X111500000Y-74975000D03*
X114500000Y-74975000D03*
%TD*%
M02*
