M48
; DRILL file {KiCad 9.0.6} date 2025-11-21T16:08:50+0100
; FORMAT={-:-/ absolute / metric / decimal}
; #@! TF.CreationDate,2025-11-21T16:08:50+01:00
; #@! TF.GenerationSoftware,Kicad,Pcbnew,9.0.6
; #@! TF.FileFunction,Plated,1,2,PTH
FMAT,2
METRIC
; #@! TA.AperFunction,Plated,PTH,ViaDrill
T1C0.400
; #@! TA.AperFunction,Plated,PTH,ComponentDrill
T2C0.400
; #@! TA.AperFunction,Plated,PTH,ComponentDrill
T3C0.750
; #@! TA.AperFunction,Plated,PTH,ComponentDrill
T4C0.991
; #@! TA.AperFunction,Plated,PTH,ComponentDrill
T5C1.000
%
G90
G05
T1
X74.0Y-113.0
X77.0Y-120.0
X77.5Y-137.5
X79.0Y-119.0
X79.5Y-126.0
X80.0Y-135.5
X81.5Y-130.5
X83.475Y-129.5
X84.0Y-123.998
X85.5Y-109.5
X86.0Y-123.5
X86.0Y-136.0
X86.551Y-127.0
X87.0Y-137.0
X89.133Y-112.517
X89.5Y-129.5
X90.813Y-93.187
X91.0Y-136.774
X91.987Y-136.987
X92.0Y-122.5
X92.0Y-131.5
X92.0Y-135.324
X92.25Y-139.75
X92.25Y-141.5
X93.0Y-74.275
X93.0Y-127.35
X93.5Y-88.0
X93.5Y-104.0
X94.0Y-105.0
X94.0Y-109.5
X94.164Y-101.836
X94.388Y-138.362
X94.5Y-75.5
X95.0Y-74.5
X95.0Y-118.0
X95.0Y-140.0
X95.5Y-122.0
X95.5Y-154.5
X95.561Y-100.061
X95.9Y-138.5
X96.0Y-149.5
X96.25Y-148.048
X96.5Y-87.225
X96.5Y-90.5
X96.5Y-101.0
X97.5Y-113.5
X97.5Y-124.0
X97.5Y-140.5
X97.5Y-152.5
X97.987Y-130.987
X98.0Y-146.5
X99.466Y-130.534
X100.991Y-113.009
X101.0Y-129.5
X101.0Y-135.324
X101.25Y-152.324
X101.475Y-118.0
X101.5Y-123.5
X102.331Y-133.399
X102.625Y-107.65
X102.925Y-135.324
X102.987Y-82.487
X103.0Y-119.0
X103.0Y-140.8
X103.475Y-118.0
X103.566Y-99.586
X104.1Y-139.0
X104.5Y-102.0
X105.25Y-155.0
X106.5Y-154.0
X107.5Y-95.0
X107.5Y-113.0
X107.601Y-129.5
X108.0Y-115.5
X108.0Y-146.5
X109.725Y-117.25
X110.0Y-92.0
X110.0Y-114.048
X110.0Y-135.0
X110.5Y-77.0
X110.8Y-98.15
X111.513Y-88.365
X112.25Y-76.735
X112.5Y-95.0
X112.75Y-108.25
X113.013Y-92.987
X113.513Y-141.987
X113.9Y-109.5
X113.9Y-125.324
X114.0Y-89.816
X114.0Y-147.75
X114.013Y-93.987
X114.487Y-111.275
X114.75Y-128.5
X115.0Y-96.0
X115.0Y-119.25
X115.0Y-140.5
X115.5Y-105.75
X115.5Y-117.25
X115.75Y-124.0
X116.5Y-84.0
X117.0Y-134.5
X117.5Y-94.676
X118.0Y-146.5
X118.5Y-118.5
X119.25Y-111.676
X119.5Y-146.0
X120.0Y-148.5
X121.0Y-96.0
X121.0Y-113.0
X121.0Y-123.75
X121.275Y-81.05
X121.5Y-79.0
X122.082Y-110.521
X122.1Y-144.0
X123.0Y-109.0
X123.135Y-126.501
X123.25Y-124.25
X123.25Y-129.0
X123.275Y-112.0
X123.5Y-92.0
X123.75Y-105.75
X123.775Y-93.0
X124.0Y-107.5
X124.0Y-114.0
X124.0Y-126.0
X124.863Y-124.932
X125.0Y-96.5
X125.5Y-118.0
X126.0Y-100.5
X128.0Y-86.5
X128.0Y-130.5
X129.75Y-104.25
X130.0Y-91.449
X130.5Y-141.0
X130.513Y-88.013
X130.725Y-89.013
X131.225Y-121.0
X131.9Y-122.402
X132.0Y-88.0
X132.0Y-143.5
X132.225Y-125.625
X132.5Y-141.5
X133.25Y-119.0
X133.5Y-91.0
X133.5Y-103.0
X134.0Y-114.5
X134.0Y-143.25
X134.5Y-96.5
X134.5Y-125.449
X135.5Y-131.0
X136.0Y-114.0
X136.5Y-97.5
X137.0Y-107.5
X138.0Y-80.0
X138.5Y-130.5
X139.0Y-107.25
X139.0Y-124.0
X139.5Y-77.0
X139.5Y-99.0
X140.487Y-140.987
X140.5Y-142.0
X140.963Y-89.062
X141.0Y-88.0
X141.0Y-123.0
X143.5Y-83.5
X143.5Y-113.5
X144.0Y-96.5
X144.45Y-92.55
X144.5Y-109.0
X145.5Y-94.035
X146.175Y-114.51
X146.25Y-96.25
X146.75Y-90.0
X146.75Y-92.5
X147.0Y-95.5
X147.0Y-115.5
X147.25Y-148.0
X148.0Y-128.5
X148.75Y-149.5
X149.0Y-96.0
X149.0Y-130.0
X149.5Y-112.0
X149.5Y-114.5
X149.5Y-115.75
X150.5Y-143.0
X150.75Y-85.0
X151.0Y-102.0
X151.0Y-124.0
X151.5Y-120.0
X151.5Y-121.5
X151.5Y-137.0
X151.5Y-141.0
X151.5Y-145.0
X153.0Y-134.0
X156.5Y-106.75
X156.5Y-124.0
X156.5Y-134.0
X157.0Y-132.275
X157.513Y-165.987
X158.174Y-163.0
X158.25Y-112.25
X158.25Y-134.0
X158.5Y-95.0
X158.501Y-113.218
X159.0Y-131.5
X159.0Y-146.75
X159.0Y-152.5
X159.25Y-130.0
X159.25Y-148.226
X159.5Y-96.0
X159.5Y-113.25
X159.5Y-117.0
X159.5Y-150.0
X160.451Y-147.285
X161.5Y-104.5
X161.5Y-121.0
X161.5Y-138.5
X162.0Y-152.449
X162.0Y-168.5
X162.013Y-95.987
X164.0Y-89.5
X164.0Y-115.25
X164.0Y-142.5
X165.0Y-74.5
X165.0Y-148.0
X165.5Y-76.5
X166.0Y-115.5
X166.0Y-117.0
X166.026Y-146.775
X166.5Y-97.0
X167.0Y-132.0
X167.0Y-148.75
X167.0Y-150.75
X167.0Y-166.0
X167.5Y-130.0
X167.9Y-149.5
X167.918Y-96.4
X168.0Y-159.5
X168.0Y-165.25
X169.0Y-111.4
X169.25Y-153.5
X169.5Y-108.0
X169.5Y-120.5
X169.5Y-123.5
X171.0Y-151.775
X171.5Y-169.331
X173.5Y-157.0
X173.875Y-169.875
X173.918Y-139.021
X174.0Y-129.0
X174.0Y-151.75
X174.399Y-94.5
X174.5Y-103.0
X174.5Y-126.0
X174.5Y-135.035
X175.0Y-101.5
X175.0Y-153.5
X175.5Y-87.0
X176.1Y-98.5
X176.409Y-112.09
X176.551Y-129.0
X176.75Y-156.25
X176.987Y-154.013
X177.0Y-99.5
X177.0Y-103.5
X177.0Y-132.0
X177.25Y-148.0
X177.5Y-135.035
X177.5Y-146.25
X178.0Y-101.035
X178.0Y-114.0
X178.0Y-131.5
X178.0Y-131.5
X178.125Y-130.15
X178.5Y-169.117
X178.513Y-153.487
X179.0Y-114.0
X179.5Y-123.5
X180.0Y-106.5
X180.0Y-141.0
X181.0Y-155.0
X181.5Y-130.75
X185.5Y-157.0
X188.0Y-170.5
X189.75Y-169.75
X191.5Y-165.5
X199.5Y-176.5
X203.25Y-174.0
X205.0Y-164.0
X207.023Y-177.497
X209.0Y-174.0
T2
X78.2Y-77.5
X78.2Y-80.04
X78.2Y-82.58
X78.2Y-85.12
X78.2Y-87.66
X78.2Y-90.2
X78.2Y-92.74
X78.2Y-95.28
X78.2Y-97.82
X78.2Y-100.36
X78.2Y-102.9
X78.2Y-105.44
X85.0Y-77.5
X85.0Y-80.04
X85.0Y-82.58
X85.0Y-85.12
X85.0Y-87.66
X85.0Y-90.2
X85.0Y-92.74
X85.0Y-95.28
X85.0Y-97.82
X85.0Y-100.36
X85.0Y-102.9
X85.0Y-105.44
T3
X170.55Y-76.5
X170.55Y-78.5
X173.0Y-76.5
X173.0Y-78.5
T4
X89.8Y-115.69
X89.8Y-123.31
X89.8Y-132.69
X89.8Y-140.31
X106.5Y-101.19
X106.5Y-108.81
X106.5Y-118.04
X106.5Y-125.66
X106.5Y-135.19
X106.5Y-142.81
X107.8Y-149.69
X107.8Y-157.31
X125.8Y-137.69
X125.8Y-145.31
X126.0Y-86.19
X126.0Y-93.81
X126.0Y-102.69
X126.0Y-110.31
X126.0Y-120.19
X126.0Y-127.81
X142.5Y-85.69
X142.5Y-93.31
X142.5Y-102.19
X142.5Y-109.81
X142.5Y-137.19
X142.5Y-144.81
X143.0Y-119.19
X143.0Y-126.81
X161.5Y-126.19
X161.5Y-133.81
X161.8Y-92.19
X161.8Y-99.81
X161.8Y-109.19
X161.8Y-116.81
X161.8Y-143.19
X161.8Y-150.81
X169.8Y-160.69
X169.8Y-168.31
X179.8Y-92.69
X179.8Y-100.31
X179.8Y-109.69
X179.8Y-117.31
X179.8Y-126.69
X179.8Y-134.31
X180.5Y-143.69
X180.5Y-151.31
X190.353Y-174.511
X192.708Y-167.264
X209.384Y-183.972
X212.962Y-177.244
T5
X73.98Y-77.5
X73.98Y-80.04
X73.98Y-82.58
X73.98Y-85.12
X73.98Y-87.66
X73.98Y-90.2
X73.98Y-92.74
X73.98Y-95.28
X73.98Y-97.82
X73.98Y-100.36
X73.98Y-102.9
X73.98Y-105.44
X89.22Y-77.5
X89.22Y-80.04
X89.22Y-82.58
X89.22Y-85.12
X89.22Y-87.66
X89.22Y-90.2
X89.22Y-92.74
X89.22Y-95.28
X89.22Y-97.82
X89.22Y-100.36
X89.22Y-102.9
X89.22Y-105.44
M30
