%TF.GenerationSoftware,KiCad,Pcbnew,9.0.6*%
%TF.CreationDate,2025-11-21T16:08:54+01:00*%
%TF.ProjectId,main_pcb,6d61696e-5f70-4636-922e-6b696361645f,v1.0.0*%
%TF.SameCoordinates,Original*%
%TF.FileFunction,Copper,L2,Bot*%
%TF.FilePolarity,Positive*%
%FSLAX46Y46*%
G04 Gerber Fmt 4.6, Leading zero omitted, Abs format (unit mm)*
G04 Created by KiCad (PCBNEW 9.0.6) date 2025-11-21 16:08:54*
%MOMM*%
%LPD*%
G01*
G04 APERTURE LIST*
G04 Aperture macros list*
%AMRotRect*
0 Rectangle, with rotation*
0 The origin of the aperture is its center*
0 $1 length*
0 $2 width*
0 $3 Rotation angle, in degrees counterclockwise*
0 Add horizontal line*
21,1,$1,$2,0,0,$3*%
%AMFreePoly0*
4,1,6,0.250000,0.000000,-0.250000,-0.625000,-0.500000,-0.625000,-0.500000,0.625000,-0.250000,0.625000,0.250000,0.000000,0.250000,0.000000,$1*%
%AMFreePoly1*
4,1,6,0.500000,-0.625000,-0.650000,-0.625000,-0.150000,0.000000,-0.650000,0.625000,0.500000,0.625000,0.500000,-0.625000,0.500000,-0.625000,$1*%
G04 Aperture macros list end*
%TA.AperFunction,SMDPad,CuDef*%
%ADD10FreePoly0,180.000000*%
%TD*%
%TA.AperFunction,ComponentPad*%
%ADD11C,1.700000*%
%TD*%
%TA.AperFunction,SMDPad,CuDef*%
%ADD12FreePoly0,0.000000*%
%TD*%
%TA.AperFunction,SMDPad,CuDef*%
%ADD13FreePoly1,0.000000*%
%TD*%
%TA.AperFunction,ComponentPad*%
%ADD14C,0.800000*%
%TD*%
%TA.AperFunction,SMDPad,CuDef*%
%ADD15FreePoly1,180.000000*%
%TD*%
%TA.AperFunction,SMDPad,CuDef*%
%ADD16R,2.600000X2.600000*%
%TD*%
%TA.AperFunction,SMDPad,CuDef*%
%ADD17RotRect,2.600000X1.000000X342.000000*%
%TD*%
%TA.AperFunction,ComponentPad*%
%ADD18R,1.778000X1.778000*%
%TD*%
%TA.AperFunction,SMDPad,CuDef*%
%ADD19R,1.200000X0.900000*%
%TD*%
%TA.AperFunction,ComponentPad*%
%ADD20C,1.905000*%
%TD*%
%TA.AperFunction,ComponentPad*%
%ADD21R,1.700000X1.200000*%
%TD*%
%TA.AperFunction,ComponentPad*%
%ADD22O,1.700000X1.200000*%
%TD*%
%TA.AperFunction,SMDPad,CuDef*%
%ADD23R,1.000000X0.800000*%
%TD*%
%TA.AperFunction,SMDPad,CuDef*%
%ADD24R,0.700000X1.500000*%
%TD*%
%TA.AperFunction,SMDPad,CuDef*%
%ADD25R,2.600000X1.000000*%
%TD*%
%TA.AperFunction,ComponentPad*%
%ADD26RotRect,1.778000X1.778000X62.000000*%
%TD*%
%TA.AperFunction,SMDPad,CuDef*%
%ADD27RotRect,0.900000X1.200000X62.000000*%
%TD*%
%TA.AperFunction,ComponentPad*%
%ADD28RotRect,1.778000X1.778000X72.000000*%
%TD*%
%TA.AperFunction,SMDPad,CuDef*%
%ADD29RotRect,0.900000X1.200000X72.000000*%
%TD*%
%TA.AperFunction,SMDPad,CuDef*%
%ADD30RotRect,2.600000X2.600000X342.000000*%
%TD*%
%TA.AperFunction,SMDPad,CuDef*%
%ADD31RotRect,2.600000X2.600000X332.000000*%
%TD*%
%TA.AperFunction,SMDPad,CuDef*%
%ADD32R,1.550000X1.000000*%
%TD*%
%TA.AperFunction,SMDPad,CuDef*%
%ADD33RotRect,2.600000X1.000000X332.000000*%
%TD*%
%TA.AperFunction,ViaPad*%
%ADD34C,0.800000*%
%TD*%
%TA.AperFunction,Conductor*%
%ADD35C,0.250000*%
%TD*%
G04 APERTURE END LIST*
D10*
%TO.P,MCU1,1*%
%TO.N,MCU1_1*%
X87100000Y-77500000D03*
D11*
X89220000Y-77500000D03*
D10*
%TO.P,MCU1,2*%
%TO.N,MCU1_2*%
X87100000Y-80040000D03*
D11*
X89220000Y-80040000D03*
D10*
%TO.P,MCU1,3*%
%TO.N,MCU1_3*%
X87100000Y-82580000D03*
D11*
X89220000Y-82580000D03*
D10*
%TO.P,MCU1,4*%
%TO.N,MCU1_4*%
X87100000Y-85120000D03*
D11*
X89220000Y-85120000D03*
D10*
%TO.P,MCU1,5*%
%TO.N,MCU1_5*%
X87100000Y-87660000D03*
D11*
X89220000Y-87660000D03*
D10*
%TO.P,MCU1,6*%
%TO.N,MCU1_6*%
X87100000Y-90200000D03*
D11*
X89220000Y-90200000D03*
D10*
%TO.P,MCU1,7*%
%TO.N,MCU1_7*%
X87100000Y-92740000D03*
D11*
X89220000Y-92740000D03*
D10*
%TO.P,MCU1,8*%
%TO.N,MCU1_8*%
X87100000Y-95280000D03*
D11*
X89220000Y-95280000D03*
D10*
%TO.P,MCU1,9*%
%TO.N,MCU1_9*%
X87100000Y-97820000D03*
D11*
X89220000Y-97820000D03*
D10*
%TO.P,MCU1,10*%
%TO.N,MCU1_10*%
X87100000Y-100360000D03*
D11*
X89220000Y-100360000D03*
D10*
%TO.P,MCU1,11*%
%TO.N,MCU1_11*%
X87100000Y-102900000D03*
D11*
X89220000Y-102900000D03*
D10*
%TO.P,MCU1,12*%
%TO.N,MCU1_12*%
X87100000Y-105440000D03*
D11*
X89220000Y-105440000D03*
%TO.P,MCU1,13*%
%TO.N,MCU1_13*%
X73980000Y-105440000D03*
D12*
X76100000Y-105440000D03*
D11*
%TO.P,MCU1,14*%
%TO.N,MCU1_14*%
X73980000Y-102900000D03*
D12*
X76100000Y-102900000D03*
D11*
%TO.P,MCU1,15*%
%TO.N,MCU1_15*%
X73980000Y-100360000D03*
D12*
X76100000Y-100360000D03*
D11*
%TO.P,MCU1,16*%
%TO.N,MCU1_16*%
X73980000Y-97820000D03*
D12*
X76100000Y-97820000D03*
D11*
%TO.P,MCU1,17*%
%TO.N,MCU1_17*%
X73980000Y-95280000D03*
D12*
X76100000Y-95280000D03*
D11*
%TO.P,MCU1,18*%
%TO.N,MCU1_18*%
X73980000Y-92740000D03*
D12*
X76100000Y-92740000D03*
D11*
%TO.P,MCU1,19*%
%TO.N,MCU1_19*%
X73980000Y-90200000D03*
D12*
X76100000Y-90200000D03*
D11*
%TO.P,MCU1,20*%
%TO.N,MCU1_20*%
X73980000Y-87660000D03*
D12*
X76100000Y-87660000D03*
D11*
%TO.P,MCU1,21*%
%TO.N,MCU1_21*%
X73980000Y-85120000D03*
D12*
X76100000Y-85120000D03*
D11*
%TO.P,MCU1,22*%
%TO.N,MCU1_22*%
X73980000Y-82580000D03*
D12*
X76100000Y-82580000D03*
D11*
%TO.P,MCU1,23*%
%TO.N,MCU1_23*%
X73980000Y-80040000D03*
D12*
X76100000Y-80040000D03*
D11*
%TO.P,MCU1,24*%
%TO.N,MCU1_24*%
X73980000Y-77500000D03*
D12*
X76100000Y-77500000D03*
D13*
%TO.P,MCU1,101*%
%TO.N,RAW*%
X76825000Y-77500000D03*
D14*
X85000000Y-77500000D03*
D13*
%TO.P,MCU1,102*%
%TO.N,GND*%
X76825000Y-80040000D03*
D14*
X85000000Y-80040000D03*
D13*
%TO.P,MCU1,103*%
%TO.N,RST*%
X76825000Y-82580000D03*
D14*
X85000000Y-82580000D03*
D13*
%TO.P,MCU1,104*%
%TO.N,VCC*%
X76825000Y-85120000D03*
D14*
X85000000Y-85120000D03*
D13*
%TO.P,MCU1,105*%
%TO.N,P21*%
X76825000Y-87660000D03*
D14*
X85000000Y-87660000D03*
D13*
%TO.P,MCU1,106*%
%TO.N,P20*%
X76825000Y-90200000D03*
D14*
X85000000Y-90200000D03*
D13*
%TO.P,MCU1,107*%
%TO.N,P19*%
X76825000Y-92740000D03*
D14*
X85000000Y-92740000D03*
D13*
%TO.P,MCU1,108*%
%TO.N,P18*%
X76825000Y-95280000D03*
D14*
X85000000Y-95280000D03*
D13*
%TO.P,MCU1,109*%
%TO.N,P15*%
X76825000Y-97820000D03*
D14*
X85000000Y-97820000D03*
D13*
%TO.P,MCU1,110*%
%TO.N,P14*%
X76825000Y-100360000D03*
D14*
X85000000Y-100360000D03*
D13*
%TO.P,MCU1,111*%
%TO.N,P16*%
X76825000Y-102900000D03*
D14*
X85000000Y-102900000D03*
D13*
%TO.P,MCU1,112*%
%TO.N,P10*%
X76825000Y-105440000D03*
D14*
X85000000Y-105440000D03*
%TO.P,MCU1,113*%
%TO.N,P9*%
X78200000Y-105440000D03*
D15*
X86375000Y-105440000D03*
D14*
%TO.P,MCU1,114*%
%TO.N,P8*%
X78200000Y-102900000D03*
D15*
X86375000Y-102900000D03*
D14*
%TO.P,MCU1,115*%
%TO.N,P7*%
X78200000Y-100360000D03*
D15*
X86375000Y-100360000D03*
D14*
%TO.P,MCU1,116*%
%TO.N,P6*%
X78200000Y-97820000D03*
D15*
X86375000Y-97820000D03*
D14*
%TO.P,MCU1,117*%
%TO.N,P5*%
X78200000Y-95280000D03*
D15*
X86375000Y-95280000D03*
D14*
%TO.P,MCU1,118*%
%TO.N,P4*%
X78200000Y-92740000D03*
D15*
X86375000Y-92740000D03*
D14*
%TO.P,MCU1,119*%
%TO.N,P3*%
X78200000Y-90200000D03*
D15*
X86375000Y-90200000D03*
D14*
%TO.P,MCU1,120*%
%TO.N,P2*%
X78200000Y-87660000D03*
D15*
X86375000Y-87660000D03*
D14*
%TO.P,MCU1,121*%
%TO.N,GND*%
X78200000Y-85120000D03*
D15*
X86375000Y-85120000D03*
D14*
%TO.P,MCU1,122*%
X78200000Y-82580000D03*
D15*
X86375000Y-82580000D03*
D14*
%TO.P,MCU1,123*%
%TO.N,P0*%
X78200000Y-80040000D03*
D15*
X86375000Y-80040000D03*
D14*
%TO.P,MCU1,124*%
%TO.N,P1*%
X78200000Y-77500000D03*
D15*
X86375000Y-77500000D03*
%TD*%
D16*
%TO.P,S11,1*%
%TO.N,P3*%
X132725000Y-94050000D03*
%TO.P,S11,2*%
%TO.N,main_middle_top*%
X144275000Y-96250000D03*
%TD*%
D17*
%TO.P,LED24,1*%
%TO.N,VCC*%
X181286032Y-170056315D03*
%TO.P,LED24,2*%
%TO.N,rgb_thumbfan_far*%
X181826812Y-168391966D03*
%TO.P,LED24,3*%
%TO.N,GND*%
X186011460Y-169751641D03*
%TO.P,LED24,4*%
%TO.N,rgb_thumbfan_home*%
X185470680Y-171415990D03*
%TD*%
D16*
%TO.P,S1,1*%
%TO.N,P1*%
X96725000Y-144050000D03*
%TO.P,S1,2*%
%TO.N,main_pinky_bottom*%
X108275000Y-146250000D03*
%TD*%
%TO.P,S8,1*%
%TO.N,P2*%
X114725000Y-81050000D03*
%TO.P,S8,2*%
%TO.N,main_ring_num*%
X126275000Y-83250000D03*
%TD*%
D18*
%TO.P,D3,1*%
%TO.N,P7*%
X106500000Y-125660000D03*
D19*
X106500000Y-123500000D03*
%TO.P,D3,2*%
%TO.N,main_pinky_top*%
X106500000Y-120200000D03*
D20*
X106500000Y-118040000D03*
%TD*%
D16*
%TO.P,S21,1*%
%TO.N,P0*%
X78725000Y-127050000D03*
%TO.P,S21,2*%
%TO.N,outer_outer_top*%
X90275000Y-129250000D03*
%TD*%
%TO.P,S23,1*%
%TO.N,P3*%
X158725000Y-155050000D03*
%TO.P,S23,2*%
%TO.N,thumbfan_near_thumb*%
X170275000Y-157250000D03*
%TD*%
D21*
%TO.P,JST2,1*%
%TO.N,pos*%
X173000000Y-76500000D03*
D22*
%TO.P,JST2,2*%
%TO.N,GND*%
X173000000Y-78500000D03*
%TD*%
D23*
%TO.P,SW1,*%
%TO.N,*%
X109350000Y-76085000D03*
X116650000Y-76085000D03*
X109350000Y-73875000D03*
X116650000Y-73875000D03*
D24*
%TO.P,SW1,4*%
%TO.N,N/C*%
X115250000Y-76735000D03*
%TO.P,SW1,5*%
%TO.N,pos*%
X113750000Y-76735000D03*
%TO.P,SW1,6*%
%TO.N,RAW*%
X110750000Y-76735000D03*
%TD*%
D18*
%TO.P,D10,1*%
%TO.N,P8*%
X143000000Y-126810000D03*
D19*
X143000000Y-124650000D03*
%TO.P,D10,2*%
%TO.N,main_middle_home*%
X143000000Y-121350000D03*
D20*
X143000000Y-119190000D03*
%TD*%
D16*
%TO.P,S15,1*%
%TO.N,P4*%
X150725000Y-102050000D03*
%TO.P,S15,2*%
%TO.N,main_index_top*%
X162275000Y-104250000D03*
%TD*%
D25*
%TO.P,LED14,1*%
%TO.N,VCC*%
X151800000Y-130875000D03*
%TO.P,LED14,2*%
%TO.N,rgb_main_index_top*%
X151800000Y-129125000D03*
%TO.P,LED14,3*%
%TO.N,GND*%
X156200000Y-129125000D03*
%TO.P,LED14,4*%
%TO.N,rgb_main_index_home*%
X156200000Y-130875000D03*
%TD*%
D18*
%TO.P,D8,1*%
%TO.N,P6*%
X126000000Y-93810000D03*
D19*
X126000000Y-91650000D03*
%TO.P,D8,2*%
%TO.N,main_ring_num*%
X126000000Y-88350000D03*
D20*
X126000000Y-86190000D03*
%TD*%
D16*
%TO.P,S9,1*%
%TO.N,P3*%
X132725000Y-128050000D03*
%TO.P,S9,2*%
%TO.N,main_middle_bottom*%
X144275000Y-130250000D03*
%TD*%
D25*
%TO.P,LED22,1*%
%TO.N,VCC*%
X79800000Y-121875000D03*
%TO.P,LED22,2*%
%TO.N,rgb_main_pinky_home*%
X79800000Y-120125000D03*
%TO.P,LED22,3*%
%TO.N,GND*%
X84200000Y-120125000D03*
%TO.P,LED22,4*%
%TO.N,rgb_main_outer_home*%
X84200000Y-121875000D03*
%TD*%
D26*
%TO.P,D25,1*%
%TO.N,P10*%
X209384174Y-183971803D03*
D27*
X210398233Y-182064637D03*
%TO.P,D25,2*%
%TO.N,thumbfan_far_thumb*%
X211947489Y-179150909D03*
D20*
X212961548Y-177243743D03*
%TD*%
D16*
%TO.P,S13,1*%
%TO.N,P4*%
X150725000Y-136050000D03*
%TO.P,S13,2*%
%TO.N,main_index_bottom*%
X162275000Y-138250000D03*
%TD*%
D18*
%TO.P,D23,1*%
%TO.N,P10*%
X169800000Y-168310000D03*
D19*
X169800000Y-166150000D03*
%TO.P,D23,2*%
%TO.N,thumbfan_near_thumb*%
X169800000Y-162850000D03*
D20*
X169800000Y-160690000D03*
%TD*%
D18*
%TO.P,D5,1*%
%TO.N,P9*%
X125800000Y-145310000D03*
D19*
X125800000Y-143150000D03*
%TO.P,D5,2*%
%TO.N,main_ring_bottom*%
X125800000Y-139850000D03*
D20*
X125800000Y-137690000D03*
%TD*%
D18*
%TO.P,D1,1*%
%TO.N,P9*%
X107800000Y-157310000D03*
D19*
X107800000Y-155150000D03*
%TO.P,D1,2*%
%TO.N,main_pinky_bottom*%
X107800000Y-151850000D03*
D20*
X107800000Y-149690000D03*
%TD*%
D18*
%TO.P,D4,1*%
%TO.N,P6*%
X106500000Y-108810000D03*
D19*
X106500000Y-106650000D03*
%TO.P,D4,2*%
%TO.N,main_pinky_num*%
X106500000Y-103350000D03*
D20*
X106500000Y-101190000D03*
%TD*%
D25*
%TO.P,LED21,1*%
%TO.N,VCC*%
X79800000Y-138875000D03*
%TO.P,LED21,2*%
%TO.N,rgb_main_outer_home*%
X79800000Y-137125000D03*
%TO.P,LED21,3*%
%TO.N,GND*%
X84200000Y-137125000D03*
%TO.P,LED21,4*%
%TO.N,rgb_main_outer_top*%
X84200000Y-138875000D03*
%TD*%
D16*
%TO.P,S17,1*%
%TO.N,P5*%
X168725000Y-138050000D03*
%TO.P,S17,2*%
%TO.N,main_inner_bottom*%
X180275000Y-140250000D03*
%TD*%
D25*
%TO.P,LED12,1*%
%TO.N,VCC*%
X133800000Y-88875000D03*
%TO.P,LED12,2*%
%TO.N,rgb_main_ring_num*%
X133800000Y-87125000D03*
%TO.P,LED12,3*%
%TO.N,GND*%
X138200000Y-87125000D03*
%TO.P,LED12,4*%
%TO.N,rgb_main_middle_num*%
X138200000Y-88875000D03*
%TD*%
%TO.P,LED2,1*%
%TO.N,VCC*%
X97800000Y-138875000D03*
%TO.P,LED2,2*%
%TO.N,rgb_main_pinky_bottom*%
X97800000Y-137125000D03*
%TO.P,LED2,3*%
%TO.N,GND*%
X102200000Y-137125000D03*
%TO.P,LED2,4*%
%TO.N,rgb_main_pinky_home*%
X102200000Y-138875000D03*
%TD*%
D18*
%TO.P,D6,1*%
%TO.N,P8*%
X126000000Y-127810000D03*
D19*
X126000000Y-125650000D03*
%TO.P,D6,2*%
%TO.N,main_ring_home*%
X126000000Y-122350000D03*
D20*
X126000000Y-120190000D03*
%TD*%
D25*
%TO.P,LED23,1*%
%TO.N,VCC*%
X159800000Y-166875000D03*
%TO.P,LED23,2*%
%TO.N,rgb_thumbfan_home*%
X159800000Y-165125000D03*
%TO.P,LED23,3*%
%TO.N,GND*%
X164200000Y-165125000D03*
%TO.P,LED23,4*%
%TO.N,rgb_thumbfan_near*%
X164200000Y-166875000D03*
%TD*%
D18*
%TO.P,D9,1*%
%TO.N,P9*%
X142500000Y-144810000D03*
D19*
X142500000Y-142650000D03*
%TO.P,D9,2*%
%TO.N,main_middle_bottom*%
X142500000Y-139350000D03*
D20*
X142500000Y-137190000D03*
%TD*%
D16*
%TO.P,S2,1*%
%TO.N,P1*%
X96725000Y-127050000D03*
%TO.P,S2,2*%
%TO.N,main_pinky_home*%
X108275000Y-129250000D03*
%TD*%
D21*
%TO.P,JST1,1*%
%TO.N,pos*%
X170550000Y-78500000D03*
D22*
%TO.P,JST1,2*%
%TO.N,GND*%
X170550000Y-76500000D03*
%TD*%
D18*
%TO.P,D13,1*%
%TO.N,P9*%
X161800000Y-150810000D03*
D19*
X161800000Y-148650000D03*
%TO.P,D13,2*%
%TO.N,main_index_bottom*%
X161800000Y-145350000D03*
D20*
X161800000Y-143190000D03*
%TD*%
D16*
%TO.P,S12,1*%
%TO.N,P3*%
X132725000Y-77050000D03*
%TO.P,S12,2*%
%TO.N,main_middle_num*%
X144275000Y-79250000D03*
%TD*%
%TO.P,S14,1*%
%TO.N,P4*%
X150725000Y-119050000D03*
%TO.P,S14,2*%
%TO.N,main_index_home*%
X162275000Y-121250000D03*
%TD*%
%TO.P,S4,1*%
%TO.N,P1*%
X96725000Y-93050000D03*
%TO.P,S4,2*%
%TO.N,main_pinky_num*%
X108275000Y-95250000D03*
%TD*%
D25*
%TO.P,LED20,1*%
%TO.N,VCC*%
X169800000Y-98875000D03*
%TO.P,LED20,2*%
%TO.N,rgb_main_index_num*%
X169800000Y-97125000D03*
%TO.P,LED20,3*%
%TO.N,GND*%
X174200000Y-97125000D03*
%TO.P,LED20,4*%
%TO.N,P21*%
X174200000Y-98875000D03*
%TD*%
D18*
%TO.P,D17,1*%
%TO.N,P9*%
X180500000Y-151310000D03*
D19*
X180500000Y-149150000D03*
%TO.P,D17,2*%
%TO.N,main_inner_bottom*%
X180500000Y-145850000D03*
D20*
X180500000Y-143690000D03*
%TD*%
D16*
%TO.P,S18,1*%
%TO.N,P5*%
X168725000Y-121050000D03*
%TO.P,S18,2*%
%TO.N,main_inner_home*%
X180275000Y-123250000D03*
%TD*%
D25*
%TO.P,LED7,1*%
%TO.N,VCC*%
X115800000Y-109875000D03*
%TO.P,LED7,2*%
%TO.N,rgb_main_middle_top*%
X115800000Y-108125000D03*
%TO.P,LED7,3*%
%TO.N,GND*%
X120200000Y-108125000D03*
%TO.P,LED7,4*%
%TO.N,rgb_main_ring_top*%
X120200000Y-109875000D03*
%TD*%
D16*
%TO.P,S3,1*%
%TO.N,P1*%
X96725000Y-110050000D03*
%TO.P,S3,2*%
%TO.N,main_pinky_top*%
X108275000Y-112250000D03*
%TD*%
D18*
%TO.P,D21,1*%
%TO.N,P7*%
X89800000Y-140310000D03*
D19*
X89800000Y-138150000D03*
%TO.P,D21,2*%
%TO.N,outer_outer_top*%
X89800000Y-134850000D03*
D20*
X89800000Y-132690000D03*
%TD*%
D25*
%TO.P,LED11,1*%
%TO.N,VCC*%
X133800000Y-105875000D03*
%TO.P,LED11,2*%
%TO.N,rgb_main_middle_home*%
X133800000Y-104125000D03*
%TO.P,LED11,3*%
%TO.N,GND*%
X138200000Y-104125000D03*
%TO.P,LED11,4*%
%TO.N,rgb_main_middle_top*%
X138200000Y-105875000D03*
%TD*%
%TO.P,LED1,1*%
%TO.N,VCC*%
X97800000Y-155875000D03*
%TO.P,LED1,2*%
%TO.N,rgb_main_ring_bottom*%
X97800000Y-154125000D03*
%TO.P,LED1,3*%
%TO.N,GND*%
X102200000Y-154125000D03*
%TO.P,LED1,4*%
%TO.N,rgb_main_pinky_bottom*%
X102200000Y-155875000D03*
%TD*%
D18*
%TO.P,D18,1*%
%TO.N,P8*%
X179800000Y-134310000D03*
D19*
X179800000Y-132150000D03*
%TO.P,D18,2*%
%TO.N,main_inner_home*%
X179800000Y-128850000D03*
D20*
X179800000Y-126690000D03*
%TD*%
D28*
%TO.P,D24,1*%
%TO.N,P10*%
X190353157Y-174511251D03*
D29*
X191020634Y-172456969D03*
%TO.P,D24,2*%
%TO.N,thumbfan_home_thumb*%
X192040390Y-169318483D03*
D20*
X192707867Y-167264201D03*
%TD*%
D25*
%TO.P,LED13,1*%
%TO.N,VCC*%
X151800000Y-147875000D03*
%TO.P,LED13,2*%
%TO.N,rgb_main_index_home*%
X151800000Y-146125000D03*
%TO.P,LED13,3*%
%TO.N,GND*%
X156200000Y-146125000D03*
%TO.P,LED13,4*%
%TO.N,rgb_main_index_bottom*%
X156200000Y-147875000D03*
%TD*%
D16*
%TO.P,S16,1*%
%TO.N,P4*%
X150725000Y-85050000D03*
%TO.P,S16,2*%
%TO.N,main_index_num*%
X162275000Y-87250000D03*
%TD*%
D30*
%TO.P,S24,1*%
%TO.N,P4*%
X183917772Y-158477878D03*
%TO.P,S24,2*%
%TO.N,thumbfan_home_thumb*%
X194222637Y-164139349D03*
%TD*%
D18*
%TO.P,D19,1*%
%TO.N,P7*%
X179800000Y-117310000D03*
D19*
X179800000Y-115150000D03*
%TO.P,D19,2*%
%TO.N,main_inner_top*%
X179800000Y-111850000D03*
D20*
X179800000Y-109690000D03*
%TD*%
D31*
%TO.P,S25,1*%
%TO.N,P5*%
X205830722Y-167064520D03*
%TO.P,S25,2*%
%TO.N,thumbfan_far_thumb*%
X214995930Y-174429402D03*
%TD*%
D25*
%TO.P,LED3,1*%
%TO.N,VCC*%
X97800000Y-121875000D03*
%TO.P,LED3,2*%
%TO.N,rgb_main_outer_top*%
X97800000Y-120125000D03*
%TO.P,LED3,3*%
%TO.N,GND*%
X102200000Y-120125000D03*
%TO.P,LED3,4*%
%TO.N,rgb_main_pinky_top*%
X102200000Y-121875000D03*
%TD*%
D18*
%TO.P,D14,1*%
%TO.N,P8*%
X161500000Y-133810000D03*
D19*
X161500000Y-131650000D03*
%TO.P,D14,2*%
%TO.N,main_index_home*%
X161500000Y-128350000D03*
D20*
X161500000Y-126190000D03*
%TD*%
D25*
%TO.P,LED10,1*%
%TO.N,VCC*%
X133800000Y-122875000D03*
%TO.P,LED10,2*%
%TO.N,rgb_main_middle_bottom*%
X133800000Y-121125000D03*
%TO.P,LED10,3*%
%TO.N,GND*%
X138200000Y-121125000D03*
%TO.P,LED10,4*%
%TO.N,rgb_main_middle_home*%
X138200000Y-122875000D03*
%TD*%
D32*
%TO.P,B1,1*%
%TO.N,GND*%
X97250000Y-74525000D03*
X102500000Y-74525000D03*
%TO.P,B1,2*%
%TO.N,RST*%
X97250000Y-76225000D03*
X102500000Y-76225000D03*
%TD*%
D25*
%TO.P,LED19,1*%
%TO.N,VCC*%
X169800000Y-115875000D03*
%TO.P,LED19,2*%
%TO.N,rgb_main_inner_home*%
X169800000Y-114125000D03*
%TO.P,LED19,3*%
%TO.N,GND*%
X174200000Y-114125000D03*
%TO.P,LED19,4*%
%TO.N,rgb_main_inner_top*%
X174200000Y-115875000D03*
%TD*%
%TO.P,LED8,1*%
%TO.N,VCC*%
X115800000Y-92875000D03*
%TO.P,LED8,2*%
%TO.N,rgb_main_pinky_num*%
X115800000Y-91125000D03*
%TO.P,LED8,3*%
%TO.N,GND*%
X120200000Y-91125000D03*
%TO.P,LED8,4*%
%TO.N,rgb_main_ring_num*%
X120200000Y-92875000D03*
%TD*%
D16*
%TO.P,S22,1*%
%TO.N,P0*%
X78725000Y-110050000D03*
%TO.P,S22,2*%
%TO.N,outer_outer_home*%
X90275000Y-112250000D03*
%TD*%
D18*
%TO.P,D20,1*%
%TO.N,P6*%
X179800000Y-100310000D03*
D19*
X179800000Y-98150000D03*
%TO.P,D20,2*%
%TO.N,main_inner_num*%
X179800000Y-94850000D03*
D20*
X179800000Y-92690000D03*
%TD*%
D16*
%TO.P,S7,1*%
%TO.N,P2*%
X114725000Y-98050000D03*
%TO.P,S7,2*%
%TO.N,main_ring_top*%
X126275000Y-100250000D03*
%TD*%
%TO.P,S5,1*%
%TO.N,P2*%
X114725000Y-132050000D03*
%TO.P,S5,2*%
%TO.N,main_ring_bottom*%
X126275000Y-134250000D03*
%TD*%
%TO.P,S10,1*%
%TO.N,P3*%
X132725000Y-111050000D03*
%TO.P,S10,2*%
%TO.N,main_middle_home*%
X144275000Y-113250000D03*
%TD*%
D33*
%TO.P,LED25,1*%
%TO.N,VCC*%
X201228390Y-178010058D03*
%TO.P,LED25,2*%
%TO.N,N/C*%
X202049965Y-176464899D03*
%TO.P,LED25,3*%
%TO.N,GND*%
X205934934Y-178530574D03*
%TO.P,LED25,4*%
%TO.N,rgb_thumbfan_far*%
X205113359Y-180075733D03*
%TD*%
D25*
%TO.P,LED6,1*%
%TO.N,VCC*%
X115800000Y-126875000D03*
%TO.P,LED6,2*%
%TO.N,rgb_main_ring_top*%
X115800000Y-125125000D03*
%TO.P,LED6,3*%
%TO.N,GND*%
X120200000Y-125125000D03*
%TO.P,LED6,4*%
%TO.N,rgb_main_ring_home*%
X120200000Y-126875000D03*
%TD*%
D16*
%TO.P,S19,1*%
%TO.N,P5*%
X168725000Y-104050000D03*
%TO.P,S19,2*%
%TO.N,main_inner_top*%
X180275000Y-106250000D03*
%TD*%
D25*
%TO.P,LED4,1*%
%TO.N,VCC*%
X97800000Y-104875000D03*
%TO.P,LED4,2*%
%TO.N,rgb_main_pinky_top*%
X97800000Y-103125000D03*
%TO.P,LED4,3*%
%TO.N,GND*%
X102200000Y-103125000D03*
%TO.P,LED4,4*%
%TO.N,rgb_main_pinky_num*%
X102200000Y-104875000D03*
%TD*%
%TO.P,LED17,1*%
%TO.N,VCC*%
X169800000Y-149875000D03*
%TO.P,LED17,2*%
%TO.N,rgb_thumbfan_near*%
X169800000Y-148125000D03*
%TO.P,LED17,3*%
%TO.N,GND*%
X174200000Y-148125000D03*
%TO.P,LED17,4*%
%TO.N,rgb_main_inner_bottom*%
X174200000Y-149875000D03*
%TD*%
D18*
%TO.P,D7,1*%
%TO.N,P7*%
X126000000Y-110310000D03*
D19*
X126000000Y-108150000D03*
%TO.P,D7,2*%
%TO.N,main_ring_top*%
X126000000Y-104850000D03*
D20*
X126000000Y-102690000D03*
%TD*%
D18*
%TO.P,D16,1*%
%TO.N,P6*%
X161800000Y-99810000D03*
D19*
X161800000Y-97650000D03*
%TO.P,D16,2*%
%TO.N,main_index_num*%
X161800000Y-94350000D03*
D20*
X161800000Y-92190000D03*
%TD*%
D25*
%TO.P,LED16,1*%
%TO.N,VCC*%
X151800000Y-96875000D03*
%TO.P,LED16,2*%
%TO.N,rgb_main_middle_num*%
X151800000Y-95125000D03*
%TO.P,LED16,3*%
%TO.N,GND*%
X156200000Y-95125000D03*
%TO.P,LED16,4*%
%TO.N,rgb_main_index_num*%
X156200000Y-96875000D03*
%TD*%
%TO.P,LED5,1*%
%TO.N,VCC*%
X115800000Y-143875000D03*
%TO.P,LED5,2*%
%TO.N,rgb_main_ring_home*%
X115800000Y-142125000D03*
%TO.P,LED5,3*%
%TO.N,GND*%
X120200000Y-142125000D03*
%TO.P,LED5,4*%
%TO.N,rgb_main_ring_bottom*%
X120200000Y-143875000D03*
%TD*%
%TO.P,LED15,1*%
%TO.N,VCC*%
X151800000Y-113875000D03*
%TO.P,LED15,2*%
%TO.N,rgb_main_inner_top*%
X151800000Y-112125000D03*
%TO.P,LED15,3*%
%TO.N,GND*%
X156200000Y-112125000D03*
%TO.P,LED15,4*%
%TO.N,rgb_main_index_top*%
X156200000Y-113875000D03*
%TD*%
D18*
%TO.P,D11,1*%
%TO.N,P7*%
X142500000Y-109810000D03*
D19*
X142500000Y-107650000D03*
%TO.P,D11,2*%
%TO.N,main_middle_top*%
X142500000Y-104350000D03*
D20*
X142500000Y-102190000D03*
%TD*%
D16*
%TO.P,S20,1*%
%TO.N,P5*%
X168725000Y-87050000D03*
%TO.P,S20,2*%
%TO.N,main_inner_num*%
X180275000Y-89250000D03*
%TD*%
D18*
%TO.P,D15,1*%
%TO.N,P7*%
X161800000Y-116810000D03*
D19*
X161800000Y-114650000D03*
%TO.P,D15,2*%
%TO.N,main_index_top*%
X161800000Y-111350000D03*
D20*
X161800000Y-109190000D03*
%TD*%
D25*
%TO.P,LED9,1*%
%TO.N,VCC*%
X133800000Y-139875000D03*
%TO.P,LED9,2*%
%TO.N,rgb_main_index_bottom*%
X133800000Y-138125000D03*
%TO.P,LED9,3*%
%TO.N,GND*%
X138200000Y-138125000D03*
%TO.P,LED9,4*%
%TO.N,rgb_main_middle_bottom*%
X138200000Y-139875000D03*
%TD*%
%TO.P,LED18,1*%
%TO.N,VCC*%
X169800000Y-132875000D03*
%TO.P,LED18,2*%
%TO.N,rgb_main_inner_bottom*%
X169800000Y-131125000D03*
%TO.P,LED18,3*%
%TO.N,GND*%
X174200000Y-131125000D03*
%TO.P,LED18,4*%
%TO.N,rgb_main_inner_home*%
X174200000Y-132875000D03*
%TD*%
D18*
%TO.P,D12,1*%
%TO.N,P6*%
X142500000Y-93310000D03*
D19*
X142500000Y-91150000D03*
%TO.P,D12,2*%
%TO.N,main_middle_num*%
X142500000Y-87850000D03*
D20*
X142500000Y-85690000D03*
%TD*%
D18*
%TO.P,D22,1*%
%TO.N,P8*%
X89800000Y-123310000D03*
D19*
X89800000Y-121150000D03*
%TO.P,D22,2*%
%TO.N,outer_outer_home*%
X89800000Y-117850000D03*
D20*
X89800000Y-115690000D03*
%TD*%
D16*
%TO.P,S6,1*%
%TO.N,P2*%
X114725000Y-115050000D03*
%TO.P,S6,2*%
%TO.N,main_ring_home*%
X126275000Y-117250000D03*
%TD*%
D18*
%TO.P,D2,1*%
%TO.N,P8*%
X106500000Y-142810000D03*
D19*
X106500000Y-140650000D03*
%TO.P,D2,2*%
%TO.N,main_pinky_home*%
X106500000Y-137350000D03*
D20*
X106500000Y-135190000D03*
%TD*%
D34*
%TO.N,P1*%
X102624847Y-107650153D03*
X92000000Y-135324000D03*
X95561297Y-100061297D03*
X98000000Y-146500000D03*
X97500000Y-124000000D03*
X93500000Y-104000000D03*
X91987347Y-136987347D03*
X96500000Y-90500000D03*
X96500000Y-87225000D03*
X95000000Y-140000000D03*
X97500000Y-140500000D03*
X97500000Y-113500000D03*
%TO.N,P2*%
X121000000Y-96000000D03*
X117000000Y-134500000D03*
X115000000Y-96000000D03*
X123134556Y-126501000D03*
X121500000Y-79000000D03*
X121275000Y-81050000D03*
X123000000Y-109000000D03*
X121000000Y-113000000D03*
%TO.N,P3*%
X132000000Y-143500000D03*
X146175000Y-114510306D03*
X134500000Y-96500000D03*
X159000000Y-152500000D03*
X135500000Y-131000000D03*
X128000000Y-86500000D03*
X130512653Y-88012653D03*
X136000000Y-114000000D03*
X130000000Y-91449000D03*
X131225000Y-121000000D03*
X144500000Y-109000000D03*
X133500000Y-91000000D03*
X139500000Y-77000000D03*
X114000000Y-89815500D03*
%TO.N,P4*%
X151500000Y-120000000D03*
X146750000Y-92500000D03*
X151500000Y-137000000D03*
X111512653Y-88365500D03*
X159500000Y-113250000D03*
X93000000Y-74275000D03*
X146250000Y-96250000D03*
X156500000Y-106750000D03*
X164000000Y-142500000D03*
X185500000Y-157000000D03*
X102987347Y-82487347D03*
X143500000Y-83500000D03*
X159250000Y-130000000D03*
X150750000Y-85000000D03*
X167000000Y-150750000D03*
X169250000Y-153500000D03*
X159500000Y-117000000D03*
X146750000Y-90000000D03*
X156500000Y-124000000D03*
X176750000Y-156250000D03*
X167000000Y-148750000D03*
X166026013Y-146775000D03*
X158250000Y-134000000D03*
X151000000Y-102000000D03*
%TO.N,P5*%
X173918086Y-139021312D03*
X181000000Y-155000000D03*
X169500000Y-120500000D03*
X93500000Y-88000000D03*
X169500000Y-108000000D03*
X205000000Y-164000000D03*
X177000000Y-103500000D03*
X90812880Y-93187121D03*
X175500000Y-87000000D03*
X169000000Y-111400000D03*
X174500000Y-103000000D03*
X177000000Y-99500000D03*
%TO.N,P0*%
X92000000Y-122500000D03*
X79500000Y-126000000D03*
X86551000Y-127000000D03*
X85500000Y-109500000D03*
%TO.N,RAW*%
X110500000Y-77000000D03*
%TO.N,GND*%
X123275000Y-112000000D03*
X203250000Y-174000000D03*
X86000000Y-123500000D03*
X103000000Y-119000000D03*
X159000000Y-131500000D03*
X139000000Y-107250000D03*
X168000000Y-165250000D03*
X176100002Y-98500000D03*
X124863342Y-124931671D03*
X174000000Y-129000000D03*
X86000000Y-136000000D03*
X179000000Y-114000000D03*
X122082087Y-110520522D03*
X106500000Y-154000000D03*
X189750000Y-169750000D03*
X124000000Y-114000000D03*
X103566315Y-99586081D03*
X122100002Y-144000000D03*
X123500000Y-92000000D03*
X104100002Y-139000000D03*
X165000000Y-74500000D03*
X95000000Y-74500000D03*
X159000000Y-146750000D03*
X141000000Y-88000000D03*
X158500000Y-95000000D03*
X158250000Y-112250000D03*
X174000000Y-151750000D03*
X141000000Y-123000000D03*
X177000000Y-132000000D03*
X140487347Y-140987347D03*
X176551000Y-129000000D03*
X114750000Y-128500000D03*
%TO.N,RST*%
X94500000Y-75500000D03*
%TO.N,VCC*%
X148000000Y-128500000D03*
X173875000Y-169875000D03*
X132000000Y-88000000D03*
X167899998Y-149500000D03*
X96500000Y-101000000D03*
X118000000Y-146500000D03*
X133250000Y-119000000D03*
X147250000Y-148000000D03*
X165000000Y-148000000D03*
X132500000Y-141500000D03*
X115750000Y-124000000D03*
X95500000Y-154500000D03*
X149500000Y-115750000D03*
X79000000Y-119000000D03*
X149000000Y-96000000D03*
X101500000Y-123500000D03*
X120000000Y-148500000D03*
X164000000Y-115250000D03*
X113899998Y-109500000D03*
X199500000Y-176500000D03*
X113512653Y-141987347D03*
X166500000Y-97000000D03*
X113012653Y-92987347D03*
X77500000Y-137500000D03*
X158174000Y-163000000D03*
X95899998Y-138500000D03*
X167000000Y-132000000D03*
X133500000Y-103000000D03*
%TO.N,P21*%
X178000000Y-101035000D03*
X174399000Y-94500000D03*
X175000000Y-101500000D03*
%TO.N,P7*%
X101000000Y-129500000D03*
X99465554Y-130534446D03*
%TO.N,P8*%
X134500000Y-125449000D03*
X132225000Y-125625000D03*
%TO.N,main_pinky_bottom*%
X108000000Y-146500000D03*
%TO.N,main_pinky_home*%
X107601000Y-129500000D03*
X97987347Y-130987347D03*
X101000000Y-135324000D03*
X102925000Y-135324000D03*
%TO.N,main_pinky_top*%
X103474694Y-118000000D03*
X95000000Y-118000000D03*
X101475000Y-118000000D03*
X107500000Y-113000000D03*
%TO.N,main_pinky_num*%
X107500000Y-95000000D03*
%TO.N,main_ring_bottom*%
X110000000Y-135000000D03*
%TO.N,main_ring_home*%
X118500000Y-118500000D03*
X125500000Y-118000000D03*
X109725000Y-117250000D03*
%TO.N,main_ring_top*%
X117500000Y-94676000D03*
X126000000Y-100500000D03*
X125000000Y-96500000D03*
%TO.N,main_ring_num*%
X116500000Y-84000000D03*
%TO.N,main_middle_bottom*%
X128000000Y-130500000D03*
%TO.N,main_middle_home*%
X134000000Y-114500000D03*
X143500000Y-113500000D03*
%TO.N,main_middle_top*%
X144000000Y-96500000D03*
X136500000Y-97500000D03*
X139500000Y-99000000D03*
%TO.N,main_middle_num*%
X138000000Y-80000000D03*
%TO.N,main_index_bottom*%
X161500000Y-138500000D03*
%TO.N,main_index_home*%
X161500000Y-121000000D03*
%TO.N,main_index_top*%
X161500000Y-104500000D03*
%TO.N,main_inner_bottom*%
X180000000Y-141000000D03*
%TO.N,main_inner_home*%
X179500000Y-123500000D03*
%TO.N,main_inner_top*%
X180000000Y-106500000D03*
%TO.N,main_inner_num*%
X164000000Y-89500000D03*
%TO.N,outer_outer_top*%
X83475000Y-129500000D03*
X81500000Y-130500000D03*
X89500000Y-129500000D03*
%TO.N,outer_outer_home*%
X89133398Y-112516675D03*
X74000000Y-113000000D03*
%TO.N,thumbfan_near_thumb*%
X168000000Y-159500000D03*
%TO.N,thumbfan_home_thumb*%
X191500000Y-165500000D03*
%TO.N,thumbfan_far_thumb*%
X209000000Y-174000000D03*
%TO.N,rgb_main_pinky_bottom*%
X92250000Y-141500000D03*
X96000000Y-149500000D03*
X105250000Y-155000000D03*
X94387653Y-138362347D03*
X96250000Y-148048100D03*
X92250000Y-139750000D03*
%TO.N,rgb_main_ring_bottom*%
X97500000Y-152500000D03*
X119500000Y-146000000D03*
X114000000Y-147750000D03*
X101250000Y-152324000D03*
%TO.N,rgb_main_pinky_home*%
X103000000Y-140800000D03*
X93000000Y-127349998D03*
X102330521Y-133399413D03*
X77000000Y-120000000D03*
%TO.N,rgb_main_pinky_top*%
X94000000Y-105000000D03*
X94000000Y-109500000D03*
X94163823Y-101836177D03*
X108000000Y-115500000D03*
X110000000Y-114048100D03*
X100990871Y-113009152D03*
%TO.N,rgb_main_outer_top*%
X95500000Y-122000000D03*
X91000000Y-136774000D03*
X92000000Y-131500000D03*
X87000000Y-137000000D03*
%TO.N,rgb_main_pinky_num*%
X110799848Y-98149846D03*
X110000000Y-92000000D03*
X112500000Y-95000000D03*
X114012653Y-93987347D03*
X104500000Y-102000000D03*
%TO.N,rgb_main_ring_home*%
X124000003Y-126000000D03*
X121000000Y-123750000D03*
X123250000Y-129000000D03*
X115000000Y-140500000D03*
X123250000Y-124250000D03*
%TO.N,rgb_main_ring_top*%
X114487347Y-111275000D03*
X115500000Y-117250000D03*
X113899998Y-125324000D03*
X119250000Y-111676000D03*
X115000000Y-119250000D03*
%TO.N,rgb_main_middle_top*%
X112750000Y-108250000D03*
X124000000Y-107500000D03*
X115500000Y-105750000D03*
X137000000Y-107500000D03*
X123750000Y-105750000D03*
%TO.N,rgb_main_ring_num*%
X130725000Y-89012573D03*
X123775000Y-93000000D03*
%TO.N,rgb_main_middle_bottom*%
X140500000Y-142000000D03*
X131900001Y-122401696D03*
X138500000Y-130500000D03*
%TO.N,rgb_main_index_bottom*%
X159250000Y-148226000D03*
X130500000Y-141000000D03*
X148750000Y-149500000D03*
X134000000Y-143250000D03*
%TO.N,rgb_main_middle_home*%
X139000000Y-124000000D03*
X129750000Y-104250000D03*
%TO.N,rgb_main_middle_num*%
X140963000Y-89062306D03*
X147000000Y-95500000D03*
X144450347Y-92549653D03*
X145500000Y-94035000D03*
%TO.N,rgb_main_index_home*%
X151500000Y-141000000D03*
X150500000Y-143000000D03*
X156500000Y-134000000D03*
X157000000Y-132275000D03*
X153000000Y-134000000D03*
X151500000Y-145000000D03*
%TO.N,rgb_main_index_top*%
X158500509Y-113218117D03*
X149500000Y-112000000D03*
X149000000Y-130000000D03*
X147000000Y-115500000D03*
X151500000Y-121500000D03*
X151000000Y-124000000D03*
%TO.N,rgb_main_inner_top*%
X178000000Y-114000000D03*
X176409500Y-112090500D03*
X149500000Y-114500000D03*
%TO.N,rgb_main_index_num*%
X167917913Y-96400000D03*
X162012653Y-95987347D03*
X159500000Y-96000000D03*
%TO.N,rgb_main_inner_bottom*%
X177500000Y-146250000D03*
X167500000Y-130000000D03*
X178124847Y-130150153D03*
X175000000Y-153500000D03*
X178512653Y-153487347D03*
X181500000Y-130750000D03*
X177250000Y-148000000D03*
X176987347Y-154012653D03*
%TO.N,rgb_thumbfan_near*%
X171000000Y-151775000D03*
X167000000Y-166000000D03*
X162000000Y-152449000D03*
X159500000Y-150000000D03*
X173500000Y-157000000D03*
X160450999Y-147285191D03*
%TO.N,rgb_main_inner_home*%
X174500000Y-126000000D03*
X178000000Y-131500000D03*
X178000000Y-131500000D03*
X177500000Y-135035000D03*
X166000000Y-117000000D03*
X169500000Y-123500000D03*
X166000000Y-115500000D03*
X174500000Y-135035000D03*
%TO.N,rgb_main_outer_home*%
X84000000Y-123998000D03*
X80000000Y-135500000D03*
%TO.N,rgb_thumbfan_home*%
X171500000Y-169331315D03*
X157512653Y-165987347D03*
X162000000Y-168500000D03*
X188000000Y-170500000D03*
%TO.N,rgb_thumbfan_far*%
X207022730Y-177496838D03*
X178500000Y-169116966D03*
%TO.N,pos*%
X112250000Y-76735000D03*
X165500000Y-76500000D03*
%TD*%
D35*
%TO.N,P1*%
X96725000Y-127050000D02*
X96876000Y-127201000D01*
X91987347Y-137987347D02*
X94000000Y-140000000D01*
X96725000Y-124775000D02*
X97500000Y-124000000D01*
X94000000Y-140000000D02*
X95000000Y-140000000D01*
X91987347Y-136987347D02*
X91987347Y-137987347D01*
X98000000Y-146500000D02*
X98000000Y-145325000D01*
X96500000Y-87225000D02*
X96500000Y-85531884D01*
X95500000Y-107000000D02*
X96000000Y-107000000D01*
X94500000Y-105526720D02*
X94500000Y-106000000D01*
X93500000Y-104000000D02*
X93774000Y-104274000D01*
X86150305Y-77500000D02*
X85425305Y-76775000D01*
X96500000Y-85531884D02*
X89832116Y-78864000D01*
X96876000Y-127201000D02*
X96876000Y-132359099D01*
X84824695Y-76775000D02*
X84319695Y-77280000D01*
X95561297Y-100061297D02*
X97000000Y-98622594D01*
X94726000Y-105300720D02*
X94500000Y-105526720D01*
X97500000Y-110825000D02*
X97500000Y-113500000D01*
X94726000Y-104699280D02*
X94726000Y-105300720D01*
X94500000Y-106000000D02*
X95500000Y-107000000D01*
X99124847Y-107650153D02*
X102624847Y-107650153D01*
X97000000Y-93325000D02*
X96725000Y-93050000D01*
X96500000Y-90500000D02*
X96725000Y-90725000D01*
X85425305Y-76775000D02*
X84824695Y-76775000D01*
X97500000Y-143275000D02*
X96725000Y-144050000D01*
X87234000Y-78864000D02*
X86500000Y-78130000D01*
X97500000Y-140500000D02*
X97500000Y-143275000D01*
X98000000Y-145325000D02*
X96725000Y-144050000D01*
X89832116Y-78864000D02*
X87234000Y-78864000D01*
X96725000Y-110050000D02*
X99124847Y-107650153D01*
X96000000Y-107000000D02*
X96725000Y-107725000D01*
X96876000Y-132359099D02*
X93911099Y-135324000D01*
X94300720Y-104274000D02*
X94726000Y-104699280D01*
X84319695Y-77280000D02*
X78545000Y-77280000D01*
X96725000Y-110050000D02*
X97500000Y-110825000D01*
X97000000Y-98622594D02*
X97000000Y-93325000D01*
X93911099Y-135324000D02*
X92000000Y-135324000D01*
X96725000Y-127050000D02*
X96725000Y-124775000D01*
X96725000Y-90725000D02*
X96725000Y-93050000D01*
X96725000Y-107725000D02*
X96725000Y-110050000D01*
X86500000Y-77500000D02*
X86150305Y-77500000D01*
X86500000Y-78130000D02*
X86500000Y-77500000D01*
X93774000Y-104274000D02*
X94300720Y-104274000D01*
%TO.N,P2*%
X122585190Y-127914810D02*
X122250000Y-127914810D01*
X120664810Y-129500000D02*
X117275000Y-129500000D01*
X121000000Y-113000000D02*
X123000000Y-111000000D01*
X114725000Y-98050000D02*
X116775000Y-96000000D01*
X123134556Y-126501000D02*
X123000000Y-126635556D01*
X117275000Y-129500000D02*
X114725000Y-132050000D01*
X116775000Y-96000000D02*
X121000000Y-96000000D01*
X114725000Y-96275000D02*
X115000000Y-96000000D01*
X85425305Y-86935000D02*
X84824695Y-86935000D01*
X123000000Y-111000000D02*
X123000000Y-109000000D01*
X114725000Y-132225000D02*
X114725000Y-132050000D01*
X86500000Y-87660000D02*
X86150305Y-87660000D01*
X123000000Y-126635556D02*
X123000000Y-127500000D01*
X117000000Y-134500000D02*
X114725000Y-132225000D01*
X114725000Y-81050000D02*
X116775000Y-79000000D01*
X84824695Y-86935000D02*
X84319695Y-87440000D01*
X86150305Y-87660000D02*
X85425305Y-86935000D01*
X123000000Y-127500000D02*
X122585190Y-127914810D01*
X116775000Y-79000000D02*
X121500000Y-79000000D01*
X122250000Y-127914810D02*
X120664810Y-129500000D01*
X114725000Y-98050000D02*
X114725000Y-96275000D01*
X116775000Y-113000000D02*
X121000000Y-113000000D01*
X84319695Y-87440000D02*
X78545000Y-87440000D01*
X114725000Y-115050000D02*
X116775000Y-113000000D01*
%TO.N,P3*%
X87046000Y-89024000D02*
X86500000Y-89570000D01*
X85425305Y-89475000D02*
X84824695Y-89475000D01*
X90349616Y-89541500D02*
X89832116Y-89024000D01*
X159000000Y-152500000D02*
X158725000Y-152775000D01*
X86150305Y-90200000D02*
X85425305Y-89475000D01*
X146175000Y-110675000D02*
X144500000Y-109000000D01*
X130000000Y-88525306D02*
X130000000Y-91449000D01*
X134500000Y-95825000D02*
X132725000Y-94050000D01*
X131000000Y-126325000D02*
X132725000Y-128050000D01*
X132725000Y-91775000D02*
X132725000Y-94050000D01*
X84824695Y-89475000D02*
X84319695Y-89980000D01*
X86500000Y-89570000D02*
X86500000Y-90200000D01*
X130512653Y-88012653D02*
X130000000Y-88525306D01*
X158725000Y-155050000D02*
X143550000Y-155050000D01*
X132725000Y-128225000D02*
X135500000Y-131000000D01*
X132725000Y-128050000D02*
X132725000Y-128225000D01*
X132725000Y-77050000D02*
X134601000Y-75174000D01*
X114000000Y-89815500D02*
X97711220Y-89815500D01*
X131225000Y-121000000D02*
X131000000Y-121225000D01*
X128000000Y-86500000D02*
X129000000Y-86500000D01*
X129000000Y-86500000D02*
X132876000Y-82624000D01*
X131000000Y-121225000D02*
X131000000Y-126325000D01*
X137674000Y-75174000D02*
X139500000Y-77000000D01*
X134601000Y-75174000D02*
X137674000Y-75174000D01*
X97711220Y-89815500D02*
X97437220Y-89541500D01*
X146175000Y-114510306D02*
X146175000Y-110675000D01*
X132876000Y-77201000D02*
X132725000Y-77050000D01*
X143550000Y-155050000D02*
X132000000Y-143500000D01*
X133050000Y-111050000D02*
X136000000Y-114000000D01*
X84319695Y-89980000D02*
X78545000Y-89980000D01*
X132876000Y-82624000D02*
X132876000Y-77201000D01*
X158725000Y-152775000D02*
X158725000Y-155050000D01*
X86500000Y-90200000D02*
X86150305Y-90200000D01*
X132725000Y-111050000D02*
X133050000Y-111050000D01*
X89832116Y-89024000D02*
X87046000Y-89024000D01*
X97437220Y-89541500D02*
X90349616Y-89541500D01*
X134500000Y-96500000D02*
X134500000Y-95825000D01*
X133500000Y-91000000D02*
X132725000Y-91775000D01*
%TO.N,P4*%
X86150305Y-92740000D02*
X85425305Y-92015000D01*
X118865913Y-84909500D02*
X123082413Y-89126000D01*
X128000000Y-88500000D02*
X131339573Y-85160427D01*
X151500000Y-136825000D02*
X150725000Y-136050000D01*
X156500000Y-124000000D02*
X156296935Y-124000000D01*
X84319695Y-92520000D02*
X78545000Y-92520000D01*
X85425305Y-92015000D02*
X84824695Y-92015000D01*
X146250000Y-94750000D02*
X146500000Y-94500000D01*
X151346935Y-102050000D02*
X150725000Y-102050000D01*
X100460627Y-82487347D02*
X102987347Y-82487347D01*
X113678087Y-88365500D02*
X117134087Y-84909500D01*
X131339573Y-85160427D02*
X141221500Y-85160427D01*
X167000000Y-151250000D02*
X167000000Y-150750000D01*
X158250000Y-131000000D02*
X159250000Y-130000000D01*
X146250000Y-96250000D02*
X146250000Y-94750000D01*
X166026013Y-147276013D02*
X167000000Y-148250000D01*
X158250000Y-134000000D02*
X158250000Y-131000000D01*
X148546935Y-85050000D02*
X150725000Y-85050000D01*
X142881927Y-83500000D02*
X143500000Y-83500000D01*
X84824695Y-92015000D02*
X84319695Y-92520000D01*
X123082413Y-89126000D02*
X127374000Y-89126000D01*
X156046935Y-106750000D02*
X151346935Y-102050000D01*
X156500000Y-106750000D02*
X156046935Y-106750000D01*
X161626000Y-140126000D02*
X155082413Y-140126000D01*
X155082413Y-140126000D02*
X151956413Y-137000000D01*
X111512653Y-88365500D02*
X113678087Y-88365500D01*
X159500000Y-117000000D02*
X159500000Y-113250000D01*
X146500000Y-94500000D02*
X146750000Y-94250000D01*
X177750000Y-157250000D02*
X176750000Y-156250000D01*
X164000000Y-142500000D02*
X161626000Y-140126000D01*
X146750000Y-90000000D02*
X146750000Y-86846935D01*
X185395650Y-157000000D02*
X183917772Y-158477878D01*
X93000000Y-74275000D02*
X93000000Y-75026720D01*
X169250000Y-153500000D02*
X167000000Y-151250000D01*
X152296935Y-120000000D02*
X151500000Y-120000000D01*
X93000000Y-75026720D02*
X100460627Y-82487347D01*
X146750000Y-86846935D02*
X148546935Y-85050000D01*
X182689894Y-157250000D02*
X177750000Y-157250000D01*
X166026013Y-146775000D02*
X166026013Y-147276013D01*
X156296935Y-124000000D02*
X152296935Y-120000000D01*
X151956413Y-137000000D02*
X151500000Y-137000000D01*
X86500000Y-92740000D02*
X86150305Y-92740000D01*
X117134087Y-84909500D02*
X118865913Y-84909500D01*
X185500000Y-157000000D02*
X185395650Y-157000000D01*
X151500000Y-137000000D02*
X151500000Y-136825000D01*
X146750000Y-94250000D02*
X146750000Y-92500000D01*
X183917772Y-158477878D02*
X182689894Y-157250000D01*
X127374000Y-89126000D02*
X128000000Y-88500000D01*
X141221500Y-85160427D02*
X142881927Y-83500000D01*
X167000000Y-148250000D02*
X167000000Y-148750000D01*
%TO.N,P5*%
X169500000Y-108000000D02*
X169500000Y-110900000D01*
X169500000Y-110900000D02*
X169000000Y-111400000D01*
X173674000Y-85174000D02*
X175500000Y-87000000D01*
X107076000Y-79424000D02*
X98500000Y-88000000D01*
X90812880Y-93187121D02*
X89896001Y-94104000D01*
X168725000Y-87050000D02*
X155675000Y-74000000D01*
X87046000Y-94104000D02*
X86500000Y-94650000D01*
X178000000Y-147250000D02*
X179000000Y-146250000D01*
X176991801Y-145226900D02*
X176273100Y-144508199D01*
X85425305Y-94555000D02*
X84824695Y-94555000D01*
X205830722Y-167064520D02*
X205000000Y-166233798D01*
X176273100Y-143491801D02*
X176382450Y-143382450D01*
X205000000Y-166233798D02*
X205000000Y-164000000D01*
X179285000Y-152285000D02*
X178000000Y-151000000D01*
X181000000Y-155000000D02*
X181000000Y-154000000D01*
X172777065Y-136174000D02*
X170601000Y-136174000D01*
X86500000Y-95280000D02*
X86150305Y-95280000D01*
X84824695Y-94555000D02*
X84319695Y-95060000D01*
X173876000Y-140876000D02*
X173876000Y-137272935D01*
X155675000Y-74000000D02*
X121137190Y-74000000D01*
X168725000Y-104050000D02*
X170601000Y-102174000D01*
X115713190Y-79424000D02*
X107076000Y-79424000D01*
X170601000Y-85174000D02*
X173674000Y-85174000D01*
X84319695Y-95060000D02*
X78545000Y-95060000D01*
X177000000Y-99500000D02*
X177000000Y-103500000D01*
X179000000Y-146000000D02*
X178117549Y-145117549D01*
X173876000Y-137272935D02*
X172777065Y-136174000D01*
X181000000Y-154000000D02*
X179525000Y-152525000D01*
X179000000Y-146250000D02*
X179000000Y-146000000D01*
X178000000Y-151000000D02*
X178000000Y-147250000D01*
X173674000Y-102174000D02*
X174500000Y-103000000D01*
X168725000Y-87050000D02*
X170601000Y-85174000D01*
X89896001Y-94104000D02*
X87046000Y-94104000D01*
X179285000Y-152525000D02*
X179285000Y-152285000D01*
X121137190Y-74000000D02*
X115713190Y-79424000D01*
X86150305Y-95280000D02*
X85425305Y-94555000D01*
X178008199Y-145226900D02*
X176991801Y-145226900D01*
X98500000Y-88000000D02*
X93500000Y-88000000D01*
X179525000Y-152525000D02*
X179285000Y-152525000D01*
X170601000Y-136174000D02*
X168725000Y-138050000D01*
X176273100Y-144508199D02*
X176273100Y-143491801D01*
X176382450Y-143382450D02*
X173876000Y-140876000D01*
X86500000Y-94650000D02*
X86500000Y-95280000D01*
X178117549Y-145117549D02*
X178008199Y-145226900D01*
X170601000Y-102174000D02*
X173674000Y-102174000D01*
%TO.N,P0*%
X88500000Y-127000000D02*
X86551000Y-127000000D01*
X72201000Y-105201000D02*
X72201000Y-80280884D01*
X86150305Y-80040000D02*
X85425305Y-79315000D01*
X83500000Y-107500000D02*
X85500000Y-109500000D01*
X81275000Y-107500000D02*
X83500000Y-107500000D01*
X92000000Y-123500000D02*
X88500000Y-127000000D01*
X77714685Y-78864000D02*
X78325000Y-79474315D01*
X78325000Y-79474315D02*
X78325000Y-80040000D01*
X78725000Y-110050000D02*
X77050000Y-110050000D01*
X78725000Y-110050000D02*
X81275000Y-107500000D01*
X84319695Y-79820000D02*
X78545000Y-79820000D01*
X73617884Y-78864000D02*
X77714685Y-78864000D01*
X72201000Y-80280884D02*
X73617884Y-78864000D01*
X77050000Y-110050000D02*
X72201000Y-105201000D01*
X92000000Y-122500000D02*
X92000000Y-123500000D01*
X85425305Y-79315000D02*
X84824695Y-79315000D01*
X86500000Y-80040000D02*
X86150305Y-80040000D01*
X84824695Y-79315000D02*
X84319695Y-79820000D01*
%TO.N,RAW*%
X79120305Y-77730000D02*
X84895000Y-77730000D01*
X76950000Y-77500000D02*
X77299695Y-77500000D01*
X77299695Y-77500000D02*
X78024695Y-78225000D01*
X78024695Y-78225000D02*
X78625305Y-78225000D01*
X78625305Y-78225000D02*
X79120305Y-77730000D01*
X110750000Y-76750000D02*
X110500000Y-77000000D01*
X110750000Y-76735000D02*
X110750000Y-76750000D01*
%TO.N,GND*%
X121000000Y-142125000D02*
X120200000Y-142125000D01*
X86000000Y-123500000D02*
X86000000Y-123826000D01*
X177000000Y-129449000D02*
X176551000Y-129000000D01*
X102200000Y-120125000D02*
X102200000Y-119375000D01*
X168000000Y-165250000D02*
X167875000Y-165125000D01*
X138200000Y-87125000D02*
X140051000Y-87125000D01*
X179000000Y-114000000D02*
X179000000Y-113654280D01*
X103826000Y-138049000D02*
X103826000Y-139500000D01*
X174000000Y-151750000D02*
X175826000Y-151750000D01*
X174200000Y-130415743D02*
X174200000Y-131125000D01*
X116137190Y-113000000D02*
X113375000Y-113000000D01*
X79120305Y-80270000D02*
X84895000Y-80270000D01*
X141073000Y-121125000D02*
X142474000Y-122526000D01*
X185995169Y-168614975D02*
X186408262Y-169028068D01*
X147514901Y-91750000D02*
X147991801Y-92226900D01*
X150000000Y-91750000D02*
X152299000Y-94049000D01*
X190863479Y-170886521D02*
X195064069Y-175087112D01*
X203250000Y-174000000D02*
X202250000Y-175000000D01*
X173034257Y-129000000D02*
X172909257Y-129125000D01*
X167500000Y-76500000D02*
X165500000Y-74500000D01*
X121589109Y-111013500D02*
X121513500Y-111013500D01*
X103000000Y-119000000D02*
X102700000Y-119000000D01*
X138200000Y-104125000D02*
X138902000Y-104125000D01*
X121826000Y-143500000D02*
X121826000Y-142951000D01*
X137874000Y-137049000D02*
X138200000Y-137375000D01*
X160874000Y-146126000D02*
X162726000Y-146126000D01*
X141000000Y-123000000D02*
X141474000Y-122526000D01*
X86150305Y-85120000D02*
X85425305Y-84395000D01*
X172870335Y-146086078D02*
X174200000Y-147415743D01*
X149549000Y-128049000D02*
X155874000Y-128049000D01*
X121826000Y-142951000D02*
X121000000Y-142125000D01*
X78625305Y-80765000D02*
X79120305Y-80270000D01*
X78024695Y-80765000D02*
X78625305Y-80765000D01*
X121325000Y-90000000D02*
X127599000Y-90000000D01*
X174000000Y-129000000D02*
X173034257Y-129000000D01*
X176222935Y-104374000D02*
X174200000Y-106396935D01*
X101874000Y-136049000D02*
X102200000Y-136375000D01*
X120295986Y-112549000D02*
X116588190Y-112549000D01*
X156200000Y-94375000D02*
X156200000Y-95125000D01*
X138200000Y-138125000D02*
X138200000Y-139049000D01*
X160625000Y-146250000D02*
X160750000Y-146125000D01*
X103566315Y-99198585D02*
X103882450Y-98882450D01*
X170293587Y-145250000D02*
X171134087Y-146090500D01*
X131451000Y-86049000D02*
X137874000Y-86049000D01*
X138200000Y-121125000D02*
X141073000Y-121125000D01*
X102200000Y-146396935D02*
X102200000Y-154125000D01*
X173000000Y-78500000D02*
X174176000Y-77324000D01*
X123300720Y-108274000D02*
X122699280Y-108274000D01*
X102200000Y-117564901D02*
X102200000Y-118500000D01*
X124750000Y-92750000D02*
X124750000Y-92000000D01*
X121826000Y-110701000D02*
X121513500Y-111013500D01*
X87557893Y-86296000D02*
X86500000Y-85238107D01*
X147991801Y-92226900D02*
X149008199Y-92226900D01*
X160874000Y-146001000D02*
X160874000Y-146126000D01*
X154915500Y-110090500D02*
X146642500Y-110090500D01*
X171134087Y-146090500D02*
X172865913Y-146090500D01*
X106500000Y-154000000D02*
X107375000Y-154000000D01*
X103826000Y-139500000D02*
X103826000Y-144770935D01*
X174200000Y-96375000D02*
X174200000Y-97125000D01*
X202250000Y-175000000D02*
X201837112Y-175000000D01*
X123513360Y-108486640D02*
X123726000Y-108699280D01*
X101874000Y-119049000D02*
X85276000Y-119049000D01*
X95025000Y-74525000D02*
X95000000Y-74500000D01*
X82805000Y-82360000D02*
X78545000Y-82360000D01*
X176222935Y-98622933D02*
X176222935Y-104374000D01*
X174200000Y-113375000D02*
X172950000Y-112125000D01*
X126523000Y-114000000D02*
X132023000Y-108500000D01*
X176222935Y-98347935D02*
X176222935Y-98622933D01*
X186408262Y-169354839D02*
X186011460Y-169751641D01*
X206304642Y-178160866D02*
X205934934Y-178530574D01*
X122699280Y-108274000D02*
X122473280Y-108500000D01*
X124000000Y-92000000D02*
X123951000Y-91951000D01*
X149485099Y-91750000D02*
X150000000Y-91750000D01*
X102902000Y-137125000D02*
X103826000Y-138049000D01*
X121826000Y-144701000D02*
X121826000Y-143500000D01*
X138200000Y-120375000D02*
X138200000Y-121125000D01*
X159500000Y-146250000D02*
X160625000Y-146250000D01*
X165500000Y-74500000D02*
X165000000Y-74500000D01*
X141474000Y-122526000D02*
X142474000Y-122526000D01*
X84319695Y-82360000D02*
X82805000Y-82360000D01*
X76950000Y-80040000D02*
X77299695Y-80040000D01*
X86500000Y-82580000D02*
X86500000Y-85120000D01*
X120575000Y-108500000D02*
X120200000Y-108125000D01*
X102200000Y-137125000D02*
X102902000Y-137125000D01*
X189750000Y-169773042D02*
X190863479Y-170886521D01*
X84200000Y-129396935D02*
X84200000Y-137125000D01*
X176100002Y-98500000D02*
X176222935Y-98622933D01*
X132023000Y-108500000D02*
X138027000Y-108500000D01*
X120200000Y-90375000D02*
X118915500Y-89090500D01*
X120200000Y-91125000D02*
X120451000Y-90874000D01*
X140677000Y-104125000D02*
X138200000Y-104125000D01*
X114750000Y-128500000D02*
X115023000Y-128500000D01*
X195064069Y-175087112D02*
X201750000Y-175087112D01*
X184335551Y-168075732D02*
X185995169Y-168614975D01*
X124049000Y-93951000D02*
X124098000Y-94000000D01*
X140051000Y-87125000D02*
X144676000Y-91750000D01*
X105638901Y-97126000D02*
X112397000Y-97126000D01*
X77299695Y-80040000D02*
X78024695Y-80765000D01*
X85425305Y-81855000D02*
X84824695Y-81855000D01*
X149008199Y-92226900D02*
X149485099Y-91750000D01*
X120200000Y-91125000D02*
X120200000Y-90375000D01*
X87000000Y-136000000D02*
X87049001Y-136049001D01*
X206304642Y-177596718D02*
X206304642Y-178160866D01*
X114750000Y-128773000D02*
X115023000Y-128500000D01*
X124863342Y-124931671D02*
X125016329Y-124931671D01*
X120902000Y-125125000D02*
X120200000Y-125125000D01*
X170000000Y-76500000D02*
X167500000Y-76500000D01*
X120295986Y-112231014D02*
X120295986Y-112549000D01*
X102200000Y-134564901D02*
X105638901Y-131126000D01*
X107500000Y-154125000D02*
X112402000Y-154125000D01*
X175826000Y-151750000D02*
X175826000Y-165125000D01*
X120200000Y-142125000D02*
X127348000Y-142125000D01*
X127599000Y-89901000D02*
X131451000Y-86049000D01*
X102700000Y-119000000D02*
X102200000Y-118500000D01*
X97476000Y-74751000D02*
X102274000Y-74751000D01*
X156200000Y-111375000D02*
X154915500Y-110090500D01*
X138200000Y-86375000D02*
X138200000Y-87125000D01*
X189750000Y-169750000D02*
X189750000Y-169773042D01*
X162726000Y-146126000D02*
X162726000Y-145250000D01*
X104100002Y-139225998D02*
X103826000Y-139500000D01*
X132424000Y-137049000D02*
X137874000Y-137049000D01*
X156200000Y-112125000D02*
X156200000Y-111375000D01*
X104991801Y-114773100D02*
X102200000Y-117564901D01*
X112397000Y-131126000D02*
X114750000Y-128773000D01*
X85276000Y-119049000D02*
X84200000Y-120125000D01*
X111601900Y-114773100D02*
X104991801Y-114773100D01*
X154092587Y-145049000D02*
X155874000Y-145049000D01*
X85425305Y-84395000D02*
X84824695Y-84395000D01*
X138200000Y-137375000D02*
X138200000Y-138125000D01*
X158250000Y-112250000D02*
X156325000Y-112250000D01*
X160750000Y-146125000D02*
X160874000Y-146001000D01*
X124500000Y-94000000D02*
X124500000Y-93000000D01*
X139826000Y-140701000D02*
X139701000Y-140701000D01*
X155874000Y-128049000D02*
X156200000Y-128375000D01*
X123726000Y-108699280D02*
X123726000Y-111549000D01*
X102200000Y-137125000D02*
X102200000Y-134564901D01*
X174176000Y-75574000D02*
X171476000Y-75574000D01*
X87049001Y-136049001D02*
X88999999Y-136049001D01*
X139361500Y-106888500D02*
X139638500Y-106888500D01*
X86000000Y-123826000D02*
X85826000Y-124000000D01*
X85826000Y-124000000D02*
X85826000Y-127770935D01*
X179000000Y-113654280D02*
X176095720Y-110750000D01*
X123726000Y-111549000D02*
X123275000Y-112000000D01*
X139826000Y-105049000D02*
X139826000Y-106701000D01*
X156200000Y-129125000D02*
X160500000Y-129125000D01*
X176095720Y-110750000D02*
X174200000Y-110750000D01*
X138200000Y-139049000D02*
X139826000Y-139049000D01*
X172865913Y-146090500D02*
X172870335Y-146086078D01*
X139701000Y-140701000D02*
X139773100Y-140773100D01*
X102200000Y-136375000D02*
X102200000Y-137125000D01*
X129899000Y-120049000D02*
X137874000Y-120049000D01*
X124823000Y-125125000D02*
X125016329Y-124931671D01*
X144026000Y-122526000D02*
X149549000Y-128049000D01*
X156200000Y-95125000D02*
X172950000Y-95125000D01*
X97250000Y-74525000D02*
X95025000Y-74525000D01*
X84902000Y-120125000D02*
X85826000Y-121049000D01*
X120200000Y-125125000D02*
X124823000Y-125125000D01*
X102200000Y-118500000D02*
X102200000Y-120125000D01*
X102200000Y-119375000D02*
X101874000Y-119049000D01*
X122100002Y-143774002D02*
X121826000Y-143500000D01*
X189728598Y-169751641D02*
X190863479Y-170886521D01*
X186011460Y-169751641D02*
X189728598Y-169751641D01*
X123951000Y-91951000D02*
X121826000Y-91951000D01*
X89000000Y-136049000D02*
X101874000Y-136049000D01*
X122473280Y-108500000D02*
X120575000Y-108500000D01*
X103826000Y-144770935D02*
X102200000Y-146396935D01*
X174200000Y-148125000D02*
X174902000Y-148125000D01*
X112397000Y-97126000D02*
X115572000Y-93951000D01*
X156200000Y-146125000D02*
X160750000Y-146125000D01*
X167875000Y-165125000D02*
X164200000Y-165125000D01*
X164200000Y-165125000D02*
X181384819Y-165125000D01*
X85826000Y-121049000D02*
X85826000Y-124000000D01*
X86500000Y-82580000D02*
X86150305Y-82580000D01*
X116588190Y-112549000D02*
X116137190Y-113000000D01*
X140487347Y-140987347D02*
X140701594Y-140773100D01*
X139826000Y-139049000D02*
X139826000Y-140701000D01*
X156200000Y-145375000D02*
X156200000Y-146125000D01*
X174200000Y-106396935D02*
X174200000Y-110750000D01*
X84200000Y-120125000D02*
X84902000Y-120125000D01*
X102200000Y-103125000D02*
X102200000Y-100564901D01*
X124750000Y-92000000D02*
X124000000Y-92000000D01*
X121826000Y-109049000D02*
X121826000Y-110701000D01*
X84319695Y-84900000D02*
X78545000Y-84900000D01*
X201750000Y-175087112D02*
X203795036Y-175087112D01*
X175826000Y-149049000D02*
X175826000Y-151750000D01*
X120200000Y-108125000D02*
X120902000Y-108125000D01*
X127599000Y-90000000D02*
X127599000Y-89901000D01*
X124000000Y-114000000D02*
X126523000Y-114000000D01*
X112402000Y-154125000D02*
X121826000Y-144701000D01*
X159000000Y-146750000D02*
X159500000Y-146250000D01*
X104100002Y-139000000D02*
X104100002Y-139225998D01*
X171476000Y-75574000D02*
X170550000Y-76500000D01*
X97250000Y-74525000D02*
X97476000Y-74751000D01*
X149816687Y-140773100D02*
X154092587Y-145049000D01*
X120902000Y-108125000D02*
X121826000Y-109049000D01*
X89644116Y-86296000D02*
X87557893Y-86296000D01*
X103566315Y-99586081D02*
X103566315Y-99198585D01*
X156325000Y-112250000D02*
X156200000Y-112125000D01*
X160500000Y-129125000D02*
X172909257Y-129125000D01*
X177000000Y-132000000D02*
X177000000Y-129449000D01*
X186408262Y-169028068D02*
X186408262Y-169354839D01*
X175000000Y-97125000D02*
X176222935Y-98347935D01*
X181384819Y-165125000D02*
X184335551Y-168075732D01*
X140701594Y-140773100D02*
X149816687Y-140773100D01*
X172909257Y-129125000D02*
X174200000Y-130415743D01*
X174902000Y-148125000D02*
X175826000Y-149049000D01*
X121513500Y-111013500D02*
X120295986Y-112231014D01*
X137874000Y-86049000D02*
X138200000Y-86375000D01*
X84824695Y-84395000D02*
X84319695Y-84900000D01*
X121000000Y-91125000D02*
X120200000Y-91125000D01*
X103882450Y-98882450D02*
X105638901Y-97126000D01*
X162726000Y-145250000D02*
X170293587Y-145250000D01*
X122082087Y-110520522D02*
X121589109Y-111013500D01*
X84824695Y-81855000D02*
X84319695Y-82360000D01*
X139000000Y-107250000D02*
X139361500Y-106888500D01*
X155874000Y-145049000D02*
X156200000Y-145375000D01*
X155874000Y-94049000D02*
X156200000Y-94375000D01*
X102200000Y-154125000D02*
X107500000Y-154125000D01*
X113375000Y-113000000D02*
X111601900Y-114773100D01*
X124098000Y-94000000D02*
X124500000Y-94000000D01*
X85826000Y-127770935D02*
X84200000Y-129396935D01*
X86150305Y-82580000D02*
X85425305Y-81855000D01*
X85125000Y-80040000D02*
X82805000Y-82360000D01*
X121826000Y-91951000D02*
X121000000Y-91125000D01*
X138902000Y-104125000D02*
X139826000Y-105049000D01*
X203795036Y-175087112D02*
X206304642Y-177596718D01*
X160750000Y-112125000D02*
X156200000Y-112125000D01*
X172950000Y-95125000D02*
X174200000Y-96375000D01*
X144676000Y-91750000D02*
X147514901Y-91750000D01*
X114750000Y-128500000D02*
X114750000Y-128773000D01*
X146642500Y-110090500D02*
X140677000Y-104125000D01*
X174200000Y-114125000D02*
X174200000Y-113375000D01*
X86500000Y-85120000D02*
X86150305Y-85120000D01*
X160500000Y-130000000D02*
X160500000Y-129125000D01*
X127348000Y-142125000D02*
X132424000Y-137049000D01*
X156200000Y-128375000D02*
X156200000Y-129125000D01*
X172950000Y-112125000D02*
X160750000Y-112125000D01*
X152299000Y-94049000D02*
X155874000Y-94049000D01*
X86000000Y-136000000D02*
X87000000Y-136000000D01*
X86000000Y-136000000D02*
X85325000Y-136000000D01*
X118915500Y-89090500D02*
X92438616Y-89090500D01*
X86500000Y-85238107D02*
X86500000Y-85120000D01*
X88999999Y-136049001D02*
X89000000Y-136049000D01*
X137874000Y-120049000D02*
X138200000Y-120375000D01*
X102200000Y-100564901D02*
X103882450Y-98882450D01*
X125016329Y-124931671D02*
X129899000Y-120049000D01*
X139826000Y-106701000D02*
X139638500Y-106888500D01*
X107375000Y-154000000D02*
X107500000Y-154125000D01*
X174200000Y-97125000D02*
X175000000Y-97125000D01*
X120200000Y-91125000D02*
X121325000Y-90000000D01*
X85325000Y-136000000D02*
X84200000Y-137125000D01*
X102274000Y-74751000D02*
X102500000Y-74525000D01*
X201837112Y-175000000D02*
X201750000Y-175087112D01*
X139773100Y-140773100D02*
X140701594Y-140773100D01*
X92438616Y-89090500D02*
X89644116Y-86296000D01*
X123513360Y-108486640D02*
X123300720Y-108274000D01*
X159000000Y-131500000D02*
X160500000Y-130000000D01*
X175826000Y-165125000D02*
X167875000Y-165125000D01*
X174176000Y-77324000D02*
X174176000Y-75574000D01*
X139638500Y-106888500D02*
X138027000Y-108500000D01*
X122100002Y-144000000D02*
X122100002Y-143774002D01*
X142474000Y-122526000D02*
X144026000Y-122526000D01*
X115572000Y-93951000D02*
X124049000Y-93951000D01*
X174200000Y-110750000D02*
X174200000Y-114125000D01*
X174200000Y-147415743D02*
X174200000Y-148125000D01*
X124500000Y-93000000D02*
X124750000Y-92750000D01*
X105638901Y-131126000D02*
X112397000Y-131126000D01*
%TO.N,RST*%
X78024695Y-83305000D02*
X78625305Y-83305000D01*
X79120305Y-82810000D02*
X84895000Y-82810000D01*
X102274000Y-75999000D02*
X97476000Y-75999000D01*
X97476000Y-75999000D02*
X97250000Y-76225000D01*
X78625305Y-83305000D02*
X79120305Y-82810000D01*
X95225000Y-76225000D02*
X94500000Y-75500000D01*
X102500000Y-76225000D02*
X102274000Y-75999000D01*
X97250000Y-76225000D02*
X95225000Y-76225000D01*
X76950000Y-82580000D02*
X77299695Y-82580000D01*
X77299695Y-82580000D02*
X78024695Y-83305000D01*
%TO.N,VCC*%
X97800000Y-156625000D02*
X99700000Y-158525000D01*
X115000000Y-143875000D02*
X115800000Y-143875000D01*
X73617884Y-86484000D02*
X83761000Y-86484000D01*
X79000000Y-124000000D02*
X78000000Y-125000000D01*
X167000000Y-132000000D02*
X167875000Y-132875000D01*
X113524998Y-109875000D02*
X115800000Y-109875000D01*
X137289000Y-92174000D02*
X139124000Y-94009000D01*
X132925000Y-106750000D02*
X108000000Y-106750000D01*
X159800000Y-166875000D02*
X159800000Y-167625000D01*
X107876000Y-110374000D02*
X102329065Y-110374000D01*
X159300720Y-151774000D02*
X158699280Y-151774000D01*
X140991801Y-115773100D02*
X140273100Y-116491801D01*
X131699280Y-144226000D02*
X132088190Y-144226000D01*
X152175000Y-98000000D02*
X157560000Y-98000000D01*
X151800000Y-131625000D02*
X151800000Y-130875000D01*
X199791749Y-176573417D02*
X201228390Y-178010058D01*
X133800000Y-105875000D02*
X132925000Y-106750000D01*
X146625000Y-148000000D02*
X146500000Y-147875000D01*
X143874000Y-123874000D02*
X148000000Y-128000000D01*
X72929000Y-87172884D02*
X73617884Y-86484000D01*
X97800000Y-104875000D02*
X97800000Y-105584257D01*
X124027065Y-118876000D02*
X123381271Y-119521794D01*
X112000000Y-124500000D02*
X112000000Y-125500000D01*
X99043587Y-101000000D02*
X96500000Y-101000000D01*
X142008199Y-115773100D02*
X140991801Y-115773100D01*
X102729563Y-144126498D02*
X96174000Y-150682061D01*
X158274000Y-152199280D02*
X158274000Y-153424000D01*
X105285000Y-126875000D02*
X101910000Y-123500000D01*
X159726000Y-152800720D02*
X159726000Y-152199280D01*
X146500000Y-147875000D02*
X151800000Y-147875000D01*
X173876000Y-122779065D02*
X173876000Y-120223935D01*
X133800000Y-122875000D02*
X133800000Y-123625000D01*
X96337500Y-140337500D02*
X97800000Y-138875000D01*
X122337500Y-150837500D02*
X122837500Y-150837500D01*
X112000000Y-125500000D02*
X112549000Y-126049000D01*
X97800000Y-105584257D02*
X98166743Y-105951000D01*
X115750000Y-124000000D02*
X115049000Y-124000000D01*
X101951000Y-105833257D02*
X112869808Y-105833257D01*
X151800000Y-96875000D02*
X151800000Y-97625000D01*
X151800000Y-97625000D02*
X152175000Y-98000000D01*
X208699280Y-173274000D02*
X209300720Y-173274000D01*
X148000000Y-128500000D02*
X148000000Y-128000000D01*
X208825061Y-182500000D02*
X208881559Y-182443502D01*
X205562622Y-162789221D02*
X195806289Y-162789221D01*
X148152000Y-128152000D02*
X148152000Y-130875000D01*
X97098000Y-155875000D02*
X97800000Y-155875000D01*
X190263311Y-176573417D02*
X198500000Y-176573417D01*
X79500000Y-119049000D02*
X76000000Y-119049000D01*
X156753900Y-98773100D02*
X140901900Y-98773100D01*
X167875000Y-132875000D02*
X169800000Y-132875000D01*
X96174000Y-154951000D02*
X97098000Y-155875000D01*
X147250000Y-148000000D02*
X146625000Y-148000000D01*
X169800000Y-132875000D02*
X167650000Y-135025000D01*
X157560000Y-98000000D02*
X160585000Y-101025000D01*
X79451000Y-119000000D02*
X79500000Y-119049000D01*
X75124000Y-127876000D02*
X75124000Y-134901000D01*
X152126000Y-131951000D02*
X151800000Y-131625000D01*
X98126000Y-122951000D02*
X97800000Y-122625000D01*
X188991168Y-155974100D02*
X179974100Y-155974100D01*
X200998369Y-178240079D02*
X200998369Y-179083601D01*
X169000000Y-98875000D02*
X167125000Y-97000000D01*
X79000000Y-122675000D02*
X79000000Y-124000000D01*
X133909500Y-119000000D02*
X134000000Y-119090500D01*
X184609342Y-174500000D02*
X188189894Y-174500000D01*
X149901900Y-115773100D02*
X149726900Y-115773100D01*
X96174000Y-150682061D02*
X96174000Y-154951000D01*
X97800000Y-104875000D02*
X96177340Y-104875000D01*
X134126000Y-123951000D02*
X134876000Y-123951000D01*
X158653000Y-96874000D02*
X156753900Y-98773100D01*
X101500000Y-123500000D02*
X101910000Y-123500000D01*
X100956413Y-101000000D02*
X100865913Y-101090500D01*
X101361000Y-122951000D02*
X98126000Y-122951000D01*
X171898000Y-135723000D02*
X172963875Y-135723000D01*
X198785305Y-176288112D02*
X198500000Y-176573417D01*
X97800000Y-104875000D02*
X97098000Y-104875000D01*
X117715743Y-146500000D02*
X118000000Y-146500000D01*
X158174000Y-163000000D02*
X157000000Y-163000000D01*
X136865913Y-119090500D02*
X134000000Y-119090500D01*
X127500000Y-105750000D02*
X127625000Y-105875000D01*
X115800000Y-92875000D02*
X104721935Y-92875000D01*
X123381271Y-119521794D02*
X122434619Y-119521794D01*
X208274000Y-174300720D02*
X208274000Y-173699280D01*
X79098000Y-138875000D02*
X79800000Y-138875000D01*
X157375000Y-166875000D02*
X159800000Y-166875000D01*
X120000000Y-148500000D02*
X122337500Y-150837500D01*
X165124000Y-137551000D02*
X169800000Y-132875000D01*
X136349000Y-92174000D02*
X137289000Y-92174000D01*
X199500000Y-176500000D02*
X199288112Y-176288112D01*
X139124000Y-97027065D02*
X140222935Y-98126000D01*
X163626000Y-148000000D02*
X163500000Y-147874000D01*
X104721935Y-92875000D02*
X103124000Y-94472935D01*
X115000000Y-126875000D02*
X115800000Y-126875000D01*
X100865913Y-101090500D02*
X99134087Y-101090500D01*
X133451000Y-103049000D02*
X127799000Y-103049000D01*
X151800000Y-148625000D02*
X152126000Y-148951000D01*
X164625000Y-149875000D02*
X163015000Y-151485000D01*
X158699280Y-151774000D02*
X158274000Y-152199280D01*
X210598376Y-169379105D02*
X210598376Y-167824975D01*
X155925000Y-118272935D02*
X152603065Y-114951000D01*
X133800000Y-140625000D02*
X141050000Y-147875000D01*
X77099000Y-125901000D02*
X75124000Y-127876000D01*
X188189894Y-174500000D02*
X190263311Y-176573417D01*
X148000000Y-128000000D02*
X148152000Y-128152000D01*
X132726000Y-143588190D02*
X132726000Y-143199280D01*
X139124000Y-94009000D02*
X139124000Y-97027065D01*
X140273100Y-116491801D02*
X140273100Y-116500000D01*
X96177340Y-104875000D02*
X93000000Y-101697660D01*
X101833257Y-105951000D02*
X101951000Y-105833257D01*
X81700000Y-141525000D02*
X81700000Y-142250000D01*
X122434619Y-119521794D02*
X117907413Y-124049000D01*
X156500000Y-166000000D02*
X157375000Y-166875000D01*
X132726000Y-143199280D02*
X132300720Y-142774000D01*
X127500000Y-103348000D02*
X127500000Y-105750000D01*
X159726000Y-152199280D02*
X159300720Y-151774000D01*
X167650000Y-135025000D02*
X155950000Y-135025000D01*
X82626000Y-119049000D02*
X79500000Y-119049000D01*
X158274000Y-153424000D02*
X157099000Y-153424000D01*
X170632413Y-139676000D02*
X168182413Y-142126000D01*
X77099000Y-125099000D02*
X77099000Y-125901000D01*
X115800000Y-144584257D02*
X117715743Y-146500000D01*
X172963875Y-135723000D02*
X173240875Y-136000000D01*
X131274000Y-143800720D02*
X131699280Y-144226000D01*
X132500000Y-141500000D02*
X132175000Y-141500000D01*
X167125000Y-97000000D02*
X166999000Y-96874000D01*
X76000000Y-119049000D02*
X76000000Y-121049000D01*
X165000000Y-148000000D02*
X163626000Y-148000000D01*
X152603065Y-114951000D02*
X152126000Y-114951000D01*
X168182413Y-142126000D02*
X166222935Y-142126000D01*
X209300720Y-173274000D02*
X209500000Y-173473280D01*
X150549000Y-98126000D02*
X151800000Y-96875000D01*
X77500000Y-137277000D02*
X79098000Y-138875000D01*
X151800000Y-113875000D02*
X149925000Y-115750000D01*
X169800000Y-116625000D02*
X169800000Y-115875000D01*
X210598376Y-167824975D02*
X205562622Y-162789221D01*
X180889230Y-170779888D02*
X184609342Y-174500000D01*
X170603065Y-116951000D02*
X170126000Y-116951000D01*
X157777065Y-159126000D02*
X158174000Y-158729065D01*
X142074000Y-123874000D02*
X143874000Y-123874000D01*
X169800000Y-132875000D02*
X169800000Y-133625000D01*
X158174000Y-158729065D02*
X158174000Y-163000000D01*
X159797000Y-148951000D02*
X160874000Y-147874000D01*
X97800000Y-138875000D02*
X97800000Y-139625000D01*
X108375000Y-109875000D02*
X113524998Y-109875000D01*
X167899998Y-149500000D02*
X169425000Y-149500000D01*
X152126000Y-114951000D02*
X151800000Y-114625000D01*
X209331202Y-182315314D02*
X209331202Y-181673118D01*
X98175000Y-140000000D02*
X98603065Y-140000000D01*
X127799000Y-103049000D02*
X127500000Y-103348000D01*
X201228390Y-178010058D02*
X200998369Y-178240079D01*
X78000000Y-125000000D02*
X77000000Y-125000000D01*
X149000000Y-98126000D02*
X150549000Y-98126000D01*
X132925000Y-88000000D02*
X133800000Y-88875000D01*
X135651000Y-124726000D02*
X141222000Y-124726000D01*
X131274000Y-143199280D02*
X131274000Y-143800720D01*
X77299695Y-85120000D02*
X78024695Y-85845000D01*
X93000000Y-101697660D02*
X93000000Y-101125000D01*
X78174000Y-121049000D02*
X79000000Y-121875000D01*
X128115500Y-119090500D02*
X127901000Y-118876000D01*
X152126000Y-148951000D02*
X159797000Y-148951000D01*
X176277000Y-145320587D02*
X170632413Y-139676000D01*
X179974100Y-155974100D02*
X176277000Y-152277000D01*
X160351000Y-153000000D02*
X159526720Y-153000000D01*
X208699280Y-174726000D02*
X208274000Y-174300720D01*
X114424000Y-124049000D02*
X114375000Y-124000000D01*
X149726900Y-115773100D02*
X149000000Y-116500000D01*
X133800000Y-88875000D02*
X133800000Y-89625000D01*
X132175000Y-141500000D02*
X133800000Y-139875000D01*
X149500000Y-115750000D02*
X149925000Y-115750000D01*
X115800000Y-143875000D02*
X115800000Y-144584257D01*
X93000000Y-101125000D02*
X93125000Y-101000000D01*
X143736810Y-154599000D02*
X132726000Y-143588190D01*
X131699280Y-142774000D02*
X131274000Y-143199280D01*
X176277000Y-152277000D02*
X176277000Y-145320587D01*
X83761000Y-86484000D02*
X85125000Y-85120000D01*
X115000000Y-124049000D02*
X114424000Y-124049000D01*
X209500000Y-181504320D02*
X209500000Y-175137810D01*
X98291565Y-114411500D02*
X87263500Y-114411500D01*
X98603065Y-140000000D02*
X102729563Y-144126498D01*
X133800000Y-123625000D02*
X134126000Y-123951000D01*
X169800000Y-133625000D02*
X171898000Y-135723000D01*
X160351000Y-153174000D02*
X160351000Y-153000000D01*
X209088190Y-174726000D02*
X208699280Y-174726000D01*
X125402065Y-97272935D02*
X133800000Y-88875000D01*
X163500000Y-147874000D02*
X165126000Y-149500000D01*
X93000000Y-101125000D02*
X93124000Y-101001000D01*
X96000000Y-140000000D02*
X96337500Y-140337500D01*
X143363190Y-155501000D02*
X156095935Y-155501000D01*
X155950000Y-135025000D02*
X152876000Y-131951000D01*
X209500000Y-175137810D02*
X209088190Y-174726000D01*
X133500000Y-103000000D02*
X133451000Y-103049000D01*
X79800000Y-138875000D02*
X79800000Y-139625000D01*
X160585000Y-101025000D02*
X167650000Y-101025000D01*
X208881559Y-182443502D02*
X209381558Y-182443502D01*
X148152000Y-130875000D02*
X151800000Y-130875000D01*
X155124000Y-156472935D02*
X155124000Y-158027065D01*
X127625000Y-105875000D02*
X133800000Y-105875000D01*
X140273100Y-116500000D02*
X139456413Y-116500000D01*
X160874000Y-147874000D02*
X163500000Y-147874000D01*
X200998369Y-179083601D02*
X204414768Y-182500000D01*
X167402065Y-118272935D02*
X164000000Y-118272935D01*
X95150000Y-141525000D02*
X96337500Y-140337500D01*
X175826000Y-135174000D02*
X175826000Y-124729065D01*
X175000000Y-136000000D02*
X175826000Y-135174000D01*
X97800000Y-139625000D02*
X98175000Y-140000000D01*
X133800000Y-139875000D02*
X133800000Y-140625000D01*
X113512653Y-142387653D02*
X115000000Y-143875000D01*
X165124000Y-141027065D02*
X165124000Y-137551000D01*
X79000000Y-119000000D02*
X79451000Y-119000000D01*
X122837500Y-150837500D02*
X132175000Y-141500000D01*
X114174000Y-126049000D02*
X115000000Y-126875000D01*
X162231315Y-170056315D02*
X181286032Y-170056315D01*
X95899998Y-138500000D02*
X96000000Y-138600002D01*
X112500000Y-124000000D02*
X112000000Y-124500000D01*
X103124000Y-94472935D02*
X103124000Y-99003091D01*
X165126000Y-149500000D02*
X168625000Y-149500000D01*
X93124000Y-94472935D02*
X90027065Y-91376000D01*
X75124000Y-134901000D02*
X77500000Y-137277000D01*
X78625305Y-85845000D02*
X79120305Y-85350000D01*
X127901000Y-118876000D02*
X124027065Y-118876000D01*
X79800000Y-121875000D02*
X79000000Y-122675000D01*
X81700000Y-142250000D02*
X95150000Y-142250000D01*
X164000000Y-115250000D02*
X164000000Y-118272935D01*
X157099000Y-154599000D02*
X143736810Y-154599000D01*
X208274000Y-173699280D02*
X208699280Y-173274000D01*
X149925000Y-115750000D02*
X149901900Y-115773100D01*
X159800000Y-167625000D02*
X162231315Y-170056315D01*
X102329065Y-110374000D02*
X98291565Y-114411500D01*
X97800000Y-122625000D02*
X97800000Y-121875000D01*
X93124000Y-101001000D02*
X93124000Y-94472935D01*
X99700000Y-158525000D02*
X115150000Y-158525000D01*
X152876000Y-131951000D02*
X152126000Y-131951000D01*
X121430130Y-97272935D02*
X125402065Y-97272935D01*
X209500000Y-173473280D02*
X209500000Y-170477481D01*
X140901900Y-98773100D02*
X136626000Y-103049000D01*
X77500000Y-137500000D02*
X77500000Y-137277000D01*
X115150000Y-158525000D02*
X122837500Y-150837500D01*
X209381558Y-182443502D02*
X209420474Y-182404586D01*
X175826000Y-124729065D02*
X173876000Y-122779065D01*
X79120305Y-85350000D02*
X84895000Y-85350000D01*
X132300720Y-142774000D02*
X131699280Y-142774000D01*
X195806289Y-162789221D02*
X188991168Y-155974100D01*
X76000000Y-121049000D02*
X78174000Y-121049000D01*
X101910000Y-123500000D02*
X101361000Y-122951000D01*
X79000000Y-121875000D02*
X79800000Y-121875000D01*
X76950000Y-85120000D02*
X77299695Y-85120000D01*
X164000000Y-118272935D02*
X155925000Y-118272935D01*
X90027065Y-91376000D02*
X73617884Y-91376000D01*
X87263500Y-114411500D02*
X82626000Y-119049000D01*
X209500000Y-170477481D02*
X210598376Y-169379105D01*
X157099000Y-153424000D02*
X157099000Y-154599000D01*
X198500000Y-176573417D02*
X199791749Y-176573417D01*
X156500000Y-163500000D02*
X156500000Y-166000000D01*
X72929000Y-90687116D02*
X72929000Y-87172884D01*
X167650000Y-101025000D02*
X169800000Y-98875000D01*
X115800000Y-126875000D02*
X105285000Y-126875000D01*
X132088190Y-144226000D02*
X143363190Y-155501000D01*
X209331202Y-181673118D02*
X209500000Y-181504320D01*
X95150000Y-142250000D02*
X95150000Y-141525000D01*
X163015000Y-153174000D02*
X160351000Y-153174000D01*
X149000000Y-116500000D02*
X142726900Y-116500000D01*
X141050000Y-147875000D02*
X146500000Y-147875000D01*
X170126000Y-116951000D02*
X169800000Y-116625000D01*
X77000000Y-125000000D02*
X77099000Y-125099000D01*
X95951000Y-154951000D02*
X96174000Y-154951000D01*
X112549000Y-126049000D02*
X114174000Y-126049000D01*
X155124000Y-158027065D02*
X156222935Y-159126000D01*
X169800000Y-98875000D02*
X169000000Y-98875000D01*
X103124000Y-99003091D02*
X101127091Y-101000000D01*
X96000000Y-138600002D02*
X96000000Y-140000000D01*
X113899998Y-109500000D02*
X113524998Y-109875000D01*
X166222935Y-142126000D02*
X165124000Y-141027065D01*
X134000000Y-119090500D02*
X128115500Y-119090500D01*
X169800000Y-149875000D02*
X164625000Y-149875000D01*
X97800000Y-155875000D02*
X97800000Y-156625000D01*
X157000000Y-163000000D02*
X156500000Y-163500000D01*
X169800000Y-115875000D02*
X167402065Y-118272935D01*
X108000000Y-109500000D02*
X108375000Y-109875000D01*
X151800000Y-114625000D02*
X151800000Y-113875000D01*
X132000000Y-88000000D02*
X132925000Y-88000000D01*
X117907413Y-124049000D02*
X115000000Y-124049000D01*
X209420474Y-182404586D02*
X209331202Y-182315314D01*
X180889230Y-170453117D02*
X180889230Y-170779888D01*
X156095935Y-155501000D02*
X155124000Y-156472935D01*
X181286032Y-170056315D02*
X180889230Y-170453117D01*
X142726900Y-116491801D02*
X142008199Y-115773100D01*
X151800000Y-147875000D02*
X151800000Y-148625000D01*
X168625000Y-149500000D02*
X169000000Y-149875000D01*
X134876000Y-123951000D02*
X135651000Y-124726000D01*
X149000000Y-96000000D02*
X149000000Y-98126000D01*
X166999000Y-96874000D02*
X158653000Y-96874000D01*
X108375000Y-109875000D02*
X107876000Y-110374000D01*
X101127091Y-101000000D02*
X100956413Y-101000000D01*
X173876000Y-120223935D02*
X170603065Y-116951000D01*
X133250000Y-119000000D02*
X133909500Y-119000000D01*
X114375000Y-124000000D02*
X112500000Y-124000000D01*
X78024695Y-85845000D02*
X78625305Y-85845000D01*
X112869808Y-105833257D02*
X121430130Y-97272935D01*
X108000000Y-106750000D02*
X108000000Y-109500000D01*
X169000000Y-149875000D02*
X169800000Y-149875000D01*
X140222935Y-98126000D02*
X149000000Y-98126000D01*
X139456413Y-116500000D02*
X136865913Y-119090500D01*
X169425000Y-149500000D02*
X169800000Y-149875000D01*
X142726900Y-116500000D02*
X142726900Y-116491801D01*
X93125000Y-101000000D02*
X96500000Y-101000000D01*
X136626000Y-103049000D02*
X133451000Y-103049000D01*
X133800000Y-89625000D02*
X136349000Y-92174000D01*
X173240875Y-136000000D02*
X175000000Y-136000000D01*
X79800000Y-139625000D02*
X81700000Y-141525000D01*
X204414768Y-182500000D02*
X208825061Y-182500000D01*
X159526720Y-153000000D02*
X159726000Y-152800720D01*
X113512653Y-141987347D02*
X113512653Y-142387653D01*
X99134087Y-101090500D02*
X99043587Y-101000000D01*
X95500000Y-154500000D02*
X95951000Y-154951000D01*
X199288112Y-176288112D02*
X198785305Y-176288112D01*
X98166743Y-105951000D02*
X101833257Y-105951000D01*
X156222935Y-159126000D02*
X157777065Y-159126000D01*
X73617884Y-91376000D02*
X72929000Y-90687116D01*
X141222000Y-124726000D02*
X142074000Y-123874000D01*
X163015000Y-151485000D02*
X163015000Y-153174000D01*
X115049000Y-124000000D02*
X115000000Y-124049000D01*
%TO.N,P21*%
X174200000Y-100700000D02*
X175000000Y-101500000D01*
X77299695Y-87660000D02*
X78024695Y-88385000D01*
X178000000Y-101035000D02*
X178000000Y-98101000D01*
X76950000Y-87660000D02*
X77299695Y-87660000D01*
X178000000Y-98101000D02*
X174399000Y-94500000D01*
X174200000Y-98875000D02*
X174200000Y-100700000D01*
X78024695Y-88385000D02*
X78625305Y-88385000D01*
X78625305Y-88385000D02*
X79120305Y-87890000D01*
X79120305Y-87890000D02*
X84895000Y-87890000D01*
%TO.N,P20*%
X79120305Y-90430000D02*
X84895000Y-90430000D01*
X76950000Y-90200000D02*
X77299695Y-90200000D01*
X78024695Y-90925000D02*
X78625305Y-90925000D01*
X78625305Y-90925000D02*
X79120305Y-90430000D01*
X77299695Y-90200000D02*
X78024695Y-90925000D01*
%TO.N,P19*%
X78024695Y-93465000D02*
X78625305Y-93465000D01*
X77299695Y-92740000D02*
X78024695Y-93465000D01*
X76950000Y-92740000D02*
X77299695Y-92740000D01*
X78625305Y-93465000D02*
X79120305Y-92970000D01*
X79120305Y-92970000D02*
X84895000Y-92970000D01*
%TO.N,P18*%
X78024695Y-96005000D02*
X78625305Y-96005000D01*
X76950000Y-95280000D02*
X77299695Y-95280000D01*
X78625305Y-96005000D02*
X79120305Y-95510000D01*
X79120305Y-95510000D02*
X84895000Y-95510000D01*
X77299695Y-95280000D02*
X78024695Y-96005000D01*
%TO.N,P15*%
X76950000Y-97820000D02*
X77299695Y-97820000D01*
X77299695Y-97820000D02*
X78024695Y-98545000D01*
X78625305Y-98545000D02*
X79120305Y-98050000D01*
X79120305Y-98050000D02*
X84895000Y-98050000D01*
X78024695Y-98545000D02*
X78625305Y-98545000D01*
%TO.N,P14*%
X77299695Y-100360000D02*
X78024695Y-101085000D01*
X78024695Y-101085000D02*
X78625305Y-101085000D01*
X76950000Y-100360000D02*
X77299695Y-100360000D01*
X78625305Y-101085000D02*
X79120305Y-100590000D01*
X79120305Y-100590000D02*
X84895000Y-100590000D01*
%TO.N,P16*%
X78024695Y-103625000D02*
X78625305Y-103625000D01*
X78625305Y-103625000D02*
X79120305Y-103130000D01*
X79120305Y-103130000D02*
X84895000Y-103130000D01*
X77299695Y-102900000D02*
X78024695Y-103625000D01*
X76950000Y-102900000D02*
X77299695Y-102900000D01*
%TO.N,P10*%
X79120305Y-105670000D02*
X84895000Y-105670000D01*
X209384174Y-183971803D02*
X209384174Y-183078696D01*
X76950000Y-105440000D02*
X77299695Y-105440000D01*
X190353157Y-173124446D02*
X191020634Y-172456969D01*
X169800000Y-168310000D02*
X169800000Y-166150000D01*
X78024695Y-106165000D02*
X78625305Y-106165000D01*
X78625305Y-106165000D02*
X79120305Y-105670000D01*
X190353157Y-174511251D02*
X190353157Y-173124446D01*
X209384174Y-183078696D02*
X210398233Y-182064637D01*
X77299695Y-105440000D02*
X78024695Y-106165000D01*
%TO.N,P6*%
X126000000Y-93810000D02*
X126000000Y-91650000D01*
X86500000Y-97820000D02*
X86150305Y-97820000D01*
X89848530Y-99184000D02*
X87684000Y-99184000D01*
X86500000Y-98000000D02*
X86500000Y-97820000D01*
X106500000Y-108810000D02*
X106500000Y-106650000D01*
X84319695Y-97600000D02*
X78545000Y-97600000D01*
X161800000Y-99810000D02*
X161800000Y-97650000D01*
X106500000Y-106650000D02*
X97314530Y-106650000D01*
X87684000Y-99184000D02*
X86500000Y-98000000D01*
X97314530Y-106650000D02*
X89848530Y-99184000D01*
X179800000Y-100310000D02*
X179800000Y-98150000D01*
X85425305Y-97095000D02*
X84824695Y-97095000D01*
X142500000Y-93310000D02*
X142500000Y-91150000D01*
X84824695Y-97095000D02*
X84319695Y-97600000D01*
X86150305Y-97820000D02*
X85425305Y-97095000D01*
%TO.N,P7*%
X124000000Y-113000000D02*
X124898467Y-112101533D01*
X125000000Y-111310000D02*
X126000000Y-110310000D01*
X85425305Y-99635000D02*
X84824695Y-99635000D01*
X86500000Y-100360000D02*
X86150305Y-100360000D01*
X100500000Y-129500000D02*
X101000000Y-129500000D01*
X126000000Y-110310000D02*
X126000000Y-108150000D01*
X179800000Y-117310000D02*
X179800000Y-115150000D01*
X122703065Y-113000000D02*
X124000000Y-113000000D01*
X106500000Y-125660000D02*
X110043065Y-125660000D01*
X86150305Y-100360000D02*
X85425305Y-99635000D01*
X125000000Y-112101533D02*
X125000000Y-111310000D01*
X84824695Y-99635000D02*
X84319695Y-100140000D01*
X89800000Y-140310000D02*
X89800000Y-138150000D01*
X110043065Y-125660000D02*
X122703065Y-113000000D01*
X142500000Y-109810000D02*
X142500000Y-107650000D01*
X106500000Y-125660000D02*
X106500000Y-123500000D01*
X84319695Y-100140000D02*
X78545000Y-100140000D01*
X99465554Y-130534446D02*
X100500000Y-129500000D01*
X161800000Y-116810000D02*
X161800000Y-114650000D01*
X124898467Y-112101533D02*
X125000000Y-112101533D01*
%TO.N,P8*%
X86500000Y-102900000D02*
X86150305Y-102900000D01*
X89800000Y-123310000D02*
X89800000Y-121150000D01*
X134500000Y-125449000D02*
X134449000Y-125500000D01*
X134449000Y-125500000D02*
X132350000Y-125500000D01*
X84824695Y-102175000D02*
X84319695Y-102680000D01*
X85425305Y-102175000D02*
X84824695Y-102175000D01*
X84319695Y-102680000D02*
X78545000Y-102680000D01*
X179800000Y-134310000D02*
X179800000Y-132150000D01*
X86150305Y-102900000D02*
X85425305Y-102175000D01*
X143000000Y-126810000D02*
X143000000Y-124650000D01*
X106500000Y-142810000D02*
X106500000Y-140650000D01*
X161500000Y-133810000D02*
X161500000Y-131650000D01*
X126000000Y-127810000D02*
X126000000Y-125650000D01*
X132350000Y-125500000D02*
X132225000Y-125625000D01*
%TO.N,P9*%
X161800000Y-150810000D02*
X161800000Y-148650000D01*
X86500000Y-105440000D02*
X86150305Y-105440000D01*
X180500000Y-151310000D02*
X180500000Y-149150000D01*
X84824695Y-104715000D02*
X84319695Y-105220000D01*
X84319695Y-105220000D02*
X78545000Y-105220000D01*
X86150305Y-105440000D02*
X85425305Y-104715000D01*
X125800000Y-145310000D02*
X125800000Y-143150000D01*
X142500000Y-144810000D02*
X142500000Y-142650000D01*
X85425305Y-104715000D02*
X84824695Y-104715000D01*
X107800000Y-157310000D02*
X107800000Y-155150000D01*
%TO.N,MCU1_24*%
X74105000Y-77500000D02*
X76225000Y-77500000D01*
%TO.N,MCU1_1*%
X89345000Y-77500000D02*
X87225000Y-77500000D01*
%TO.N,MCU1_23*%
X74105000Y-80040000D02*
X76225000Y-80040000D01*
%TO.N,MCU1_2*%
X89345000Y-80040000D02*
X87225000Y-80040000D01*
%TO.N,MCU1_22*%
X74105000Y-82580000D02*
X76225000Y-82580000D01*
%TO.N,MCU1_3*%
X89345000Y-82580000D02*
X87225000Y-82580000D01*
%TO.N,MCU1_21*%
X74105000Y-85120000D02*
X76225000Y-85120000D01*
%TO.N,MCU1_4*%
X89345000Y-85120000D02*
X87225000Y-85120000D01*
%TO.N,MCU1_20*%
X74105000Y-87660000D02*
X76225000Y-87660000D01*
%TO.N,MCU1_5*%
X89345000Y-87660000D02*
X87225000Y-87660000D01*
%TO.N,MCU1_19*%
X74105000Y-90200000D02*
X76225000Y-90200000D01*
%TO.N,MCU1_6*%
X89345000Y-90200000D02*
X87225000Y-90200000D01*
%TO.N,MCU1_18*%
X74105000Y-92740000D02*
X76225000Y-92740000D01*
%TO.N,MCU1_7*%
X89345000Y-92740000D02*
X87225000Y-92740000D01*
%TO.N,MCU1_17*%
X74105000Y-95280000D02*
X76225000Y-95280000D01*
%TO.N,MCU1_8*%
X89345000Y-95280000D02*
X87225000Y-95280000D01*
%TO.N,MCU1_16*%
X74105000Y-97820000D02*
X76225000Y-97820000D01*
%TO.N,MCU1_9*%
X89345000Y-97820000D02*
X87225000Y-97820000D01*
%TO.N,MCU1_15*%
X74105000Y-100360000D02*
X76225000Y-100360000D01*
%TO.N,MCU1_10*%
X89345000Y-100360000D02*
X87225000Y-100360000D01*
%TO.N,MCU1_14*%
X74105000Y-102900000D02*
X76225000Y-102900000D01*
%TO.N,MCU1_11*%
X89345000Y-102900000D02*
X87225000Y-102900000D01*
%TO.N,MCU1_13*%
X74105000Y-105440000D02*
X76225000Y-105440000D01*
%TO.N,MCU1_12*%
X89345000Y-105440000D02*
X87225000Y-105440000D01*
%TO.N,main_pinky_bottom*%
X107800000Y-151850000D02*
X107800000Y-149690000D01*
%TO.N,main_pinky_home*%
X97987347Y-130987347D02*
X97909500Y-131065194D01*
X97909500Y-133865913D02*
X99367587Y-135324000D01*
X106500000Y-137350000D02*
X106500000Y-135190000D01*
X97909500Y-131065194D02*
X97909500Y-133865913D01*
X104310000Y-135190000D02*
X106500000Y-135190000D01*
X102925000Y-135324000D02*
X104176000Y-135324000D01*
X99367587Y-135324000D02*
X101000000Y-135324000D01*
X104176000Y-135324000D02*
X104310000Y-135190000D01*
%TO.N,main_pinky_top*%
X106500000Y-120200000D02*
X106500000Y-118040000D01*
X101151000Y-118324000D02*
X95324000Y-118324000D01*
X104460000Y-118040000D02*
X106500000Y-118040000D01*
X104420000Y-118000000D02*
X104460000Y-118040000D01*
X101475000Y-118000000D02*
X101151000Y-118324000D01*
X103474694Y-118000000D02*
X104420000Y-118000000D01*
X95324000Y-118324000D02*
X95000000Y-118000000D01*
%TO.N,main_pinky_num*%
X106500000Y-103350000D02*
X106500000Y-101190000D01*
%TO.N,main_ring_bottom*%
X118865913Y-135909500D02*
X113993565Y-135909500D01*
X113993565Y-135909500D02*
X113777065Y-136126000D01*
X126275000Y-134250000D02*
X123751900Y-136773100D01*
X125800000Y-139850000D02*
X125800000Y-137690000D01*
X119729513Y-136773100D02*
X118865913Y-135909500D01*
X113777065Y-136126000D02*
X111126000Y-136126000D01*
X111126000Y-136126000D02*
X110000000Y-135000000D01*
X125800000Y-137690000D02*
X125800000Y-134725000D01*
X125800000Y-134725000D02*
X126275000Y-134250000D01*
X123751900Y-136773100D02*
X119729513Y-136773100D01*
%TO.N,main_ring_home*%
X124399000Y-115374000D02*
X121626000Y-115374000D01*
X126275000Y-117250000D02*
X124399000Y-115374000D01*
X126000000Y-122350000D02*
X126000000Y-120190000D01*
X121626000Y-115374000D02*
X118500000Y-118500000D01*
%TO.N,main_ring_top*%
X117500000Y-94676000D02*
X123176000Y-94676000D01*
X126000000Y-102690000D02*
X126000000Y-104850000D01*
X123176000Y-94676000D02*
X125000000Y-96500000D01*
%TO.N,main_ring_num*%
X126000000Y-83525000D02*
X126275000Y-83250000D01*
X126000000Y-88350000D02*
X126000000Y-86190000D01*
X126000000Y-86190000D02*
X126000000Y-83525000D01*
X116500000Y-84000000D02*
X119781299Y-84000000D01*
X119781299Y-84000000D02*
X121441726Y-85660427D01*
X123864573Y-85660427D02*
X126275000Y-83250000D01*
X121441726Y-85660427D02*
X123864573Y-85660427D01*
%TO.N,main_middle_bottom*%
X129626000Y-132126000D02*
X128000000Y-130500000D01*
X142500000Y-139350000D02*
X142500000Y-137190000D01*
X144275000Y-130250000D02*
X144275000Y-135415000D01*
X142025000Y-132500000D02*
X140456413Y-132500000D01*
X144275000Y-130250000D02*
X142025000Y-132500000D01*
X144275000Y-135415000D02*
X142500000Y-137190000D01*
X140456413Y-132500000D02*
X136865913Y-136090500D01*
X130361099Y-132126000D02*
X129626000Y-132126000D01*
X136865913Y-136090500D02*
X134325599Y-136090500D01*
X134325599Y-136090500D02*
X130361099Y-132126000D01*
%TO.N,main_middle_home*%
X139996503Y-115322100D02*
X142202900Y-115322100D01*
X143000000Y-121350000D02*
X143000000Y-119190000D01*
X139583903Y-114909500D02*
X139996503Y-115322100D01*
X134409500Y-114909500D02*
X139583903Y-114909500D01*
X134000000Y-114500000D02*
X134409500Y-114909500D01*
X142202900Y-115322100D02*
X144275000Y-113250000D01*
%TO.N,main_middle_top*%
X136500000Y-97500000D02*
X138000000Y-97500000D01*
X142500000Y-104350000D02*
X142500000Y-102190000D01*
X138000000Y-97500000D02*
X139500000Y-99000000D01*
%TO.N,main_middle_num*%
X142399000Y-81126000D02*
X144275000Y-79250000D01*
X139126000Y-81126000D02*
X142399000Y-81126000D01*
X142500000Y-87850000D02*
X142500000Y-85690000D01*
X142500000Y-85690000D02*
X144275000Y-83915000D01*
X144275000Y-83915000D02*
X144275000Y-79250000D01*
X138000000Y-80000000D02*
X139126000Y-81126000D01*
%TO.N,main_index_bottom*%
X161800000Y-145350000D02*
X161800000Y-143190000D01*
%TO.N,main_index_home*%
X161500000Y-128350000D02*
X161500000Y-126190000D01*
%TO.N,main_index_top*%
X161800000Y-104800000D02*
X161800000Y-109190000D01*
X161500000Y-104500000D02*
X161800000Y-104800000D01*
X161800000Y-111350000D02*
X161800000Y-109190000D01*
%TO.N,main_index_num*%
X162275000Y-87250000D02*
X162275000Y-91715000D01*
X162275000Y-91715000D02*
X161800000Y-92190000D01*
X161800000Y-94350000D02*
X161800000Y-92190000D01*
%TO.N,main_inner_bottom*%
X180500000Y-145850000D02*
X180500000Y-143690000D01*
%TO.N,main_inner_home*%
X179800000Y-128850000D02*
X179800000Y-126690000D01*
%TO.N,main_inner_top*%
X179800000Y-106700000D02*
X179800000Y-109690000D01*
X180000000Y-106500000D02*
X179800000Y-106700000D01*
X179800000Y-111850000D02*
X179800000Y-109690000D01*
%TO.N,main_inner_num*%
X179800000Y-92690000D02*
X179800000Y-89725000D01*
X166000000Y-91500000D02*
X164000000Y-89500000D01*
X178847500Y-91737500D02*
X173693913Y-91737500D01*
X179800000Y-92690000D02*
X178847500Y-91737500D01*
X167993565Y-90909500D02*
X167403065Y-91500000D01*
X167403065Y-91500000D02*
X166000000Y-91500000D01*
X179800000Y-89725000D02*
X180275000Y-89250000D01*
X179800000Y-94850000D02*
X179800000Y-92690000D01*
X172865913Y-90909500D02*
X167993565Y-90909500D01*
X173693913Y-91737500D02*
X172865913Y-90909500D01*
%TO.N,outer_outer_top*%
X89800000Y-134850000D02*
X89800000Y-132690000D01*
X82475000Y-130500000D02*
X83475000Y-129500000D01*
X81500000Y-130500000D02*
X82475000Y-130500000D01*
%TO.N,outer_outer_home*%
X88399000Y-110374000D02*
X84329065Y-110374000D01*
X75126000Y-114126000D02*
X74000000Y-113000000D01*
X80577065Y-114126000D02*
X75126000Y-114126000D01*
X90275000Y-112250000D02*
X88399000Y-110374000D01*
X84329065Y-110374000D02*
X80577065Y-114126000D01*
X89800000Y-117850000D02*
X89800000Y-115690000D01*
%TO.N,thumbfan_near_thumb*%
X169800000Y-162850000D02*
X169800000Y-160690000D01*
X169800000Y-160690000D02*
X169190000Y-160690000D01*
X168025000Y-159500000D02*
X170275000Y-157250000D01*
X168000000Y-159500000D02*
X168025000Y-159500000D01*
X169190000Y-160690000D02*
X168000000Y-159500000D01*
%TO.N,thumbfan_home_thumb*%
X192040390Y-167931678D02*
X192707867Y-167264201D01*
X192707867Y-166707867D02*
X191500000Y-165500000D01*
X191500000Y-165500000D02*
X192861986Y-165500000D01*
X192707867Y-167264201D02*
X192707867Y-166707867D01*
X192861986Y-165500000D02*
X194222637Y-164139349D01*
X192040390Y-169318483D02*
X192040390Y-167931678D01*
%TO.N,thumbfan_far_thumb*%
X214657450Y-174767882D02*
X209767882Y-174767882D01*
X211947489Y-178257802D02*
X212961548Y-177243743D01*
X214995930Y-175209361D02*
X214995930Y-174429402D01*
X211947489Y-179150909D02*
X211947489Y-178257802D01*
X214995930Y-174429402D02*
X214657450Y-174767882D01*
X209767882Y-174767882D02*
X209000000Y-174000000D01*
X212961548Y-177243743D02*
X214995930Y-175209361D01*
%TO.N,rgb_main_pinky_bottom*%
X96250000Y-148048100D02*
X96250000Y-149250000D01*
X94387653Y-138362347D02*
X95625000Y-137125000D01*
X96250000Y-149250000D02*
X96000000Y-149500000D01*
X102200000Y-155875000D02*
X104375000Y-155875000D01*
X104375000Y-155875000D02*
X105250000Y-155000000D01*
X92250000Y-139750000D02*
X92250000Y-141500000D01*
X95625000Y-137125000D02*
X97800000Y-137125000D01*
%TO.N,rgb_main_ring_bottom*%
X117776720Y-147750000D02*
X119526720Y-146000000D01*
X97587500Y-152587500D02*
X98587500Y-152587500D01*
X97800000Y-154125000D02*
X97800000Y-153375000D01*
X119526720Y-146000000D02*
X120200000Y-145326720D01*
X98851000Y-152324000D02*
X101250000Y-152324000D01*
X114000000Y-147750000D02*
X117776720Y-147750000D01*
X97500000Y-152500000D02*
X97587500Y-152587500D01*
X119500000Y-146000000D02*
X119526720Y-146000000D01*
X98587500Y-152587500D02*
X98851000Y-152324000D01*
X120200000Y-145326720D02*
X120200000Y-143875000D01*
X97800000Y-153375000D02*
X98587500Y-152587500D01*
%TO.N,rgb_main_pinky_home*%
X102500000Y-133229934D02*
X102330521Y-133399413D01*
X77125000Y-120125000D02*
X77000000Y-120000000D01*
X102500000Y-132500000D02*
X102500000Y-133229934D01*
X100777065Y-125174000D02*
X102500000Y-126896935D01*
X102500000Y-126896935D02*
X102500000Y-132500000D01*
X79800000Y-120125000D02*
X79800000Y-120300000D01*
X99700720Y-125174000D02*
X100777065Y-125174000D01*
X97075998Y-123274000D02*
X97800720Y-123274000D01*
X102200000Y-138875000D02*
X102200000Y-140000000D01*
X102200000Y-140000000D02*
X103000000Y-140800000D01*
X79800000Y-120300000D02*
X80000000Y-120500000D01*
X93000000Y-127349998D02*
X97075998Y-123274000D01*
X79800000Y-120125000D02*
X77125000Y-120125000D01*
X97800720Y-123274000D02*
X99700720Y-125174000D01*
%TO.N,rgb_main_pinky_top*%
X102107719Y-114126000D02*
X100990871Y-113009152D01*
X94000000Y-109500000D02*
X94000000Y-105000000D01*
X97800000Y-103125000D02*
X95452646Y-103125000D01*
X110000000Y-114048100D02*
X109922100Y-114126000D01*
X106527000Y-121875000D02*
X108000000Y-120402000D01*
X102200000Y-121875000D02*
X106527000Y-121875000D01*
X109922100Y-114126000D02*
X102107719Y-114126000D01*
X95452646Y-103125000D02*
X94163823Y-101836177D01*
X108000000Y-120402000D02*
X108000000Y-115500000D01*
%TO.N,rgb_main_outer_top*%
X84200000Y-138875000D02*
X85000000Y-138875000D01*
X97098000Y-120125000D02*
X97800000Y-120125000D01*
X87000000Y-137000000D02*
X87274000Y-137000000D01*
X87101000Y-136774000D02*
X87500000Y-136774000D01*
X92000000Y-125223000D02*
X94861500Y-122361500D01*
X87500000Y-136774000D02*
X91000000Y-136774000D01*
X87274000Y-137000000D02*
X87500000Y-136774000D01*
X95500000Y-122000000D02*
X95138500Y-122361500D01*
X85000000Y-138875000D02*
X87101000Y-136774000D01*
X95138500Y-122361500D02*
X94861500Y-122361500D01*
X94861500Y-122361500D02*
X97098000Y-120125000D01*
X92000000Y-131500000D02*
X92000000Y-125223000D01*
%TO.N,rgb_main_pinky_num*%
X110875000Y-91125000D02*
X110000000Y-92000000D01*
X106677000Y-104875000D02*
X110799848Y-100752152D01*
X105000000Y-102500000D02*
X105000000Y-104875000D01*
X104500000Y-102000000D02*
X105000000Y-102500000D01*
X112500000Y-95000000D02*
X113000000Y-95000000D01*
X110799848Y-100752152D02*
X110799848Y-98149846D01*
X115800000Y-91125000D02*
X110875000Y-91125000D01*
X105000000Y-104875000D02*
X106677000Y-104875000D01*
X113000000Y-95000000D02*
X114012653Y-93987347D01*
X102200000Y-104875000D02*
X105000000Y-104875000D01*
%TO.N,rgb_main_ring_home*%
X120200000Y-126875000D02*
X121000000Y-126875000D01*
X124000003Y-128249997D02*
X124000003Y-126000000D01*
X121500000Y-124250000D02*
X121000000Y-123750000D01*
X123250000Y-129000000D02*
X124000003Y-128249997D01*
X115800000Y-141300000D02*
X115000000Y-140500000D01*
X123576003Y-125576000D02*
X124000003Y-126000000D01*
X115800000Y-142125000D02*
X115800000Y-141300000D01*
X123250000Y-124250000D02*
X121500000Y-124250000D01*
X122299000Y-125576000D02*
X123576003Y-125576000D01*
X121000000Y-126875000D02*
X122299000Y-125576000D01*
%TO.N,rgb_main_ring_top*%
X120200000Y-110726000D02*
X120200000Y-109875000D01*
X114487347Y-111275000D02*
X116275000Y-111275000D01*
X119074000Y-111500000D02*
X119250000Y-111676000D01*
X116275000Y-111275000D02*
X116500000Y-111500000D01*
X116500000Y-111500000D02*
X119074000Y-111500000D01*
X115800000Y-125125000D02*
X114098998Y-125125000D01*
X119250000Y-111676000D02*
X120200000Y-110726000D01*
X114098998Y-125125000D02*
X113899998Y-125324000D01*
X115000000Y-117750000D02*
X115500000Y-117250000D01*
X115000000Y-119250000D02*
X115000000Y-117750000D01*
%TO.N,rgb_main_middle_top*%
X137284257Y-107500000D02*
X124000000Y-107500000D01*
X123750000Y-105750000D02*
X123409500Y-106090500D01*
X123409500Y-106090500D02*
X115840500Y-106090500D01*
X137000000Y-107500000D02*
X136500000Y-107500000D01*
X138000000Y-106000000D02*
X138000000Y-106784257D01*
X115840500Y-106090500D02*
X115500000Y-105750000D01*
X138125000Y-105875000D02*
X138000000Y-106000000D01*
X112875000Y-108125000D02*
X115800000Y-108125000D01*
X138000000Y-106784257D02*
X137284257Y-107500000D01*
X138200000Y-105875000D02*
X138125000Y-105875000D01*
X112750000Y-108250000D02*
X112875000Y-108125000D01*
%TO.N,rgb_main_ring_num*%
X131238653Y-87711933D02*
X131000000Y-87473280D01*
X130725000Y-89012573D02*
X131000000Y-88737573D01*
X131000000Y-87473280D02*
X131000000Y-87137810D01*
X131000000Y-87137810D02*
X131012810Y-87125000D01*
X131012810Y-87125000D02*
X133800000Y-87125000D01*
X120200000Y-92875000D02*
X123650000Y-92875000D01*
X131000000Y-88552026D02*
X131238653Y-88313373D01*
X131238653Y-88313373D02*
X131238653Y-87711933D01*
X131000000Y-88737573D02*
X131000000Y-88552026D01*
X123650000Y-92875000D02*
X123775000Y-93000000D01*
%TO.N,rgb_main_middle_bottom*%
X138200000Y-139875000D02*
X138000000Y-140075000D01*
X138500000Y-130500000D02*
X138500000Y-127000000D01*
X138500000Y-127000000D02*
X136677000Y-125177000D01*
X132875000Y-124402000D02*
X132000000Y-123527000D01*
X138000000Y-142000000D02*
X140500000Y-142000000D01*
X136677000Y-125177000D02*
X135275000Y-125177000D01*
X135275000Y-125177000D02*
X134500000Y-124402000D01*
X132000000Y-122301697D02*
X132000000Y-122000000D01*
X134500000Y-124402000D02*
X132875000Y-124402000D01*
X132875000Y-121125000D02*
X133800000Y-121125000D01*
X131900001Y-122401696D02*
X132000000Y-122301697D01*
X132000000Y-122000000D02*
X132875000Y-121125000D01*
X132000000Y-123527000D02*
X132000000Y-122000000D01*
X138000000Y-140075000D02*
X138000000Y-142000000D01*
%TO.N,rgb_main_index_bottom*%
X130500000Y-140723000D02*
X130500000Y-141000000D01*
X134000000Y-143250000D02*
X134375000Y-143625000D01*
X140250000Y-149500000D02*
X134000000Y-143250000D01*
X148750000Y-149500000D02*
X140250000Y-149500000D01*
X156200000Y-147875000D02*
X158899000Y-147875000D01*
X158899000Y-147875000D02*
X159250000Y-148226000D01*
X133800000Y-138125000D02*
X133098000Y-138125000D01*
X133098000Y-138125000D02*
X130500000Y-140723000D01*
%TO.N,rgb_main_middle_home*%
X129750000Y-104250000D02*
X129875000Y-104125000D01*
X129875000Y-104125000D02*
X133800000Y-104125000D01*
X138200000Y-123200000D02*
X139000000Y-124000000D01*
X138200000Y-122875000D02*
X138200000Y-123200000D01*
%TO.N,rgb_main_middle_num*%
X144450347Y-92549653D02*
X144450347Y-92985347D01*
X151800000Y-95125000D02*
X147375000Y-95125000D01*
X147375000Y-95125000D02*
X147000000Y-95500000D01*
X144450347Y-92985347D02*
X145500000Y-94035000D01*
X138200000Y-88875000D02*
X138387306Y-89062306D01*
X138387306Y-89062306D02*
X140963000Y-89062306D01*
%TO.N,rgb_main_index_home*%
X156500000Y-134000000D02*
X156500000Y-133000000D01*
X151800000Y-144300000D02*
X150500000Y-143000000D01*
X151500000Y-141000000D02*
X150626000Y-140126000D01*
X150626000Y-140126000D02*
X148222935Y-140126000D01*
X151800000Y-146125000D02*
X151800000Y-145000000D01*
X148222935Y-140126000D02*
X147124000Y-139027065D01*
X156500000Y-133000000D02*
X156200000Y-132700000D01*
X151500000Y-145000000D02*
X151800000Y-145000000D01*
X147124000Y-139027065D02*
X147124000Y-136399000D01*
X149523000Y-134000000D02*
X153000000Y-134000000D01*
X156200000Y-132500000D02*
X156200000Y-130875000D01*
X147124000Y-136399000D02*
X149523000Y-134000000D01*
X151800000Y-145000000D02*
X151800000Y-144300000D01*
X156200000Y-132700000D02*
X156200000Y-132500000D01*
X156425000Y-132275000D02*
X156200000Y-132500000D01*
X157000000Y-132275000D02*
X156425000Y-132275000D01*
%TO.N,rgb_main_index_top*%
X151000000Y-124000000D02*
X151000000Y-122000000D01*
X157625000Y-113875000D02*
X158500000Y-113000000D01*
X147000000Y-114500000D02*
X149500000Y-112000000D01*
X158500000Y-113000000D02*
X158500509Y-113000509D01*
X151000000Y-122000000D02*
X151500000Y-121500000D01*
X149875000Y-129125000D02*
X151800000Y-129125000D01*
X158500509Y-113000509D02*
X158500509Y-113218117D01*
X147000000Y-115500000D02*
X147000000Y-114500000D01*
X149000000Y-130000000D02*
X149875000Y-129125000D01*
X156200000Y-113875000D02*
X157625000Y-113875000D01*
%TO.N,rgb_main_inner_top*%
X178250000Y-114250000D02*
X178250000Y-115250000D01*
X151800000Y-112125000D02*
X151000000Y-112125000D01*
X175000000Y-115875000D02*
X174200000Y-115875000D01*
X176409500Y-112090500D02*
X176409500Y-112409500D01*
X176409500Y-112409500D02*
X178250000Y-114250000D01*
X178000000Y-114000000D02*
X178250000Y-114250000D01*
X149500000Y-113625000D02*
X149500000Y-114500000D01*
X151000000Y-112125000D02*
X149500000Y-113625000D01*
X177750000Y-115750000D02*
X175125000Y-115750000D01*
X175125000Y-115750000D02*
X175000000Y-115875000D01*
X178250000Y-115250000D02*
X177750000Y-115750000D01*
%TO.N,rgb_main_index_num*%
X162012653Y-95987347D02*
X157087653Y-95987347D01*
X157087653Y-95987347D02*
X156200000Y-96875000D01*
X169800000Y-97125000D02*
X168642913Y-97125000D01*
X168642913Y-97125000D02*
X167917913Y-96400000D01*
%TO.N,rgb_main_inner_bottom*%
X178124847Y-130150153D02*
X178724694Y-130750000D01*
X168625000Y-131125000D02*
X167500000Y-130000000D01*
X169800000Y-131125000D02*
X168625000Y-131125000D01*
X174200000Y-149875000D02*
X174200000Y-150625000D01*
X177250000Y-148000000D02*
X177250000Y-146500000D01*
X174723280Y-153500000D02*
X175000000Y-153500000D01*
X178512653Y-153487347D02*
X177250000Y-152224694D01*
X174200000Y-150625000D02*
X173801000Y-151024000D01*
X173699280Y-151024000D02*
X173274000Y-151449280D01*
X173801000Y-151024000D02*
X173699280Y-151024000D01*
X173274000Y-152050720D02*
X174723280Y-153500000D01*
X177250000Y-152224694D02*
X177250000Y-148000000D01*
X177250000Y-146500000D02*
X177500000Y-146250000D01*
X178724694Y-130750000D02*
X181500000Y-130750000D01*
X173274000Y-151449280D02*
X173274000Y-152050720D01*
%TO.N,rgb_thumbfan_near*%
X161000000Y-152500000D02*
X161500000Y-152500000D01*
X162204619Y-147285191D02*
X160450999Y-147285191D01*
X173500000Y-157000000D02*
X173500000Y-154500000D01*
X163788810Y-145701000D02*
X162204619Y-147285191D01*
X166125000Y-166875000D02*
X167000000Y-166000000D01*
X169800000Y-148125000D02*
X167376000Y-145701000D01*
X161500000Y-152500000D02*
X161949000Y-152500000D01*
X164200000Y-166875000D02*
X166125000Y-166875000D01*
X173500000Y-154500000D02*
X171000000Y-152000000D01*
X161949000Y-152500000D02*
X162000000Y-152449000D01*
X159500000Y-150000000D02*
X159500000Y-151000000D01*
X167376000Y-145701000D02*
X163788810Y-145701000D01*
X171000000Y-152000000D02*
X171000000Y-151775000D01*
X159500000Y-151000000D02*
X161000000Y-152500000D01*
%TO.N,rgb_main_inner_home*%
X166000000Y-114125000D02*
X169800000Y-114125000D01*
X174500000Y-126000000D02*
X172000000Y-123500000D01*
X174200000Y-134735000D02*
X174500000Y-135035000D01*
X172000000Y-123500000D02*
X169500000Y-123500000D01*
X178000000Y-134535000D02*
X178000000Y-131500000D01*
X174200000Y-132875000D02*
X174200000Y-134735000D01*
X177500000Y-135035000D02*
X178000000Y-134535000D01*
X166000000Y-117000000D02*
X166000000Y-114125000D01*
%TO.N,rgb_main_outer_home*%
X84200000Y-123000000D02*
X84200000Y-121875000D01*
X82047280Y-128926000D02*
X82777065Y-128926000D01*
X84000000Y-123200000D02*
X84200000Y-123000000D01*
X79800000Y-131173280D02*
X82047280Y-128926000D01*
X80000000Y-134700000D02*
X79800000Y-134500000D01*
X82777065Y-128926000D02*
X84200000Y-127503065D01*
X79800000Y-137125000D02*
X79800000Y-134500000D01*
X84200000Y-127503065D02*
X84200000Y-123000000D01*
X80000000Y-135500000D02*
X80000000Y-134700000D01*
X84000000Y-123998000D02*
X84000000Y-123200000D01*
X79800000Y-134500000D02*
X79800000Y-131173280D01*
%TO.N,rgb_thumbfan_home*%
X163025000Y-169525000D02*
X162000000Y-168500000D01*
X158375000Y-165125000D02*
X157512653Y-165987347D01*
X187084010Y-171415990D02*
X188000000Y-170500000D01*
X171500000Y-169331315D02*
X171306315Y-169525000D01*
X171306315Y-169525000D02*
X163025000Y-169525000D01*
X185470680Y-171415990D02*
X187084010Y-171415990D01*
X159800000Y-165125000D02*
X158375000Y-165125000D01*
%TO.N,rgb_thumbfan_far*%
X205113359Y-180075733D02*
X206815692Y-180075733D01*
X207643502Y-179247923D02*
X207643502Y-178117610D01*
X181826812Y-168391966D02*
X179225000Y-168391966D01*
X179225000Y-168391966D02*
X178500000Y-169116966D01*
X206815692Y-180075733D02*
X207643502Y-179247923D01*
X207643502Y-178117610D02*
X207022730Y-177496838D01*
%TO.N,pos*%
X170550000Y-78500000D02*
X171000000Y-78500000D01*
X171000000Y-78500000D02*
X173000000Y-76500000D01*
X167500000Y-78500000D02*
X165500000Y-76500000D01*
X112250000Y-76735000D02*
X113750000Y-76735000D01*
X170000000Y-78500000D02*
X167500000Y-78500000D01*
%TD*%
M02*
