M48
; DRILL file {KiCad 9.0.6} date 2025-11-21T16:08:50+0100
; FORMAT={-:-/ absolute / metric / decimal}
; #@! TF.CreationDate,2025-11-21T16:08:50+01:00
; #@! TF.GenerationSoftware,Kicad,Pcbnew,9.0.6
; #@! TF.FileFunction,NonPlated,1,2,NPTH
FMAT,2
METRIC
; #@! TA.AperFunction,NonPlated,NPTH,ComponentDrill
T1C0.750
; #@! TA.AperFunction,NonPlated,NPTH,ComponentDrill
T2C0.900
; #@! TA.AperFunction,NonPlated,NPTH,ComponentDrill
T3C1.702
; #@! TA.AperFunction,NonPlated,NPTH,ComponentDrill
T4C3.000
; #@! TA.AperFunction,NonPlated,NPTH,ComponentDrill
T5C3.429
%
G90
G05
T1
X99.875Y-74.0
X99.875Y-74.0
X99.875Y-76.75
X99.875Y-76.75
T2
X111.5Y-74.975
X114.5Y-74.975
T3
X76.5Y-116.0
X76.5Y-133.0
X87.5Y-116.0
X87.5Y-133.0
X94.5Y-99.0
X94.5Y-116.0
X94.5Y-133.0
X94.5Y-150.0
X105.5Y-99.0
X105.5Y-116.0
X105.5Y-133.0
X105.5Y-150.0
X112.5Y-87.0
X112.5Y-104.0
X112.5Y-121.0
X112.5Y-138.0
X123.5Y-87.0
X123.5Y-104.0
X123.5Y-121.0
X123.5Y-138.0
X130.5Y-83.0
X130.5Y-100.0
X130.5Y-117.0
X130.5Y-134.0
X141.5Y-83.0
X141.5Y-100.0
X141.5Y-117.0
X141.5Y-134.0
X148.5Y-91.0
X148.5Y-108.0
X148.5Y-125.0
X148.5Y-142.0
X156.5Y-161.0
X159.5Y-91.0
X159.5Y-108.0
X159.5Y-125.0
X159.5Y-142.0
X166.5Y-93.0
X166.5Y-110.0
X166.5Y-127.0
X166.5Y-144.0
X167.5Y-161.0
X177.5Y-93.0
X177.5Y-110.0
X177.5Y-127.0
X177.5Y-144.0
X179.963Y-163.449
X190.425Y-166.848
X201.073Y-171.273
X210.785Y-176.438
T4
X77.0Y-112.25
X77.0Y-129.25
X82.0Y-110.05
X82.0Y-110.05
X82.0Y-127.05
X82.0Y-127.05
X87.0Y-112.25
X87.0Y-129.25
X95.0Y-95.25
X95.0Y-112.25
X95.0Y-129.25
X95.0Y-146.25
X100.0Y-93.05
X100.0Y-93.05
X100.0Y-110.05
X100.0Y-110.05
X100.0Y-127.05
X100.0Y-127.05
X100.0Y-144.05
X100.0Y-144.05
X105.0Y-95.25
X105.0Y-112.25
X105.0Y-129.25
X105.0Y-146.25
X113.0Y-83.25
X113.0Y-100.25
X113.0Y-117.25
X113.0Y-134.25
X118.0Y-81.05
X118.0Y-81.05
X118.0Y-98.05
X118.0Y-98.05
X118.0Y-115.05
X118.0Y-115.05
X118.0Y-132.05
X118.0Y-132.05
X123.0Y-83.25
X123.0Y-100.25
X123.0Y-117.25
X123.0Y-134.25
X131.0Y-79.25
X131.0Y-96.25
X131.0Y-113.25
X131.0Y-130.25
X136.0Y-77.05
X136.0Y-77.05
X136.0Y-94.05
X136.0Y-94.05
X136.0Y-111.05
X136.0Y-111.05
X136.0Y-128.05
X136.0Y-128.05
X141.0Y-79.25
X141.0Y-96.25
X141.0Y-113.25
X141.0Y-130.25
X149.0Y-87.25
X149.0Y-104.25
X149.0Y-121.25
X149.0Y-138.25
X154.0Y-85.05
X154.0Y-85.05
X154.0Y-102.05
X154.0Y-102.05
X154.0Y-119.05
X154.0Y-119.05
X154.0Y-136.05
X154.0Y-136.05
X157.0Y-157.25
X159.0Y-87.25
X159.0Y-104.25
X159.0Y-121.25
X159.0Y-138.25
X162.0Y-155.05
X162.0Y-155.05
X167.0Y-89.25
X167.0Y-106.25
X167.0Y-123.25
X167.0Y-140.25
X167.0Y-157.25
X172.0Y-87.05
X172.0Y-87.05
X172.0Y-104.05
X172.0Y-104.05
X172.0Y-121.05
X172.0Y-121.05
X172.0Y-138.05
X172.0Y-138.05
X177.0Y-89.25
X177.0Y-106.25
X177.0Y-123.25
X177.0Y-140.25
X181.597Y-160.037
X187.032Y-159.49
X187.032Y-159.49
X191.108Y-163.127
X203.275Y-168.197
X208.722Y-168.602
X208.722Y-168.602
X212.104Y-172.892
T5
X82.0Y-116.0
X82.0Y-133.0
X100.0Y-99.0
X100.0Y-116.0
X100.0Y-133.0
X100.0Y-150.0
X118.0Y-87.0
X118.0Y-104.0
X118.0Y-121.0
X118.0Y-138.0
X136.0Y-83.0
X136.0Y-100.0
X136.0Y-117.0
X136.0Y-134.0
X154.0Y-91.0
X154.0Y-108.0
X154.0Y-125.0
X154.0Y-142.0
X162.0Y-161.0
X172.0Y-93.0
X172.0Y-110.0
X172.0Y-127.0
X172.0Y-144.0
X185.194Y-165.149
X205.929Y-173.856
M30
