%TF.GenerationSoftware,KiCad,Pcbnew,9.0.6*%
%TF.CreationDate,2025-11-21T16:08:53+01:00*%
%TF.ProjectId,main_pcb,6d61696e-5f70-4636-922e-6b696361645f,v1.0.0*%
%TF.SameCoordinates,Original*%
%TF.FileFunction,Copper,L1,Top*%
%TF.FilePolarity,Positive*%
%FSLAX46Y46*%
G04 Gerber Fmt 4.6, Leading zero omitted, Abs format (unit mm)*
G04 Created by KiCad (PCBNEW 9.0.6) date 2025-11-21 16:08:54*
%MOMM*%
%LPD*%
G01*
G04 APERTURE LIST*
G04 Aperture macros list*
%AMRotRect*
0 Rectangle, with rotation*
0 The origin of the aperture is its center*
0 $1 length*
0 $2 width*
0 $3 Rotation angle, in degrees counterclockwise*
0 Add horizontal line*
21,1,$1,$2,0,0,$3*%
%AMFreePoly0*
4,1,6,0.250000,0.000000,-0.250000,-0.625000,-0.500000,-0.625000,-0.500000,0.625000,-0.250000,0.625000,0.250000,0.000000,0.250000,0.000000,$1*%
%AMFreePoly1*
4,1,6,0.500000,-0.625000,-0.650000,-0.625000,-0.150000,0.000000,-0.650000,0.625000,0.500000,0.625000,0.500000,-0.625000,0.500000,-0.625000,$1*%
G04 Aperture macros list end*
%TA.AperFunction,Conductor*%
%ADD10C,0.200000*%
%TD*%
%TA.AperFunction,SMDPad,CuDef*%
%ADD11FreePoly0,180.000000*%
%TD*%
%TA.AperFunction,ComponentPad*%
%ADD12C,1.700000*%
%TD*%
%TA.AperFunction,SMDPad,CuDef*%
%ADD13FreePoly0,0.000000*%
%TD*%
%TA.AperFunction,ComponentPad*%
%ADD14C,0.800000*%
%TD*%
%TA.AperFunction,SMDPad,CuDef*%
%ADD15FreePoly1,180.000000*%
%TD*%
%TA.AperFunction,SMDPad,CuDef*%
%ADD16FreePoly1,0.000000*%
%TD*%
%TA.AperFunction,SMDPad,CuDef*%
%ADD17R,2.600000X2.600000*%
%TD*%
%TA.AperFunction,SMDPad,CuDef*%
%ADD18RotRect,2.600000X1.000000X342.000000*%
%TD*%
%TA.AperFunction,SMDPad,CuDef*%
%ADD19R,1.550000X1.000000*%
%TD*%
%TA.AperFunction,ComponentPad*%
%ADD20R,1.778000X1.778000*%
%TD*%
%TA.AperFunction,SMDPad,CuDef*%
%ADD21R,1.200000X0.900000*%
%TD*%
%TA.AperFunction,ComponentPad*%
%ADD22C,1.905000*%
%TD*%
%TA.AperFunction,ComponentPad*%
%ADD23R,1.700000X1.200000*%
%TD*%
%TA.AperFunction,ComponentPad*%
%ADD24O,1.700000X1.200000*%
%TD*%
%TA.AperFunction,SMDPad,CuDef*%
%ADD25R,1.000000X0.800000*%
%TD*%
%TA.AperFunction,SMDPad,CuDef*%
%ADD26R,0.700000X1.500000*%
%TD*%
%TA.AperFunction,SMDPad,CuDef*%
%ADD27R,2.600000X1.000000*%
%TD*%
%TA.AperFunction,ComponentPad*%
%ADD28RotRect,1.778000X1.778000X62.000000*%
%TD*%
%TA.AperFunction,SMDPad,CuDef*%
%ADD29RotRect,0.900000X1.200000X62.000000*%
%TD*%
%TA.AperFunction,ComponentPad*%
%ADD30RotRect,1.778000X1.778000X72.000000*%
%TD*%
%TA.AperFunction,SMDPad,CuDef*%
%ADD31RotRect,0.900000X1.200000X72.000000*%
%TD*%
%TA.AperFunction,SMDPad,CuDef*%
%ADD32RotRect,2.600000X2.600000X342.000000*%
%TD*%
%TA.AperFunction,SMDPad,CuDef*%
%ADD33RotRect,2.600000X2.600000X332.000000*%
%TD*%
%TA.AperFunction,SMDPad,CuDef*%
%ADD34RotRect,2.600000X1.000000X332.000000*%
%TD*%
%TA.AperFunction,ViaPad*%
%ADD35C,0.800000*%
%TD*%
%TA.AperFunction,Conductor*%
%ADD36C,0.250000*%
%TD*%
G04 APERTURE END LIST*
D10*
%TO.N,P9*%
X126000000Y-145500000D02*
X126000000Y-145000000D01*
%TD*%
D11*
%TO.P,MCU1,1*%
%TO.N,MCU1_1*%
X87100000Y-77500000D03*
D12*
X89220000Y-77500000D03*
D11*
%TO.P,MCU1,2*%
%TO.N,MCU1_2*%
X87100000Y-80040000D03*
D12*
X89220000Y-80040000D03*
D11*
%TO.P,MCU1,3*%
%TO.N,MCU1_3*%
X87100000Y-82580000D03*
D12*
X89220000Y-82580000D03*
D11*
%TO.P,MCU1,4*%
%TO.N,MCU1_4*%
X87100000Y-85120000D03*
D12*
X89220000Y-85120000D03*
D11*
%TO.P,MCU1,5*%
%TO.N,MCU1_5*%
X87100000Y-87660000D03*
D12*
X89220000Y-87660000D03*
D11*
%TO.P,MCU1,6*%
%TO.N,MCU1_6*%
X87100000Y-90200000D03*
D12*
X89220000Y-90200000D03*
D11*
%TO.P,MCU1,7*%
%TO.N,MCU1_7*%
X87100000Y-92740000D03*
D12*
X89220000Y-92740000D03*
D11*
%TO.P,MCU1,8*%
%TO.N,MCU1_8*%
X87100000Y-95280000D03*
D12*
X89220000Y-95280000D03*
D11*
%TO.P,MCU1,9*%
%TO.N,MCU1_9*%
X87100000Y-97820000D03*
D12*
X89220000Y-97820000D03*
D11*
%TO.P,MCU1,10*%
%TO.N,MCU1_10*%
X87100000Y-100360000D03*
D12*
X89220000Y-100360000D03*
D11*
%TO.P,MCU1,11*%
%TO.N,MCU1_11*%
X87100000Y-102900000D03*
D12*
X89220000Y-102900000D03*
D11*
%TO.P,MCU1,12*%
%TO.N,MCU1_12*%
X87100000Y-105440000D03*
D12*
X89220000Y-105440000D03*
%TO.P,MCU1,13*%
%TO.N,MCU1_13*%
X73980000Y-105440000D03*
D13*
X76100000Y-105440000D03*
D12*
%TO.P,MCU1,14*%
%TO.N,MCU1_14*%
X73980000Y-102900000D03*
D13*
X76100000Y-102900000D03*
D12*
%TO.P,MCU1,15*%
%TO.N,MCU1_15*%
X73980000Y-100360000D03*
D13*
X76100000Y-100360000D03*
D12*
%TO.P,MCU1,16*%
%TO.N,MCU1_16*%
X73980000Y-97820000D03*
D13*
X76100000Y-97820000D03*
D12*
%TO.P,MCU1,17*%
%TO.N,MCU1_17*%
X73980000Y-95280000D03*
D13*
X76100000Y-95280000D03*
D12*
%TO.P,MCU1,18*%
%TO.N,MCU1_18*%
X73980000Y-92740000D03*
D13*
X76100000Y-92740000D03*
D12*
%TO.P,MCU1,19*%
%TO.N,MCU1_19*%
X73980000Y-90200000D03*
D13*
X76100000Y-90200000D03*
D12*
%TO.P,MCU1,20*%
%TO.N,MCU1_20*%
X73980000Y-87660000D03*
D13*
X76100000Y-87660000D03*
D12*
%TO.P,MCU1,21*%
%TO.N,MCU1_21*%
X73980000Y-85120000D03*
D13*
X76100000Y-85120000D03*
D12*
%TO.P,MCU1,22*%
%TO.N,MCU1_22*%
X73980000Y-82580000D03*
D13*
X76100000Y-82580000D03*
D12*
%TO.P,MCU1,23*%
%TO.N,MCU1_23*%
X73980000Y-80040000D03*
D13*
X76100000Y-80040000D03*
D12*
%TO.P,MCU1,24*%
%TO.N,MCU1_24*%
X73980000Y-77500000D03*
D13*
X76100000Y-77500000D03*
D14*
%TO.P,MCU1,101*%
%TO.N,RAW*%
X85000000Y-77500000D03*
D15*
X86375000Y-77500000D03*
D14*
%TO.P,MCU1,102*%
%TO.N,GND*%
X85000000Y-80040000D03*
D15*
X86375000Y-80040000D03*
D14*
%TO.P,MCU1,103*%
%TO.N,RST*%
X85000000Y-82580000D03*
D15*
X86375000Y-82580000D03*
D14*
%TO.P,MCU1,104*%
%TO.N,VCC*%
X85000000Y-85120000D03*
D15*
X86375000Y-85120000D03*
D14*
%TO.P,MCU1,105*%
%TO.N,P21*%
X85000000Y-87660000D03*
D15*
X86375000Y-87660000D03*
D14*
%TO.P,MCU1,106*%
%TO.N,P20*%
X85000000Y-90200000D03*
D15*
X86375000Y-90200000D03*
D14*
%TO.P,MCU1,107*%
%TO.N,P19*%
X85000000Y-92740000D03*
D15*
X86375000Y-92740000D03*
D14*
%TO.P,MCU1,108*%
%TO.N,P18*%
X85000000Y-95280000D03*
D15*
X86375000Y-95280000D03*
D14*
%TO.P,MCU1,109*%
%TO.N,P15*%
X85000000Y-97820000D03*
D15*
X86375000Y-97820000D03*
D14*
%TO.P,MCU1,110*%
%TO.N,P14*%
X85000000Y-100360000D03*
D15*
X86375000Y-100360000D03*
D14*
%TO.P,MCU1,111*%
%TO.N,P16*%
X85000000Y-102900000D03*
D15*
X86375000Y-102900000D03*
D14*
%TO.P,MCU1,112*%
%TO.N,P10*%
X85000000Y-105440000D03*
D15*
X86375000Y-105440000D03*
D16*
%TO.P,MCU1,113*%
%TO.N,P9*%
X76825000Y-105440000D03*
D14*
X78200000Y-105440000D03*
D16*
%TO.P,MCU1,114*%
%TO.N,P8*%
X76825000Y-102900000D03*
D14*
X78200000Y-102900000D03*
D16*
%TO.P,MCU1,115*%
%TO.N,P7*%
X76825000Y-100360000D03*
D14*
X78200000Y-100360000D03*
D16*
%TO.P,MCU1,116*%
%TO.N,P6*%
X76825000Y-97820000D03*
D14*
X78200000Y-97820000D03*
D16*
%TO.P,MCU1,117*%
%TO.N,P5*%
X76825000Y-95280000D03*
D14*
X78200000Y-95280000D03*
D16*
%TO.P,MCU1,118*%
%TO.N,P4*%
X76825000Y-92740000D03*
D14*
X78200000Y-92740000D03*
D16*
%TO.P,MCU1,119*%
%TO.N,P3*%
X76825000Y-90200000D03*
D14*
X78200000Y-90200000D03*
D16*
%TO.P,MCU1,120*%
%TO.N,P2*%
X76825000Y-87660000D03*
D14*
X78200000Y-87660000D03*
D16*
%TO.P,MCU1,121*%
%TO.N,GND*%
X76825000Y-85120000D03*
D14*
X78200000Y-85120000D03*
D16*
%TO.P,MCU1,122*%
X76825000Y-82580000D03*
D14*
X78200000Y-82580000D03*
D16*
%TO.P,MCU1,123*%
%TO.N,P0*%
X76825000Y-80040000D03*
D14*
X78200000Y-80040000D03*
D16*
%TO.P,MCU1,124*%
%TO.N,P1*%
X76825000Y-77500000D03*
D14*
X78200000Y-77500000D03*
%TD*%
D17*
%TO.P,S11,1*%
%TO.N,P3*%
X139275000Y-94050000D03*
%TO.P,S11,2*%
%TO.N,main_middle_top*%
X127725000Y-96250000D03*
%TD*%
D18*
%TO.P,LED24,1*%
%TO.N,VCC*%
X181826812Y-168391966D03*
%TO.P,LED24,2*%
%TO.N,rgb_thumbfan_far*%
X181286032Y-170056315D03*
%TO.P,LED24,3*%
%TO.N,GND*%
X185470680Y-171415990D03*
%TO.P,LED24,4*%
%TO.N,rgb_thumbfan_home*%
X186011460Y-169751641D03*
%TD*%
D17*
%TO.P,S1,1*%
%TO.N,P1*%
X103275000Y-144050000D03*
%TO.P,S1,2*%
%TO.N,main_pinky_bottom*%
X91725000Y-146250000D03*
%TD*%
D19*
%TO.P,B2,1*%
%TO.N,GND*%
X97250000Y-74525000D03*
X102500000Y-74525000D03*
%TO.P,B2,2*%
%TO.N,RST*%
X97250000Y-76225000D03*
X102500000Y-76225000D03*
%TD*%
D17*
%TO.P,S8,1*%
%TO.N,P2*%
X121275000Y-81050000D03*
%TO.P,S8,2*%
%TO.N,main_ring_num*%
X109725000Y-83250000D03*
%TD*%
D20*
%TO.P,D3,1*%
%TO.N,P7*%
X106500000Y-125660000D03*
D21*
X106500000Y-123500000D03*
%TO.P,D3,2*%
%TO.N,main_pinky_top*%
X106500000Y-120200000D03*
D22*
X106500000Y-118040000D03*
%TD*%
D17*
%TO.P,S21,1*%
%TO.N,P0*%
X85275000Y-127050000D03*
%TO.P,S21,2*%
%TO.N,outer_outer_top*%
X73725000Y-129250000D03*
%TD*%
%TO.P,S23,1*%
%TO.N,P3*%
X165275000Y-155050000D03*
%TO.P,S23,2*%
%TO.N,thumbfan_near_thumb*%
X153725000Y-157250000D03*
%TD*%
D23*
%TO.P,JST2,1*%
%TO.N,pos*%
X173000000Y-76500000D03*
D24*
%TO.P,JST2,2*%
%TO.N,GND*%
X173000000Y-78500000D03*
%TD*%
D25*
%TO.P,SW1,*%
%TO.N,*%
X109350000Y-76085000D03*
X116650000Y-76085000D03*
X109350000Y-73875000D03*
X116650000Y-73875000D03*
D26*
%TO.P,SW1,1*%
%TO.N,N/C*%
X115250000Y-76735000D03*
%TO.P,SW1,2*%
%TO.N,pos*%
X112250000Y-76735000D03*
%TO.P,SW1,3*%
%TO.N,RAW*%
X110750000Y-76735000D03*
%TD*%
D20*
%TO.P,D10,1*%
%TO.N,P8*%
X143000000Y-126810000D03*
D21*
X143000000Y-124650000D03*
%TO.P,D10,2*%
%TO.N,main_middle_home*%
X143000000Y-121350000D03*
D22*
X143000000Y-119190000D03*
%TD*%
D17*
%TO.P,S15,1*%
%TO.N,P4*%
X157275000Y-102050000D03*
%TO.P,S15,2*%
%TO.N,main_index_top*%
X145725000Y-104250000D03*
%TD*%
D27*
%TO.P,LED14,1*%
%TO.N,VCC*%
X151800000Y-129125000D03*
%TO.P,LED14,2*%
%TO.N,rgb_main_index_top*%
X151800000Y-130875000D03*
%TO.P,LED14,3*%
%TO.N,GND*%
X156200000Y-130875000D03*
%TO.P,LED14,4*%
%TO.N,rgb_main_index_home*%
X156200000Y-129125000D03*
%TD*%
D20*
%TO.P,D8,1*%
%TO.N,P6*%
X126000000Y-93810000D03*
D21*
X126000000Y-91650000D03*
%TO.P,D8,2*%
%TO.N,main_ring_num*%
X126000000Y-88350000D03*
D22*
X126000000Y-86190000D03*
%TD*%
D17*
%TO.P,S9,1*%
%TO.N,P3*%
X139275000Y-128050000D03*
%TO.P,S9,2*%
%TO.N,main_middle_bottom*%
X127725000Y-130250000D03*
%TD*%
D27*
%TO.P,LED22,1*%
%TO.N,VCC*%
X79800000Y-120125000D03*
%TO.P,LED22,2*%
%TO.N,rgb_main_pinky_home*%
X79800000Y-121875000D03*
%TO.P,LED22,3*%
%TO.N,GND*%
X84200000Y-121875000D03*
%TO.P,LED22,4*%
%TO.N,rgb_main_outer_home*%
X84200000Y-120125000D03*
%TD*%
D28*
%TO.P,D25,1*%
%TO.N,P10*%
X209384174Y-183971803D03*
D29*
X210398233Y-182064637D03*
%TO.P,D25,2*%
%TO.N,thumbfan_far_thumb*%
X211947489Y-179150909D03*
D22*
X212961548Y-177243743D03*
%TD*%
D17*
%TO.P,S13,1*%
%TO.N,P4*%
X157275000Y-136050000D03*
%TO.P,S13,2*%
%TO.N,main_index_bottom*%
X145725000Y-138250000D03*
%TD*%
D20*
%TO.P,D23,1*%
%TO.N,P10*%
X169800000Y-168310000D03*
D21*
X169800000Y-166150000D03*
%TO.P,D23,2*%
%TO.N,thumbfan_near_thumb*%
X169800000Y-162850000D03*
D22*
X169800000Y-160690000D03*
%TD*%
D20*
%TO.P,D5,1*%
%TO.N,P9*%
X125800000Y-145310000D03*
D21*
X125800000Y-143150000D03*
%TO.P,D5,2*%
%TO.N,main_ring_bottom*%
X125800000Y-139850000D03*
D22*
X125800000Y-137690000D03*
%TD*%
D20*
%TO.P,D1,1*%
%TO.N,P9*%
X107800000Y-157310000D03*
D21*
X107800000Y-155150000D03*
%TO.P,D1,2*%
%TO.N,main_pinky_bottom*%
X107800000Y-151850000D03*
D22*
X107800000Y-149690000D03*
%TD*%
D20*
%TO.P,D4,1*%
%TO.N,P6*%
X106500000Y-108810000D03*
D21*
X106500000Y-106650000D03*
%TO.P,D4,2*%
%TO.N,main_pinky_num*%
X106500000Y-103350000D03*
D22*
X106500000Y-101190000D03*
%TD*%
D27*
%TO.P,LED21,1*%
%TO.N,VCC*%
X79800000Y-137125000D03*
%TO.P,LED21,2*%
%TO.N,rgb_main_outer_home*%
X79800000Y-138875000D03*
%TO.P,LED21,3*%
%TO.N,GND*%
X84200000Y-138875000D03*
%TO.P,LED21,4*%
%TO.N,rgb_main_outer_top*%
X84200000Y-137125000D03*
%TD*%
D17*
%TO.P,S17,1*%
%TO.N,P5*%
X175275000Y-138050000D03*
%TO.P,S17,2*%
%TO.N,main_inner_bottom*%
X163725000Y-140250000D03*
%TD*%
D27*
%TO.P,LED12,1*%
%TO.N,VCC*%
X133800000Y-87125000D03*
%TO.P,LED12,2*%
%TO.N,rgb_main_ring_num*%
X133800000Y-88875000D03*
%TO.P,LED12,3*%
%TO.N,GND*%
X138200000Y-88875000D03*
%TO.P,LED12,4*%
%TO.N,rgb_main_middle_num*%
X138200000Y-87125000D03*
%TD*%
%TO.P,LED2,1*%
%TO.N,VCC*%
X97800000Y-137125000D03*
%TO.P,LED2,2*%
%TO.N,rgb_main_pinky_bottom*%
X97800000Y-138875000D03*
%TO.P,LED2,3*%
%TO.N,GND*%
X102200000Y-138875000D03*
%TO.P,LED2,4*%
%TO.N,rgb_main_pinky_home*%
X102200000Y-137125000D03*
%TD*%
D20*
%TO.P,D6,1*%
%TO.N,P8*%
X126000000Y-127810000D03*
D21*
X126000000Y-125650000D03*
%TO.P,D6,2*%
%TO.N,main_ring_home*%
X126000000Y-122350000D03*
D22*
X126000000Y-120190000D03*
%TD*%
D27*
%TO.P,LED23,1*%
%TO.N,VCC*%
X159800000Y-165125000D03*
%TO.P,LED23,2*%
%TO.N,rgb_thumbfan_home*%
X159800000Y-166875000D03*
%TO.P,LED23,3*%
%TO.N,GND*%
X164200000Y-166875000D03*
%TO.P,LED23,4*%
%TO.N,rgb_thumbfan_near_thumb*%
X164200000Y-165125000D03*
%TD*%
D20*
%TO.P,D9,1*%
%TO.N,P9*%
X142500000Y-144810000D03*
D21*
X142500000Y-142650000D03*
%TO.P,D9,2*%
%TO.N,main_middle_bottom*%
X142500000Y-139350000D03*
D22*
X142500000Y-137190000D03*
%TD*%
D17*
%TO.P,S2,1*%
%TO.N,P1*%
X103275000Y-127050000D03*
%TO.P,S2,2*%
%TO.N,main_pinky_home*%
X91725000Y-129250000D03*
%TD*%
D23*
%TO.P,JST1,1*%
%TO.N,pos*%
X170550000Y-78500000D03*
D24*
%TO.P,JST1,2*%
%TO.N,GND*%
X170550000Y-76500000D03*
%TD*%
D20*
%TO.P,D13,1*%
%TO.N,P9*%
X161800000Y-150810000D03*
D21*
X161800000Y-148650000D03*
%TO.P,D13,2*%
%TO.N,main_index_bottom*%
X161800000Y-145350000D03*
D22*
X161800000Y-143190000D03*
%TD*%
D17*
%TO.P,S12,1*%
%TO.N,P3*%
X139275000Y-77050000D03*
%TO.P,S12,2*%
%TO.N,main_middle_num*%
X127725000Y-79250000D03*
%TD*%
%TO.P,S14,1*%
%TO.N,P4*%
X157275000Y-119050000D03*
%TO.P,S14,2*%
%TO.N,main_index_home*%
X145725000Y-121250000D03*
%TD*%
%TO.P,S4,1*%
%TO.N,P1*%
X103275000Y-93050000D03*
%TO.P,S4,2*%
%TO.N,main_pinky_num*%
X91725000Y-95250000D03*
%TD*%
D27*
%TO.P,LED20,1*%
%TO.N,VCC*%
X169800000Y-97125000D03*
%TO.P,LED20,2*%
%TO.N,rgb_main_index_num*%
X169800000Y-98875000D03*
%TO.P,LED20,3*%
%TO.N,GND*%
X174200000Y-98875000D03*
%TO.P,LED20,4*%
%TO.N,P21*%
X174200000Y-97125000D03*
%TD*%
D20*
%TO.P,D17,1*%
%TO.N,P9*%
X180500000Y-151310000D03*
D21*
X180500000Y-149150000D03*
%TO.P,D17,2*%
%TO.N,main_inner_bottom*%
X180500000Y-145850000D03*
D22*
X180500000Y-143690000D03*
%TD*%
D17*
%TO.P,S18,1*%
%TO.N,P5*%
X175275000Y-121050000D03*
%TO.P,S18,2*%
%TO.N,main_inner_home*%
X163725000Y-123250000D03*
%TD*%
D27*
%TO.P,LED7,1*%
%TO.N,VCC*%
X115800000Y-108125000D03*
%TO.P,LED7,2*%
%TO.N,rgb_main_middle_top*%
X115800000Y-109875000D03*
%TO.P,LED7,3*%
%TO.N,GND*%
X120200000Y-109875000D03*
%TO.P,LED7,4*%
%TO.N,rgb_main_ring_top*%
X120200000Y-108125000D03*
%TD*%
D17*
%TO.P,S3,1*%
%TO.N,P1*%
X103275000Y-110050000D03*
%TO.P,S3,2*%
%TO.N,main_pinky_top*%
X91725000Y-112250000D03*
%TD*%
D20*
%TO.P,D21,1*%
%TO.N,P7*%
X89800000Y-140310000D03*
D21*
X89800000Y-138150000D03*
%TO.P,D21,2*%
%TO.N,outer_outer_top*%
X89800000Y-134850000D03*
D22*
X89800000Y-132690000D03*
%TD*%
D27*
%TO.P,LED11,1*%
%TO.N,VCC*%
X133800000Y-104125000D03*
%TO.P,LED11,2*%
%TO.N,rgb_main_middle_home*%
X133800000Y-105875000D03*
%TO.P,LED11,3*%
%TO.N,GND*%
X138200000Y-105875000D03*
%TO.P,LED11,4*%
%TO.N,rgb_main_middle_top*%
X138200000Y-104125000D03*
%TD*%
%TO.P,LED1,1*%
%TO.N,VCC*%
X97800000Y-154125000D03*
%TO.P,LED1,2*%
%TO.N,rgb_main_ring_bottom*%
X97800000Y-155875000D03*
%TO.P,LED1,3*%
%TO.N,GND*%
X102200000Y-155875000D03*
%TO.P,LED1,4*%
%TO.N,rgb_main_pinky_bottom*%
X102200000Y-154125000D03*
%TD*%
D20*
%TO.P,D18,1*%
%TO.N,P8*%
X179800000Y-134310000D03*
D21*
X179800000Y-132150000D03*
%TO.P,D18,2*%
%TO.N,main_inner_home*%
X179800000Y-128850000D03*
D22*
X179800000Y-126690000D03*
%TD*%
D30*
%TO.P,D24,1*%
%TO.N,P10*%
X190353157Y-174511251D03*
D31*
X191020634Y-172456969D03*
%TO.P,D24,2*%
%TO.N,thumbfan_home_thumb*%
X192040390Y-169318483D03*
D22*
X192707867Y-167264201D03*
%TD*%
D27*
%TO.P,LED13,1*%
%TO.N,VCC*%
X151800000Y-146125000D03*
%TO.P,LED13,2*%
%TO.N,rgb_main_index_home*%
X151800000Y-147875000D03*
%TO.P,LED13,3*%
%TO.N,GND*%
X156200000Y-147875000D03*
%TO.P,LED13,4*%
%TO.N,rgb_main_index_bottom*%
X156200000Y-146125000D03*
%TD*%
D17*
%TO.P,S16,1*%
%TO.N,P4*%
X157275000Y-85050000D03*
%TO.P,S16,2*%
%TO.N,main_index_num*%
X145725000Y-87250000D03*
%TD*%
D32*
%TO.P,S24,1*%
%TO.N,P4*%
X190147192Y-160501939D03*
%TO.P,S24,2*%
%TO.N,thumbfan_home_thumb*%
X178482652Y-159025117D03*
%TD*%
D20*
%TO.P,D19,1*%
%TO.N,P7*%
X179800000Y-117310000D03*
D21*
X179800000Y-115150000D03*
%TO.P,D19,2*%
%TO.N,main_inner_top*%
X179800000Y-111850000D03*
D22*
X179800000Y-109690000D03*
%TD*%
D33*
%TO.P,S25,1*%
%TO.N,P5*%
X211614029Y-170139559D03*
%TO.P,S25,2*%
%TO.N,thumbfan_far_thumb*%
X200383147Y-166659647D03*
%TD*%
D27*
%TO.P,LED3,1*%
%TO.N,VCC*%
X97800000Y-120125000D03*
%TO.P,LED3,2*%
%TO.N,rgb_main_outer_top*%
X97800000Y-121875000D03*
%TO.P,LED3,3*%
%TO.N,GND*%
X102200000Y-121875000D03*
%TO.P,LED3,4*%
%TO.N,rgb_main_pinky_top*%
X102200000Y-120125000D03*
%TD*%
D20*
%TO.P,D14,1*%
%TO.N,P8*%
X161500000Y-133810000D03*
D21*
X161500000Y-131650000D03*
%TO.P,D14,2*%
%TO.N,main_index_home*%
X161500000Y-128350000D03*
D22*
X161500000Y-126190000D03*
%TD*%
D27*
%TO.P,LED10,1*%
%TO.N,VCC*%
X133800000Y-121125000D03*
%TO.P,LED10,2*%
%TO.N,rgb_main_middle_bottom*%
X133800000Y-122875000D03*
%TO.P,LED10,3*%
%TO.N,GND*%
X138200000Y-122875000D03*
%TO.P,LED10,4*%
%TO.N,rgb_main_middle_home*%
X138200000Y-121125000D03*
%TD*%
%TO.P,LED19,1*%
%TO.N,VCC*%
X169800000Y-114125000D03*
%TO.P,LED19,2*%
%TO.N,rgb_main_inner_home*%
X169800000Y-115875000D03*
%TO.P,LED19,3*%
%TO.N,GND*%
X174200000Y-115875000D03*
%TO.P,LED19,4*%
%TO.N,rgb_main_inner_top*%
X174200000Y-114125000D03*
%TD*%
%TO.P,LED8,1*%
%TO.N,VCC*%
X115800000Y-91125000D03*
%TO.P,LED8,2*%
%TO.N,rgb_main_pinky_num*%
X115800000Y-92875000D03*
%TO.P,LED8,3*%
%TO.N,GND*%
X120200000Y-92875000D03*
%TO.P,LED8,4*%
%TO.N,rgb_main_ring_num*%
X120200000Y-91125000D03*
%TD*%
D17*
%TO.P,S22,1*%
%TO.N,P0*%
X85275000Y-110050000D03*
%TO.P,S22,2*%
%TO.N,outer_outer_home*%
X73725000Y-112250000D03*
%TD*%
D20*
%TO.P,D20,1*%
%TO.N,P6*%
X179800000Y-100310000D03*
D21*
X179800000Y-98150000D03*
%TO.P,D20,2*%
%TO.N,main_inner_num*%
X179800000Y-94850000D03*
D22*
X179800000Y-92690000D03*
%TD*%
D17*
%TO.P,S7,1*%
%TO.N,P2*%
X121275000Y-98050000D03*
%TO.P,S7,2*%
%TO.N,main_ring_top*%
X109725000Y-100250000D03*
%TD*%
%TO.P,S5,1*%
%TO.N,P2*%
X121275000Y-132050000D03*
%TO.P,S5,2*%
%TO.N,main_ring_bottom*%
X109725000Y-134250000D03*
%TD*%
%TO.P,S10,1*%
%TO.N,P3*%
X139275000Y-111050000D03*
%TO.P,S10,2*%
%TO.N,main_middle_home*%
X127725000Y-113250000D03*
%TD*%
D34*
%TO.P,LED25,1*%
%TO.N,VCC*%
X202049965Y-176464899D03*
%TO.P,LED25,2*%
%TO.N,N/C*%
X201228390Y-178010058D03*
%TO.P,LED25,3*%
%TO.N,GND*%
X205113359Y-180075733D03*
%TO.P,LED25,4*%
%TO.N,rgb_thumbfan_far*%
X205934934Y-178530574D03*
%TD*%
D27*
%TO.P,LED6,1*%
%TO.N,VCC*%
X115800000Y-125125000D03*
%TO.P,LED6,2*%
%TO.N,rgb_main_ring_top*%
X115800000Y-126875000D03*
%TO.P,LED6,3*%
%TO.N,GND*%
X120200000Y-126875000D03*
%TO.P,LED6,4*%
%TO.N,rgb_main_ring_home*%
X120200000Y-125125000D03*
%TD*%
D17*
%TO.P,S19,1*%
%TO.N,P5*%
X175275000Y-104050000D03*
%TO.P,S19,2*%
%TO.N,main_inner_top*%
X163725000Y-106250000D03*
%TD*%
D27*
%TO.P,LED4,1*%
%TO.N,VCC*%
X97800000Y-103125000D03*
%TO.P,LED4,2*%
%TO.N,rgb_main_pinky_top*%
X97800000Y-104875000D03*
%TO.P,LED4,3*%
%TO.N,GND*%
X102200000Y-104875000D03*
%TO.P,LED4,4*%
%TO.N,rgb_main_pinky_num*%
X102200000Y-103125000D03*
%TD*%
%TO.P,LED17,1*%
%TO.N,VCC*%
X169800000Y-148125000D03*
%TO.P,LED17,2*%
%TO.N,rgb_thumbfan_near*%
X169800000Y-149875000D03*
%TO.P,LED17,3*%
%TO.N,GND*%
X174200000Y-149875000D03*
%TO.P,LED17,4*%
%TO.N,rgb_main_inner_bottom*%
X174200000Y-148125000D03*
%TD*%
D20*
%TO.P,D7,1*%
%TO.N,P7*%
X126000000Y-110310000D03*
D21*
X126000000Y-108150000D03*
%TO.P,D7,2*%
%TO.N,main_ring_top*%
X126000000Y-104850000D03*
D22*
X126000000Y-102690000D03*
%TD*%
D20*
%TO.P,D16,1*%
%TO.N,P6*%
X161800000Y-99810000D03*
D21*
X161800000Y-97650000D03*
%TO.P,D16,2*%
%TO.N,main_index_num*%
X161800000Y-94350000D03*
D22*
X161800000Y-92190000D03*
%TD*%
D27*
%TO.P,LED16,1*%
%TO.N,VCC*%
X151800000Y-95125000D03*
%TO.P,LED16,2*%
%TO.N,rgb_main_middle_num*%
X151800000Y-96875000D03*
%TO.P,LED16,3*%
%TO.N,GND*%
X156200000Y-96875000D03*
%TO.P,LED16,4*%
%TO.N,rgb_main_index_num*%
X156200000Y-95125000D03*
%TD*%
%TO.P,LED5,1*%
%TO.N,VCC*%
X115800000Y-142125000D03*
%TO.P,LED5,2*%
%TO.N,rgb_main_ring_home*%
X115800000Y-143875000D03*
%TO.P,LED5,3*%
%TO.N,GND*%
X120200000Y-143875000D03*
%TO.P,LED5,4*%
%TO.N,rgb_main_ring_bottom*%
X120200000Y-142125000D03*
%TD*%
%TO.P,LED15,1*%
%TO.N,VCC*%
X151800000Y-112125000D03*
%TO.P,LED15,2*%
%TO.N,rgb_main_inner_top*%
X151800000Y-113875000D03*
%TO.P,LED15,3*%
%TO.N,GND*%
X156200000Y-113875000D03*
%TO.P,LED15,4*%
%TO.N,rgb_main_index_top*%
X156200000Y-112125000D03*
%TD*%
D20*
%TO.P,D11,1*%
%TO.N,P7*%
X142500000Y-109810000D03*
D21*
X142500000Y-107650000D03*
%TO.P,D11,2*%
%TO.N,main_middle_top*%
X142500000Y-104350000D03*
D22*
X142500000Y-102190000D03*
%TD*%
D17*
%TO.P,S20,1*%
%TO.N,P5*%
X175275000Y-87050000D03*
%TO.P,S20,2*%
%TO.N,main_inner_num*%
X163725000Y-89250000D03*
%TD*%
D20*
%TO.P,D15,1*%
%TO.N,P7*%
X161800000Y-116810000D03*
D21*
X161800000Y-114650000D03*
%TO.P,D15,2*%
%TO.N,main_index_top*%
X161800000Y-111350000D03*
D22*
X161800000Y-109190000D03*
%TD*%
D27*
%TO.P,LED9,1*%
%TO.N,VCC*%
X133800000Y-138125000D03*
%TO.P,LED9,2*%
%TO.N,rgb_main_index_bottom*%
X133800000Y-139875000D03*
%TO.P,LED9,3*%
%TO.N,GND*%
X138200000Y-139875000D03*
%TO.P,LED9,4*%
%TO.N,rgb_main_middle_bottom*%
X138200000Y-138125000D03*
%TD*%
%TO.P,LED18,1*%
%TO.N,VCC*%
X169800000Y-131125000D03*
%TO.P,LED18,2*%
%TO.N,rgb_main_inner_bottom*%
X169800000Y-132875000D03*
%TO.P,LED18,3*%
%TO.N,GND*%
X174200000Y-132875000D03*
%TO.P,LED18,4*%
%TO.N,rgb_main_inner_home*%
X174200000Y-131125000D03*
%TD*%
D20*
%TO.P,D12,1*%
%TO.N,P6*%
X142500000Y-93310000D03*
D21*
X142500000Y-91150000D03*
%TO.P,D12,2*%
%TO.N,main_middle_num*%
X142500000Y-87850000D03*
D22*
X142500000Y-85690000D03*
%TD*%
D20*
%TO.P,D22,1*%
%TO.N,P8*%
X89800000Y-123310000D03*
D21*
X89800000Y-121150000D03*
%TO.P,D22,2*%
%TO.N,outer_outer_home*%
X89800000Y-117850000D03*
D22*
X89800000Y-115690000D03*
%TD*%
D17*
%TO.P,S6,1*%
%TO.N,P2*%
X121275000Y-115050000D03*
%TO.P,S6,2*%
%TO.N,main_ring_home*%
X109725000Y-117250000D03*
%TD*%
D20*
%TO.P,D2,1*%
%TO.N,P8*%
X106500000Y-142810000D03*
D21*
X106500000Y-140650000D03*
%TO.P,D2,2*%
%TO.N,main_pinky_home*%
X106500000Y-137350000D03*
D22*
X106500000Y-135190000D03*
%TD*%
D35*
%TO.N,P1*%
X102624847Y-107650153D03*
X92000000Y-135324000D03*
X95561297Y-100061297D03*
X98000000Y-146500000D03*
X97500000Y-124000000D03*
X93500000Y-104000000D03*
X91987347Y-136987347D03*
X96500000Y-90500000D03*
X96500000Y-87225000D03*
X95000000Y-140000000D03*
X97500000Y-140500000D03*
X97500000Y-113500000D03*
%TO.N,P2*%
X121000000Y-96000000D03*
X117000000Y-134500000D03*
X115000000Y-96000000D03*
X123134556Y-126501000D03*
X121500000Y-79000000D03*
X121275000Y-81050000D03*
X123000000Y-109000000D03*
X121000000Y-113000000D03*
%TO.N,P3*%
X132000000Y-143500000D03*
X146175000Y-114510306D03*
X134500000Y-96500000D03*
X159000000Y-152500000D03*
X135500000Y-131000000D03*
X128000000Y-86500000D03*
X130512653Y-88012653D03*
X136000000Y-114000000D03*
X130000000Y-91449000D03*
X131225000Y-121000000D03*
X144500000Y-109000000D03*
X133500000Y-91000000D03*
X139500000Y-77000000D03*
X114000000Y-89815500D03*
%TO.N,P4*%
X151500000Y-120000000D03*
X146750000Y-92500000D03*
X151500000Y-137000000D03*
X111512653Y-88365500D03*
X159500000Y-113250000D03*
X93000000Y-74275000D03*
X146250000Y-96250000D03*
X156500000Y-106750000D03*
X164000000Y-142500000D03*
X185500000Y-157000000D03*
X102987347Y-82487347D03*
X143500000Y-83500000D03*
X159250000Y-130000000D03*
X150750000Y-85000000D03*
X167000000Y-150750000D03*
X169250000Y-153500000D03*
X159500000Y-117000000D03*
X146750000Y-90000000D03*
X156500000Y-124000000D03*
X176750000Y-156250000D03*
X167000000Y-148750000D03*
X166026013Y-146775000D03*
X158250000Y-134000000D03*
X151000000Y-102000000D03*
%TO.N,P5*%
X173918086Y-139021312D03*
X181000000Y-155000000D03*
X169500000Y-120500000D03*
X93500000Y-88000000D03*
X169500000Y-108000000D03*
X205000000Y-164000000D03*
X177000000Y-103500000D03*
X90812880Y-93187121D03*
X175500000Y-87000000D03*
X169000000Y-111400000D03*
X174500000Y-103000000D03*
X177000000Y-99500000D03*
%TO.N,P0*%
X92000000Y-122500000D03*
X79500000Y-126000000D03*
X86551000Y-127000000D03*
X85500000Y-109500000D03*
%TO.N,RAW*%
X110500000Y-77000000D03*
%TO.N,GND*%
X123275000Y-112000000D03*
X203250000Y-174000000D03*
X86000000Y-123500000D03*
X103000000Y-119000000D03*
X159000000Y-131500000D03*
X139000000Y-107250000D03*
X168000000Y-165250000D03*
X176100002Y-98500000D03*
X124863342Y-124931671D03*
X174000000Y-129000000D03*
X86000000Y-136000000D03*
X179000000Y-114000000D03*
X122082087Y-110520522D03*
X106500000Y-154000000D03*
X189750000Y-169750000D03*
X124000000Y-114000000D03*
X103566315Y-99586081D03*
X122100002Y-144000000D03*
X123500000Y-92000000D03*
X104100002Y-139000000D03*
X165000000Y-74500000D03*
X95000000Y-74500000D03*
X159000000Y-146750000D03*
X141000000Y-88000000D03*
X158500000Y-95000000D03*
X158250000Y-112250000D03*
X174000000Y-151750000D03*
X141000000Y-123000000D03*
X177000000Y-132000000D03*
X140487347Y-140987347D03*
X176551000Y-129000000D03*
X114750000Y-128500000D03*
%TO.N,RST*%
X94500000Y-75500000D03*
%TO.N,VCC*%
X148000000Y-128500000D03*
X173875000Y-169875000D03*
X132000000Y-88000000D03*
X167899998Y-149500000D03*
X96500000Y-101000000D03*
X118000000Y-146500000D03*
X133250000Y-119000000D03*
X147250000Y-148000000D03*
X165000000Y-148000000D03*
X132500000Y-141500000D03*
X115750000Y-124000000D03*
X95500000Y-154500000D03*
X149500000Y-115750000D03*
X79000000Y-119000000D03*
X149000000Y-96000000D03*
X101500000Y-123500000D03*
X120000000Y-148500000D03*
X164000000Y-115250000D03*
X113899998Y-109500000D03*
X199500000Y-176500000D03*
X113512653Y-141987347D03*
X166500000Y-97000000D03*
X113012653Y-92987347D03*
X77500000Y-137500000D03*
X158174000Y-163000000D03*
X95899998Y-138500000D03*
X167000000Y-132000000D03*
X133500000Y-103000000D03*
%TO.N,P21*%
X178000000Y-101035000D03*
X174399000Y-94500000D03*
X175000000Y-101500000D03*
%TO.N,P7*%
X101000000Y-129500000D03*
X99465554Y-130534446D03*
%TO.N,P8*%
X134500000Y-125449000D03*
X132225000Y-125625000D03*
%TO.N,main_pinky_bottom*%
X108000000Y-146500000D03*
%TO.N,main_pinky_home*%
X107601000Y-129500000D03*
X97987347Y-130987347D03*
X101000000Y-135324000D03*
X102925000Y-135324000D03*
%TO.N,main_pinky_top*%
X103474694Y-118000000D03*
X95000000Y-118000000D03*
X101475000Y-118000000D03*
X107500000Y-113000000D03*
%TO.N,main_pinky_num*%
X107500000Y-95000000D03*
%TO.N,main_ring_bottom*%
X110000000Y-135000000D03*
%TO.N,main_ring_home*%
X118500000Y-118500000D03*
X125500000Y-118000000D03*
X109725000Y-117250000D03*
%TO.N,main_ring_top*%
X117500000Y-94676000D03*
X126000000Y-100500000D03*
X125000000Y-96500000D03*
%TO.N,main_ring_num*%
X116500000Y-84000000D03*
%TO.N,main_middle_bottom*%
X128000000Y-130500000D03*
%TO.N,main_middle_home*%
X134000000Y-114500000D03*
X143500000Y-113500000D03*
%TO.N,main_middle_top*%
X144000000Y-96500000D03*
X136500000Y-97500000D03*
X139500000Y-99000000D03*
%TO.N,main_middle_num*%
X138000000Y-80000000D03*
%TO.N,main_index_bottom*%
X161500000Y-138500000D03*
%TO.N,main_index_home*%
X161500000Y-121000000D03*
%TO.N,main_index_top*%
X161500000Y-104500000D03*
%TO.N,main_inner_bottom*%
X180000000Y-141000000D03*
%TO.N,main_inner_home*%
X179500000Y-123500000D03*
%TO.N,main_inner_top*%
X180000000Y-106500000D03*
%TO.N,main_inner_num*%
X164000000Y-89500000D03*
%TO.N,outer_outer_top*%
X83475000Y-129500000D03*
X81500000Y-130500000D03*
X89500000Y-129500000D03*
%TO.N,outer_outer_home*%
X89133398Y-112516675D03*
X74000000Y-113000000D03*
%TO.N,thumbfan_near_thumb*%
X168000000Y-159500000D03*
%TO.N,thumbfan_home_thumb*%
X191500000Y-165500000D03*
%TO.N,thumbfan_far_thumb*%
X209000000Y-174000000D03*
%TO.N,rgb_main_pinky_bottom*%
X92250000Y-141500000D03*
X96000000Y-149500000D03*
X105250000Y-155000000D03*
X94387653Y-138362347D03*
X96250000Y-148048100D03*
X92250000Y-139750000D03*
%TO.N,rgb_main_ring_bottom*%
X97500000Y-152500000D03*
X119500000Y-146000000D03*
X114000000Y-147750000D03*
X101250000Y-152324000D03*
%TO.N,rgb_main_pinky_home*%
X103000000Y-140800000D03*
X93000000Y-127349998D03*
X102330521Y-133399413D03*
X77000000Y-120000000D03*
%TO.N,rgb_main_pinky_top*%
X94000000Y-105000000D03*
X94000000Y-109500000D03*
X94163823Y-101836177D03*
X108000000Y-115500000D03*
X110000000Y-114048100D03*
X100990871Y-113009152D03*
%TO.N,rgb_main_outer_top*%
X95500000Y-122000000D03*
X91000000Y-136774000D03*
X92000000Y-131500000D03*
X87000000Y-137000000D03*
%TO.N,rgb_main_pinky_num*%
X110799848Y-98149846D03*
X110000000Y-92000000D03*
X112500000Y-95000000D03*
X114012653Y-93987347D03*
X104500000Y-102000000D03*
%TO.N,rgb_main_ring_home*%
X124000003Y-126000000D03*
X121000000Y-123750000D03*
X123250000Y-129000000D03*
X115000000Y-140500000D03*
X123250000Y-124250000D03*
%TO.N,rgb_main_ring_top*%
X114487347Y-111275000D03*
X115500000Y-117250000D03*
X113899998Y-125324000D03*
X119250000Y-111676000D03*
X115000000Y-119250000D03*
%TO.N,rgb_main_middle_top*%
X112750000Y-108250000D03*
X124000000Y-107500000D03*
X115500000Y-105750000D03*
X137000000Y-107500000D03*
X123750000Y-105750000D03*
%TO.N,rgb_main_ring_num*%
X130725000Y-89012573D03*
X123775000Y-93000000D03*
%TO.N,rgb_main_middle_bottom*%
X140500000Y-142000000D03*
X131900001Y-122401696D03*
X138500000Y-130500000D03*
%TO.N,rgb_main_index_bottom*%
X159250000Y-148226000D03*
X130500000Y-141000000D03*
X148750000Y-149500000D03*
X134000000Y-143250000D03*
%TO.N,rgb_main_middle_home*%
X139000000Y-124000000D03*
X129750000Y-104250000D03*
%TO.N,rgb_main_middle_num*%
X140963000Y-89062306D03*
X147000000Y-95500000D03*
X144450347Y-92549653D03*
X145500000Y-94035000D03*
%TO.N,rgb_main_index_home*%
X151500000Y-141000000D03*
X150500000Y-143000000D03*
X156500000Y-134000000D03*
X157000000Y-132275000D03*
X153000000Y-134000000D03*
X151500000Y-145000000D03*
%TO.N,rgb_main_index_top*%
X158500509Y-113218117D03*
X149500000Y-112000000D03*
X149000000Y-130000000D03*
X147000000Y-115500000D03*
X151500000Y-121500000D03*
X151000000Y-124000000D03*
%TO.N,rgb_main_inner_top*%
X178000000Y-114000000D03*
X176409500Y-112090500D03*
X149500000Y-114500000D03*
%TO.N,rgb_main_index_num*%
X167917913Y-96400000D03*
X162012653Y-95987347D03*
X159500000Y-96000000D03*
%TO.N,rgb_main_inner_bottom*%
X177500000Y-146250000D03*
X167500000Y-130000000D03*
X178124847Y-130150153D03*
X175000000Y-153500000D03*
X178512653Y-153487347D03*
X181500000Y-130750000D03*
X177250000Y-148000000D03*
X176987347Y-154012653D03*
%TO.N,rgb_thumbfan_near*%
X171000000Y-151775000D03*
X167000000Y-166000000D03*
X162000000Y-152449000D03*
X159500000Y-150000000D03*
X173500000Y-157000000D03*
X160450999Y-147285191D03*
%TO.N,rgb_main_inner_home*%
X174500000Y-126000000D03*
X178000000Y-131500000D03*
X178000000Y-131500000D03*
X177500000Y-135035000D03*
X166000000Y-117000000D03*
X169500000Y-123500000D03*
X166000000Y-115500000D03*
X174500000Y-135035000D03*
%TO.N,rgb_main_outer_home*%
X84000000Y-123998000D03*
X80000000Y-135500000D03*
%TO.N,rgb_thumbfan_home*%
X171500000Y-169331315D03*
X157512653Y-165987347D03*
X162000000Y-168500000D03*
X188000000Y-170500000D03*
%TO.N,rgb_thumbfan_far*%
X207022730Y-177496838D03*
X178500000Y-169116966D03*
%TO.N,pos*%
X112250000Y-76735000D03*
X165500000Y-76500000D03*
%TD*%
D36*
%TO.N,P1*%
X97500000Y-113500000D02*
X95617549Y-115382451D01*
X100825000Y-146500000D02*
X98000000Y-146500000D01*
X97500000Y-90500000D02*
X98000000Y-90000000D01*
X103275000Y-144050000D02*
X100825000Y-146500000D01*
X92000000Y-135324000D02*
X92000000Y-137000000D01*
X98000000Y-90000000D02*
X100225000Y-90000000D01*
X96500000Y-90500000D02*
X96500000Y-87225000D01*
X100225000Y-90000000D02*
X103275000Y-93050000D01*
X95500000Y-116735099D02*
X95500000Y-117473280D01*
X102624847Y-107650153D02*
X102624847Y-109399847D01*
X93500000Y-104000000D02*
X95561297Y-101938703D01*
X95617549Y-115382451D02*
X95726900Y-115491801D01*
X101399000Y-125174000D02*
X103275000Y-127050000D01*
X95500000Y-140500000D02*
X97500000Y-140500000D01*
X92000000Y-137000000D02*
X91987347Y-136987347D01*
X97473000Y-124000000D02*
X98647000Y-125174000D01*
X76950000Y-77500000D02*
X78325000Y-77500000D01*
X95000000Y-124000000D02*
X97473000Y-124000000D01*
X95300720Y-118726000D02*
X94774000Y-118726000D01*
X95726900Y-115491801D02*
X95726900Y-116508199D01*
X94774000Y-118726000D02*
X93500000Y-120000000D01*
X96500000Y-90500000D02*
X97500000Y-90500000D01*
X98647000Y-125174000D02*
X101399000Y-125174000D01*
X93500000Y-120000000D02*
X93500000Y-122500000D01*
X95561297Y-101938703D02*
X95561297Y-100061297D01*
X102624847Y-109399847D02*
X103275000Y-110050000D01*
X95000000Y-140000000D02*
X95500000Y-140500000D01*
X93500000Y-122500000D02*
X95000000Y-124000000D01*
X95726900Y-116508199D02*
X95500000Y-116735099D01*
X95500000Y-117473280D02*
X95726000Y-117699280D01*
X95726000Y-118300720D02*
X95300720Y-118726000D01*
X95726000Y-117699280D02*
X95726000Y-118300720D01*
%TO.N,P2*%
X112021794Y-90021794D02*
X120993587Y-81050000D01*
X78290000Y-89000000D02*
X76950000Y-87660000D01*
X120993587Y-81050000D02*
X121275000Y-81050000D01*
X118825000Y-134500000D02*
X117000000Y-134500000D01*
X122250000Y-125296200D02*
X122273100Y-125273100D01*
X121500000Y-79000000D02*
X121500000Y-80825000D01*
X121000000Y-97775000D02*
X121275000Y-98050000D01*
X121275000Y-132050000D02*
X118825000Y-134500000D01*
X112000000Y-93000000D02*
X112000000Y-90043587D01*
X112021794Y-90021794D02*
X108500000Y-86500000D01*
X121000000Y-96000000D02*
X121000000Y-97775000D01*
X122273100Y-102176165D02*
X121124000Y-101027065D01*
X89668116Y-89000000D02*
X78290000Y-89000000D01*
X123000000Y-109000000D02*
X122273100Y-108273100D01*
X76950000Y-87660000D02*
X78325000Y-87660000D01*
X123134556Y-126501000D02*
X122250000Y-125616444D01*
X122273100Y-119176165D02*
X120000000Y-116903065D01*
X112000000Y-90043587D02*
X112021794Y-90021794D01*
X121000000Y-114775000D02*
X121275000Y-115050000D01*
X108500000Y-86500000D02*
X92168116Y-86500000D01*
X122273100Y-125273100D02*
X122273100Y-119176165D01*
X121124000Y-101027065D02*
X121124000Y-98201000D01*
X120000000Y-116325000D02*
X121275000Y-115050000D01*
X122273100Y-108273100D02*
X122273100Y-102176165D01*
X121124000Y-98201000D02*
X121275000Y-98050000D01*
X92168116Y-86500000D02*
X89668116Y-89000000D01*
X121500000Y-80825000D02*
X121275000Y-81050000D01*
X115000000Y-96000000D02*
X112000000Y-93000000D01*
X122250000Y-125616444D02*
X122250000Y-125296200D01*
X120000000Y-116903065D02*
X120000000Y-116325000D01*
X121000000Y-113000000D02*
X121000000Y-114775000D01*
%TO.N,P3*%
X128000000Y-86381927D02*
X126529573Y-84911500D01*
X122183313Y-85773100D02*
X118140913Y-89815500D01*
X160000000Y-153500000D02*
X159000000Y-152500000D01*
X163725000Y-153500000D02*
X163103065Y-153500000D01*
X163103065Y-153500000D02*
X162777065Y-153174000D01*
X128000000Y-86500000D02*
X128000000Y-86381927D01*
X161222935Y-153174000D02*
X160896935Y-153500000D01*
X144500000Y-109000000D02*
X144500000Y-107926000D01*
X142714694Y-111050000D02*
X146175000Y-114510306D01*
X162777065Y-153174000D02*
X161222935Y-153174000D01*
X138090500Y-95234500D02*
X139275000Y-94050000D01*
X123226900Y-85773100D02*
X122183313Y-85773100D01*
X131000000Y-141526720D02*
X131226000Y-141300720D01*
X131500000Y-120725000D02*
X131500000Y-118500000D01*
X128000000Y-86500000D02*
X129000000Y-87500000D01*
X160896935Y-153500000D02*
X160000000Y-153500000D01*
X132000000Y-143500000D02*
X131000000Y-142500000D01*
X138653065Y-128050000D02*
X139275000Y-128050000D01*
X130000000Y-87500000D02*
X130512653Y-88012653D01*
X118140913Y-89815500D02*
X114000000Y-89815500D01*
X138090500Y-101516500D02*
X138090500Y-95234500D01*
X131225000Y-121000000D02*
X131500000Y-120725000D01*
X131000000Y-140473280D02*
X131000000Y-135703065D01*
X136825000Y-96500000D02*
X134500000Y-96500000D01*
X131226000Y-141300720D02*
X131226000Y-140699280D01*
X144500000Y-107926000D02*
X138090500Y-101516500D01*
X76950000Y-90200000D02*
X78325000Y-90200000D01*
X138950000Y-111050000D02*
X139275000Y-111050000D01*
X131000000Y-142500000D02*
X131000000Y-141526720D01*
X126529573Y-84911500D02*
X124088500Y-84911500D01*
X129000000Y-87500000D02*
X130000000Y-87500000D01*
X133051000Y-91449000D02*
X133500000Y-91000000D01*
X131000000Y-135703065D02*
X138653065Y-128050000D01*
X131226000Y-140699280D02*
X131000000Y-140473280D01*
X139275000Y-111050000D02*
X142714694Y-111050000D01*
X165275000Y-155050000D02*
X163725000Y-153500000D01*
X124088500Y-84911500D02*
X123226900Y-85773100D01*
X130000000Y-91449000D02*
X133051000Y-91449000D01*
X139275000Y-94050000D02*
X136825000Y-96500000D01*
X131500000Y-118500000D02*
X138950000Y-111050000D01*
%TO.N,P4*%
X76950000Y-92740000D02*
X76950000Y-93050000D01*
X164000000Y-145250000D02*
X164000000Y-142500000D01*
X146250000Y-97250000D02*
X146250000Y-96250000D01*
X152426000Y-137926000D02*
X151500000Y-137000000D01*
X176750000Y-156250000D02*
X172000000Y-156250000D01*
X157275000Y-134975000D02*
X158250000Y-134000000D01*
X167000000Y-150750000D02*
X167000000Y-148750000D01*
X76084000Y-93916000D02*
X73416000Y-93916000D01*
X190147192Y-160501939D02*
X190147192Y-159135038D01*
X143500000Y-83500000D02*
X149250000Y-83500000D01*
X152426000Y-120926000D02*
X151500000Y-120000000D01*
X159500000Y-113250000D02*
X159500000Y-109750000D01*
X72929000Y-93429000D02*
X72929000Y-82092884D01*
X188012154Y-157000000D02*
X185500000Y-157000000D01*
X73416000Y-93916000D02*
X72929000Y-93429000D01*
X155399000Y-83174000D02*
X152576000Y-83174000D01*
X190147192Y-159135038D02*
X188012154Y-157000000D01*
X159250000Y-130000000D02*
X159250000Y-126750000D01*
X151000000Y-102000000D02*
X146250000Y-97250000D01*
X166026013Y-146775000D02*
X165525000Y-146775000D01*
X149250000Y-83500000D02*
X150750000Y-85000000D01*
X157275000Y-102050000D02*
X155399000Y-100174000D01*
X159250000Y-126750000D02*
X156500000Y-124000000D01*
X155399000Y-100174000D02*
X152826000Y-100174000D01*
X93000000Y-74000000D02*
X93000000Y-74275000D01*
X105634500Y-82487347D02*
X111512653Y-88365500D01*
X146750000Y-92500000D02*
X146750000Y-90000000D01*
X102987347Y-82487347D02*
X105634500Y-82487347D01*
X155399000Y-120926000D02*
X152426000Y-120926000D01*
X157275000Y-136050000D02*
X155399000Y-137926000D01*
X85391720Y-74000000D02*
X93000000Y-74000000D01*
X76950000Y-92740000D02*
X78325000Y-92740000D01*
X159500000Y-109750000D02*
X156500000Y-106750000D01*
X155399000Y-137926000D02*
X152426000Y-137926000D01*
X157275000Y-85050000D02*
X155399000Y-83174000D01*
X157275000Y-136050000D02*
X157275000Y-134975000D01*
X159325000Y-117000000D02*
X159500000Y-117000000D01*
X165525000Y-146775000D02*
X164000000Y-145250000D01*
X73617884Y-81404000D02*
X77987720Y-81404000D01*
X77987720Y-81404000D02*
X85391720Y-74000000D01*
X152826000Y-100174000D02*
X151000000Y-102000000D01*
X72929000Y-82092884D02*
X73617884Y-81404000D01*
X152576000Y-83174000D02*
X150750000Y-85000000D01*
X76950000Y-93050000D02*
X76084000Y-93916000D01*
X172000000Y-156250000D02*
X169250000Y-153500000D01*
X157275000Y-119050000D02*
X155399000Y-120926000D01*
X157275000Y-119050000D02*
X159325000Y-117000000D01*
%TO.N,P5*%
X180500000Y-128074000D02*
X180726000Y-128074000D01*
X180726000Y-129626000D02*
X180500000Y-129626000D01*
X170826000Y-119174000D02*
X173399000Y-119174000D01*
X180500000Y-123473280D02*
X180500000Y-125581927D01*
X181078500Y-126160427D02*
X181078500Y-127219573D01*
X197000000Y-164000000D02*
X188965885Y-155965885D01*
X180500000Y-135525000D02*
X180500000Y-136040000D01*
X181015000Y-133095000D02*
X181015000Y-135525000D01*
X180726000Y-128074000D02*
X180726000Y-129626000D01*
X180500000Y-133095000D02*
X181015000Y-133095000D01*
X173399000Y-119174000D02*
X175275000Y-121050000D01*
X175124000Y-95597000D02*
X177000000Y-97473000D01*
X205000000Y-164000000D02*
X197000000Y-164000000D01*
X175275000Y-121050000D02*
X178076720Y-121050000D01*
X205000000Y-164000000D02*
X206773401Y-164000000D01*
X180500000Y-131374000D02*
X180726000Y-131374000D01*
X181078500Y-127219573D02*
X180500000Y-127798073D01*
X93500000Y-88000000D02*
X93500000Y-90500001D01*
X76950000Y-95280000D02*
X78325000Y-95280000D01*
X206773401Y-164000000D02*
X211614029Y-168840628D01*
X180500000Y-125581927D02*
X181078500Y-126160427D01*
X179401000Y-113049000D02*
X181015000Y-114663000D01*
X175275000Y-104050000D02*
X171866500Y-107458500D01*
X178490000Y-121050000D02*
X175275000Y-121050000D01*
X180500000Y-132926000D02*
X180500000Y-133095000D01*
X180726000Y-131374000D02*
X180726000Y-132926000D01*
X170041500Y-107458500D02*
X169500000Y-108000000D01*
X174303688Y-139021312D02*
X175275000Y-138050000D01*
X180726000Y-132926000D02*
X180500000Y-132926000D01*
X178076720Y-121050000D02*
X180500000Y-123473280D01*
X170649000Y-113049000D02*
X179401000Y-113049000D01*
X175500000Y-87000000D02*
X175124000Y-87376000D01*
X177000000Y-103500000D02*
X175825000Y-103500000D01*
X181015000Y-118525000D02*
X178490000Y-121050000D01*
X169500000Y-120500000D02*
X170826000Y-119174000D01*
X175825000Y-103500000D02*
X175275000Y-104050000D01*
X185993198Y-155000000D02*
X181000000Y-155000000D01*
X180500000Y-127798073D02*
X180500000Y-128074000D01*
X180500000Y-136040000D02*
X178490000Y-138050000D01*
X93500000Y-90500001D02*
X90812880Y-93187121D01*
X178490000Y-138050000D02*
X175275000Y-138050000D01*
X211614029Y-168840628D02*
X211614029Y-170139559D01*
X188965885Y-155965885D02*
X185993198Y-155000000D01*
X173918086Y-139021312D02*
X174303688Y-139021312D01*
X181015000Y-114663000D02*
X181015000Y-118525000D01*
X175124000Y-87376000D02*
X175124000Y-95597000D01*
X181015000Y-135525000D02*
X180500000Y-135525000D01*
X169000000Y-111400000D02*
X170649000Y-113049000D01*
X171866500Y-107458500D02*
X170041500Y-107458500D01*
X177000000Y-97473000D02*
X177000000Y-99500000D01*
X180500000Y-129626000D02*
X180500000Y-131374000D01*
%TO.N,P0*%
X84725000Y-125174000D02*
X80326000Y-125174000D01*
X86551000Y-127000000D02*
X84725000Y-125174000D01*
X87143443Y-109500000D02*
X89859398Y-112215955D01*
X76950000Y-80040000D02*
X78325000Y-80040000D01*
X85500000Y-109500000D02*
X87143443Y-109500000D01*
X80326000Y-125174000D02*
X79500000Y-126000000D01*
X89859398Y-112215955D02*
X89859398Y-113941325D01*
X89859398Y-113941325D02*
X92000000Y-116081927D01*
X92000000Y-116081927D02*
X92000000Y-122500000D01*
%TO.N,RAW*%
X86301000Y-76324000D02*
X93000000Y-76324000D01*
X93000000Y-76324000D02*
X95176000Y-78500000D01*
X95176000Y-78500000D02*
X96220000Y-78500000D01*
X109992500Y-77492500D02*
X110750000Y-76735000D01*
X85125000Y-77500000D02*
X86301000Y-76324000D01*
X109674000Y-77811000D02*
X109992500Y-77492500D01*
X86500000Y-77500000D02*
X85125000Y-77500000D01*
X110500000Y-77000000D02*
X110007500Y-77492500D01*
X96220000Y-78500000D02*
X96909000Y-77811000D01*
X96909000Y-77811000D02*
X109674000Y-77811000D01*
X110007500Y-77492500D02*
X109992500Y-77492500D01*
%TO.N,GND*%
X86000000Y-136000000D02*
X86000000Y-137875000D01*
X140125000Y-88875000D02*
X141000000Y-88000000D01*
X179000000Y-114026720D02*
X179000000Y-114000000D01*
X186054690Y-172000000D02*
X189000000Y-172000000D01*
X94199280Y-74774000D02*
X93973280Y-75000000D01*
X157549000Y-112951000D02*
X156625000Y-113875000D01*
X86500000Y-80040000D02*
X85125000Y-80040000D01*
X140875000Y-122875000D02*
X141000000Y-123000000D01*
X102576000Y-74601000D02*
X102500000Y-74525000D01*
X206815692Y-180075733D02*
X205113359Y-180075733D01*
X111157860Y-74149000D02*
X110705860Y-74601000D01*
X103826000Y-119299000D02*
X103527000Y-119000000D01*
X203250000Y-174000000D02*
X203250000Y-173578185D01*
X174200000Y-115875000D02*
X177151720Y-115875000D01*
X102274000Y-74751000D02*
X97476000Y-74751000D01*
X84200000Y-121875000D02*
X84375000Y-121875000D01*
X208056095Y-178835330D02*
X206815692Y-180075733D01*
X139375000Y-139875000D02*
X140487347Y-140987347D01*
X205063107Y-171765078D02*
X206794933Y-171765078D01*
X105500000Y-102500000D02*
X105500000Y-101998073D01*
X115326000Y-74632860D02*
X114842140Y-74149000D01*
X120200000Y-126875000D02*
X120551000Y-127226000D01*
X176125000Y-132875000D02*
X177000000Y-132000000D01*
X94475000Y-74525000D02*
X94226000Y-74774000D01*
X76950000Y-85120000D02*
X78325000Y-85120000D01*
X156200000Y-96875000D02*
X157000000Y-96875000D01*
X103500000Y-99519766D02*
X103566315Y-99586081D01*
X103500000Y-99500000D02*
X103500000Y-99519766D01*
X138200000Y-105875000D02*
X138200000Y-106450000D01*
X103826000Y-120951000D02*
X103826000Y-119299000D01*
X176551000Y-129000000D02*
X174000000Y-129000000D01*
X157826000Y-112951000D02*
X157549000Y-112951000D01*
X114842140Y-74149000D02*
X111157860Y-74149000D01*
X138200000Y-139875000D02*
X139375000Y-139875000D01*
X189000000Y-172000000D02*
X189750000Y-171250000D01*
X164200000Y-166875000D02*
X168000000Y-166875000D01*
X94226000Y-74774000D02*
X94199280Y-74774000D01*
X85000000Y-138875000D02*
X84200000Y-138875000D01*
X174000000Y-150900000D02*
X174200000Y-150700000D01*
X168000000Y-166875000D02*
X168000000Y-165250000D01*
X125000000Y-125000000D02*
X124931671Y-125000000D01*
X156200000Y-130875000D02*
X158375000Y-130875000D01*
X157875000Y-147875000D02*
X156200000Y-147875000D01*
X105221500Y-101719573D02*
X105221500Y-101221500D01*
X121436565Y-109875000D02*
X122082087Y-110520522D01*
X102200000Y-121875000D02*
X102902000Y-121875000D01*
X102200000Y-155875000D02*
X105401720Y-155875000D01*
X123352000Y-113352000D02*
X124000000Y-114000000D01*
X138200000Y-122875000D02*
X140875000Y-122875000D01*
X157000000Y-96875000D02*
X158500000Y-95375000D01*
X103125000Y-104875000D02*
X105500000Y-102500000D01*
X123352000Y-112077000D02*
X123352000Y-113352000D01*
X78380470Y-82580000D02*
X76950000Y-82580000D01*
X85960470Y-75000000D02*
X78380470Y-82580000D01*
X158375000Y-130875000D02*
X159000000Y-131500000D01*
X97476000Y-74751000D02*
X97250000Y-74525000D01*
X158250000Y-112250000D02*
X157826000Y-112674000D01*
X102200000Y-138875000D02*
X103975002Y-138875000D01*
X156625000Y-113875000D02*
X156200000Y-113875000D01*
X203250000Y-173578185D02*
X205063107Y-171765078D01*
X86000000Y-137875000D02*
X85000000Y-138875000D01*
X174000000Y-151750000D02*
X174000000Y-150900000D01*
X138200000Y-88875000D02*
X140125000Y-88875000D01*
X124931671Y-125000000D02*
X124863342Y-124931671D01*
X120200000Y-143875000D02*
X121975002Y-143875000D01*
X93973280Y-75000000D02*
X85960470Y-75000000D01*
X102902000Y-121875000D02*
X103826000Y-120951000D01*
X189750000Y-171250000D02*
X189750000Y-169750000D01*
X208056095Y-173026240D02*
X208056095Y-178835330D01*
X120200000Y-92875000D02*
X122625000Y-92875000D01*
X157826000Y-112674000D02*
X157826000Y-112951000D01*
X174200000Y-150700000D02*
X174200000Y-149875000D01*
X120200000Y-126875000D02*
X120200000Y-127625000D01*
X158500000Y-95375000D02*
X158500000Y-95000000D01*
X120200000Y-127625000D02*
X119325000Y-128500000D01*
X125000000Y-126026723D02*
X125000000Y-125000000D01*
X84375000Y-121875000D02*
X86000000Y-123500000D01*
X159000000Y-146750000D02*
X157875000Y-147875000D01*
X123800723Y-127226000D02*
X125000000Y-126026723D01*
X185470680Y-171415990D02*
X186054690Y-172000000D01*
X110705860Y-74601000D02*
X102576000Y-74601000D01*
X120551000Y-127226000D02*
X123800723Y-127226000D01*
X103975002Y-138875000D02*
X104100002Y-139000000D01*
X165632860Y-74632860D02*
X115326000Y-74632860D01*
X103527000Y-119000000D02*
X103000000Y-119000000D01*
X175725002Y-98875000D02*
X176100002Y-98500000D01*
X97250000Y-74525000D02*
X94475000Y-74525000D01*
X174200000Y-98875000D02*
X175725002Y-98875000D01*
X167500000Y-76500000D02*
X165632860Y-74632860D01*
X206794933Y-171765078D02*
X208056095Y-173026240D01*
X105500000Y-101998073D02*
X105221500Y-101719573D01*
X123275000Y-112000000D02*
X123352000Y-112077000D01*
X105401720Y-155875000D02*
X106500000Y-154776720D01*
X102500000Y-74525000D02*
X102274000Y-74751000D01*
X121975002Y-143875000D02*
X122100002Y-144000000D01*
X76950000Y-82580000D02*
X78325000Y-82580000D01*
X174200000Y-132875000D02*
X176125000Y-132875000D01*
X105221500Y-101221500D02*
X103500000Y-99500000D01*
X138200000Y-106450000D02*
X139000000Y-107250000D01*
X120200000Y-109875000D02*
X121436565Y-109875000D01*
X119325000Y-128500000D02*
X114750000Y-128500000D01*
X177151720Y-115875000D02*
X179000000Y-114026720D01*
X102200000Y-104875000D02*
X103125000Y-104875000D01*
X122625000Y-92875000D02*
X123500000Y-92000000D01*
X106500000Y-154776720D02*
X106500000Y-154000000D01*
%TO.N,RST*%
X85725280Y-75873000D02*
X84399000Y-77199280D01*
X102500000Y-76225000D02*
X102274000Y-75999000D01*
X84399000Y-77199280D02*
X84399000Y-81854000D01*
X84399000Y-81854000D02*
X85125000Y-82580000D01*
X86098280Y-75500000D02*
X85725280Y-75873000D01*
X86500000Y-82580000D02*
X85125000Y-82580000D01*
X97476000Y-75999000D02*
X97250000Y-76225000D01*
X102500000Y-76225000D02*
X102148000Y-75873000D01*
X97250000Y-76225000D02*
X96525000Y-75500000D01*
X96525000Y-75500000D02*
X86098280Y-75500000D01*
X102274000Y-75999000D02*
X97476000Y-75999000D01*
%TO.N,VCC*%
X169675000Y-148000000D02*
X165000000Y-148000000D01*
X115800000Y-108125000D02*
X115274998Y-108125000D01*
X97000000Y-137125000D02*
X97800000Y-137125000D01*
X150125000Y-113000000D02*
X149500000Y-113000000D01*
X158174000Y-163674000D02*
X159625000Y-165125000D01*
X96500000Y-101000000D02*
X96500000Y-102000000D01*
X167875000Y-131125000D02*
X167000000Y-132000000D01*
X181826812Y-168391966D02*
X175358034Y-168391966D01*
X151000000Y-112125000D02*
X150125000Y-113000000D01*
X118000000Y-146500000D02*
X120000000Y-148500000D01*
X169800000Y-148125000D02*
X169675000Y-148000000D01*
X115800000Y-91125000D02*
X114875000Y-91125000D01*
X132875000Y-87125000D02*
X132000000Y-88000000D01*
X199535101Y-176464899D02*
X199500000Y-176500000D01*
X149500000Y-113000000D02*
X148000000Y-114500000D01*
X95899998Y-138500000D02*
X96000000Y-138600002D01*
X134049000Y-119799000D02*
X133250000Y-119000000D01*
X79800000Y-120125000D02*
X79800000Y-119800000D01*
X169800000Y-114125000D02*
X169600000Y-114325000D01*
X133800000Y-104125000D02*
X133800000Y-103300000D01*
X96500000Y-102000000D02*
X97625000Y-103125000D01*
X133800000Y-87125000D02*
X132875000Y-87125000D01*
X96000000Y-138399998D02*
X96000000Y-138125000D01*
X148250000Y-114500000D02*
X149500000Y-115750000D01*
X97625000Y-103125000D02*
X97800000Y-103125000D01*
X95747280Y-123274000D02*
X101274000Y-123274000D01*
X151800000Y-146125000D02*
X149125000Y-146125000D01*
X133800000Y-138125000D02*
X133098000Y-138125000D01*
X79800000Y-137125000D02*
X77875000Y-137125000D01*
X159625000Y-165125000D02*
X159800000Y-165125000D01*
X134049000Y-120876000D02*
X134049000Y-119799000D01*
X175358034Y-168391966D02*
X173750000Y-170000000D01*
X151175000Y-128500000D02*
X148000000Y-128500000D01*
X97800000Y-120125000D02*
X96250000Y-120125000D01*
X86500000Y-85120000D02*
X85125000Y-85120000D01*
X166625000Y-97125000D02*
X166500000Y-97000000D01*
X115800000Y-142125000D02*
X113650306Y-142125000D01*
X169800000Y-148125000D02*
X169274998Y-148125000D01*
X97800000Y-154125000D02*
X95875000Y-154125000D01*
X114875000Y-91125000D02*
X113012653Y-92987347D01*
X148000000Y-114500000D02*
X148250000Y-114500000D01*
X151800000Y-95125000D02*
X149875000Y-95125000D01*
X202049965Y-176464899D02*
X199535101Y-176464899D01*
X133098000Y-138125000D02*
X132174000Y-139049000D01*
X164925000Y-114325000D02*
X164000000Y-115250000D01*
X115274998Y-108125000D02*
X113899998Y-109500000D01*
X132174000Y-141174000D02*
X132500000Y-141500000D01*
X94774000Y-122300720D02*
X95747280Y-123274000D01*
X169600000Y-114325000D02*
X164925000Y-114325000D01*
X133800000Y-103300000D02*
X133500000Y-103000000D01*
X113650306Y-142125000D02*
X113512653Y-141987347D01*
X96000000Y-138125000D02*
X97000000Y-137125000D01*
X132174000Y-139049000D02*
X132174000Y-141174000D01*
X169800000Y-97125000D02*
X166625000Y-97125000D01*
X101274000Y-123274000D02*
X101500000Y-123500000D01*
X115800000Y-124050000D02*
X115750000Y-124000000D01*
X149875000Y-95125000D02*
X149000000Y-96000000D01*
X79800000Y-119800000D02*
X79000000Y-119000000D01*
X169274998Y-148125000D02*
X167899998Y-149500000D01*
X133800000Y-121125000D02*
X134049000Y-120876000D01*
X95875000Y-154125000D02*
X95500000Y-154500000D01*
X96250000Y-120125000D02*
X94774000Y-121601000D01*
X115800000Y-125125000D02*
X115800000Y-124050000D01*
X168875000Y-131125000D02*
X168625000Y-131375000D01*
X149125000Y-146125000D02*
X147250000Y-148000000D01*
X169800000Y-131125000D02*
X168875000Y-131125000D01*
X151800000Y-112125000D02*
X151000000Y-112125000D01*
X94774000Y-121601000D02*
X94774000Y-122300720D01*
X158174000Y-163000000D02*
X158174000Y-163674000D01*
X77875000Y-137125000D02*
X77500000Y-137500000D01*
X151800000Y-129125000D02*
X151175000Y-128500000D01*
X169800000Y-131125000D02*
X167875000Y-131125000D01*
X95899998Y-138500000D02*
X96000000Y-138399998D01*
%TO.N,P21*%
X86500000Y-87660000D02*
X85125000Y-87660000D01*
X174200000Y-94000000D02*
X174200000Y-92243587D01*
X124652720Y-81126000D02*
X122526720Y-79000000D01*
X122526720Y-79000000D02*
X122226000Y-79000000D01*
X89644116Y-86484000D02*
X87046000Y-86484000D01*
X86500000Y-87030000D02*
X86500000Y-87660000D01*
X120774000Y-78699280D02*
X120774000Y-79000000D01*
X131993565Y-80909500D02*
X131777065Y-81126000D01*
X122226000Y-78699280D02*
X121800720Y-78274000D01*
X137082413Y-81126000D02*
X136865913Y-80909500D01*
X121800720Y-78274000D02*
X121199280Y-78274000D01*
X174200000Y-97125000D02*
X174200000Y-94000000D01*
X122226000Y-79000000D02*
X122226000Y-78699280D01*
X175000000Y-101500000D02*
X177535000Y-101500000D01*
X174399000Y-94500000D02*
X174399000Y-94199000D01*
X136865913Y-80909500D02*
X131993565Y-80909500D01*
X174200000Y-92243587D02*
X163082413Y-81126000D01*
X87046000Y-86484000D02*
X86500000Y-87030000D01*
X163082413Y-81126000D02*
X137082413Y-81126000D01*
X120774000Y-79000000D02*
X97128116Y-79000000D01*
X131777065Y-81126000D02*
X124652720Y-81126000D01*
X177535000Y-101500000D02*
X178000000Y-101035000D01*
X121199280Y-78274000D02*
X120774000Y-78699280D01*
X97128116Y-79000000D02*
X89644116Y-86484000D01*
X174399000Y-94199000D02*
X174200000Y-94000000D01*
%TO.N,P20*%
X86500000Y-90200000D02*
X85125000Y-90200000D01*
%TO.N,P19*%
X86500000Y-92740000D02*
X85125000Y-92740000D01*
%TO.N,P18*%
X86500000Y-95280000D02*
X85125000Y-95280000D01*
%TO.N,P15*%
X86500000Y-97820000D02*
X85125000Y-97820000D01*
%TO.N,P14*%
X86500000Y-100360000D02*
X85125000Y-100360000D01*
%TO.N,P16*%
X86500000Y-102900000D02*
X85125000Y-102900000D01*
%TO.N,P10*%
X133013360Y-125513360D02*
X133013360Y-125386640D01*
X141574000Y-140126000D02*
X141574000Y-140022000D01*
X113500000Y-112000000D02*
X112503000Y-111003000D01*
X175500000Y-158740000D02*
X181715000Y-152525000D01*
X209384174Y-183078696D02*
X210398233Y-182064637D01*
X168174000Y-147500000D02*
X165526720Y-147500000D01*
X164473280Y-147500000D02*
X162150000Y-147500000D01*
X181715000Y-148663000D02*
X181750000Y-148628000D01*
X169800000Y-168310000D02*
X169800000Y-166150000D01*
X169800000Y-169094935D02*
X169800000Y-168310000D01*
X141500000Y-139948000D02*
X141500000Y-137998073D01*
X145642500Y-144090500D02*
X141678000Y-140126000D01*
X141500000Y-137998073D02*
X141221500Y-137719573D01*
X196054820Y-174511251D02*
X205515372Y-183971803D01*
X165300720Y-147274000D02*
X164699280Y-147274000D01*
X133674000Y-126174000D02*
X133013360Y-125513360D01*
X122901000Y-113424000D02*
X120428000Y-110951000D01*
X141777065Y-132126000D02*
X142876000Y-131027065D01*
X125800720Y-117274000D02*
X125199280Y-117274000D01*
X173951000Y-147299000D02*
X173951000Y-147166743D01*
X140901000Y-127497935D02*
X140901000Y-126424000D01*
X86500000Y-105558107D02*
X86500000Y-105440000D01*
X105000000Y-107500000D02*
X103500000Y-107500000D01*
X126451000Y-118911500D02*
X126451000Y-118313190D01*
X116049000Y-110951000D02*
X115000000Y-112000000D01*
X140222935Y-135222935D02*
X140222935Y-132126000D01*
X176723280Y-147500000D02*
X175826000Y-147500000D01*
X177550720Y-147274000D02*
X176949280Y-147274000D01*
X162150000Y-147500000D02*
X158740500Y-144090500D01*
X140222935Y-132126000D02*
X141777065Y-132126000D01*
X176949280Y-147274000D02*
X176723280Y-147500000D01*
X190353157Y-173124446D02*
X191020634Y-172456969D01*
X175826000Y-147299000D02*
X173951000Y-147299000D01*
X124876000Y-117376000D02*
X124876000Y-116472935D01*
X141221500Y-137719573D02*
X141221500Y-136660427D01*
X190353157Y-174511251D02*
X196054820Y-174511251D01*
X173951000Y-147166743D02*
X173833257Y-147049000D01*
X141221500Y-136660427D02*
X141440963Y-136440963D01*
X190353157Y-174511251D02*
X190353157Y-173124446D01*
X126226000Y-117699280D02*
X125800720Y-117274000D01*
X87557893Y-106616000D02*
X86500000Y-105558107D01*
X205515372Y-183971803D02*
X209384174Y-183971803D01*
X142876000Y-129472935D02*
X140901000Y-127497935D01*
X122901000Y-115374000D02*
X122901000Y-113424000D01*
X164699280Y-147274000D02*
X164473280Y-147500000D01*
X107715000Y-110000000D02*
X107715000Y-110025000D01*
X126451000Y-118313190D02*
X126226000Y-118088190D01*
X181715000Y-152525000D02*
X181715000Y-148663000D01*
X127278500Y-119660427D02*
X126529573Y-118911500D01*
X141574000Y-140022000D02*
X141500000Y-139948000D01*
X175500000Y-164500000D02*
X175500000Y-158740000D01*
X209384174Y-183971803D02*
X209384174Y-183078696D01*
X190353157Y-174511251D02*
X183916618Y-174511251D01*
X158740500Y-144090500D02*
X145642500Y-144090500D01*
X103500000Y-107500000D02*
X102616000Y-106616000D01*
X124986640Y-117486640D02*
X124876000Y-117376000D01*
X107715000Y-110025000D02*
X105000000Y-110025000D01*
X131986640Y-124486640D02*
X127278500Y-119778500D01*
X171028815Y-170323750D02*
X169800000Y-169094935D01*
X177776720Y-147500000D02*
X177550720Y-147274000D01*
X173833257Y-147049000D02*
X170166743Y-147049000D01*
X133013360Y-125386640D02*
X132113360Y-124486640D01*
X141678000Y-140126000D02*
X141574000Y-140126000D01*
X141440963Y-136440963D02*
X140222935Y-135222935D01*
X170166743Y-147049000D02*
X170049000Y-147166743D01*
X183916618Y-174511251D02*
X171028815Y-170323750D01*
X123777065Y-115374000D02*
X122901000Y-115374000D01*
X170049000Y-147299000D02*
X168174000Y-147299000D01*
X142876000Y-131027065D02*
X142876000Y-129472935D01*
X112503000Y-110951000D02*
X111552000Y-110000000D01*
X120428000Y-110951000D02*
X116049000Y-110951000D01*
X111552000Y-110000000D02*
X107715000Y-110000000D01*
X112503000Y-111003000D02*
X112503000Y-110951000D01*
X175826000Y-147500000D02*
X175826000Y-147299000D01*
X105000000Y-110025000D02*
X105000000Y-107500000D01*
X125199280Y-117274000D02*
X124986640Y-117486640D01*
X126226000Y-118088190D02*
X126226000Y-117699280D01*
X170049000Y-147166743D02*
X170049000Y-147299000D01*
X86500000Y-105440000D02*
X85125000Y-105440000D01*
X181750000Y-147500000D02*
X177776720Y-147500000D01*
X140651000Y-126174000D02*
X133674000Y-126174000D01*
X126529573Y-118911500D02*
X126451000Y-118911500D01*
X102616000Y-106616000D02*
X87557893Y-106616000D01*
X168174000Y-147299000D02*
X168174000Y-147500000D01*
X124876000Y-116472935D02*
X123777065Y-115374000D01*
X173610000Y-164500000D02*
X175500000Y-164500000D01*
X115000000Y-112000000D02*
X113500000Y-112000000D01*
X140901000Y-126424000D02*
X140651000Y-126174000D01*
X132113360Y-124486640D02*
X131986640Y-124486640D01*
X169800000Y-168310000D02*
X173610000Y-164500000D01*
X127278500Y-119778500D02*
X127278500Y-119660427D01*
X181750000Y-148628000D02*
X181750000Y-147500000D01*
X165526720Y-147500000D02*
X165300720Y-147274000D01*
%TO.N,P6*%
X116124000Y-102876000D02*
X116124000Y-97272935D01*
X160250000Y-94750000D02*
X160250000Y-94250000D01*
X161800000Y-99810000D02*
X161800000Y-96713347D01*
X161711933Y-96713347D02*
X161286653Y-96288067D01*
X142500000Y-93310000D02*
X142500000Y-91150000D01*
X126000000Y-93810000D02*
X127636000Y-92174000D01*
X106500000Y-108810000D02*
X110190000Y-108810000D01*
X141364000Y-92174000D02*
X142500000Y-93310000D01*
X161800000Y-96713347D02*
X161711933Y-96713347D01*
X126000000Y-93310000D02*
X126000000Y-91150000D01*
X106500000Y-108810000D02*
X106500000Y-106650000D01*
X161286653Y-95786653D02*
X160250000Y-94750000D01*
X127636000Y-92174000D02*
X141364000Y-92174000D01*
X179800000Y-100310000D02*
X179800000Y-98150000D01*
X159310000Y-93310000D02*
X142500000Y-93310000D01*
X125859000Y-93951000D02*
X126000000Y-93810000D01*
X162300000Y-100310000D02*
X179800000Y-100310000D01*
X119445935Y-93951000D02*
X125859000Y-93951000D01*
X161286653Y-96288067D02*
X161286653Y-95786653D01*
X110190000Y-108810000D02*
X116124000Y-102876000D01*
X76950000Y-97820000D02*
X78325000Y-97820000D01*
X160250000Y-94250000D02*
X159310000Y-93310000D01*
X161800000Y-99810000D02*
X161800000Y-97650000D01*
X116124000Y-97272935D02*
X119445935Y-93951000D01*
X161800000Y-99810000D02*
X162300000Y-100310000D01*
%TO.N,P7*%
X167810000Y-117310000D02*
X179800000Y-117310000D01*
X106876000Y-130027065D02*
X106876000Y-126036000D01*
X95380413Y-108424000D02*
X85014000Y-108424000D01*
X127136000Y-109174000D02*
X141864000Y-109174000D01*
X105574000Y-119074000D02*
X102090500Y-115590500D01*
X102000000Y-112000000D02*
X98956413Y-112000000D01*
X98956413Y-112000000D02*
X95380413Y-108424000D01*
X142500000Y-109810000D02*
X148940000Y-116250000D01*
X141864000Y-109174000D02*
X142500000Y-109810000D01*
X101000000Y-129500000D02*
X102626000Y-131126000D01*
X102090500Y-115590500D02*
X102090500Y-115134087D01*
X166750000Y-116250000D02*
X167810000Y-117310000D01*
X89800000Y-140310000D02*
X89800000Y-138150000D01*
X105574000Y-124734000D02*
X105574000Y-119074000D01*
X106876000Y-126036000D02*
X106500000Y-125660000D01*
X161800000Y-116810000D02*
X162360000Y-116250000D01*
X142500000Y-109810000D02*
X142500000Y-107650000D01*
X148940000Y-116250000D02*
X148973280Y-116250000D01*
X179800000Y-117310000D02*
X179800000Y-115150000D01*
X89800000Y-140310000D02*
X89800000Y-140200000D01*
X76950000Y-100360000D02*
X78325000Y-100360000D01*
X162360000Y-116250000D02*
X166750000Y-116250000D01*
X149800720Y-116476000D02*
X150026720Y-116250000D01*
X106500000Y-125660000D02*
X106500000Y-123500000D01*
X148973280Y-116250000D02*
X149199280Y-116476000D01*
X150026720Y-116250000D02*
X161240000Y-116250000D01*
X102626000Y-131126000D02*
X105777065Y-131126000D01*
X85014000Y-108424000D02*
X76950000Y-100360000D01*
X89800000Y-140200000D02*
X99465554Y-130534446D01*
X161800000Y-116810000D02*
X161800000Y-114650000D01*
X106500000Y-125660000D02*
X105574000Y-124734000D01*
X102090500Y-115134087D02*
X102000000Y-115043587D01*
X126000000Y-108150000D02*
X126000000Y-110310000D01*
X105777065Y-131126000D02*
X106876000Y-130027065D01*
X149199280Y-116476000D02*
X149800720Y-116476000D01*
X126000000Y-110310000D02*
X127136000Y-109174000D01*
X161240000Y-116250000D02*
X161800000Y-116810000D01*
X102000000Y-115043587D02*
X102000000Y-112000000D01*
%TO.N,P8*%
X89800000Y-123310000D02*
X89800000Y-121150000D01*
X126000000Y-127810000D02*
X126000000Y-125650000D01*
X79051000Y-110051000D02*
X79051000Y-103626000D01*
X93266413Y-123310000D02*
X105221500Y-135265087D01*
X89800000Y-123310000D02*
X89800000Y-120800000D01*
X105221500Y-135265087D02*
X105221500Y-135719573D01*
X109425099Y-142810000D02*
X116124000Y-136111099D01*
X122949280Y-128274000D02*
X123226000Y-128274000D01*
X162000000Y-134310000D02*
X179800000Y-134310000D01*
X105221500Y-135719573D02*
X105500000Y-135998073D01*
X135009120Y-124939880D02*
X141129880Y-124939880D01*
X149190000Y-133000000D02*
X160690000Y-133000000D01*
X161500000Y-133810000D02*
X161500000Y-131650000D01*
X129690000Y-127810000D02*
X126000000Y-127810000D01*
X122524000Y-128699280D02*
X122949280Y-128274000D01*
X105500000Y-141810000D02*
X106500000Y-142810000D01*
X116124000Y-131272935D02*
X117396935Y-130000000D01*
X106500000Y-142810000D02*
X106500000Y-140650000D01*
X141129880Y-124939880D02*
X143000000Y-126810000D01*
X106500000Y-142810000D02*
X109425099Y-142810000D01*
X134500000Y-125449000D02*
X135009120Y-124939880D01*
X125859000Y-127951000D02*
X126000000Y-127810000D01*
X123226000Y-128274000D02*
X123549000Y-127951000D01*
X161500000Y-133810000D02*
X162000000Y-134310000D01*
X116124000Y-136111099D02*
X116124000Y-131272935D01*
X143000000Y-126810000D02*
X143000000Y-124650000D01*
X105500000Y-135998073D02*
X105500000Y-141810000D01*
X123549000Y-127951000D02*
X125859000Y-127951000D01*
X79051000Y-103626000D02*
X78325000Y-102900000D01*
X121500000Y-130000000D02*
X122524000Y-128976000D01*
X179800000Y-134310000D02*
X179800000Y-132150000D01*
X89800000Y-120800000D02*
X79051000Y-110051000D01*
X122524000Y-128976000D02*
X122524000Y-128699280D01*
X76950000Y-102900000D02*
X78325000Y-102900000D01*
X160690000Y-133000000D02*
X161500000Y-133810000D01*
X117396935Y-130000000D02*
X121500000Y-130000000D01*
X131875000Y-125625000D02*
X129690000Y-127810000D01*
X143000000Y-126810000D02*
X149190000Y-133000000D01*
X89800000Y-123310000D02*
X93266413Y-123310000D01*
%TO.N,P9*%
X76699280Y-123726000D02*
X76274000Y-123300720D01*
X97800720Y-141226000D02*
X97199280Y-141226000D01*
X111525000Y-144025000D02*
X105285000Y-144025000D01*
X125800000Y-145310000D02*
X125800000Y-143150000D01*
X76950000Y-108973884D02*
X76950000Y-105440000D01*
X77726900Y-116508199D02*
X77726900Y-115491801D01*
X163490000Y-152500000D02*
X179310000Y-152500000D01*
X102274000Y-140500000D02*
X98226000Y-140500000D01*
X105285000Y-144025000D02*
X105285000Y-142808000D01*
X125800000Y-145310000D02*
X119305000Y-151805000D01*
X95313190Y-140951000D02*
X95088190Y-140726000D01*
X103300720Y-141526000D02*
X102699280Y-141526000D01*
X107800000Y-157310000D02*
X107800000Y-155150000D01*
X103651860Y-141174860D02*
X103300720Y-141526000D01*
X97199280Y-141226000D02*
X96924280Y-140951000D01*
X88500000Y-137670000D02*
X88585000Y-137585000D01*
X76274000Y-122699280D02*
X76549000Y-122424280D01*
X148500000Y-150810000D02*
X161800000Y-150810000D01*
X96924280Y-140951000D02*
X95313190Y-140951000D01*
X88585000Y-137585000D02*
X88585000Y-136288065D01*
X77000000Y-117226900D02*
X77008199Y-117226900D01*
X76274000Y-123300720D02*
X76274000Y-122699280D01*
X98226000Y-140500000D02*
X98226000Y-140800720D01*
X76549000Y-120575720D02*
X76274000Y-120300720D01*
X113800000Y-157310000D02*
X107800000Y-157310000D01*
X95088190Y-140726000D02*
X94699280Y-140726000D01*
X161800000Y-150810000D02*
X163490000Y-152500000D01*
X145000000Y-147310000D02*
X145000000Y-151000000D01*
X77000000Y-123726000D02*
X76699280Y-123726000D01*
X161800000Y-150810000D02*
X161800000Y-148650000D01*
X102699280Y-141526000D02*
X102274000Y-141100720D01*
X142500000Y-144810000D02*
X142500000Y-142650000D01*
X76699280Y-119274000D02*
X77000000Y-119274000D01*
X76274000Y-119699280D02*
X76699280Y-119274000D01*
X119305000Y-151805000D02*
X111525000Y-144025000D01*
X76950000Y-105440000D02*
X78325000Y-105440000D01*
X125800000Y-145310000D02*
X142000000Y-145310000D01*
X91500000Y-141525000D02*
X88585000Y-141525000D01*
X78876000Y-114342701D02*
X78876000Y-110899884D01*
X94473280Y-140500000D02*
X91500000Y-140500000D01*
X145000000Y-151000000D02*
X148310000Y-151000000D01*
X94699280Y-140726000D02*
X94473280Y-140500000D01*
X98226000Y-140800720D02*
X97800720Y-141226000D01*
X88585000Y-136288065D02*
X77000000Y-124703065D01*
X77008199Y-117226900D02*
X77726900Y-116508199D01*
X142500000Y-144810000D02*
X145000000Y-147310000D01*
X77000000Y-124703065D02*
X77000000Y-123726000D01*
X77726900Y-115491801D02*
X78876000Y-114342701D01*
X76549000Y-122424280D02*
X76549000Y-120575720D01*
X142000000Y-145310000D02*
X142500000Y-144810000D01*
X102274000Y-141100720D02*
X102274000Y-140500000D01*
X179310000Y-152500000D02*
X180500000Y-151310000D01*
X148310000Y-151000000D02*
X148500000Y-150810000D01*
X119305000Y-151805000D02*
X113800000Y-157310000D01*
X88500000Y-139000000D02*
X88500000Y-137670000D01*
X180500000Y-151310000D02*
X180500000Y-149150000D01*
X77000000Y-119274000D02*
X77000000Y-117226900D01*
X78876000Y-110899884D02*
X76950000Y-108973884D01*
X88585000Y-141525000D02*
X88585000Y-139085000D01*
X91500000Y-140500000D02*
X91500000Y-141525000D01*
X76274000Y-120300720D02*
X76274000Y-119699280D01*
X105285000Y-142808000D02*
X103651860Y-141174860D01*
X88585000Y-139085000D02*
X88500000Y-139000000D01*
%TO.N,MCU1_24*%
X74105000Y-77500000D02*
X76225000Y-77500000D01*
%TO.N,MCU1_1*%
X87225000Y-77500000D02*
X89345000Y-77500000D01*
%TO.N,MCU1_23*%
X74105000Y-80040000D02*
X76225000Y-80040000D01*
%TO.N,MCU1_2*%
X87225000Y-80040000D02*
X89345000Y-80040000D01*
%TO.N,MCU1_22*%
X74105000Y-82580000D02*
X76225000Y-82580000D01*
%TO.N,MCU1_3*%
X87225000Y-82580000D02*
X89345000Y-82580000D01*
%TO.N,MCU1_21*%
X74105000Y-85120000D02*
X76225000Y-85120000D01*
%TO.N,MCU1_4*%
X87225000Y-85120000D02*
X89345000Y-85120000D01*
%TO.N,MCU1_20*%
X74105000Y-87660000D02*
X76225000Y-87660000D01*
%TO.N,MCU1_5*%
X87225000Y-87660000D02*
X89345000Y-87660000D01*
%TO.N,MCU1_19*%
X74105000Y-90200000D02*
X76225000Y-90200000D01*
%TO.N,MCU1_6*%
X87225000Y-90200000D02*
X89345000Y-90200000D01*
%TO.N,MCU1_18*%
X74105000Y-92740000D02*
X76225000Y-92740000D01*
%TO.N,MCU1_7*%
X87225000Y-92740000D02*
X89345000Y-92740000D01*
%TO.N,MCU1_17*%
X74105000Y-95280000D02*
X76225000Y-95280000D01*
%TO.N,MCU1_8*%
X87225000Y-95280000D02*
X89345000Y-95280000D01*
%TO.N,MCU1_16*%
X74105000Y-97820000D02*
X76225000Y-97820000D01*
%TO.N,MCU1_9*%
X87225000Y-97820000D02*
X89345000Y-97820000D01*
%TO.N,MCU1_15*%
X74105000Y-100360000D02*
X76225000Y-100360000D01*
%TO.N,MCU1_10*%
X87225000Y-100360000D02*
X89345000Y-100360000D01*
%TO.N,MCU1_14*%
X74105000Y-102900000D02*
X76225000Y-102900000D01*
%TO.N,MCU1_11*%
X87225000Y-102900000D02*
X89345000Y-102900000D01*
%TO.N,MCU1_13*%
X74105000Y-105440000D02*
X76225000Y-105440000D01*
%TO.N,MCU1_12*%
X87225000Y-105440000D02*
X89345000Y-105440000D01*
%TO.N,main_pinky_bottom*%
X99543587Y-147500000D02*
X103596935Y-147500000D01*
X103596935Y-147500000D02*
X104870035Y-148773100D01*
X94248100Y-148773100D02*
X98270487Y-148773100D01*
X91725000Y-146250000D02*
X94248100Y-148773100D01*
X98270487Y-148773100D02*
X99543587Y-147500000D01*
X107800000Y-149690000D02*
X108000000Y-149490000D01*
X106883100Y-148773100D02*
X107800000Y-149690000D01*
X108000000Y-149490000D02*
X108000000Y-146500000D01*
X107800000Y-151850000D02*
X107800000Y-149690000D01*
X104870035Y-148773100D02*
X106883100Y-148773100D01*
%TO.N,main_pinky_home*%
X91725000Y-129250000D02*
X93601000Y-131126000D01*
X107601000Y-134089000D02*
X107601000Y-129500000D01*
X93601000Y-131126000D02*
X97848694Y-131126000D01*
X106500000Y-135190000D02*
X107601000Y-134089000D01*
X102925000Y-135324000D02*
X101000000Y-135324000D01*
X97848694Y-131126000D02*
X97987347Y-130987347D01*
X106500000Y-137350000D02*
X106500000Y-135190000D01*
%TO.N,main_pinky_top*%
X107000000Y-115000000D02*
X107500000Y-114500000D01*
X106500000Y-118040000D02*
X107000000Y-117540000D01*
X91725000Y-114960099D02*
X94764901Y-118000000D01*
X107500000Y-114500000D02*
X107500000Y-113000000D01*
X94764901Y-118000000D02*
X95000000Y-118000000D01*
X106500000Y-120200000D02*
X106500000Y-118040000D01*
X101475000Y-118000000D02*
X103474694Y-118000000D01*
X107000000Y-117540000D02*
X107000000Y-115000000D01*
X91725000Y-112250000D02*
X91725000Y-114960099D01*
%TO.N,main_pinky_num*%
X106500000Y-103350000D02*
X106500000Y-101190000D01*
X101422935Y-97126000D02*
X105777065Y-97126000D01*
X107500000Y-95403065D02*
X107500000Y-95000000D01*
X91725000Y-95250000D02*
X95226720Y-91748280D01*
X106500000Y-101190000D02*
X107500000Y-100190000D01*
X96045215Y-91748280D02*
X101422935Y-97126000D01*
X95226720Y-91748280D02*
X96045215Y-91748280D01*
X107500000Y-100190000D02*
X107500000Y-95000000D01*
X105777065Y-97126000D02*
X107500000Y-95403065D01*
%TO.N,main_ring_bottom*%
X125800000Y-139850000D02*
X125800000Y-137690000D01*
%TO.N,main_ring_home*%
X111601000Y-119126000D02*
X109725000Y-117250000D01*
X126000000Y-120190000D02*
X126000000Y-118500000D01*
X118500000Y-118500000D02*
X114403065Y-118500000D01*
X114403065Y-118500000D02*
X113777065Y-119126000D01*
X113777065Y-119126000D02*
X111601000Y-119126000D01*
X126000000Y-122350000D02*
X126000000Y-120190000D01*
X126000000Y-118500000D02*
X125500000Y-118000000D01*
%TO.N,main_ring_top*%
X126000000Y-100500000D02*
X126000000Y-103690000D01*
X114126000Y-98050000D02*
X117500000Y-94676000D01*
X125000000Y-96500000D02*
X125000000Y-99500000D01*
X109725000Y-100250000D02*
X111925000Y-98050000D01*
X126000000Y-104850000D02*
X126000000Y-102690000D01*
X111925000Y-98050000D02*
X114126000Y-98050000D01*
X125000000Y-99500000D02*
X126000000Y-100500000D01*
%TO.N,main_ring_num*%
X109725000Y-83250000D02*
X112248100Y-85773100D01*
X112248100Y-85773100D02*
X114726900Y-85773100D01*
X126000000Y-87850000D02*
X126000000Y-85690000D01*
X114726900Y-85773100D02*
X116500000Y-84000000D01*
%TO.N,main_middle_bottom*%
X142500000Y-139350000D02*
X142500000Y-137190000D01*
%TO.N,main_middle_home*%
X143000000Y-121350000D02*
X143000000Y-119190000D01*
X143000000Y-119190000D02*
X143000000Y-114000000D01*
X127725000Y-113250000D02*
X129601000Y-115126000D01*
X129601000Y-115126000D02*
X133374000Y-115126000D01*
X133374000Y-115126000D02*
X134000000Y-114500000D01*
X143000000Y-114000000D02*
X143500000Y-113500000D01*
%TO.N,main_middle_top*%
X142500000Y-104350000D02*
X142500000Y-102190000D01*
X142374000Y-98126000D02*
X144000000Y-96500000D01*
X139500000Y-99000000D02*
X140374000Y-98126000D01*
X142500000Y-102190000D02*
X144000000Y-100690000D01*
X134917587Y-98126000D02*
X135543587Y-97500000D01*
X135543587Y-97500000D02*
X136500000Y-97500000D01*
X140374000Y-98126000D02*
X142374000Y-98126000D01*
X144000000Y-100690000D02*
X144000000Y-96500000D01*
X129601000Y-98126000D02*
X134917587Y-98126000D01*
X127725000Y-96250000D02*
X129601000Y-98126000D01*
%TO.N,main_middle_num*%
X129601000Y-77374000D02*
X133670935Y-77374000D01*
X133670935Y-77374000D02*
X136296935Y-80000000D01*
X142500000Y-87850000D02*
X142500000Y-85690000D01*
X127725000Y-79250000D02*
X129601000Y-77374000D01*
X136296935Y-80000000D02*
X138000000Y-80000000D01*
%TO.N,main_index_bottom*%
X153543587Y-139500000D02*
X157596935Y-139500000D01*
X152771794Y-140271793D02*
X153543587Y-139500000D01*
X147746793Y-140271793D02*
X152771794Y-140271793D01*
X161800000Y-145350000D02*
X161800000Y-143190000D01*
X158870035Y-140773100D02*
X160008199Y-140773100D01*
X160008199Y-140773100D02*
X161800000Y-142564901D01*
X145725000Y-138250000D02*
X147746793Y-140271793D01*
X161800000Y-142564901D02*
X161800000Y-143190000D01*
X160008199Y-140773100D02*
X160008199Y-139991801D01*
X157596935Y-139500000D02*
X158870035Y-140773100D01*
X160008199Y-139991801D02*
X161500000Y-138500000D01*
%TO.N,main_index_home*%
X161500000Y-128350000D02*
X161500000Y-126190000D01*
X160430138Y-123773100D02*
X161500000Y-124842962D01*
X152917587Y-123126000D02*
X153134087Y-122909500D01*
X161500000Y-126190000D02*
X161500000Y-121000000D01*
X158128201Y-122909500D02*
X158991801Y-123773100D01*
X147601000Y-123126000D02*
X152917587Y-123126000D01*
X158991801Y-123773100D02*
X160430138Y-123773100D01*
X161500000Y-124842962D02*
X161500000Y-126190000D01*
X153134087Y-122909500D02*
X158128201Y-122909500D01*
X145725000Y-121250000D02*
X147601000Y-123126000D01*
%TO.N,main_index_top*%
X161800000Y-111350000D02*
X161800000Y-109190000D01*
X158006435Y-105909500D02*
X158222935Y-106126000D01*
X147601000Y-106126000D02*
X152917587Y-106126000D01*
X152917587Y-106126000D02*
X153134087Y-105909500D01*
X145725000Y-104250000D02*
X147601000Y-106126000D01*
X159874000Y-106126000D02*
X161500000Y-104500000D01*
X158222935Y-106126000D02*
X159874000Y-106126000D01*
X153134087Y-105909500D02*
X158006435Y-105909500D01*
%TO.N,main_index_num*%
X161800000Y-94350000D02*
X161800000Y-92190000D01*
X153134087Y-88909500D02*
X155674401Y-88909500D01*
X160847500Y-93142500D02*
X161800000Y-92190000D01*
X147996794Y-89521794D02*
X152521793Y-89521794D01*
X152521793Y-89521794D02*
X153134087Y-88909500D01*
X159907401Y-93142500D02*
X160847500Y-93142500D01*
X145725000Y-87250000D02*
X147996794Y-89521794D01*
X155674401Y-88909500D02*
X159907401Y-93142500D01*
%TO.N,main_inner_bottom*%
X172865913Y-141909500D02*
X167993565Y-141909500D01*
X178874000Y-142126000D02*
X173082413Y-142126000D01*
X180500000Y-143690000D02*
X180500000Y-141500000D01*
X180500000Y-145850000D02*
X180500000Y-143690000D01*
X165601000Y-142126000D02*
X163725000Y-140250000D01*
X167777065Y-142126000D02*
X165601000Y-142126000D01*
X180500000Y-141500000D02*
X180000000Y-141000000D01*
X180000000Y-141000000D02*
X178874000Y-142126000D01*
X173082413Y-142126000D02*
X172865913Y-141909500D01*
X167993565Y-141909500D02*
X167777065Y-142126000D01*
%TO.N,main_inner_home*%
X179800000Y-123800000D02*
X179500000Y-123500000D01*
X179800000Y-128850000D02*
X179800000Y-126690000D01*
X179800000Y-126690000D02*
X179800000Y-123800000D01*
X173082413Y-125126000D02*
X172865913Y-124909500D01*
X178236000Y-125126000D02*
X173082413Y-125126000D01*
X179800000Y-126690000D02*
X178236000Y-125126000D01*
X167993565Y-124909500D02*
X167777065Y-125126000D01*
X172865913Y-124909500D02*
X167993565Y-124909500D01*
X167777065Y-125126000D02*
X165601000Y-125126000D01*
X165601000Y-125126000D02*
X163725000Y-123250000D01*
%TO.N,main_inner_top*%
X175909500Y-107909500D02*
X176773100Y-108773100D01*
X178883100Y-108773100D02*
X179800000Y-109690000D01*
X176773100Y-108773100D02*
X178883100Y-108773100D01*
X171134087Y-107909500D02*
X175909500Y-107909500D01*
X170270487Y-108773100D02*
X171134087Y-107909500D01*
X179800000Y-111850000D02*
X179800000Y-109690000D01*
X163725000Y-106250000D02*
X166248100Y-108773100D01*
X166248100Y-108773100D02*
X170270487Y-108773100D01*
%TO.N,main_inner_num*%
X179800000Y-94850000D02*
X179800000Y-92690000D01*
%TO.N,outer_outer_top*%
X89800000Y-129800000D02*
X89500000Y-129500000D01*
X85748100Y-131773100D02*
X88883100Y-131773100D01*
X89800000Y-134850000D02*
X89800000Y-132690000D01*
X73725000Y-129250000D02*
X75601000Y-131126000D01*
X80874000Y-131126000D02*
X81500000Y-130500000D01*
X89800000Y-132690000D02*
X89800000Y-129800000D01*
X83475000Y-129500000D02*
X85748100Y-131773100D01*
X75601000Y-131126000D02*
X80874000Y-131126000D01*
X88883100Y-131773100D02*
X89800000Y-132690000D01*
%TO.N,outer_outer_home*%
X89800000Y-115690000D02*
X89133398Y-115023398D01*
X89800000Y-117850000D02*
X89800000Y-115690000D01*
X89133398Y-115023398D02*
X89133398Y-112516675D01*
%TO.N,thumbfan_near_thumb*%
X155601000Y-159126000D02*
X160874000Y-159126000D01*
X169800000Y-162850000D02*
X169800000Y-160690000D01*
X161090500Y-158909500D02*
X166006435Y-158909500D01*
X153725000Y-157250000D02*
X155601000Y-159126000D01*
X166006435Y-158909500D02*
X166596935Y-159500000D01*
X160874000Y-159126000D02*
X161090500Y-158909500D01*
X166596935Y-159500000D02*
X168000000Y-159500000D01*
%TO.N,thumbfan_home_thumb*%
X192040390Y-167931678D02*
X192707867Y-167264201D01*
X188385739Y-163058195D02*
X190827544Y-165500000D01*
X190827544Y-165500000D02*
X191500000Y-165500000D01*
X181307212Y-163058195D02*
X188385739Y-163058195D01*
X178482652Y-159025117D02*
X178482652Y-160233635D01*
X192040390Y-169318483D02*
X192040390Y-167931678D01*
X178482652Y-160233635D02*
X181307212Y-163058195D01*
%TO.N,thumbfan_far_thumb*%
X209000000Y-174000000D02*
X209000000Y-173000000D01*
X200383147Y-167958579D02*
X200383147Y-166659647D01*
X209000000Y-173000000D02*
X206073167Y-170073167D01*
X206073167Y-170073167D02*
X202497735Y-170073167D01*
X202497735Y-170073167D02*
X200383147Y-167958579D01*
X211947489Y-179150909D02*
X211947489Y-178257802D01*
X211947489Y-178257802D02*
X212961548Y-177243743D01*
%TO.N,rgb_main_pinky_bottom*%
X95251306Y-139226000D02*
X94387653Y-138362347D01*
X94387653Y-138362347D02*
X93000000Y-139750000D01*
X97800000Y-138875000D02*
X97449000Y-139226000D01*
X92250000Y-141500000D02*
X92903065Y-141500000D01*
X102200000Y-153375000D02*
X102200000Y-154125000D01*
X93000000Y-139750000D02*
X92250000Y-139750000D01*
X103299000Y-153049000D02*
X101874000Y-153049000D01*
X96000000Y-149500000D02*
X99549000Y-153049000D01*
X105250000Y-155000000D02*
X103299000Y-153049000D01*
X96876000Y-147422100D02*
X96250000Y-148048100D01*
X96876000Y-145472935D02*
X96876000Y-147422100D01*
X99549000Y-153049000D02*
X101874000Y-153049000D01*
X92903065Y-141500000D02*
X96876000Y-145472935D01*
X97449000Y-139226000D02*
X95251306Y-139226000D01*
X101874000Y-153049000D02*
X102200000Y-153375000D01*
%TO.N,rgb_main_ring_bottom*%
X124000000Y-142500000D02*
X124000000Y-144500000D01*
X123625000Y-142125000D02*
X124000000Y-142500000D01*
X94500000Y-155500000D02*
X94500000Y-152500000D01*
X101250000Y-152324000D02*
X106572000Y-152324000D01*
X124000000Y-144500000D02*
X123000000Y-145500000D01*
X97800000Y-155875000D02*
X94875000Y-155875000D01*
X106572000Y-152324000D02*
X106874000Y-152626000D01*
X94500000Y-152500000D02*
X97500000Y-152500000D01*
X120527000Y-146000000D02*
X119500000Y-146000000D01*
X106874000Y-152626000D02*
X109124000Y-152626000D01*
X121027000Y-145500000D02*
X120527000Y-146000000D01*
X109124000Y-152626000D02*
X114000000Y-147750000D01*
X123000000Y-145500000D02*
X121027000Y-145500000D01*
X120200000Y-142125000D02*
X123625000Y-142125000D01*
X94875000Y-155875000D02*
X94500000Y-155500000D01*
%TO.N,rgb_main_pinky_home*%
X103388910Y-140800000D02*
X103465050Y-140723860D01*
X77000000Y-120000000D02*
X77000000Y-123000000D01*
X103465050Y-140723860D02*
X103776140Y-140723860D01*
X79500000Y-123000000D02*
X80175000Y-123000000D01*
X80000000Y-123000000D02*
X80087500Y-122912500D01*
X79500000Y-123000000D02*
X80000000Y-123000000D01*
X90373002Y-124723000D02*
X93000000Y-127349998D01*
X105049000Y-139451000D02*
X105049000Y-137000000D01*
X103776140Y-140723860D02*
X105049000Y-139451000D01*
X79800000Y-121875000D02*
X79800000Y-122625000D01*
X79800000Y-122625000D02*
X80087500Y-122912500D01*
X104770500Y-135451897D02*
X102718016Y-133399413D01*
X102718016Y-133399413D02*
X102330521Y-133399413D01*
X105049000Y-136184883D02*
X104770500Y-135906383D01*
X80175000Y-123000000D02*
X81898000Y-124723000D01*
X102200000Y-137125000D02*
X104924000Y-137125000D01*
X104770500Y-135906383D02*
X104770500Y-135451897D01*
X105049000Y-137000000D02*
X105049000Y-136184883D01*
X77000000Y-123000000D02*
X79500000Y-123000000D01*
X81898000Y-124723000D02*
X90373002Y-124723000D01*
X104924000Y-137125000D02*
X105049000Y-137000000D01*
X80087500Y-122912500D02*
X80175000Y-123000000D01*
X103000000Y-140800000D02*
X103388910Y-140800000D01*
%TO.N,rgb_main_pinky_top*%
X97500000Y-114526720D02*
X98226000Y-113800720D01*
X108000000Y-115500000D02*
X108000000Y-114500000D01*
X100990871Y-113009129D02*
X100199280Y-113800720D01*
X93000000Y-105000000D02*
X94000000Y-105000000D01*
X94125000Y-104875000D02*
X97800000Y-104875000D01*
X108500000Y-114000000D02*
X109951900Y-114000000D01*
X108000000Y-114500000D02*
X108500000Y-114000000D01*
X98226000Y-113800720D02*
X98226000Y-112822935D01*
X92774000Y-104774000D02*
X93000000Y-105000000D01*
X100199280Y-113800720D02*
X98226000Y-113800720D01*
X97500000Y-116456413D02*
X97500000Y-114526720D01*
X92774000Y-103226000D02*
X92774000Y-104774000D01*
X100092587Y-119049000D02*
X97500000Y-116456413D01*
X100990871Y-113009152D02*
X100990871Y-113009129D01*
X109951900Y-114000000D02*
X110000000Y-114048100D01*
X94000000Y-105000000D02*
X94125000Y-104875000D01*
X94903065Y-109500000D02*
X94000000Y-109500000D01*
X102200000Y-119415743D02*
X101833257Y-119049000D01*
X102200000Y-120125000D02*
X102200000Y-119415743D01*
X94163823Y-101836177D02*
X92774000Y-103226000D01*
X101833257Y-119049000D02*
X100092587Y-119049000D01*
X98226000Y-112822935D02*
X94903065Y-109500000D01*
%TO.N,rgb_main_outer_top*%
X97800000Y-121875000D02*
X95625000Y-121875000D01*
X84200000Y-136773280D02*
X85699280Y-135274000D01*
X87000000Y-135973280D02*
X87000000Y-137000000D01*
X85699280Y-135274000D02*
X86300720Y-135274000D01*
X84200000Y-137125000D02*
X84200000Y-136773280D01*
X91078500Y-136695500D02*
X91078500Y-132421500D01*
X95625000Y-121875000D02*
X95500000Y-122000000D01*
X91078500Y-132421500D02*
X92000000Y-131500000D01*
X91000000Y-136774000D02*
X91078500Y-136695500D01*
X86300720Y-135274000D02*
X87000000Y-135973280D01*
%TO.N,rgb_main_pinky_num*%
X110799848Y-96700152D02*
X111250000Y-96250000D01*
X110000000Y-92000000D02*
X111250000Y-93250000D01*
X114012653Y-93987347D02*
X114687653Y-93987347D01*
X111250000Y-93250000D02*
X111250000Y-96250000D01*
X110799848Y-98149846D02*
X110799848Y-96700152D01*
X103375000Y-103125000D02*
X104500000Y-102000000D01*
X114687653Y-93987347D02*
X115800000Y-92875000D01*
X102200000Y-103125000D02*
X103375000Y-103125000D01*
X111250000Y-96250000D02*
X112500000Y-95000000D01*
%TO.N,rgb_main_ring_home*%
X124876000Y-130626000D02*
X123250000Y-129000000D01*
X121000000Y-123750000D02*
X121000000Y-124325000D01*
X113909500Y-140090500D02*
X115409500Y-140090500D01*
X124876000Y-135027065D02*
X124876000Y-130626000D01*
X124000003Y-125000003D02*
X123250000Y-124250000D01*
X115098000Y-143875000D02*
X114723000Y-143500000D01*
X112250000Y-141750000D02*
X113909500Y-140090500D01*
X114723000Y-143500000D02*
X114000000Y-143500000D01*
X115800000Y-143875000D02*
X115098000Y-143875000D01*
X123250000Y-136126000D02*
X123777065Y-136126000D01*
X121000000Y-124325000D02*
X120200000Y-125125000D01*
X123777065Y-136126000D02*
X124876000Y-135027065D01*
X115000000Y-140500000D02*
X115409500Y-140090500D01*
X114000000Y-143500000D02*
X112250000Y-141750000D01*
X124000003Y-126000000D02*
X124000003Y-125000003D01*
X119285500Y-140090500D02*
X123250000Y-136126000D01*
X115409500Y-140090500D02*
X119285500Y-140090500D01*
%TO.N,rgb_main_ring_top*%
X113899998Y-125324000D02*
X114174000Y-125049998D01*
X115776720Y-105000000D02*
X114973280Y-105000000D01*
X114973280Y-105000000D02*
X112024000Y-107949280D01*
X112500000Y-110310190D02*
X112954000Y-110764190D01*
X118915500Y-106090500D02*
X116867220Y-106090500D01*
X114275000Y-111275000D02*
X114487347Y-111275000D01*
X112954000Y-110816190D02*
X113137810Y-111000000D01*
X114174000Y-125924000D02*
X114174000Y-125049998D01*
X116750000Y-111750000D02*
X119000000Y-111750000D01*
X120200000Y-107375000D02*
X118915500Y-106090500D01*
X115500000Y-117250000D02*
X115500000Y-113000000D01*
X113137810Y-111000000D02*
X114000000Y-111000000D01*
X112024000Y-109024000D02*
X112500000Y-109500000D01*
X114174000Y-120076000D02*
X115000000Y-119250000D01*
X114174000Y-125049998D02*
X114174000Y-120076000D01*
X120200000Y-108125000D02*
X120200000Y-107375000D01*
X119000000Y-111750000D02*
X119250000Y-111500000D01*
X115800000Y-126875000D02*
X115125000Y-126875000D01*
X114000000Y-111000000D02*
X114275000Y-111275000D01*
X119250000Y-111500000D02*
X119250000Y-111676000D01*
X112954000Y-110764190D02*
X112954000Y-110816190D01*
X116867220Y-106090500D02*
X115776720Y-105000000D01*
X112024000Y-107949280D02*
X112024000Y-109024000D01*
X115500000Y-113000000D02*
X116750000Y-111750000D01*
X112500000Y-109500000D02*
X112500000Y-110310190D01*
X115125000Y-126875000D02*
X114174000Y-125924000D01*
%TO.N,rgb_main_middle_top*%
X115500000Y-105750000D02*
X113000000Y-108250000D01*
X137476000Y-107976000D02*
X139300720Y-107976000D01*
X113000000Y-108250000D02*
X112750000Y-108250000D01*
X112951000Y-108451000D02*
X112750000Y-108250000D01*
X115800000Y-109875000D02*
X115449000Y-110226000D01*
X113599278Y-110226000D02*
X112951000Y-109577722D01*
X139826000Y-105049000D02*
X138902000Y-104125000D01*
X124000000Y-107500000D02*
X124000000Y-106000000D01*
X115449000Y-110226000D02*
X113599278Y-110226000D01*
X112951000Y-109577722D02*
X112951000Y-108451000D01*
X139300720Y-107976000D02*
X139826000Y-107450720D01*
X137000000Y-107500000D02*
X137476000Y-107976000D01*
X139826000Y-107450720D02*
X139826000Y-105049000D01*
X124000000Y-106000000D02*
X123750000Y-105750000D01*
X138902000Y-104125000D02*
X138200000Y-104125000D01*
%TO.N,rgb_main_ring_num*%
X124823000Y-91125000D02*
X127073000Y-88875000D01*
X124500000Y-91125000D02*
X124823000Y-91125000D01*
X124500000Y-92275000D02*
X124500000Y-91125000D01*
X123775000Y-93000000D02*
X124500000Y-92275000D01*
X127073000Y-88875000D02*
X133800000Y-88875000D01*
X120200000Y-91125000D02*
X124500000Y-91125000D01*
%TO.N,rgb_main_middle_bottom*%
X141123000Y-140208810D02*
X141049000Y-140134810D01*
X138200000Y-138125000D02*
X140551883Y-138125000D01*
X140500000Y-142000000D02*
X141500000Y-141000000D01*
X141500000Y-141000000D02*
X141500000Y-140585810D01*
X141123000Y-140312810D02*
X141123000Y-140208810D01*
X140770500Y-137906383D02*
X140770500Y-136473617D01*
X133800000Y-122875000D02*
X132373305Y-122875000D01*
X140803153Y-136440963D02*
X138500000Y-134137810D01*
X138500000Y-134137810D02*
X138500000Y-130500000D01*
X132373305Y-122875000D02*
X131900001Y-122401696D01*
X141500000Y-140585810D02*
X141491190Y-140577000D01*
X141491190Y-140577000D02*
X141387190Y-140577000D01*
X140770500Y-136473617D02*
X140803153Y-136440963D01*
X141049000Y-138184883D02*
X140770500Y-137906383D01*
X141049000Y-140134810D02*
X141049000Y-138184883D01*
X140551883Y-138125000D02*
X140770500Y-137906383D01*
X141387190Y-140577000D02*
X141123000Y-140312810D01*
%TO.N,rgb_main_index_bottom*%
X131699280Y-144226000D02*
X133024000Y-144226000D01*
X133024000Y-144226000D02*
X134000000Y-143250000D01*
X156301000Y-146024000D02*
X159300720Y-146024000D01*
X133800000Y-143050000D02*
X134000000Y-143250000D01*
X133800000Y-139875000D02*
X133800000Y-143050000D01*
X156200000Y-146125000D02*
X156301000Y-146024000D01*
X159726000Y-146449280D02*
X159726000Y-147750000D01*
X157976000Y-149500000D02*
X148750000Y-149500000D01*
X159300720Y-146024000D02*
X159726000Y-146449280D01*
X159726000Y-147750000D02*
X159250000Y-148226000D01*
X159250000Y-148226000D02*
X157976000Y-149500000D01*
X130500000Y-141000000D02*
X130500000Y-143026720D01*
X130500000Y-143026720D02*
X131699280Y-144226000D01*
%TO.N,rgb_main_middle_home*%
X124000000Y-109500000D02*
X125074000Y-108426000D01*
X131375000Y-105875000D02*
X129750000Y-104250000D01*
X143124000Y-123874000D02*
X141750000Y-122500000D01*
X125074000Y-108426000D02*
X125074000Y-107374000D01*
X142074000Y-123951000D02*
X142074000Y-123874000D01*
X141625000Y-121125000D02*
X138200000Y-121125000D01*
X132424000Y-123951000D02*
X130500000Y-122027000D01*
X130500000Y-119000000D02*
X130223000Y-119000000D01*
X126573000Y-105875000D02*
X133800000Y-105875000D01*
X142074000Y-123874000D02*
X143124000Y-123874000D01*
X139500000Y-123951000D02*
X142074000Y-123951000D01*
X125074000Y-107374000D02*
X126573000Y-105875000D01*
X130223000Y-119000000D02*
X124000000Y-112777000D01*
X139000000Y-124000000D02*
X139451000Y-124000000D01*
X139451000Y-124000000D02*
X139500000Y-123951000D01*
X141750000Y-121250000D02*
X141625000Y-121125000D01*
X124000000Y-112777000D02*
X124000000Y-109500000D01*
X139500000Y-123951000D02*
X132424000Y-123951000D01*
X141750000Y-122500000D02*
X141750000Y-121250000D01*
X130500000Y-122027000D02*
X130500000Y-119000000D01*
X133800000Y-105875000D02*
X131375000Y-105875000D01*
%TO.N,rgb_main_middle_num*%
X144000000Y-92099306D02*
X144450347Y-92549653D01*
X144000000Y-85381927D02*
X144000000Y-89500000D01*
X148340000Y-96875000D02*
X151800000Y-96875000D01*
X144000000Y-89500000D02*
X144000000Y-92099306D01*
X140963000Y-89062306D02*
X143562306Y-89062306D01*
X138200000Y-87125000D02*
X140913500Y-84411500D01*
X145500000Y-94035000D02*
X148340000Y-96875000D01*
X143562306Y-89062306D02*
X144000000Y-89500000D01*
X143029573Y-84411500D02*
X144000000Y-85381927D01*
X140913500Y-84411500D02*
X143029573Y-84411500D01*
%TO.N,rgb_main_index_home*%
X158524000Y-130300720D02*
X158949280Y-130726000D01*
X151800000Y-147875000D02*
X150949000Y-148726000D01*
X158949280Y-130726000D02*
X159295250Y-130726000D01*
X158524000Y-129954750D02*
X158524000Y-130300720D01*
X146524000Y-147699280D02*
X149223280Y-145000000D01*
X149223280Y-145000000D02*
X151500000Y-145000000D01*
X150500000Y-142000000D02*
X151500000Y-141000000D01*
X157694250Y-129125000D02*
X158524000Y-129954750D01*
X153000000Y-134000000D02*
X156500000Y-134000000D01*
X150949000Y-148726000D02*
X146949280Y-148726000D01*
X159295250Y-130726000D02*
X160000000Y-131430750D01*
X146524000Y-148300720D02*
X146524000Y-147699280D01*
X157252000Y-132275000D02*
X157000000Y-132275000D01*
X160000000Y-131430750D02*
X160000000Y-132500000D01*
X150500000Y-143000000D02*
X150500000Y-142000000D01*
X156200000Y-129125000D02*
X157694250Y-129125000D01*
X146949280Y-148726000D02*
X146524000Y-148300720D01*
X157477000Y-132500000D02*
X157252000Y-132275000D01*
X160000000Y-132500000D02*
X157477000Y-132500000D01*
%TO.N,rgb_main_index_top*%
X150451000Y-111049000D02*
X155833257Y-111049000D01*
X149348280Y-130875000D02*
X148486640Y-130013360D01*
X151500000Y-121500000D02*
X151500000Y-121096935D01*
X147000000Y-116596935D02*
X147000000Y-115500000D01*
X151800000Y-130875000D02*
X149348280Y-130875000D01*
X147274000Y-128800720D02*
X147274000Y-127961099D01*
X147274000Y-127961099D02*
X151000000Y-124235099D01*
X149000000Y-130000000D02*
X148500000Y-130000000D01*
X158500509Y-113218117D02*
X158976000Y-112742626D01*
X148486640Y-130013360D02*
X147274000Y-128800720D01*
X158976000Y-111949280D02*
X158526720Y-111500000D01*
X156825000Y-111500000D02*
X156200000Y-112125000D01*
X155833257Y-111049000D02*
X156200000Y-111415743D01*
X149500000Y-112000000D02*
X150451000Y-111049000D01*
X156200000Y-111415743D02*
X156200000Y-112125000D01*
X151500000Y-121096935D02*
X147000000Y-116596935D01*
X151000000Y-124235099D02*
X151000000Y-124000000D01*
X148500000Y-130000000D02*
X148486640Y-130013360D01*
X158526720Y-111500000D02*
X156825000Y-111500000D01*
X158976000Y-112742626D02*
X158976000Y-111949280D01*
%TO.N,rgb_main_inner_top*%
X151800000Y-113875000D02*
X151800000Y-114625000D01*
X176500000Y-112000000D02*
X176409500Y-112090500D01*
X159322000Y-115426000D02*
X160874000Y-113874000D01*
X177875000Y-114125000D02*
X178000000Y-114000000D01*
X165499280Y-113874000D02*
X168699280Y-110674000D01*
X152601000Y-115426000D02*
X159322000Y-115426000D01*
X160874000Y-113874000D02*
X165499280Y-113874000D01*
X171134087Y-112090500D02*
X176409500Y-112090500D01*
X174200000Y-114125000D02*
X177875000Y-114125000D01*
X151800000Y-114625000D02*
X152601000Y-115426000D01*
X168699280Y-110674000D02*
X169717587Y-110674000D01*
X169717587Y-110674000D02*
X171134087Y-112090500D01*
X150125000Y-113875000D02*
X151800000Y-113875000D01*
X149500000Y-114500000D02*
X150125000Y-113875000D01*
%TO.N,rgb_main_index_num*%
X157051000Y-94274000D02*
X158800720Y-94274000D01*
X164900306Y-98875000D02*
X163762653Y-97737347D01*
X169800000Y-98875000D02*
X164900306Y-98875000D01*
X159500000Y-94973280D02*
X159500000Y-96000000D01*
X163762653Y-97737347D02*
X162012653Y-95987347D01*
X156200000Y-95125000D02*
X157051000Y-94274000D01*
X165226000Y-96274000D02*
X163762653Y-97737347D01*
X167791913Y-96274000D02*
X165226000Y-96274000D01*
X158800720Y-94274000D02*
X159500000Y-94973280D01*
X167917913Y-96400000D02*
X167791913Y-96274000D01*
%TO.N,rgb_main_inner_bottom*%
X181778500Y-146273500D02*
X181778500Y-130778500D01*
X165000000Y-130000000D02*
X165000000Y-133000000D01*
X167750000Y-129750000D02*
X165250000Y-129750000D01*
X177000000Y-154000000D02*
X176987347Y-154012653D01*
X178500000Y-153500000D02*
X178512653Y-153487347D01*
X177500000Y-146250000D02*
X177637810Y-146250000D01*
X167500000Y-130000000D02*
X167750000Y-129750000D01*
X176500000Y-153500000D02*
X177000000Y-154000000D01*
X175000000Y-153500000D02*
X176500000Y-153500000D01*
X168250000Y-133000000D02*
X168375000Y-132875000D01*
X165250000Y-129750000D02*
X165000000Y-130000000D01*
X177987347Y-154012653D02*
X178500000Y-153500000D01*
X178013810Y-146626000D02*
X181426000Y-146626000D01*
X178124847Y-130150153D02*
X177724694Y-129750000D01*
X177637810Y-146250000D02*
X178013810Y-146626000D01*
X168375000Y-132875000D02*
X169800000Y-132875000D01*
X177125000Y-148125000D02*
X177250000Y-148000000D01*
X177724694Y-129750000D02*
X167750000Y-129750000D01*
X181778500Y-130778500D02*
X181750000Y-130750000D01*
X181426000Y-146626000D02*
X181778500Y-146273500D01*
X165000000Y-133000000D02*
X168250000Y-133000000D01*
X181750000Y-130750000D02*
X181500000Y-130750000D01*
X174200000Y-148125000D02*
X177125000Y-148125000D01*
X176987347Y-154012653D02*
X177987347Y-154012653D01*
%TO.N,rgb_thumbfan_near*%
X169500000Y-163626000D02*
X170726000Y-163626000D01*
X162000000Y-152449000D02*
X162689875Y-152449000D01*
X169800000Y-150625000D02*
X169800000Y-149875000D01*
X170726000Y-163626000D02*
X173500000Y-160852000D01*
X167000000Y-165223280D02*
X168597280Y-163626000D01*
X160450999Y-149049001D02*
X159500000Y-150000000D01*
X171723280Y-157000000D02*
X173500000Y-157000000D01*
X160450999Y-147285191D02*
X160450999Y-149049001D01*
X170950000Y-151775000D02*
X169800000Y-150625000D01*
X163289875Y-153049000D02*
X167772280Y-153049000D01*
X173500000Y-160852000D02*
X173500000Y-157000000D01*
X167772280Y-153049000D02*
X171723280Y-157000000D01*
X167000000Y-166000000D02*
X167000000Y-165223280D01*
X162689875Y-152449000D02*
X163289875Y-153049000D01*
X168597280Y-163626000D02*
X169500000Y-163626000D01*
X171000000Y-151775000D02*
X170950000Y-151775000D01*
%TO.N,rgb_main_inner_home*%
X169425000Y-115500000D02*
X166000000Y-115500000D01*
X179000000Y-131000000D02*
X179000000Y-130000000D01*
X176273100Y-127273100D02*
X175000000Y-126000000D01*
X176776720Y-131000000D02*
X178000000Y-131000000D01*
X177226900Y-128226900D02*
X176991801Y-128226900D01*
X178000000Y-131000000D02*
X179000000Y-131000000D01*
X169800000Y-115875000D02*
X169425000Y-115500000D01*
X178000000Y-131500000D02*
X178000000Y-131000000D01*
X174500000Y-135035000D02*
X177465000Y-135035000D01*
X174200000Y-131125000D02*
X176651720Y-131125000D01*
X176273100Y-127508199D02*
X176273100Y-127273100D01*
X177500000Y-135000000D02*
X177500000Y-135035000D01*
X175000000Y-126000000D02*
X174500000Y-126000000D01*
X179000000Y-130000000D02*
X177226900Y-128226900D01*
X166000000Y-118750000D02*
X169500000Y-122250000D01*
X169500000Y-122250000D02*
X169500000Y-123500000D01*
X166000000Y-117000000D02*
X166000000Y-118750000D01*
X177465000Y-135035000D02*
X177500000Y-135000000D01*
X176991801Y-128226900D02*
X176273100Y-127508199D01*
X176651720Y-131125000D02*
X176776720Y-131000000D01*
%TO.N,rgb_main_outer_home*%
X77848280Y-138875000D02*
X76774000Y-137800720D01*
X79800000Y-138875000D02*
X77848280Y-138875000D01*
X84200000Y-120125000D02*
X85000000Y-120125000D01*
X84228000Y-124226000D02*
X84000000Y-123998000D01*
X85000000Y-120125000D02*
X87000000Y-122125000D01*
X86300720Y-124226000D02*
X84228000Y-124226000D01*
X76774000Y-137199280D02*
X78473280Y-135500000D01*
X87000000Y-122125000D02*
X87000000Y-123526720D01*
X78473280Y-135500000D02*
X80000000Y-135500000D01*
X76774000Y-137800720D02*
X76774000Y-137199280D01*
X87000000Y-123526720D02*
X86300720Y-124226000D01*
%TO.N,rgb_thumbfan_home*%
X186408262Y-169354839D02*
X186408262Y-169028068D01*
X160500000Y-168500000D02*
X159800000Y-167800000D01*
X173311284Y-167188716D02*
X171500000Y-169000000D01*
X186408262Y-169028068D02*
X184568910Y-167188716D01*
X162000000Y-168500000D02*
X160500000Y-168500000D01*
X186011460Y-169751641D02*
X186408262Y-169354839D01*
X188000000Y-170500000D02*
X186759819Y-170500000D01*
X171500000Y-169000000D02*
X171500000Y-169331315D01*
X186759819Y-170500000D02*
X186011460Y-169751641D01*
X184568910Y-167188716D02*
X173311284Y-167188716D01*
X159800000Y-167800000D02*
X159800000Y-166875000D01*
X157512653Y-165987347D02*
X158400306Y-166875000D01*
X158400306Y-166875000D02*
X159800000Y-166875000D01*
%TO.N,rgb_thumbfan_far*%
X180889230Y-170453117D02*
X181286032Y-170056315D01*
X206968670Y-177496838D02*
X205934934Y-178530574D01*
X189984942Y-171986665D02*
X189984942Y-172015058D01*
X180889230Y-170779888D02*
X180889230Y-170453117D01*
X203433924Y-174726000D02*
X197226000Y-174726000D01*
X205934934Y-178530574D02*
X206164955Y-178300553D01*
X189984942Y-172015058D02*
X189380760Y-172619240D01*
X197226000Y-174726000D02*
X194017583Y-171517583D01*
X179439349Y-170056315D02*
X181286032Y-170056315D01*
X178500000Y-169116966D02*
X179439349Y-170056315D01*
X206164955Y-177457031D02*
X203433924Y-174726000D01*
X194017583Y-171517583D02*
X190454024Y-171517583D01*
X182728582Y-172619240D02*
X180889230Y-170779888D01*
X190454024Y-171517583D02*
X189984942Y-171986665D01*
X207022730Y-177496838D02*
X206968670Y-177496838D01*
X206164955Y-178300553D02*
X206164955Y-177457031D01*
X189380760Y-172619240D02*
X182728582Y-172619240D01*
%TO.N,pos*%
X126099000Y-77811000D02*
X128736000Y-75174000D01*
X164174000Y-75174000D02*
X167500000Y-78500000D01*
X128736000Y-75174000D02*
X164174000Y-75174000D01*
X112250000Y-76735000D02*
X113326000Y-77811000D01*
X113326000Y-77811000D02*
X126099000Y-77811000D01*
%TD*%
M02*
