%TF.GenerationSoftware,KiCad,Pcbnew,9.0.6*%
%TF.CreationDate,2025-11-21T16:08:54+01:00*%
%TF.ProjectId,main_pcb,6d61696e-5f70-4636-922e-6b696361645f,v1.0.0*%
%TF.SameCoordinates,Original*%
%TF.FileFunction,Legend,Top*%
%TF.FilePolarity,Positive*%
%FSLAX46Y46*%
G04 Gerber Fmt 4.6, Leading zero omitted, Abs format (unit mm)*
G04 Created by KiCad (PCBNEW 9.0.6) date 2025-11-21 16:08:54*
%MOMM*%
%LPD*%
G01*
G04 APERTURE LIST*
%ADD10C,0.500000*%
%ADD11C,0.150000*%
%ADD12C,0.120000*%
%ADD13C,0.100000*%
G04 APERTURE END LIST*
D10*
X116781327Y-154324476D02*
X116781327Y-150324476D01*
X118495613Y-154324476D02*
X118495613Y-152229238D01*
X118495613Y-152229238D02*
X118305137Y-151848285D01*
X118305137Y-151848285D02*
X117924185Y-151657809D01*
X117924185Y-151657809D02*
X117352756Y-151657809D01*
X117352756Y-151657809D02*
X116971804Y-151848285D01*
X116971804Y-151848285D02*
X116781327Y-152038761D01*
X120971804Y-154324476D02*
X120590852Y-154134000D01*
X120590852Y-154134000D02*
X120400375Y-153943523D01*
X120400375Y-153943523D02*
X120209899Y-153562571D01*
X120209899Y-153562571D02*
X120209899Y-152419714D01*
X120209899Y-152419714D02*
X120400375Y-152038761D01*
X120400375Y-152038761D02*
X120590852Y-151848285D01*
X120590852Y-151848285D02*
X120971804Y-151657809D01*
X120971804Y-151657809D02*
X121543233Y-151657809D01*
X121543233Y-151657809D02*
X121924185Y-151848285D01*
X121924185Y-151848285D02*
X122114661Y-152038761D01*
X122114661Y-152038761D02*
X122305137Y-152419714D01*
X122305137Y-152419714D02*
X122305137Y-153562571D01*
X122305137Y-153562571D02*
X122114661Y-153943523D01*
X122114661Y-153943523D02*
X121924185Y-154134000D01*
X121924185Y-154134000D02*
X121543233Y-154324476D01*
X121543233Y-154324476D02*
X120971804Y-154324476D01*
X124019423Y-154324476D02*
X124019423Y-151657809D01*
X124019423Y-152419714D02*
X124209900Y-152038761D01*
X124209900Y-152038761D02*
X124400376Y-151848285D01*
X124400376Y-151848285D02*
X124781328Y-151657809D01*
X124781328Y-151657809D02*
X125162281Y-151657809D01*
X126495613Y-154324476D02*
X126495613Y-151657809D01*
X126495613Y-152038761D02*
X126686090Y-151848285D01*
X126686090Y-151848285D02*
X127067042Y-151657809D01*
X127067042Y-151657809D02*
X127638471Y-151657809D01*
X127638471Y-151657809D02*
X128019423Y-151848285D01*
X128019423Y-151848285D02*
X128209899Y-152229238D01*
X128209899Y-152229238D02*
X128209899Y-154324476D01*
X128209899Y-152229238D02*
X128400375Y-151848285D01*
X128400375Y-151848285D02*
X128781328Y-151657809D01*
X128781328Y-151657809D02*
X129352756Y-151657809D01*
X129352756Y-151657809D02*
X129733709Y-151848285D01*
X129733709Y-151848285D02*
X129924185Y-152229238D01*
X129924185Y-152229238D02*
X129924185Y-154324476D01*
X133352756Y-154134000D02*
X132971804Y-154324476D01*
X132971804Y-154324476D02*
X132209899Y-154324476D01*
X132209899Y-154324476D02*
X131828946Y-154134000D01*
X131828946Y-154134000D02*
X131638470Y-153753047D01*
X131638470Y-153753047D02*
X131638470Y-152229238D01*
X131638470Y-152229238D02*
X131828946Y-151848285D01*
X131828946Y-151848285D02*
X132209899Y-151657809D01*
X132209899Y-151657809D02*
X132971804Y-151657809D01*
X132971804Y-151657809D02*
X133352756Y-151848285D01*
X133352756Y-151848285D02*
X133543232Y-152229238D01*
X133543232Y-152229238D02*
X133543232Y-152610190D01*
X133543232Y-152610190D02*
X131638470Y-152991142D01*
X135067041Y-154134000D02*
X135447994Y-154324476D01*
X135447994Y-154324476D02*
X136209898Y-154324476D01*
X136209898Y-154324476D02*
X136590851Y-154134000D01*
X136590851Y-154134000D02*
X136781327Y-153753047D01*
X136781327Y-153753047D02*
X136781327Y-153562571D01*
X136781327Y-153562571D02*
X136590851Y-153181619D01*
X136590851Y-153181619D02*
X136209898Y-152991142D01*
X136209898Y-152991142D02*
X135638470Y-152991142D01*
X135638470Y-152991142D02*
X135257517Y-152800666D01*
X135257517Y-152800666D02*
X135067041Y-152419714D01*
X135067041Y-152419714D02*
X135067041Y-152229238D01*
X135067041Y-152229238D02*
X135257517Y-151848285D01*
X135257517Y-151848285D02*
X135638470Y-151657809D01*
X135638470Y-151657809D02*
X136209898Y-151657809D01*
X136209898Y-151657809D02*
X136590851Y-151848285D01*
X138495612Y-154324476D02*
X138495612Y-151657809D01*
X138495612Y-150324476D02*
X138305136Y-150514952D01*
X138305136Y-150514952D02*
X138495612Y-150705428D01*
X138495612Y-150705428D02*
X138686089Y-150514952D01*
X138686089Y-150514952D02*
X138495612Y-150324476D01*
X138495612Y-150324476D02*
X138495612Y-150705428D01*
X140209898Y-154134000D02*
X140590851Y-154324476D01*
X140590851Y-154324476D02*
X141352755Y-154324476D01*
X141352755Y-154324476D02*
X141733708Y-154134000D01*
X141733708Y-154134000D02*
X141924184Y-153753047D01*
X141924184Y-153753047D02*
X141924184Y-153562571D01*
X141924184Y-153562571D02*
X141733708Y-153181619D01*
X141733708Y-153181619D02*
X141352755Y-152991142D01*
X141352755Y-152991142D02*
X140781327Y-152991142D01*
X140781327Y-152991142D02*
X140400374Y-152800666D01*
X140400374Y-152800666D02*
X140209898Y-152419714D01*
X140209898Y-152419714D02*
X140209898Y-152229238D01*
X140209898Y-152229238D02*
X140400374Y-151848285D01*
X140400374Y-151848285D02*
X140781327Y-151657809D01*
X140781327Y-151657809D02*
X141352755Y-151657809D01*
X141352755Y-151657809D02*
X141733708Y-151848285D01*
D11*
X79388095Y-82082438D02*
X79292857Y-82034819D01*
X79292857Y-82034819D02*
X79150000Y-82034819D01*
X79150000Y-82034819D02*
X79007143Y-82082438D01*
X79007143Y-82082438D02*
X78911905Y-82177676D01*
X78911905Y-82177676D02*
X78864286Y-82272914D01*
X78864286Y-82272914D02*
X78816667Y-82463390D01*
X78816667Y-82463390D02*
X78816667Y-82606247D01*
X78816667Y-82606247D02*
X78864286Y-82796723D01*
X78864286Y-82796723D02*
X78911905Y-82891961D01*
X78911905Y-82891961D02*
X79007143Y-82987200D01*
X79007143Y-82987200D02*
X79150000Y-83034819D01*
X79150000Y-83034819D02*
X79245238Y-83034819D01*
X79245238Y-83034819D02*
X79388095Y-82987200D01*
X79388095Y-82987200D02*
X79435714Y-82939580D01*
X79435714Y-82939580D02*
X79435714Y-82606247D01*
X79435714Y-82606247D02*
X79245238Y-82606247D01*
X79864286Y-83034819D02*
X79864286Y-82034819D01*
X79864286Y-82034819D02*
X80435714Y-83034819D01*
X80435714Y-83034819D02*
X80435714Y-82034819D01*
X80911905Y-83034819D02*
X80911905Y-82034819D01*
X80911905Y-82034819D02*
X81150000Y-82034819D01*
X81150000Y-82034819D02*
X81292857Y-82082438D01*
X81292857Y-82082438D02*
X81388095Y-82177676D01*
X81388095Y-82177676D02*
X81435714Y-82272914D01*
X81435714Y-82272914D02*
X81483333Y-82463390D01*
X81483333Y-82463390D02*
X81483333Y-82606247D01*
X81483333Y-82606247D02*
X81435714Y-82796723D01*
X81435714Y-82796723D02*
X81388095Y-82891961D01*
X81388095Y-82891961D02*
X81292857Y-82987200D01*
X81292857Y-82987200D02*
X81150000Y-83034819D01*
X81150000Y-83034819D02*
X80911905Y-83034819D01*
X78821905Y-98274819D02*
X78821905Y-97274819D01*
X78821905Y-97274819D02*
X79202857Y-97274819D01*
X79202857Y-97274819D02*
X79298095Y-97322438D01*
X79298095Y-97322438D02*
X79345714Y-97370057D01*
X79345714Y-97370057D02*
X79393333Y-97465295D01*
X79393333Y-97465295D02*
X79393333Y-97608152D01*
X79393333Y-97608152D02*
X79345714Y-97703390D01*
X79345714Y-97703390D02*
X79298095Y-97751009D01*
X79298095Y-97751009D02*
X79202857Y-97798628D01*
X79202857Y-97798628D02*
X78821905Y-97798628D01*
X80250476Y-97274819D02*
X80060000Y-97274819D01*
X80060000Y-97274819D02*
X79964762Y-97322438D01*
X79964762Y-97322438D02*
X79917143Y-97370057D01*
X79917143Y-97370057D02*
X79821905Y-97512914D01*
X79821905Y-97512914D02*
X79774286Y-97703390D01*
X79774286Y-97703390D02*
X79774286Y-98084342D01*
X79774286Y-98084342D02*
X79821905Y-98179580D01*
X79821905Y-98179580D02*
X79869524Y-98227200D01*
X79869524Y-98227200D02*
X79964762Y-98274819D01*
X79964762Y-98274819D02*
X80155238Y-98274819D01*
X80155238Y-98274819D02*
X80250476Y-98227200D01*
X80250476Y-98227200D02*
X80298095Y-98179580D01*
X80298095Y-98179580D02*
X80345714Y-98084342D01*
X80345714Y-98084342D02*
X80345714Y-97846247D01*
X80345714Y-97846247D02*
X80298095Y-97751009D01*
X80298095Y-97751009D02*
X80250476Y-97703390D01*
X80250476Y-97703390D02*
X80155238Y-97655771D01*
X80155238Y-97655771D02*
X79964762Y-97655771D01*
X79964762Y-97655771D02*
X79869524Y-97703390D01*
X79869524Y-97703390D02*
X79821905Y-97751009D01*
X79821905Y-97751009D02*
X79774286Y-97846247D01*
X81835714Y-90654819D02*
X81835714Y-89654819D01*
X81835714Y-89654819D02*
X82216666Y-89654819D01*
X82216666Y-89654819D02*
X82311904Y-89702438D01*
X82311904Y-89702438D02*
X82359523Y-89750057D01*
X82359523Y-89750057D02*
X82407142Y-89845295D01*
X82407142Y-89845295D02*
X82407142Y-89988152D01*
X82407142Y-89988152D02*
X82359523Y-90083390D01*
X82359523Y-90083390D02*
X82311904Y-90131009D01*
X82311904Y-90131009D02*
X82216666Y-90178628D01*
X82216666Y-90178628D02*
X81835714Y-90178628D01*
X82788095Y-89750057D02*
X82835714Y-89702438D01*
X82835714Y-89702438D02*
X82930952Y-89654819D01*
X82930952Y-89654819D02*
X83169047Y-89654819D01*
X83169047Y-89654819D02*
X83264285Y-89702438D01*
X83264285Y-89702438D02*
X83311904Y-89750057D01*
X83311904Y-89750057D02*
X83359523Y-89845295D01*
X83359523Y-89845295D02*
X83359523Y-89940533D01*
X83359523Y-89940533D02*
X83311904Y-90083390D01*
X83311904Y-90083390D02*
X82740476Y-90654819D01*
X82740476Y-90654819D02*
X83359523Y-90654819D01*
X83978571Y-89654819D02*
X84073809Y-89654819D01*
X84073809Y-89654819D02*
X84169047Y-89702438D01*
X84169047Y-89702438D02*
X84216666Y-89750057D01*
X84216666Y-89750057D02*
X84264285Y-89845295D01*
X84264285Y-89845295D02*
X84311904Y-90035771D01*
X84311904Y-90035771D02*
X84311904Y-90273866D01*
X84311904Y-90273866D02*
X84264285Y-90464342D01*
X84264285Y-90464342D02*
X84216666Y-90559580D01*
X84216666Y-90559580D02*
X84169047Y-90607200D01*
X84169047Y-90607200D02*
X84073809Y-90654819D01*
X84073809Y-90654819D02*
X83978571Y-90654819D01*
X83978571Y-90654819D02*
X83883333Y-90607200D01*
X83883333Y-90607200D02*
X83835714Y-90559580D01*
X83835714Y-90559580D02*
X83788095Y-90464342D01*
X83788095Y-90464342D02*
X83740476Y-90273866D01*
X83740476Y-90273866D02*
X83740476Y-90035771D01*
X83740476Y-90035771D02*
X83788095Y-89845295D01*
X83788095Y-89845295D02*
X83835714Y-89750057D01*
X83835714Y-89750057D02*
X83883333Y-89702438D01*
X83883333Y-89702438D02*
X83978571Y-89654819D01*
X81835714Y-105894819D02*
X81835714Y-104894819D01*
X81835714Y-104894819D02*
X82216666Y-104894819D01*
X82216666Y-104894819D02*
X82311904Y-104942438D01*
X82311904Y-104942438D02*
X82359523Y-104990057D01*
X82359523Y-104990057D02*
X82407142Y-105085295D01*
X82407142Y-105085295D02*
X82407142Y-105228152D01*
X82407142Y-105228152D02*
X82359523Y-105323390D01*
X82359523Y-105323390D02*
X82311904Y-105371009D01*
X82311904Y-105371009D02*
X82216666Y-105418628D01*
X82216666Y-105418628D02*
X81835714Y-105418628D01*
X83359523Y-105894819D02*
X82788095Y-105894819D01*
X83073809Y-105894819D02*
X83073809Y-104894819D01*
X83073809Y-104894819D02*
X82978571Y-105037676D01*
X82978571Y-105037676D02*
X82883333Y-105132914D01*
X82883333Y-105132914D02*
X82788095Y-105180533D01*
X83978571Y-104894819D02*
X84073809Y-104894819D01*
X84073809Y-104894819D02*
X84169047Y-104942438D01*
X84169047Y-104942438D02*
X84216666Y-104990057D01*
X84216666Y-104990057D02*
X84264285Y-105085295D01*
X84264285Y-105085295D02*
X84311904Y-105275771D01*
X84311904Y-105275771D02*
X84311904Y-105513866D01*
X84311904Y-105513866D02*
X84264285Y-105704342D01*
X84264285Y-105704342D02*
X84216666Y-105799580D01*
X84216666Y-105799580D02*
X84169047Y-105847200D01*
X84169047Y-105847200D02*
X84073809Y-105894819D01*
X84073809Y-105894819D02*
X83978571Y-105894819D01*
X83978571Y-105894819D02*
X83883333Y-105847200D01*
X83883333Y-105847200D02*
X83835714Y-105799580D01*
X83835714Y-105799580D02*
X83788095Y-105704342D01*
X83788095Y-105704342D02*
X83740476Y-105513866D01*
X83740476Y-105513866D02*
X83740476Y-105275771D01*
X83740476Y-105275771D02*
X83788095Y-105085295D01*
X83788095Y-105085295D02*
X83835714Y-104990057D01*
X83835714Y-104990057D02*
X83883333Y-104942438D01*
X83883333Y-104942438D02*
X83978571Y-104894819D01*
X81835714Y-100814819D02*
X81835714Y-99814819D01*
X81835714Y-99814819D02*
X82216666Y-99814819D01*
X82216666Y-99814819D02*
X82311904Y-99862438D01*
X82311904Y-99862438D02*
X82359523Y-99910057D01*
X82359523Y-99910057D02*
X82407142Y-100005295D01*
X82407142Y-100005295D02*
X82407142Y-100148152D01*
X82407142Y-100148152D02*
X82359523Y-100243390D01*
X82359523Y-100243390D02*
X82311904Y-100291009D01*
X82311904Y-100291009D02*
X82216666Y-100338628D01*
X82216666Y-100338628D02*
X81835714Y-100338628D01*
X83359523Y-100814819D02*
X82788095Y-100814819D01*
X83073809Y-100814819D02*
X83073809Y-99814819D01*
X83073809Y-99814819D02*
X82978571Y-99957676D01*
X82978571Y-99957676D02*
X82883333Y-100052914D01*
X82883333Y-100052914D02*
X82788095Y-100100533D01*
X84216666Y-100148152D02*
X84216666Y-100814819D01*
X83978571Y-99767200D02*
X83740476Y-100481485D01*
X83740476Y-100481485D02*
X84359523Y-100481485D01*
X78821905Y-77954819D02*
X78821905Y-76954819D01*
X78821905Y-76954819D02*
X79202857Y-76954819D01*
X79202857Y-76954819D02*
X79298095Y-77002438D01*
X79298095Y-77002438D02*
X79345714Y-77050057D01*
X79345714Y-77050057D02*
X79393333Y-77145295D01*
X79393333Y-77145295D02*
X79393333Y-77288152D01*
X79393333Y-77288152D02*
X79345714Y-77383390D01*
X79345714Y-77383390D02*
X79298095Y-77431009D01*
X79298095Y-77431009D02*
X79202857Y-77478628D01*
X79202857Y-77478628D02*
X78821905Y-77478628D01*
X80345714Y-77954819D02*
X79774286Y-77954819D01*
X80060000Y-77954819D02*
X80060000Y-76954819D01*
X80060000Y-76954819D02*
X79964762Y-77097676D01*
X79964762Y-77097676D02*
X79869524Y-77192914D01*
X79869524Y-77192914D02*
X79774286Y-77240533D01*
X78821905Y-95734819D02*
X78821905Y-94734819D01*
X78821905Y-94734819D02*
X79202857Y-94734819D01*
X79202857Y-94734819D02*
X79298095Y-94782438D01*
X79298095Y-94782438D02*
X79345714Y-94830057D01*
X79345714Y-94830057D02*
X79393333Y-94925295D01*
X79393333Y-94925295D02*
X79393333Y-95068152D01*
X79393333Y-95068152D02*
X79345714Y-95163390D01*
X79345714Y-95163390D02*
X79298095Y-95211009D01*
X79298095Y-95211009D02*
X79202857Y-95258628D01*
X79202857Y-95258628D02*
X78821905Y-95258628D01*
X80298095Y-94734819D02*
X79821905Y-94734819D01*
X79821905Y-94734819D02*
X79774286Y-95211009D01*
X79774286Y-95211009D02*
X79821905Y-95163390D01*
X79821905Y-95163390D02*
X79917143Y-95115771D01*
X79917143Y-95115771D02*
X80155238Y-95115771D01*
X80155238Y-95115771D02*
X80250476Y-95163390D01*
X80250476Y-95163390D02*
X80298095Y-95211009D01*
X80298095Y-95211009D02*
X80345714Y-95306247D01*
X80345714Y-95306247D02*
X80345714Y-95544342D01*
X80345714Y-95544342D02*
X80298095Y-95639580D01*
X80298095Y-95639580D02*
X80250476Y-95687200D01*
X80250476Y-95687200D02*
X80155238Y-95734819D01*
X80155238Y-95734819D02*
X79917143Y-95734819D01*
X79917143Y-95734819D02*
X79821905Y-95687200D01*
X79821905Y-95687200D02*
X79774286Y-95639580D01*
X81716667Y-84574819D02*
X82050000Y-85574819D01*
X82050000Y-85574819D02*
X82383333Y-84574819D01*
X83288095Y-85479580D02*
X83240476Y-85527200D01*
X83240476Y-85527200D02*
X83097619Y-85574819D01*
X83097619Y-85574819D02*
X83002381Y-85574819D01*
X83002381Y-85574819D02*
X82859524Y-85527200D01*
X82859524Y-85527200D02*
X82764286Y-85431961D01*
X82764286Y-85431961D02*
X82716667Y-85336723D01*
X82716667Y-85336723D02*
X82669048Y-85146247D01*
X82669048Y-85146247D02*
X82669048Y-85003390D01*
X82669048Y-85003390D02*
X82716667Y-84812914D01*
X82716667Y-84812914D02*
X82764286Y-84717676D01*
X82764286Y-84717676D02*
X82859524Y-84622438D01*
X82859524Y-84622438D02*
X83002381Y-84574819D01*
X83002381Y-84574819D02*
X83097619Y-84574819D01*
X83097619Y-84574819D02*
X83240476Y-84622438D01*
X83240476Y-84622438D02*
X83288095Y-84670057D01*
X84288095Y-85479580D02*
X84240476Y-85527200D01*
X84240476Y-85527200D02*
X84097619Y-85574819D01*
X84097619Y-85574819D02*
X84002381Y-85574819D01*
X84002381Y-85574819D02*
X83859524Y-85527200D01*
X83859524Y-85527200D02*
X83764286Y-85431961D01*
X83764286Y-85431961D02*
X83716667Y-85336723D01*
X83716667Y-85336723D02*
X83669048Y-85146247D01*
X83669048Y-85146247D02*
X83669048Y-85003390D01*
X83669048Y-85003390D02*
X83716667Y-84812914D01*
X83716667Y-84812914D02*
X83764286Y-84717676D01*
X83764286Y-84717676D02*
X83859524Y-84622438D01*
X83859524Y-84622438D02*
X84002381Y-84574819D01*
X84002381Y-84574819D02*
X84097619Y-84574819D01*
X84097619Y-84574819D02*
X84240476Y-84622438D01*
X84240476Y-84622438D02*
X84288095Y-84670057D01*
X81835714Y-88114819D02*
X81835714Y-87114819D01*
X81835714Y-87114819D02*
X82216666Y-87114819D01*
X82216666Y-87114819D02*
X82311904Y-87162438D01*
X82311904Y-87162438D02*
X82359523Y-87210057D01*
X82359523Y-87210057D02*
X82407142Y-87305295D01*
X82407142Y-87305295D02*
X82407142Y-87448152D01*
X82407142Y-87448152D02*
X82359523Y-87543390D01*
X82359523Y-87543390D02*
X82311904Y-87591009D01*
X82311904Y-87591009D02*
X82216666Y-87638628D01*
X82216666Y-87638628D02*
X81835714Y-87638628D01*
X82788095Y-87210057D02*
X82835714Y-87162438D01*
X82835714Y-87162438D02*
X82930952Y-87114819D01*
X82930952Y-87114819D02*
X83169047Y-87114819D01*
X83169047Y-87114819D02*
X83264285Y-87162438D01*
X83264285Y-87162438D02*
X83311904Y-87210057D01*
X83311904Y-87210057D02*
X83359523Y-87305295D01*
X83359523Y-87305295D02*
X83359523Y-87400533D01*
X83359523Y-87400533D02*
X83311904Y-87543390D01*
X83311904Y-87543390D02*
X82740476Y-88114819D01*
X82740476Y-88114819D02*
X83359523Y-88114819D01*
X84311904Y-88114819D02*
X83740476Y-88114819D01*
X84026190Y-88114819D02*
X84026190Y-87114819D01*
X84026190Y-87114819D02*
X83930952Y-87257676D01*
X83930952Y-87257676D02*
X83835714Y-87352914D01*
X83835714Y-87352914D02*
X83740476Y-87400533D01*
X78821905Y-100814819D02*
X78821905Y-99814819D01*
X78821905Y-99814819D02*
X79202857Y-99814819D01*
X79202857Y-99814819D02*
X79298095Y-99862438D01*
X79298095Y-99862438D02*
X79345714Y-99910057D01*
X79345714Y-99910057D02*
X79393333Y-100005295D01*
X79393333Y-100005295D02*
X79393333Y-100148152D01*
X79393333Y-100148152D02*
X79345714Y-100243390D01*
X79345714Y-100243390D02*
X79298095Y-100291009D01*
X79298095Y-100291009D02*
X79202857Y-100338628D01*
X79202857Y-100338628D02*
X78821905Y-100338628D01*
X79726667Y-99814819D02*
X80393333Y-99814819D01*
X80393333Y-99814819D02*
X79964762Y-100814819D01*
X78821905Y-105894819D02*
X78821905Y-104894819D01*
X78821905Y-104894819D02*
X79202857Y-104894819D01*
X79202857Y-104894819D02*
X79298095Y-104942438D01*
X79298095Y-104942438D02*
X79345714Y-104990057D01*
X79345714Y-104990057D02*
X79393333Y-105085295D01*
X79393333Y-105085295D02*
X79393333Y-105228152D01*
X79393333Y-105228152D02*
X79345714Y-105323390D01*
X79345714Y-105323390D02*
X79298095Y-105371009D01*
X79298095Y-105371009D02*
X79202857Y-105418628D01*
X79202857Y-105418628D02*
X78821905Y-105418628D01*
X79869524Y-105894819D02*
X80060000Y-105894819D01*
X80060000Y-105894819D02*
X80155238Y-105847200D01*
X80155238Y-105847200D02*
X80202857Y-105799580D01*
X80202857Y-105799580D02*
X80298095Y-105656723D01*
X80298095Y-105656723D02*
X80345714Y-105466247D01*
X80345714Y-105466247D02*
X80345714Y-105085295D01*
X80345714Y-105085295D02*
X80298095Y-104990057D01*
X80298095Y-104990057D02*
X80250476Y-104942438D01*
X80250476Y-104942438D02*
X80155238Y-104894819D01*
X80155238Y-104894819D02*
X79964762Y-104894819D01*
X79964762Y-104894819D02*
X79869524Y-104942438D01*
X79869524Y-104942438D02*
X79821905Y-104990057D01*
X79821905Y-104990057D02*
X79774286Y-105085295D01*
X79774286Y-105085295D02*
X79774286Y-105323390D01*
X79774286Y-105323390D02*
X79821905Y-105418628D01*
X79821905Y-105418628D02*
X79869524Y-105466247D01*
X79869524Y-105466247D02*
X79964762Y-105513866D01*
X79964762Y-105513866D02*
X80155238Y-105513866D01*
X80155238Y-105513866D02*
X80250476Y-105466247D01*
X80250476Y-105466247D02*
X80298095Y-105418628D01*
X80298095Y-105418628D02*
X80345714Y-105323390D01*
X79388095Y-84622438D02*
X79292857Y-84574819D01*
X79292857Y-84574819D02*
X79150000Y-84574819D01*
X79150000Y-84574819D02*
X79007143Y-84622438D01*
X79007143Y-84622438D02*
X78911905Y-84717676D01*
X78911905Y-84717676D02*
X78864286Y-84812914D01*
X78864286Y-84812914D02*
X78816667Y-85003390D01*
X78816667Y-85003390D02*
X78816667Y-85146247D01*
X78816667Y-85146247D02*
X78864286Y-85336723D01*
X78864286Y-85336723D02*
X78911905Y-85431961D01*
X78911905Y-85431961D02*
X79007143Y-85527200D01*
X79007143Y-85527200D02*
X79150000Y-85574819D01*
X79150000Y-85574819D02*
X79245238Y-85574819D01*
X79245238Y-85574819D02*
X79388095Y-85527200D01*
X79388095Y-85527200D02*
X79435714Y-85479580D01*
X79435714Y-85479580D02*
X79435714Y-85146247D01*
X79435714Y-85146247D02*
X79245238Y-85146247D01*
X79864286Y-85574819D02*
X79864286Y-84574819D01*
X79864286Y-84574819D02*
X80435714Y-85574819D01*
X80435714Y-85574819D02*
X80435714Y-84574819D01*
X80911905Y-85574819D02*
X80911905Y-84574819D01*
X80911905Y-84574819D02*
X81150000Y-84574819D01*
X81150000Y-84574819D02*
X81292857Y-84622438D01*
X81292857Y-84622438D02*
X81388095Y-84717676D01*
X81388095Y-84717676D02*
X81435714Y-84812914D01*
X81435714Y-84812914D02*
X81483333Y-85003390D01*
X81483333Y-85003390D02*
X81483333Y-85146247D01*
X81483333Y-85146247D02*
X81435714Y-85336723D01*
X81435714Y-85336723D02*
X81388095Y-85431961D01*
X81388095Y-85431961D02*
X81292857Y-85527200D01*
X81292857Y-85527200D02*
X81150000Y-85574819D01*
X81150000Y-85574819D02*
X80911905Y-85574819D01*
X82359523Y-77954819D02*
X82026190Y-77478628D01*
X81788095Y-77954819D02*
X81788095Y-76954819D01*
X81788095Y-76954819D02*
X82169047Y-76954819D01*
X82169047Y-76954819D02*
X82264285Y-77002438D01*
X82264285Y-77002438D02*
X82311904Y-77050057D01*
X82311904Y-77050057D02*
X82359523Y-77145295D01*
X82359523Y-77145295D02*
X82359523Y-77288152D01*
X82359523Y-77288152D02*
X82311904Y-77383390D01*
X82311904Y-77383390D02*
X82264285Y-77431009D01*
X82264285Y-77431009D02*
X82169047Y-77478628D01*
X82169047Y-77478628D02*
X81788095Y-77478628D01*
X82740476Y-77669104D02*
X83216666Y-77669104D01*
X82645238Y-77954819D02*
X82978571Y-76954819D01*
X82978571Y-76954819D02*
X83311904Y-77954819D01*
X83550000Y-76954819D02*
X83788095Y-77954819D01*
X83788095Y-77954819D02*
X83978571Y-77240533D01*
X83978571Y-77240533D02*
X84169047Y-77954819D01*
X84169047Y-77954819D02*
X84407143Y-76954819D01*
X78821905Y-88114819D02*
X78821905Y-87114819D01*
X78821905Y-87114819D02*
X79202857Y-87114819D01*
X79202857Y-87114819D02*
X79298095Y-87162438D01*
X79298095Y-87162438D02*
X79345714Y-87210057D01*
X79345714Y-87210057D02*
X79393333Y-87305295D01*
X79393333Y-87305295D02*
X79393333Y-87448152D01*
X79393333Y-87448152D02*
X79345714Y-87543390D01*
X79345714Y-87543390D02*
X79298095Y-87591009D01*
X79298095Y-87591009D02*
X79202857Y-87638628D01*
X79202857Y-87638628D02*
X78821905Y-87638628D01*
X79774286Y-87210057D02*
X79821905Y-87162438D01*
X79821905Y-87162438D02*
X79917143Y-87114819D01*
X79917143Y-87114819D02*
X80155238Y-87114819D01*
X80155238Y-87114819D02*
X80250476Y-87162438D01*
X80250476Y-87162438D02*
X80298095Y-87210057D01*
X80298095Y-87210057D02*
X80345714Y-87305295D01*
X80345714Y-87305295D02*
X80345714Y-87400533D01*
X80345714Y-87400533D02*
X80298095Y-87543390D01*
X80298095Y-87543390D02*
X79726667Y-88114819D01*
X79726667Y-88114819D02*
X80345714Y-88114819D01*
X78821905Y-93194819D02*
X78821905Y-92194819D01*
X78821905Y-92194819D02*
X79202857Y-92194819D01*
X79202857Y-92194819D02*
X79298095Y-92242438D01*
X79298095Y-92242438D02*
X79345714Y-92290057D01*
X79345714Y-92290057D02*
X79393333Y-92385295D01*
X79393333Y-92385295D02*
X79393333Y-92528152D01*
X79393333Y-92528152D02*
X79345714Y-92623390D01*
X79345714Y-92623390D02*
X79298095Y-92671009D01*
X79298095Y-92671009D02*
X79202857Y-92718628D01*
X79202857Y-92718628D02*
X78821905Y-92718628D01*
X80250476Y-92528152D02*
X80250476Y-93194819D01*
X80012381Y-92147200D02*
X79774286Y-92861485D01*
X79774286Y-92861485D02*
X80393333Y-92861485D01*
X78821905Y-103354819D02*
X78821905Y-102354819D01*
X78821905Y-102354819D02*
X79202857Y-102354819D01*
X79202857Y-102354819D02*
X79298095Y-102402438D01*
X79298095Y-102402438D02*
X79345714Y-102450057D01*
X79345714Y-102450057D02*
X79393333Y-102545295D01*
X79393333Y-102545295D02*
X79393333Y-102688152D01*
X79393333Y-102688152D02*
X79345714Y-102783390D01*
X79345714Y-102783390D02*
X79298095Y-102831009D01*
X79298095Y-102831009D02*
X79202857Y-102878628D01*
X79202857Y-102878628D02*
X78821905Y-102878628D01*
X79964762Y-102783390D02*
X79869524Y-102735771D01*
X79869524Y-102735771D02*
X79821905Y-102688152D01*
X79821905Y-102688152D02*
X79774286Y-102592914D01*
X79774286Y-102592914D02*
X79774286Y-102545295D01*
X79774286Y-102545295D02*
X79821905Y-102450057D01*
X79821905Y-102450057D02*
X79869524Y-102402438D01*
X79869524Y-102402438D02*
X79964762Y-102354819D01*
X79964762Y-102354819D02*
X80155238Y-102354819D01*
X80155238Y-102354819D02*
X80250476Y-102402438D01*
X80250476Y-102402438D02*
X80298095Y-102450057D01*
X80298095Y-102450057D02*
X80345714Y-102545295D01*
X80345714Y-102545295D02*
X80345714Y-102592914D01*
X80345714Y-102592914D02*
X80298095Y-102688152D01*
X80298095Y-102688152D02*
X80250476Y-102735771D01*
X80250476Y-102735771D02*
X80155238Y-102783390D01*
X80155238Y-102783390D02*
X79964762Y-102783390D01*
X79964762Y-102783390D02*
X79869524Y-102831009D01*
X79869524Y-102831009D02*
X79821905Y-102878628D01*
X79821905Y-102878628D02*
X79774286Y-102973866D01*
X79774286Y-102973866D02*
X79774286Y-103164342D01*
X79774286Y-103164342D02*
X79821905Y-103259580D01*
X79821905Y-103259580D02*
X79869524Y-103307200D01*
X79869524Y-103307200D02*
X79964762Y-103354819D01*
X79964762Y-103354819D02*
X80155238Y-103354819D01*
X80155238Y-103354819D02*
X80250476Y-103307200D01*
X80250476Y-103307200D02*
X80298095Y-103259580D01*
X80298095Y-103259580D02*
X80345714Y-103164342D01*
X80345714Y-103164342D02*
X80345714Y-102973866D01*
X80345714Y-102973866D02*
X80298095Y-102878628D01*
X80298095Y-102878628D02*
X80250476Y-102831009D01*
X80250476Y-102831009D02*
X80155238Y-102783390D01*
X78821905Y-80494819D02*
X78821905Y-79494819D01*
X78821905Y-79494819D02*
X79202857Y-79494819D01*
X79202857Y-79494819D02*
X79298095Y-79542438D01*
X79298095Y-79542438D02*
X79345714Y-79590057D01*
X79345714Y-79590057D02*
X79393333Y-79685295D01*
X79393333Y-79685295D02*
X79393333Y-79828152D01*
X79393333Y-79828152D02*
X79345714Y-79923390D01*
X79345714Y-79923390D02*
X79298095Y-79971009D01*
X79298095Y-79971009D02*
X79202857Y-80018628D01*
X79202857Y-80018628D02*
X78821905Y-80018628D01*
X80012381Y-79494819D02*
X80107619Y-79494819D01*
X80107619Y-79494819D02*
X80202857Y-79542438D01*
X80202857Y-79542438D02*
X80250476Y-79590057D01*
X80250476Y-79590057D02*
X80298095Y-79685295D01*
X80298095Y-79685295D02*
X80345714Y-79875771D01*
X80345714Y-79875771D02*
X80345714Y-80113866D01*
X80345714Y-80113866D02*
X80298095Y-80304342D01*
X80298095Y-80304342D02*
X80250476Y-80399580D01*
X80250476Y-80399580D02*
X80202857Y-80447200D01*
X80202857Y-80447200D02*
X80107619Y-80494819D01*
X80107619Y-80494819D02*
X80012381Y-80494819D01*
X80012381Y-80494819D02*
X79917143Y-80447200D01*
X79917143Y-80447200D02*
X79869524Y-80399580D01*
X79869524Y-80399580D02*
X79821905Y-80304342D01*
X79821905Y-80304342D02*
X79774286Y-80113866D01*
X79774286Y-80113866D02*
X79774286Y-79875771D01*
X79774286Y-79875771D02*
X79821905Y-79685295D01*
X79821905Y-79685295D02*
X79869524Y-79590057D01*
X79869524Y-79590057D02*
X79917143Y-79542438D01*
X79917143Y-79542438D02*
X80012381Y-79494819D01*
X82288095Y-79542438D02*
X82192857Y-79494819D01*
X82192857Y-79494819D02*
X82050000Y-79494819D01*
X82050000Y-79494819D02*
X81907143Y-79542438D01*
X81907143Y-79542438D02*
X81811905Y-79637676D01*
X81811905Y-79637676D02*
X81764286Y-79732914D01*
X81764286Y-79732914D02*
X81716667Y-79923390D01*
X81716667Y-79923390D02*
X81716667Y-80066247D01*
X81716667Y-80066247D02*
X81764286Y-80256723D01*
X81764286Y-80256723D02*
X81811905Y-80351961D01*
X81811905Y-80351961D02*
X81907143Y-80447200D01*
X81907143Y-80447200D02*
X82050000Y-80494819D01*
X82050000Y-80494819D02*
X82145238Y-80494819D01*
X82145238Y-80494819D02*
X82288095Y-80447200D01*
X82288095Y-80447200D02*
X82335714Y-80399580D01*
X82335714Y-80399580D02*
X82335714Y-80066247D01*
X82335714Y-80066247D02*
X82145238Y-80066247D01*
X82764286Y-80494819D02*
X82764286Y-79494819D01*
X82764286Y-79494819D02*
X83335714Y-80494819D01*
X83335714Y-80494819D02*
X83335714Y-79494819D01*
X83811905Y-80494819D02*
X83811905Y-79494819D01*
X83811905Y-79494819D02*
X84050000Y-79494819D01*
X84050000Y-79494819D02*
X84192857Y-79542438D01*
X84192857Y-79542438D02*
X84288095Y-79637676D01*
X84288095Y-79637676D02*
X84335714Y-79732914D01*
X84335714Y-79732914D02*
X84383333Y-79923390D01*
X84383333Y-79923390D02*
X84383333Y-80066247D01*
X84383333Y-80066247D02*
X84335714Y-80256723D01*
X84335714Y-80256723D02*
X84288095Y-80351961D01*
X84288095Y-80351961D02*
X84192857Y-80447200D01*
X84192857Y-80447200D02*
X84050000Y-80494819D01*
X84050000Y-80494819D02*
X83811905Y-80494819D01*
X81835714Y-103354819D02*
X81835714Y-102354819D01*
X81835714Y-102354819D02*
X82216666Y-102354819D01*
X82216666Y-102354819D02*
X82311904Y-102402438D01*
X82311904Y-102402438D02*
X82359523Y-102450057D01*
X82359523Y-102450057D02*
X82407142Y-102545295D01*
X82407142Y-102545295D02*
X82407142Y-102688152D01*
X82407142Y-102688152D02*
X82359523Y-102783390D01*
X82359523Y-102783390D02*
X82311904Y-102831009D01*
X82311904Y-102831009D02*
X82216666Y-102878628D01*
X82216666Y-102878628D02*
X81835714Y-102878628D01*
X83359523Y-103354819D02*
X82788095Y-103354819D01*
X83073809Y-103354819D02*
X83073809Y-102354819D01*
X83073809Y-102354819D02*
X82978571Y-102497676D01*
X82978571Y-102497676D02*
X82883333Y-102592914D01*
X82883333Y-102592914D02*
X82788095Y-102640533D01*
X84216666Y-102354819D02*
X84026190Y-102354819D01*
X84026190Y-102354819D02*
X83930952Y-102402438D01*
X83930952Y-102402438D02*
X83883333Y-102450057D01*
X83883333Y-102450057D02*
X83788095Y-102592914D01*
X83788095Y-102592914D02*
X83740476Y-102783390D01*
X83740476Y-102783390D02*
X83740476Y-103164342D01*
X83740476Y-103164342D02*
X83788095Y-103259580D01*
X83788095Y-103259580D02*
X83835714Y-103307200D01*
X83835714Y-103307200D02*
X83930952Y-103354819D01*
X83930952Y-103354819D02*
X84121428Y-103354819D01*
X84121428Y-103354819D02*
X84216666Y-103307200D01*
X84216666Y-103307200D02*
X84264285Y-103259580D01*
X84264285Y-103259580D02*
X84311904Y-103164342D01*
X84311904Y-103164342D02*
X84311904Y-102926247D01*
X84311904Y-102926247D02*
X84264285Y-102831009D01*
X84264285Y-102831009D02*
X84216666Y-102783390D01*
X84216666Y-102783390D02*
X84121428Y-102735771D01*
X84121428Y-102735771D02*
X83930952Y-102735771D01*
X83930952Y-102735771D02*
X83835714Y-102783390D01*
X83835714Y-102783390D02*
X83788095Y-102831009D01*
X83788095Y-102831009D02*
X83740476Y-102926247D01*
X78821905Y-90654819D02*
X78821905Y-89654819D01*
X78821905Y-89654819D02*
X79202857Y-89654819D01*
X79202857Y-89654819D02*
X79298095Y-89702438D01*
X79298095Y-89702438D02*
X79345714Y-89750057D01*
X79345714Y-89750057D02*
X79393333Y-89845295D01*
X79393333Y-89845295D02*
X79393333Y-89988152D01*
X79393333Y-89988152D02*
X79345714Y-90083390D01*
X79345714Y-90083390D02*
X79298095Y-90131009D01*
X79298095Y-90131009D02*
X79202857Y-90178628D01*
X79202857Y-90178628D02*
X78821905Y-90178628D01*
X79726667Y-89654819D02*
X80345714Y-89654819D01*
X80345714Y-89654819D02*
X80012381Y-90035771D01*
X80012381Y-90035771D02*
X80155238Y-90035771D01*
X80155238Y-90035771D02*
X80250476Y-90083390D01*
X80250476Y-90083390D02*
X80298095Y-90131009D01*
X80298095Y-90131009D02*
X80345714Y-90226247D01*
X80345714Y-90226247D02*
X80345714Y-90464342D01*
X80345714Y-90464342D02*
X80298095Y-90559580D01*
X80298095Y-90559580D02*
X80250476Y-90607200D01*
X80250476Y-90607200D02*
X80155238Y-90654819D01*
X80155238Y-90654819D02*
X79869524Y-90654819D01*
X79869524Y-90654819D02*
X79774286Y-90607200D01*
X79774286Y-90607200D02*
X79726667Y-90559580D01*
X73457141Y-75409819D02*
X73123808Y-74933628D01*
X72885713Y-75409819D02*
X72885713Y-74409819D01*
X72885713Y-74409819D02*
X73266665Y-74409819D01*
X73266665Y-74409819D02*
X73361903Y-74457438D01*
X73361903Y-74457438D02*
X73409522Y-74505057D01*
X73409522Y-74505057D02*
X73457141Y-74600295D01*
X73457141Y-74600295D02*
X73457141Y-74743152D01*
X73457141Y-74743152D02*
X73409522Y-74838390D01*
X73409522Y-74838390D02*
X73361903Y-74886009D01*
X73361903Y-74886009D02*
X73266665Y-74933628D01*
X73266665Y-74933628D02*
X72885713Y-74933628D01*
X74647618Y-75409819D02*
X74647618Y-74409819D01*
X75076189Y-75409819D02*
X75076189Y-74886009D01*
X75076189Y-74886009D02*
X75028570Y-74790771D01*
X75028570Y-74790771D02*
X74933332Y-74743152D01*
X74933332Y-74743152D02*
X74790475Y-74743152D01*
X74790475Y-74743152D02*
X74695237Y-74790771D01*
X74695237Y-74790771D02*
X74647618Y-74838390D01*
X75980951Y-75409819D02*
X75980951Y-74886009D01*
X75980951Y-74886009D02*
X75933332Y-74790771D01*
X75933332Y-74790771D02*
X75838094Y-74743152D01*
X75838094Y-74743152D02*
X75647618Y-74743152D01*
X75647618Y-74743152D02*
X75552380Y-74790771D01*
X75980951Y-75362200D02*
X75885713Y-75409819D01*
X75885713Y-75409819D02*
X75647618Y-75409819D01*
X75647618Y-75409819D02*
X75552380Y-75362200D01*
X75552380Y-75362200D02*
X75504761Y-75266961D01*
X75504761Y-75266961D02*
X75504761Y-75171723D01*
X75504761Y-75171723D02*
X75552380Y-75076485D01*
X75552380Y-75076485D02*
X75647618Y-75028866D01*
X75647618Y-75028866D02*
X75885713Y-75028866D01*
X75885713Y-75028866D02*
X75980951Y-74981247D01*
X76457142Y-74743152D02*
X76457142Y-75409819D01*
X76457142Y-74838390D02*
X76504761Y-74790771D01*
X76504761Y-74790771D02*
X76599999Y-74743152D01*
X76599999Y-74743152D02*
X76742856Y-74743152D01*
X76742856Y-74743152D02*
X76838094Y-74790771D01*
X76838094Y-74790771D02*
X76885713Y-74886009D01*
X76885713Y-74886009D02*
X76885713Y-75409819D01*
X77790475Y-75409819D02*
X77790475Y-74409819D01*
X77790475Y-75362200D02*
X77695237Y-75409819D01*
X77695237Y-75409819D02*
X77504761Y-75409819D01*
X77504761Y-75409819D02*
X77409523Y-75362200D01*
X77409523Y-75362200D02*
X77361904Y-75314580D01*
X77361904Y-75314580D02*
X77314285Y-75219342D01*
X77314285Y-75219342D02*
X77314285Y-74933628D01*
X77314285Y-74933628D02*
X77361904Y-74838390D01*
X77361904Y-74838390D02*
X77409523Y-74790771D01*
X77409523Y-74790771D02*
X77504761Y-74743152D01*
X77504761Y-74743152D02*
X77695237Y-74743152D01*
X77695237Y-74743152D02*
X77790475Y-74790771D01*
X79028571Y-75409819D02*
X79028571Y-74409819D01*
X79028571Y-74790771D02*
X79123809Y-74743152D01*
X79123809Y-74743152D02*
X79314285Y-74743152D01*
X79314285Y-74743152D02*
X79409523Y-74790771D01*
X79409523Y-74790771D02*
X79457142Y-74838390D01*
X79457142Y-74838390D02*
X79504761Y-74933628D01*
X79504761Y-74933628D02*
X79504761Y-75219342D01*
X79504761Y-75219342D02*
X79457142Y-75314580D01*
X79457142Y-75314580D02*
X79409523Y-75362200D01*
X79409523Y-75362200D02*
X79314285Y-75409819D01*
X79314285Y-75409819D02*
X79123809Y-75409819D01*
X79123809Y-75409819D02*
X79028571Y-75362200D01*
X80361904Y-75409819D02*
X80361904Y-74886009D01*
X80361904Y-74886009D02*
X80314285Y-74790771D01*
X80314285Y-74790771D02*
X80219047Y-74743152D01*
X80219047Y-74743152D02*
X80028571Y-74743152D01*
X80028571Y-74743152D02*
X79933333Y-74790771D01*
X80361904Y-75362200D02*
X80266666Y-75409819D01*
X80266666Y-75409819D02*
X80028571Y-75409819D01*
X80028571Y-75409819D02*
X79933333Y-75362200D01*
X79933333Y-75362200D02*
X79885714Y-75266961D01*
X79885714Y-75266961D02*
X79885714Y-75171723D01*
X79885714Y-75171723D02*
X79933333Y-75076485D01*
X79933333Y-75076485D02*
X80028571Y-75028866D01*
X80028571Y-75028866D02*
X80266666Y-75028866D01*
X80266666Y-75028866D02*
X80361904Y-74981247D01*
X81266666Y-75362200D02*
X81171428Y-75409819D01*
X81171428Y-75409819D02*
X80980952Y-75409819D01*
X80980952Y-75409819D02*
X80885714Y-75362200D01*
X80885714Y-75362200D02*
X80838095Y-75314580D01*
X80838095Y-75314580D02*
X80790476Y-75219342D01*
X80790476Y-75219342D02*
X80790476Y-74933628D01*
X80790476Y-74933628D02*
X80838095Y-74838390D01*
X80838095Y-74838390D02*
X80885714Y-74790771D01*
X80885714Y-74790771D02*
X80980952Y-74743152D01*
X80980952Y-74743152D02*
X81171428Y-74743152D01*
X81171428Y-74743152D02*
X81266666Y-74790771D01*
X81695238Y-75409819D02*
X81695238Y-74409819D01*
X81790476Y-75028866D02*
X82076190Y-75409819D01*
X82076190Y-74743152D02*
X81695238Y-75124104D01*
X83219048Y-75362200D02*
X83314286Y-75409819D01*
X83314286Y-75409819D02*
X83504762Y-75409819D01*
X83504762Y-75409819D02*
X83600000Y-75362200D01*
X83600000Y-75362200D02*
X83647619Y-75266961D01*
X83647619Y-75266961D02*
X83647619Y-75219342D01*
X83647619Y-75219342D02*
X83600000Y-75124104D01*
X83600000Y-75124104D02*
X83504762Y-75076485D01*
X83504762Y-75076485D02*
X83361905Y-75076485D01*
X83361905Y-75076485D02*
X83266667Y-75028866D01*
X83266667Y-75028866D02*
X83219048Y-74933628D01*
X83219048Y-74933628D02*
X83219048Y-74886009D01*
X83219048Y-74886009D02*
X83266667Y-74790771D01*
X83266667Y-74790771D02*
X83361905Y-74743152D01*
X83361905Y-74743152D02*
X83504762Y-74743152D01*
X83504762Y-74743152D02*
X83600000Y-74790771D01*
X84076191Y-75409819D02*
X84076191Y-74743152D01*
X84076191Y-74409819D02*
X84028572Y-74457438D01*
X84028572Y-74457438D02*
X84076191Y-74505057D01*
X84076191Y-74505057D02*
X84123810Y-74457438D01*
X84123810Y-74457438D02*
X84076191Y-74409819D01*
X84076191Y-74409819D02*
X84076191Y-74505057D01*
X84980952Y-75409819D02*
X84980952Y-74409819D01*
X84980952Y-75362200D02*
X84885714Y-75409819D01*
X84885714Y-75409819D02*
X84695238Y-75409819D01*
X84695238Y-75409819D02*
X84600000Y-75362200D01*
X84600000Y-75362200D02*
X84552381Y-75314580D01*
X84552381Y-75314580D02*
X84504762Y-75219342D01*
X84504762Y-75219342D02*
X84504762Y-74933628D01*
X84504762Y-74933628D02*
X84552381Y-74838390D01*
X84552381Y-74838390D02*
X84600000Y-74790771D01*
X84600000Y-74790771D02*
X84695238Y-74743152D01*
X84695238Y-74743152D02*
X84885714Y-74743152D01*
X84885714Y-74743152D02*
X84980952Y-74790771D01*
X85838095Y-75362200D02*
X85742857Y-75409819D01*
X85742857Y-75409819D02*
X85552381Y-75409819D01*
X85552381Y-75409819D02*
X85457143Y-75362200D01*
X85457143Y-75362200D02*
X85409524Y-75266961D01*
X85409524Y-75266961D02*
X85409524Y-74886009D01*
X85409524Y-74886009D02*
X85457143Y-74790771D01*
X85457143Y-74790771D02*
X85552381Y-74743152D01*
X85552381Y-74743152D02*
X85742857Y-74743152D01*
X85742857Y-74743152D02*
X85838095Y-74790771D01*
X85838095Y-74790771D02*
X85885714Y-74886009D01*
X85885714Y-74886009D02*
X85885714Y-74981247D01*
X85885714Y-74981247D02*
X85409524Y-75076485D01*
X87361905Y-75790771D02*
X87314286Y-75743152D01*
X87314286Y-75743152D02*
X87219048Y-75600295D01*
X87219048Y-75600295D02*
X87171429Y-75505057D01*
X87171429Y-75505057D02*
X87123810Y-75362200D01*
X87123810Y-75362200D02*
X87076191Y-75124104D01*
X87076191Y-75124104D02*
X87076191Y-74933628D01*
X87076191Y-74933628D02*
X87123810Y-74695533D01*
X87123810Y-74695533D02*
X87171429Y-74552676D01*
X87171429Y-74552676D02*
X87219048Y-74457438D01*
X87219048Y-74457438D02*
X87314286Y-74314580D01*
X87314286Y-74314580D02*
X87361905Y-74266961D01*
X87742858Y-75409819D02*
X87742858Y-74409819D01*
X87742858Y-74409819D02*
X88076191Y-75124104D01*
X88076191Y-75124104D02*
X88409524Y-74409819D01*
X88409524Y-74409819D02*
X88409524Y-75409819D01*
X89266667Y-74647914D02*
X89266667Y-75409819D01*
X89457143Y-75219342D02*
X89266667Y-75409819D01*
X89266667Y-75409819D02*
X89076191Y-75219342D01*
X90028572Y-75790771D02*
X90076191Y-75743152D01*
X90076191Y-75743152D02*
X90171429Y-75600295D01*
X90171429Y-75600295D02*
X90219048Y-75505057D01*
X90219048Y-75505057D02*
X90266667Y-75362200D01*
X90266667Y-75362200D02*
X90314286Y-75124104D01*
X90314286Y-75124104D02*
X90314286Y-74933628D01*
X90314286Y-74933628D02*
X90266667Y-74695533D01*
X90266667Y-74695533D02*
X90219048Y-74552676D01*
X90219048Y-74552676D02*
X90171429Y-74457438D01*
X90171429Y-74457438D02*
X90076191Y-74314580D01*
X90076191Y-74314580D02*
X90028572Y-74266961D01*
X81835714Y-93194819D02*
X81835714Y-92194819D01*
X81835714Y-92194819D02*
X82216666Y-92194819D01*
X82216666Y-92194819D02*
X82311904Y-92242438D01*
X82311904Y-92242438D02*
X82359523Y-92290057D01*
X82359523Y-92290057D02*
X82407142Y-92385295D01*
X82407142Y-92385295D02*
X82407142Y-92528152D01*
X82407142Y-92528152D02*
X82359523Y-92623390D01*
X82359523Y-92623390D02*
X82311904Y-92671009D01*
X82311904Y-92671009D02*
X82216666Y-92718628D01*
X82216666Y-92718628D02*
X81835714Y-92718628D01*
X83359523Y-93194819D02*
X82788095Y-93194819D01*
X83073809Y-93194819D02*
X83073809Y-92194819D01*
X83073809Y-92194819D02*
X82978571Y-92337676D01*
X82978571Y-92337676D02*
X82883333Y-92432914D01*
X82883333Y-92432914D02*
X82788095Y-92480533D01*
X83835714Y-93194819D02*
X84026190Y-93194819D01*
X84026190Y-93194819D02*
X84121428Y-93147200D01*
X84121428Y-93147200D02*
X84169047Y-93099580D01*
X84169047Y-93099580D02*
X84264285Y-92956723D01*
X84264285Y-92956723D02*
X84311904Y-92766247D01*
X84311904Y-92766247D02*
X84311904Y-92385295D01*
X84311904Y-92385295D02*
X84264285Y-92290057D01*
X84264285Y-92290057D02*
X84216666Y-92242438D01*
X84216666Y-92242438D02*
X84121428Y-92194819D01*
X84121428Y-92194819D02*
X83930952Y-92194819D01*
X83930952Y-92194819D02*
X83835714Y-92242438D01*
X83835714Y-92242438D02*
X83788095Y-92290057D01*
X83788095Y-92290057D02*
X83740476Y-92385295D01*
X83740476Y-92385295D02*
X83740476Y-92623390D01*
X83740476Y-92623390D02*
X83788095Y-92718628D01*
X83788095Y-92718628D02*
X83835714Y-92766247D01*
X83835714Y-92766247D02*
X83930952Y-92813866D01*
X83930952Y-92813866D02*
X84121428Y-92813866D01*
X84121428Y-92813866D02*
X84216666Y-92766247D01*
X84216666Y-92766247D02*
X84264285Y-92718628D01*
X84264285Y-92718628D02*
X84311904Y-92623390D01*
X81835714Y-95734819D02*
X81835714Y-94734819D01*
X81835714Y-94734819D02*
X82216666Y-94734819D01*
X82216666Y-94734819D02*
X82311904Y-94782438D01*
X82311904Y-94782438D02*
X82359523Y-94830057D01*
X82359523Y-94830057D02*
X82407142Y-94925295D01*
X82407142Y-94925295D02*
X82407142Y-95068152D01*
X82407142Y-95068152D02*
X82359523Y-95163390D01*
X82359523Y-95163390D02*
X82311904Y-95211009D01*
X82311904Y-95211009D02*
X82216666Y-95258628D01*
X82216666Y-95258628D02*
X81835714Y-95258628D01*
X83359523Y-95734819D02*
X82788095Y-95734819D01*
X83073809Y-95734819D02*
X83073809Y-94734819D01*
X83073809Y-94734819D02*
X82978571Y-94877676D01*
X82978571Y-94877676D02*
X82883333Y-94972914D01*
X82883333Y-94972914D02*
X82788095Y-95020533D01*
X83930952Y-95163390D02*
X83835714Y-95115771D01*
X83835714Y-95115771D02*
X83788095Y-95068152D01*
X83788095Y-95068152D02*
X83740476Y-94972914D01*
X83740476Y-94972914D02*
X83740476Y-94925295D01*
X83740476Y-94925295D02*
X83788095Y-94830057D01*
X83788095Y-94830057D02*
X83835714Y-94782438D01*
X83835714Y-94782438D02*
X83930952Y-94734819D01*
X83930952Y-94734819D02*
X84121428Y-94734819D01*
X84121428Y-94734819D02*
X84216666Y-94782438D01*
X84216666Y-94782438D02*
X84264285Y-94830057D01*
X84264285Y-94830057D02*
X84311904Y-94925295D01*
X84311904Y-94925295D02*
X84311904Y-94972914D01*
X84311904Y-94972914D02*
X84264285Y-95068152D01*
X84264285Y-95068152D02*
X84216666Y-95115771D01*
X84216666Y-95115771D02*
X84121428Y-95163390D01*
X84121428Y-95163390D02*
X83930952Y-95163390D01*
X83930952Y-95163390D02*
X83835714Y-95211009D01*
X83835714Y-95211009D02*
X83788095Y-95258628D01*
X83788095Y-95258628D02*
X83740476Y-95353866D01*
X83740476Y-95353866D02*
X83740476Y-95544342D01*
X83740476Y-95544342D02*
X83788095Y-95639580D01*
X83788095Y-95639580D02*
X83835714Y-95687200D01*
X83835714Y-95687200D02*
X83930952Y-95734819D01*
X83930952Y-95734819D02*
X84121428Y-95734819D01*
X84121428Y-95734819D02*
X84216666Y-95687200D01*
X84216666Y-95687200D02*
X84264285Y-95639580D01*
X84264285Y-95639580D02*
X84311904Y-95544342D01*
X84311904Y-95544342D02*
X84311904Y-95353866D01*
X84311904Y-95353866D02*
X84264285Y-95258628D01*
X84264285Y-95258628D02*
X84216666Y-95211009D01*
X84216666Y-95211009D02*
X84121428Y-95163390D01*
X81835714Y-98274819D02*
X81835714Y-97274819D01*
X81835714Y-97274819D02*
X82216666Y-97274819D01*
X82216666Y-97274819D02*
X82311904Y-97322438D01*
X82311904Y-97322438D02*
X82359523Y-97370057D01*
X82359523Y-97370057D02*
X82407142Y-97465295D01*
X82407142Y-97465295D02*
X82407142Y-97608152D01*
X82407142Y-97608152D02*
X82359523Y-97703390D01*
X82359523Y-97703390D02*
X82311904Y-97751009D01*
X82311904Y-97751009D02*
X82216666Y-97798628D01*
X82216666Y-97798628D02*
X81835714Y-97798628D01*
X83359523Y-98274819D02*
X82788095Y-98274819D01*
X83073809Y-98274819D02*
X83073809Y-97274819D01*
X83073809Y-97274819D02*
X82978571Y-97417676D01*
X82978571Y-97417676D02*
X82883333Y-97512914D01*
X82883333Y-97512914D02*
X82788095Y-97560533D01*
X84264285Y-97274819D02*
X83788095Y-97274819D01*
X83788095Y-97274819D02*
X83740476Y-97751009D01*
X83740476Y-97751009D02*
X83788095Y-97703390D01*
X83788095Y-97703390D02*
X83883333Y-97655771D01*
X83883333Y-97655771D02*
X84121428Y-97655771D01*
X84121428Y-97655771D02*
X84216666Y-97703390D01*
X84216666Y-97703390D02*
X84264285Y-97751009D01*
X84264285Y-97751009D02*
X84311904Y-97846247D01*
X84311904Y-97846247D02*
X84311904Y-98084342D01*
X84311904Y-98084342D02*
X84264285Y-98179580D01*
X84264285Y-98179580D02*
X84216666Y-98227200D01*
X84216666Y-98227200D02*
X84121428Y-98274819D01*
X84121428Y-98274819D02*
X83883333Y-98274819D01*
X83883333Y-98274819D02*
X83788095Y-98227200D01*
X83788095Y-98227200D02*
X83740476Y-98179580D01*
X82502380Y-83034819D02*
X82169047Y-82558628D01*
X81930952Y-83034819D02*
X81930952Y-82034819D01*
X81930952Y-82034819D02*
X82311904Y-82034819D01*
X82311904Y-82034819D02*
X82407142Y-82082438D01*
X82407142Y-82082438D02*
X82454761Y-82130057D01*
X82454761Y-82130057D02*
X82502380Y-82225295D01*
X82502380Y-82225295D02*
X82502380Y-82368152D01*
X82502380Y-82368152D02*
X82454761Y-82463390D01*
X82454761Y-82463390D02*
X82407142Y-82511009D01*
X82407142Y-82511009D02*
X82311904Y-82558628D01*
X82311904Y-82558628D02*
X81930952Y-82558628D01*
X82883333Y-82987200D02*
X83026190Y-83034819D01*
X83026190Y-83034819D02*
X83264285Y-83034819D01*
X83264285Y-83034819D02*
X83359523Y-82987200D01*
X83359523Y-82987200D02*
X83407142Y-82939580D01*
X83407142Y-82939580D02*
X83454761Y-82844342D01*
X83454761Y-82844342D02*
X83454761Y-82749104D01*
X83454761Y-82749104D02*
X83407142Y-82653866D01*
X83407142Y-82653866D02*
X83359523Y-82606247D01*
X83359523Y-82606247D02*
X83264285Y-82558628D01*
X83264285Y-82558628D02*
X83073809Y-82511009D01*
X83073809Y-82511009D02*
X82978571Y-82463390D01*
X82978571Y-82463390D02*
X82930952Y-82415771D01*
X82930952Y-82415771D02*
X82883333Y-82320533D01*
X82883333Y-82320533D02*
X82883333Y-82225295D01*
X82883333Y-82225295D02*
X82930952Y-82130057D01*
X82930952Y-82130057D02*
X82978571Y-82082438D01*
X82978571Y-82082438D02*
X83073809Y-82034819D01*
X83073809Y-82034819D02*
X83311904Y-82034819D01*
X83311904Y-82034819D02*
X83454761Y-82082438D01*
X83740476Y-82034819D02*
X84311904Y-82034819D01*
X84026190Y-83034819D02*
X84026190Y-82034819D01*
D12*
%TO.C,MCU1*%
X72650000Y-76170000D02*
X72650000Y-106770000D01*
X72650000Y-76170000D02*
X75310000Y-76170000D01*
X72650000Y-106770000D02*
X75310000Y-106770000D01*
X75310000Y-76170000D02*
X75310000Y-106770000D01*
X75310000Y-78770000D02*
X72650000Y-78770000D01*
X87890000Y-76170000D02*
X87890000Y-106770000D01*
X87890000Y-76170000D02*
X90550000Y-76170000D01*
X87890000Y-106770000D02*
X90550000Y-106770000D01*
X90550000Y-76170000D02*
X90550000Y-106770000D01*
D13*
%TO.C,LED24*%
X187658110Y-172126729D02*
X187028074Y-172447749D01*
X187337091Y-171496692D01*
X187658110Y-172126729D01*
G36*
X187658110Y-172126729D02*
G01*
X187028074Y-172447749D01*
X187337091Y-171496692D01*
X187658110Y-172126729D01*
G37*
D12*
%TO.C,B2*%
X97425000Y-75650000D02*
X97425000Y-75100000D01*
X98450000Y-73525000D02*
X97525000Y-73525000D01*
X102225000Y-73525000D02*
X101300000Y-73525000D01*
X102225000Y-77225000D02*
X97525000Y-77225000D01*
X102325000Y-75650000D02*
X102325000Y-75100000D01*
D13*
%TO.C,D3*%
X106100000Y-121600000D02*
X106900000Y-121600000D01*
X106500000Y-121600000D02*
X106500000Y-121100000D01*
X106500000Y-122200000D02*
X105950000Y-122200000D01*
X106500000Y-122200000D02*
X106100000Y-121600000D01*
X106500000Y-122200000D02*
X107050000Y-122200000D01*
X106500000Y-122600000D02*
X106500000Y-122200000D01*
X106900000Y-121600000D02*
X106500000Y-122200000D01*
D11*
%TO.C,JST2*%
X166750000Y-74550000D02*
X166750000Y-80450000D01*
X166750000Y-80450000D02*
X174350000Y-80450000D01*
X171250000Y-76250000D02*
X171250000Y-76750000D01*
X171500000Y-76500000D02*
X171000000Y-76500000D01*
X172750000Y-75250000D02*
X174350000Y-75250000D01*
X172750000Y-79750000D02*
X172750000Y-75250000D01*
X174350000Y-74550000D02*
X166750000Y-74550000D01*
X174350000Y-75250000D02*
X174350000Y-74550000D01*
X174350000Y-79750000D02*
X172750000Y-79750000D01*
X174350000Y-80450000D02*
X174350000Y-79750000D01*
D12*
%TO.C,SW1*%
X109550000Y-74585000D02*
X109550000Y-75375000D01*
X111600000Y-76425000D02*
X111400000Y-76425000D01*
X114600000Y-76425000D02*
X112900000Y-76425000D01*
X115850000Y-73575000D02*
X110150000Y-73575000D01*
X116450000Y-75375000D02*
X116450000Y-74585000D01*
D13*
%TO.C,D10*%
X142600000Y-122750000D02*
X143400000Y-122750000D01*
X143000000Y-122750000D02*
X143000000Y-122250000D01*
X143000000Y-123350000D02*
X142450000Y-123350000D01*
X143000000Y-123350000D02*
X142600000Y-122750000D01*
X143000000Y-123350000D02*
X143550000Y-123350000D01*
X143000000Y-123750000D02*
X143000000Y-123350000D01*
X143400000Y-122750000D02*
X143000000Y-123350000D01*
%TO.C,LED14*%
X158500000Y-130875000D02*
X158000000Y-131375000D01*
X158000000Y-130375000D01*
X158500000Y-130875000D01*
G36*
X158500000Y-130875000D02*
G01*
X158000000Y-131375000D01*
X158000000Y-130375000D01*
X158500000Y-130875000D01*
G37*
%TO.C,D8*%
X125600000Y-89750000D02*
X126400000Y-89750000D01*
X126000000Y-89750000D02*
X126000000Y-89250000D01*
X126000000Y-90350000D02*
X125450000Y-90350000D01*
X126000000Y-90350000D02*
X125600000Y-89750000D01*
X126000000Y-90350000D02*
X126550000Y-90350000D01*
X126000000Y-90750000D02*
X126000000Y-90350000D01*
X126400000Y-89750000D02*
X126000000Y-90350000D01*
%TO.C,LED22*%
X86500000Y-121875000D02*
X86000000Y-122375000D01*
X86000000Y-121375000D01*
X86500000Y-121875000D01*
G36*
X86500000Y-121875000D02*
G01*
X86000000Y-122375000D01*
X86000000Y-121375000D01*
X86500000Y-121875000D01*
G37*
%TO.C,D25*%
X210820757Y-181269984D02*
X211008546Y-180916805D01*
X210937050Y-180199247D02*
X211643408Y-180574825D01*
X211008546Y-180916805D02*
X210522925Y-180658595D01*
X211008546Y-180916805D02*
X210937050Y-180199247D01*
X211008546Y-180916805D02*
X211494167Y-181175014D01*
X211290229Y-180387036D02*
X211524965Y-179945562D01*
X211643408Y-180574825D02*
X211008546Y-180916805D01*
%TO.C,D23*%
X169400000Y-164250000D02*
X170200000Y-164250000D01*
X169800000Y-164250000D02*
X169800000Y-163750000D01*
X169800000Y-164850000D02*
X169250000Y-164850000D01*
X169800000Y-164850000D02*
X169400000Y-164250000D01*
X169800000Y-164850000D02*
X170350000Y-164850000D01*
X169800000Y-165250000D02*
X169800000Y-164850000D01*
X170200000Y-164250000D02*
X169800000Y-164850000D01*
%TO.C,D5*%
X125400000Y-141250000D02*
X126200000Y-141250000D01*
X125800000Y-141250000D02*
X125800000Y-140750000D01*
X125800000Y-141850000D02*
X125250000Y-141850000D01*
X125800000Y-141850000D02*
X125400000Y-141250000D01*
X125800000Y-141850000D02*
X126350000Y-141850000D01*
X125800000Y-142250000D02*
X125800000Y-141850000D01*
X126200000Y-141250000D02*
X125800000Y-141850000D01*
%TO.C,D1*%
X107400000Y-153250000D02*
X108200000Y-153250000D01*
X107800000Y-153250000D02*
X107800000Y-152750000D01*
X107800000Y-153850000D02*
X107250000Y-153850000D01*
X107800000Y-153850000D02*
X107400000Y-153250000D01*
X107800000Y-153850000D02*
X108350000Y-153850000D01*
X107800000Y-154250000D02*
X107800000Y-153850000D01*
X108200000Y-153250000D02*
X107800000Y-153850000D01*
%TO.C,D4*%
X106100000Y-104750000D02*
X106900000Y-104750000D01*
X106500000Y-104750000D02*
X106500000Y-104250000D01*
X106500000Y-105350000D02*
X105950000Y-105350000D01*
X106500000Y-105350000D02*
X106100000Y-104750000D01*
X106500000Y-105350000D02*
X107050000Y-105350000D01*
X106500000Y-105750000D02*
X106500000Y-105350000D01*
X106900000Y-104750000D02*
X106500000Y-105350000D01*
%TO.C,LED21*%
X86500000Y-138875000D02*
X86000000Y-139375000D01*
X86000000Y-138375000D01*
X86500000Y-138875000D01*
G36*
X86500000Y-138875000D02*
G01*
X86000000Y-139375000D01*
X86000000Y-138375000D01*
X86500000Y-138875000D01*
G37*
%TO.C,LED12*%
X140500000Y-88875000D02*
X140000000Y-89375000D01*
X140000000Y-88375000D01*
X140500000Y-88875000D01*
G36*
X140500000Y-88875000D02*
G01*
X140000000Y-89375000D01*
X140000000Y-88375000D01*
X140500000Y-88875000D01*
G37*
%TO.C,LED2*%
X104500000Y-138875000D02*
X104000000Y-139375000D01*
X104000000Y-138375000D01*
X104500000Y-138875000D01*
G36*
X104500000Y-138875000D02*
G01*
X104000000Y-139375000D01*
X104000000Y-138375000D01*
X104500000Y-138875000D01*
G37*
%TO.C,D6*%
X125600000Y-123750000D02*
X126400000Y-123750000D01*
X126000000Y-123750000D02*
X126000000Y-123250000D01*
X126000000Y-124350000D02*
X125450000Y-124350000D01*
X126000000Y-124350000D02*
X125600000Y-123750000D01*
X126000000Y-124350000D02*
X126550000Y-124350000D01*
X126000000Y-124750000D02*
X126000000Y-124350000D01*
X126400000Y-123750000D02*
X126000000Y-124350000D01*
%TO.C,LED23*%
X166500000Y-166875000D02*
X166000000Y-167375000D01*
X166000000Y-166375000D01*
X166500000Y-166875000D01*
G36*
X166500000Y-166875000D02*
G01*
X166000000Y-167375000D01*
X166000000Y-166375000D01*
X166500000Y-166875000D01*
G37*
%TO.C,D9*%
X142100000Y-140750000D02*
X142900000Y-140750000D01*
X142500000Y-140750000D02*
X142500000Y-140250000D01*
X142500000Y-141350000D02*
X141950000Y-141350000D01*
X142500000Y-141350000D02*
X142100000Y-140750000D01*
X142500000Y-141350000D02*
X143050000Y-141350000D01*
X142500000Y-141750000D02*
X142500000Y-141350000D01*
X142900000Y-140750000D02*
X142500000Y-141350000D01*
%TO.C,D13*%
X161400000Y-146750000D02*
X162200000Y-146750000D01*
X161800000Y-146750000D02*
X161800000Y-146250000D01*
X161800000Y-147350000D02*
X161250000Y-147350000D01*
X161800000Y-147350000D02*
X161400000Y-146750000D01*
X161800000Y-147350000D02*
X162350000Y-147350000D01*
X161800000Y-147750000D02*
X161800000Y-147350000D01*
X162200000Y-146750000D02*
X161800000Y-147350000D01*
%TO.C,LED20*%
X176500000Y-98875000D02*
X176000000Y-99375000D01*
X176000000Y-98375000D01*
X176500000Y-98875000D01*
G36*
X176500000Y-98875000D02*
G01*
X176000000Y-99375000D01*
X176000000Y-98375000D01*
X176500000Y-98875000D01*
G37*
%TO.C,D17*%
X180100000Y-147250000D02*
X180900000Y-147250000D01*
X180500000Y-147250000D02*
X180500000Y-146750000D01*
X180500000Y-147850000D02*
X179950000Y-147850000D01*
X180500000Y-147850000D02*
X180100000Y-147250000D01*
X180500000Y-147850000D02*
X181050000Y-147850000D01*
X180500000Y-148250000D02*
X180500000Y-147850000D01*
X180900000Y-147250000D02*
X180500000Y-147850000D01*
%TO.C,LED7*%
X122500000Y-109875000D02*
X122000000Y-110375000D01*
X122000000Y-109375000D01*
X122500000Y-109875000D01*
G36*
X122500000Y-109875000D02*
G01*
X122000000Y-110375000D01*
X122000000Y-109375000D01*
X122500000Y-109875000D01*
G37*
%TO.C,D21*%
X89400000Y-136250000D02*
X90200000Y-136250000D01*
X89800000Y-136250000D02*
X89800000Y-135750000D01*
X89800000Y-136850000D02*
X89250000Y-136850000D01*
X89800000Y-136850000D02*
X89400000Y-136250000D01*
X89800000Y-136850000D02*
X90350000Y-136850000D01*
X89800000Y-137250000D02*
X89800000Y-136850000D01*
X90200000Y-136250000D02*
X89800000Y-136850000D01*
%TO.C,LED11*%
X140500000Y-105875000D02*
X140000000Y-106375000D01*
X140000000Y-105375000D01*
X140500000Y-105875000D01*
G36*
X140500000Y-105875000D02*
G01*
X140000000Y-106375000D01*
X140000000Y-105375000D01*
X140500000Y-105875000D01*
G37*
%TO.C,LED1*%
X104500000Y-155875000D02*
X104000000Y-156375000D01*
X104000000Y-155375000D01*
X104500000Y-155875000D01*
G36*
X104500000Y-155875000D02*
G01*
X104000000Y-156375000D01*
X104000000Y-155375000D01*
X104500000Y-155875000D01*
G37*
%TO.C,D18*%
X179400000Y-130250000D02*
X180200000Y-130250000D01*
X179800000Y-130250000D02*
X179800000Y-129750000D01*
X179800000Y-130850000D02*
X179250000Y-130850000D01*
X179800000Y-130850000D02*
X179400000Y-130250000D01*
X179800000Y-130850000D02*
X180350000Y-130850000D01*
X179800000Y-131250000D02*
X179800000Y-130850000D01*
X180200000Y-130250000D02*
X179800000Y-130850000D01*
%TO.C,D24*%
X191227344Y-170526355D02*
X191988189Y-170773569D01*
X191298749Y-171601018D02*
X191422356Y-171220596D01*
X191422356Y-171220596D02*
X190899275Y-171050636D01*
X191422356Y-171220596D02*
X191227344Y-170526355D01*
X191422356Y-171220596D02*
X191945437Y-171390555D01*
X191607766Y-170649962D02*
X191762275Y-170174434D01*
X191988189Y-170773569D02*
X191422356Y-171220596D01*
%TO.C,LED13*%
X158500000Y-147875000D02*
X158000000Y-148375000D01*
X158000000Y-147375000D01*
X158500000Y-147875000D01*
G36*
X158500000Y-147875000D02*
G01*
X158000000Y-148375000D01*
X158000000Y-147375000D01*
X158500000Y-147875000D01*
G37*
%TO.C,D19*%
X179400000Y-113250000D02*
X180200000Y-113250000D01*
X179800000Y-113250000D02*
X179800000Y-112750000D01*
X179800000Y-113850000D02*
X179250000Y-113850000D01*
X179800000Y-113850000D02*
X179400000Y-113250000D01*
X179800000Y-113850000D02*
X180350000Y-113850000D01*
X179800000Y-114250000D02*
X179800000Y-113850000D01*
X180200000Y-113250000D02*
X179800000Y-113850000D01*
%TO.C,LED3*%
X104500000Y-121875000D02*
X104000000Y-122375000D01*
X104000000Y-121375000D01*
X104500000Y-121875000D01*
G36*
X104500000Y-121875000D02*
G01*
X104000000Y-122375000D01*
X104000000Y-121375000D01*
X104500000Y-121875000D01*
G37*
%TO.C,D14*%
X161100000Y-129750000D02*
X161900000Y-129750000D01*
X161500000Y-129750000D02*
X161500000Y-129250000D01*
X161500000Y-130350000D02*
X160950000Y-130350000D01*
X161500000Y-130350000D02*
X161100000Y-129750000D01*
X161500000Y-130350000D02*
X162050000Y-130350000D01*
X161500000Y-130750000D02*
X161500000Y-130350000D01*
X161900000Y-129750000D02*
X161500000Y-130350000D01*
%TO.C,LED10*%
X140500000Y-122875000D02*
X140000000Y-123375000D01*
X140000000Y-122375000D01*
X140500000Y-122875000D01*
G36*
X140500000Y-122875000D02*
G01*
X140000000Y-123375000D01*
X140000000Y-122375000D01*
X140500000Y-122875000D01*
G37*
%TO.C,LED19*%
X176500000Y-115875000D02*
X176000000Y-116375000D01*
X176000000Y-115375000D01*
X176500000Y-115875000D01*
G36*
X176500000Y-115875000D02*
G01*
X176000000Y-116375000D01*
X176000000Y-115375000D01*
X176500000Y-115875000D01*
G37*
%TO.C,LED8*%
X122500000Y-92875000D02*
X122000000Y-93375000D01*
X122000000Y-92375000D01*
X122500000Y-92875000D01*
G36*
X122500000Y-92875000D02*
G01*
X122000000Y-93375000D01*
X122000000Y-92375000D01*
X122500000Y-92875000D01*
G37*
%TO.C,D20*%
X179400000Y-96250000D02*
X180200000Y-96250000D01*
X179800000Y-96250000D02*
X179800000Y-95750000D01*
X179800000Y-96850000D02*
X179250000Y-96850000D01*
X179800000Y-96850000D02*
X179400000Y-96250000D01*
X179800000Y-96850000D02*
X180350000Y-96850000D01*
X179800000Y-97250000D02*
X179800000Y-96850000D01*
X180200000Y-96250000D02*
X179800000Y-96850000D01*
%TO.C,LED25*%
X207144139Y-181155517D02*
X206467929Y-181362255D01*
X206937401Y-180479308D01*
X207144139Y-181155517D01*
G36*
X207144139Y-181155517D02*
G01*
X206467929Y-181362255D01*
X206937401Y-180479308D01*
X207144139Y-181155517D01*
G37*
%TO.C,LED6*%
X122500000Y-126875000D02*
X122000000Y-127375000D01*
X122000000Y-126375000D01*
X122500000Y-126875000D01*
G36*
X122500000Y-126875000D02*
G01*
X122000000Y-127375000D01*
X122000000Y-126375000D01*
X122500000Y-126875000D01*
G37*
%TO.C,LED4*%
X104500000Y-104875000D02*
X104000000Y-105375000D01*
X104000000Y-104375000D01*
X104500000Y-104875000D01*
G36*
X104500000Y-104875000D02*
G01*
X104000000Y-105375000D01*
X104000000Y-104375000D01*
X104500000Y-104875000D01*
G37*
%TO.C,LED17*%
X176500000Y-149875000D02*
X176000000Y-150375000D01*
X176000000Y-149375000D01*
X176500000Y-149875000D01*
G36*
X176500000Y-149875000D02*
G01*
X176000000Y-150375000D01*
X176000000Y-149375000D01*
X176500000Y-149875000D01*
G37*
%TO.C,D7*%
X125600000Y-106250000D02*
X126400000Y-106250000D01*
X126000000Y-106250000D02*
X126000000Y-105750000D01*
X126000000Y-106850000D02*
X125450000Y-106850000D01*
X126000000Y-106850000D02*
X125600000Y-106250000D01*
X126000000Y-106850000D02*
X126550000Y-106850000D01*
X126000000Y-107250000D02*
X126000000Y-106850000D01*
X126400000Y-106250000D02*
X126000000Y-106850000D01*
%TO.C,D16*%
X161400000Y-95750000D02*
X162200000Y-95750000D01*
X161800000Y-95750000D02*
X161800000Y-95250000D01*
X161800000Y-96350000D02*
X161250000Y-96350000D01*
X161800000Y-96350000D02*
X161400000Y-95750000D01*
X161800000Y-96350000D02*
X162350000Y-96350000D01*
X161800000Y-96750000D02*
X161800000Y-96350000D01*
X162200000Y-95750000D02*
X161800000Y-96350000D01*
%TO.C,LED16*%
X158500000Y-96875000D02*
X158000000Y-97375000D01*
X158000000Y-96375000D01*
X158500000Y-96875000D01*
G36*
X158500000Y-96875000D02*
G01*
X158000000Y-97375000D01*
X158000000Y-96375000D01*
X158500000Y-96875000D01*
G37*
%TO.C,LED5*%
X122500000Y-143875000D02*
X122000000Y-144375000D01*
X122000000Y-143375000D01*
X122500000Y-143875000D01*
G36*
X122500000Y-143875000D02*
G01*
X122000000Y-144375000D01*
X122000000Y-143375000D01*
X122500000Y-143875000D01*
G37*
%TO.C,LED15*%
X158500000Y-113875000D02*
X158000000Y-114375000D01*
X158000000Y-113375000D01*
X158500000Y-113875000D01*
G36*
X158500000Y-113875000D02*
G01*
X158000000Y-114375000D01*
X158000000Y-113375000D01*
X158500000Y-113875000D01*
G37*
%TO.C,D11*%
X142100000Y-105750000D02*
X142900000Y-105750000D01*
X142500000Y-105750000D02*
X142500000Y-105250000D01*
X142500000Y-106350000D02*
X141950000Y-106350000D01*
X142500000Y-106350000D02*
X142100000Y-105750000D01*
X142500000Y-106350000D02*
X143050000Y-106350000D01*
X142500000Y-106750000D02*
X142500000Y-106350000D01*
X142900000Y-105750000D02*
X142500000Y-106350000D01*
%TO.C,D15*%
X161400000Y-112750000D02*
X162200000Y-112750000D01*
X161800000Y-112750000D02*
X161800000Y-112250000D01*
X161800000Y-113350000D02*
X161250000Y-113350000D01*
X161800000Y-113350000D02*
X161400000Y-112750000D01*
X161800000Y-113350000D02*
X162350000Y-113350000D01*
X161800000Y-113750000D02*
X161800000Y-113350000D01*
X162200000Y-112750000D02*
X161800000Y-113350000D01*
%TO.C,LED9*%
X140500000Y-139875000D02*
X140000000Y-140375000D01*
X140000000Y-139375000D01*
X140500000Y-139875000D01*
G36*
X140500000Y-139875000D02*
G01*
X140000000Y-140375000D01*
X140000000Y-139375000D01*
X140500000Y-139875000D01*
G37*
%TO.C,LED18*%
X176500000Y-132875000D02*
X176000000Y-133375000D01*
X176000000Y-132375000D01*
X176500000Y-132875000D01*
G36*
X176500000Y-132875000D02*
G01*
X176000000Y-133375000D01*
X176000000Y-132375000D01*
X176500000Y-132875000D01*
G37*
%TO.C,D12*%
X142100000Y-89250000D02*
X142900000Y-89250000D01*
X142500000Y-89250000D02*
X142500000Y-88750000D01*
X142500000Y-89850000D02*
X141950000Y-89850000D01*
X142500000Y-89850000D02*
X142100000Y-89250000D01*
X142500000Y-89850000D02*
X143050000Y-89850000D01*
X142500000Y-90250000D02*
X142500000Y-89850000D01*
X142900000Y-89250000D02*
X142500000Y-89850000D01*
%TO.C,D22*%
X89400000Y-119250000D02*
X90200000Y-119250000D01*
X89800000Y-119250000D02*
X89800000Y-118750000D01*
X89800000Y-119850000D02*
X89250000Y-119850000D01*
X89800000Y-119850000D02*
X89400000Y-119250000D01*
X89800000Y-119850000D02*
X90350000Y-119850000D01*
X89800000Y-120250000D02*
X89800000Y-119850000D01*
X90200000Y-119250000D02*
X89800000Y-119850000D01*
%TO.C,D2*%
X106100000Y-138750000D02*
X106900000Y-138750000D01*
X106500000Y-138750000D02*
X106500000Y-138250000D01*
X106500000Y-139350000D02*
X105950000Y-139350000D01*
X106500000Y-139350000D02*
X106100000Y-138750000D01*
X106500000Y-139350000D02*
X107050000Y-139350000D01*
X106500000Y-139750000D02*
X106500000Y-139350000D01*
X106900000Y-138750000D02*
X106500000Y-139350000D01*
%TD*%
M02*
