0
SECTION
2
HEADER
9
$INSUNITS
70
4
0
ENDSEC
0
SECTION
2
TABLES
0
TABLE
2
LTYPE
0
LTYPE
72
65
70
64
2
CONTINUOUS
3
______
73
0
40
0
0
ENDTAB
0
TABLE
2
LAYER
0
ENDTAB
0
ENDSEC
0
SECTION
2
ENTITIES
0
LINE
8
0
10
92
20
-159.5
11
150
21
-159.5
0
LINE
8
0
10
90
20
-157.5
11
90
21
-144.5
0
LINE
8
0
10
90
20
-104.5
11
90
21
-75.5
0
LINE
8
0
10
92
20
-73.5
11
180
21
-73.5
0
LINE
8
0
10
182
20
-152.0381032
11
182
21
-75.5
0
LINE
8
0
10
74
20
-142.5
11
88
21
-142.5
0
LINE
8
0
10
72
20
-140.5
11
72
21
-108.5
0
LINE
8
0
10
88
20
-106.5
11
74
21
-106.5
0
LINE
8
0
10
154
20
-170.5
11
170.9208076
21
-170.5
0
LINE
8
0
10
152
20
-161.5
11
152
21
-168.5
0
LINE
8
0
10
170.9208076
20
-170.5
11
192.6781879
21
-177.5694013
0
LINE
8
0
10
183.381966
20
-153.9402162
11
198.1166233
21
-158.7277966
0
LINE
8
0
10
198.7226969
20
-158.9247218
11
199.7275809
21
-159.2512284
0
LINE
8
0
10
199.7275809
20
-159.2512284
11
199.670009
21
-159.4284166
0
LINE
8
0
10
192.6781879
20
-177.5694013
11
208.5326208
21
-185.9993528
0
LINE
8
0
10
211.2374591
20
-185.1724008
11
219.3593171
21
-169.8974074
0
LINE
8
0
10
199.670009
20
-159.4284166
11
219.3593171
21
-169.8974074
0
LINE
8
0
10
198.1685749
20
-158.6300899
11
198.7226969
21
-158.9247218
0
LINE
8
0
10
198.1166233
20
-158.7277966
11
198.1685749
21
-158.6300899
0
ARC
8
0
10
150
20
-161.5
40
2
50
0
51
90
0
ARC
8
0
10
154
20
-168.5
40
2
50
180
51
270
0
ARC
8
0
10
209.4715639
20
-184.2334577
40
2
50
241.9999983
51
331.9999983
0
ARC
8
0
10
184
20
-152.0381032
40
2
50
180
51
251.9999994
0
ARC
8
0
10
180
20
-75.5
40
2
50
0
51
90
0
ARC
8
0
10
92
20
-75.5
40
2
50
90
51
180
0
ARC
8
0
10
88
20
-104.5
40
2
50
270
51
0
0
ARC
8
0
10
74
20
-108.5
40
2
50
90
51
180
0
ARC
8
0
10
74
20
-140.5
40
2
50
180
51
270
0
ARC
8
0
10
88
20
-144.5
40
2
50
0
51
90
0
ARC
8
0
10
92
20
-157.5
40
2
50
180
51
270
0
LINE
8
0
10
93
20
-157
11
107
21
-157
0
LINE
8
0
10
107
20
-157
11
107
21
-143
0
LINE
8
0
10
107
20
-143
11
93
21
-143
0
LINE
8
0
10
93
20
-143
11
93
21
-157
0
LINE
8
0
10
93
20
-140
11
107
21
-140
0
LINE
8
0
10
107
20
-140
11
107
21
-126
0
LINE
8
0
10
107
20
-126
11
93
21
-126
0
LINE
8
0
10
93
20
-126
11
93
21
-140
0
LINE
8
0
10
93
20
-123
11
107
21
-123
0
LINE
8
0
10
107
20
-123
11
107
21
-109
0
LINE
8
0
10
107
20
-109
11
93
21
-109
0
LINE
8
0
10
93
20
-109
11
93
21
-123
0
LINE
8
0
10
93
20
-106
11
107
21
-106
0
LINE
8
0
10
107
20
-106
11
107
21
-92
0
LINE
8
0
10
107
20
-92
11
93
21
-92
0
LINE
8
0
10
93
20
-92
11
93
21
-106
0
LINE
8
0
10
111
20
-145
11
125
21
-145
0
LINE
8
0
10
125
20
-145
11
125
21
-131
0
LINE
8
0
10
125
20
-131
11
111
21
-131
0
LINE
8
0
10
111
20
-131
11
111
21
-145
0
LINE
8
0
10
111
20
-128
11
125
21
-128
0
LINE
8
0
10
125
20
-128
11
125
21
-114
0
LINE
8
0
10
125
20
-114
11
111
21
-114
0
LINE
8
0
10
111
20
-114
11
111
21
-128
0
LINE
8
0
10
111
20
-111
11
125
21
-111
0
LINE
8
0
10
125
20
-111
11
125
21
-97
0
LINE
8
0
10
125
20
-97
11
111
21
-97
0
LINE
8
0
10
111
20
-97
11
111
21
-111
0
LINE
8
0
10
111
20
-94
11
125
21
-94
0
LINE
8
0
10
125
20
-94
11
125
21
-80
0
LINE
8
0
10
125
20
-80
11
111
21
-80
0
LINE
8
0
10
111
20
-80
11
111
21
-94
0
LINE
8
0
10
129
20
-141
11
143
21
-141
0
LINE
8
0
10
143
20
-141
11
143
21
-127
0
LINE
8
0
10
143
20
-127
11
129
21
-127
0
LINE
8
0
10
129
20
-127
11
129
21
-141
0
LINE
8
0
10
129
20
-124
11
143
21
-124
0
LINE
8
0
10
143
20
-124
11
143
21
-110
0
LINE
8
0
10
143
20
-110
11
129
21
-110
0
LINE
8
0
10
129
20
-110
11
129
21
-124
0
LINE
8
0
10
129
20
-107
11
143
21
-107
0
LINE
8
0
10
143
20
-107
11
143
21
-93
0
LINE
8
0
10
143
20
-93
11
129
21
-93
0
LINE
8
0
10
129
20
-93
11
129
21
-107
0
LINE
8
0
10
129
20
-90
11
143
21
-90
0
LINE
8
0
10
143
20
-90
11
143
21
-76
0
LINE
8
0
10
143
20
-76
11
129
21
-76
0
LINE
8
0
10
129
20
-76
11
129
21
-90
0
LINE
8
0
10
147
20
-149
11
161
21
-149
0
LINE
8
0
10
161
20
-149
11
161
21
-135
0
LINE
8
0
10
161
20
-135
11
147
21
-135
0
LINE
8
0
10
147
20
-135
11
147
21
-149
0
LINE
8
0
10
147
20
-132
11
161
21
-132
0
LINE
8
0
10
161
20
-132
11
161
21
-118
0
LINE
8
0
10
161
20
-118
11
147
21
-118
0
LINE
8
0
10
147
20
-118
11
147
21
-132
0
LINE
8
0
10
147
20
-115
11
161
21
-115
0
LINE
8
0
10
161
20
-115
11
161
21
-101
0
LINE
8
0
10
161
20
-101
11
147
21
-101
0
LINE
8
0
10
147
20
-101
11
147
21
-115
0
LINE
8
0
10
147
20
-98
11
161
21
-98
0
LINE
8
0
10
161
20
-98
11
161
21
-84
0
LINE
8
0
10
161
20
-84
11
147
21
-84
0
LINE
8
0
10
147
20
-84
11
147
21
-98
0
LINE
8
0
10
165
20
-151
11
179
21
-151
0
LINE
8
0
10
179
20
-151
11
179
21
-137
0
LINE
8
0
10
179
20
-137
11
165
21
-137
0
LINE
8
0
10
165
20
-137
11
165
21
-151
0
LINE
8
0
10
165
20
-134
11
179
21
-134
0
LINE
8
0
10
179
20
-134
11
179
21
-120
0
LINE
8
0
10
179
20
-120
11
165
21
-120
0
LINE
8
0
10
165
20
-120
11
165
21
-134
0
LINE
8
0
10
165
20
-117
11
179
21
-117
0
LINE
8
0
10
179
20
-117
11
179
21
-103
0
LINE
8
0
10
179
20
-103
11
165
21
-103
0
LINE
8
0
10
165
20
-103
11
165
21
-117
0
LINE
8
0
10
165
20
-100
11
179
21
-100
0
LINE
8
0
10
179
20
-100
11
179
21
-86
0
LINE
8
0
10
179
20
-86
11
165
21
-86
0
LINE
8
0
10
165
20
-86
11
165
21
-100
0
LINE
8
0
10
75
20
-140
11
89
21
-140
0
LINE
8
0
10
89
20
-140
11
89
21
-126
0
LINE
8
0
10
89
20
-126
11
75
21
-126
0
LINE
8
0
10
75
20
-126
11
75
21
-140
0
LINE
8
0
10
75
20
-123
11
89
21
-123
0
LINE
8
0
10
89
20
-123
11
89
21
-109
0
LINE
8
0
10
89
20
-109
11
75
21
-109
0
LINE
8
0
10
75
20
-109
11
75
21
-123
0
LINE
8
0
10
155
20
-168
11
169
21
-168
0
LINE
8
0
10
169
20
-168
11
169
21
-154
0
LINE
8
0
10
169
20
-154
11
155
21
-154
0
LINE
8
0
10
155
20
-154
11
155
21
-168
0
LINE
8
0
10
176.3733165
20
-169.642972
11
189.6881078
21
-173.9692099
0
LINE
8
0
10
189.6881078
20
-173.9692099
11
194.0143457
21
-160.6544186
0
LINE
8
0
10
194.0143457
20
-160.6544186
11
180.6995544
21
-156.3281807
0
LINE
8
0
10
180.6995544
20
-156.3281807
11
176.3733165
21
-169.642972
0
LINE
8
0
10
196.4620858
20
-176.7499104
11
208.8233521
21
-183.3225123
0
LINE
8
0
10
208.8233521
20
-183.3225123
11
215.395954
21
-170.961246
0
LINE
8
0
10
215.395954
20
-170.961246
11
203.0346877
21
-164.3886441
0
LINE
8
0
10
203.0346877
20
-164.3886441
11
196.4620858
21
-176.7499104
0
ENDSEC
0
EOF